<svg xmlns="http://www.w3.org/2000/svg" xmlns:xlink="http://www.w3.org/1999/xlink" viewBox="0 0 52 76" fill="#fff" fill-rule="evenodd" stroke="#000" stroke-linecap="round" stroke-linejoin="round"><use xlink:href="#h" x=".5" y=".5"/><defs><linearGradient id="A" x1="49.08%" y1="5.60%" x2="50.46%" y2="97.89%"><stop offset="0%" stop-color="#395b2b"/><stop offset="31.7%" stop-color="#375528"/><stop offset="74.3%" stop-color="#2c4323"/><stop offset="100%" stop-color="#24361e"/></linearGradient><linearGradient id="B" x1="54.67%" y1="39.74%" x2="43.98%" y2="81.28%"><stop offset="0%" stop-color="#395b2b"/><stop offset="42.2%" stop-color="#334d26"/><stop offset="100%" stop-color="#24361e"/></linearGradient><linearGradient id="C" x1="5.29%" y1="92.93%" x2="83.57%" y2="24.00%"><stop offset="0%" stop-color="#395b2b"/><stop offset="1.6%" stop-color="#3c5d2d"/><stop offset="35.1%" stop-color="#748c5c"/><stop offset="63.8%" stop-color="#9cad7f"/><stop offset="86.4%" stop-color="#b6c194"/><stop offset="100%" stop-color="#bfc99c"/></linearGradient><linearGradient id="D" x1="49.27%" y1="5.17%" x2="50.79%" y2="93.27%"><stop offset="0%" stop-color="#395b2b"/><stop offset="42.2%" stop-color="#334d26"/><stop offset="100%" stop-color="#24361e"/></linearGradient><linearGradient id="E" x1="49.75%" y1="9.51%" x2="50.42%" y2="110.96%"><stop offset="0%" stop-color="#bfc99c"/><stop offset="11.9%" stop-color="#a3b285"/><stop offset="30.2%" stop-color="#7d9365"/><stop offset="48.4%" stop-color="#5f7b4b"/><stop offset="66.3%" stop-color="#4b6938"/><stop offset="83.7%" stop-color="#3d5f2f"/><stop offset="100%" stop-color="#395b2b"/></linearGradient><linearGradient id="F" x1="48.21%" y1="-0.56%" x2="51.12%" y2="84.63%"><stop offset="0%" stop-color="#bfc99c"/><stop offset="11.9%" stop-color="#a3b285"/><stop offset="30.2%" stop-color="#7d9365"/><stop offset="48.4%" stop-color="#5f7b4b"/><stop offset="66.3%" stop-color="#4b6938"/><stop offset="83.7%" stop-color="#3d5f2f"/><stop offset="100%" stop-color="#395b2b"/></linearGradient><linearGradient id="G" x1="-0.00%" y1="50.00%" x2="100.00%" y2="50.00%"><stop offset="0%" stop-color="#211d12"/><stop offset="9.8%" stop-color="#2d281b"/><stop offset="28%" stop-color="#4f483b"/><stop offset="52.2%" stop-color="#867e6d"/><stop offset="54.8%" stop-color="#8b8372"/><stop offset="100%" stop-color="#211d12"/></linearGradient><linearGradient id="H" x1="63.90%" y1="6.64%" x2="44.93%" y2="69.46%"><stop offset="0%" stop-color="#bfc99c"/><stop offset="58.1%" stop-color="#92aa6b"/><stop offset="100%" stop-color="#76974c"/></linearGradient><linearGradient id="I" x1="50.29%" y1="-3.42%" x2="49.46%" y2="124.10%"><stop offset="0%" stop-color="#bfc99c"/><stop offset="6.4%" stop-color="#aab78a"/><stop offset="18.4%" stop-color="#879b6c"/><stop offset="31.1%" stop-color="#6a8455"/><stop offset="44.7%" stop-color="#557242"/><stop offset="59.4%" stop-color="#456534"/><stop offset="76.3%" stop-color="#3c5d2d"/><stop offset="100%" stop-color="#395b2b"/></linearGradient><linearGradient id="J" x1="-0.00%" y1="50.00%" x2="100.00%" y2="50.00%"><stop offset="0%" stop-color="#bfc99c"/><stop offset="58.1%" stop-color="#92aa6b"/><stop offset="100%" stop-color="#76974c"/></linearGradient><linearGradient id="K" x1="48.47%" y1="-5.74%" x2="51.15%" y2="91.58%"><stop offset="0%" stop-color="#bfc99c"/><stop offset="17.5%" stop-color="#a6b587"/><stop offset="74%" stop-color="#587345"/><stop offset="100%" stop-color="#395b2b"/></linearGradient><linearGradient id="L" x1="50.52%" y1="0.52%" x2="49.42%" y2="94.09%"><stop offset="0%" stop-color="#bfc99c"/><stop offset="5.7%" stop-color="#b5c093"/><stop offset="37.3%" stop-color="#809566"/><stop offset="64.7%" stop-color="#5a7646"/><stop offset="86.5%" stop-color="#426231"/><stop offset="100%" stop-color="#395b2b"/></linearGradient><linearGradient id="M" x1="56.79%" y1="-6.35%" x2="48.05%" y2="98.12%"><stop offset="0%" stop-color="#bfc99c"/><stop offset="58.1%" stop-color="#92aa6b"/><stop offset="100%" stop-color="#76974c"/></linearGradient><linearGradient id="N" x1="50.03%" y1="1.78%" x2="49.98%" y2="83.48%"><stop offset="0%" stop-color="#bfc99c"/><stop offset="58.1%" stop-color="#92aa6b"/><stop offset="100%" stop-color="#76974c"/></linearGradient><linearGradient id="O" x1="47.43%" y1="5.93%" x2="58.92%" y2="86.31%"><stop offset="0%" stop-color="#bfc99c"/><stop offset="2.2%" stop-color="#bac697"/><stop offset="16.5%" stop-color="#a3b67e"/><stop offset="32%" stop-color="#8ea868"/><stop offset="49.3%" stop-color="#819e58"/><stop offset="69.5%" stop-color="#78994f"/><stop offset="100%" stop-color="#76974c"/></linearGradient><linearGradient id="P" x1="48.63%" y1="7.97%" x2="51.46%" y2="105.35%"><stop offset="0%" stop-color="#bfc99c"/><stop offset="2.2%" stop-color="#bac697"/><stop offset="16.5%" stop-color="#a3b67e"/><stop offset="32%" stop-color="#8ea868"/><stop offset="49.3%" stop-color="#819e58"/><stop offset="69.5%" stop-color="#78994f"/><stop offset="100%" stop-color="#76974c"/></linearGradient><linearGradient id="Q" x1="49.37%" y1="-1.42%" x2="50.72%" y2="80.71%"><stop offset="0%" stop-color="#bfc99c"/><stop offset="11.9%" stop-color="#a3b285"/><stop offset="30.2%" stop-color="#7d9365"/><stop offset="48.4%" stop-color="#5f7b4b"/><stop offset="66.3%" stop-color="#4b6938"/><stop offset="83.7%" stop-color="#3d5f2f"/><stop offset="100%" stop-color="#395b2b"/></linearGradient><linearGradient id="R" x1="46.19%" y1="21.13%" x2="54.53%" y2="81.44%"><stop offset="0%" stop-color="#bfc99c"/><stop offset="5.7%" stop-color="#b5c093"/><stop offset="37.3%" stop-color="#809566"/><stop offset="64.7%" stop-color="#5a7646"/><stop offset="86.5%" stop-color="#426231"/><stop offset="100%" stop-color="#395b2b"/></linearGradient><linearGradient id="S" x1="36.61%" y1="12.40%" x2="57.52%" y2="78.76%"><stop offset="0%" stop-color="#bfc99c"/><stop offset="5.2%" stop-color="#b2bd90"/><stop offset="22.5%" stop-color="#869a6c"/><stop offset="39.3%" stop-color="#647f50"/><stop offset="55.2%" stop-color="#4d6b3c"/><stop offset="69.9%" stop-color="#3e5f2f"/><stop offset="82.2%" stop-color="#395b2b"/></linearGradient><linearGradient id="T" x1="54.77%" y1="2.49%" x2="45.26%" y2="84.96%"><stop offset="10.9%" stop-color="#bfc99c"/><stop offset="34.1%" stop-color="#94a678"/><stop offset="64.2%" stop-color="#647e4f"/><stop offset="87.2%" stop-color="#456534"/><stop offset="100%" stop-color="#395b2b"/></linearGradient><linearGradient id="U" x1="50.61%" y1="6.48%" x2="49.39%" y2="95.44%"><stop offset="0%" stop-color="#bfc99c"/><stop offset="36.8%" stop-color="#889c6e"/><stop offset="79.5%" stop-color="#506e3e"/><stop offset="100%" stop-color="#395b2b"/></linearGradient><linearGradient id="V" x1="48.57%" y1="6.56%" x2="49.78%" y2="58.65%"><stop offset="0%" stop-color="#bfc99c"/><stop offset="35.1%" stop-color="#a9ba84"/><stop offset="100%" stop-color="#76974c"/></linearGradient><linearGradient id="W" x1="50.37%" y1="14.39%" x2="49.30%" y2="78.93%"><stop offset="0%" stop-color="#bfc99c"/><stop offset="58.1%" stop-color="#92aa6b"/><stop offset="100%" stop-color="#76974c"/></linearGradient><linearGradient id="X" x1="56.03%" y1="10.86%" x2="49.88%" y2="85.75%"><stop offset="0%" stop-color="#bfc99c"/><stop offset="58.1%" stop-color="#92aa6b"/><stop offset="100%" stop-color="#76974c"/></linearGradient><linearGradient id="Y" x1="45.35%" y1="21.06%" x2="57.97%" y2="97.52%"><stop offset="0%" stop-color="#bfc99c"/><stop offset="36.8%" stop-color="#889c6e"/><stop offset="79.5%" stop-color="#506e3e"/><stop offset="100%" stop-color="#395b2b"/></linearGradient><linearGradient id="Z" x1="47.08%" y1="13.08%" x2="52.48%" y2="77.74%"><stop offset="0%" stop-color="#bfc99c"/><stop offset="36.8%" stop-color="#889c6e"/><stop offset="79.5%" stop-color="#506e3e"/><stop offset="100%" stop-color="#395b2b"/></linearGradient><linearGradient id="a" x1="83.34%" y1="100.09%" x2="13.56%" y2="0.55%"><stop offset="0%" stop-color="#76974c"/><stop offset="19.8%" stop-color="#7b9a51"/><stop offset="44.6%" stop-color="#89a461"/><stop offset="72.1%" stop-color="#a1b47a"/><stop offset="100%" stop-color="#bfc99c"/></linearGradient><linearGradient id="b" x1="49.56%" y1="2.94%" x2="50.04%" y2="58.56%"><stop offset="0%" stop-color="#bfc99c"/><stop offset="35.1%" stop-color="#a9ba84"/><stop offset="100%" stop-color="#76974c"/></linearGradient><linearGradient id="c" x1="53.89%" y1="5.73%" x2="45.80%" y2="94.00%"><stop offset="0%" stop-color="#bfc99c"/><stop offset="36.8%" stop-color="#889c6e"/><stop offset="79.5%" stop-color="#506e3e"/><stop offset="100%" stop-color="#395b2b"/></linearGradient><linearGradient id="d" x1="50.44%" y1="20.61%" x2="49.18%" y2="79.45%"><stop offset="0%" stop-color="#bfc99c"/><stop offset="19.4%" stop-color="#b8c494"/><stop offset="49.4%" stop-color="#a5b880"/><stop offset="86%" stop-color="#84a15a"/><stop offset="100%" stop-color="#76974c"/></linearGradient><linearGradient id="e" x1="47.90%" y1="13.93%" x2="52.70%" y2="114.75%"><stop offset="0%" stop-color="#bfc99c"/><stop offset="58.1%" stop-color="#92aa6b"/><stop offset="100%" stop-color="#76974c"/></linearGradient><linearGradient id="f" x1="49.73%" y1="8.36%" x2="50.23%" y2="75.94%"><stop offset="0%" stop-color="#bfc99c"/><stop offset="19.3%" stop-color="#b9c596"/><stop offset="46.1%" stop-color="#aaba85"/><stop offset="77.2%" stop-color="#8ea766"/><stop offset="100%" stop-color="#76974c"/></linearGradient><linearGradient id="g" x1="45.96%" y1="4.25%" x2="54.20%" y2="100.78%"><stop offset="0%" stop-color="#bfc99c"/><stop offset="22.1%" stop-color="#bbc698"/><stop offset="44.6%" stop-color="#b0bf8d"/><stop offset="67.3%" stop-color="#9fb378"/><stop offset="90%" stop-color="#85a15b"/><stop offset="100%" stop-color="#76974c"/></linearGradient></defs><symbol id="h" overflow="visible"><g stroke="none" fill-rule="nonzero"><path d="M24.489 32.088c-1.136-.568-2.342-.495-3.549-.851-.993-.283-1.846-.851-2.769-1.207-1.988-.851-4.188-2.768-5.678-4.259-1.278-1.349-3.054-2.91-2.271-5.039.283-.922 1.064-.852 1.632-1.42.639-.568.993-1.846 0-2.485.498-.993 2.2-.922 2.91-1.988.781-1.205.212-2.696.922-3.903.497-.78 1.49-.995 1.634-2.058.142-.922-.497-1.988-1.207-2.485-.78-.495-1.632-.141-2.414-.354-1.276-.356-.851-.995.214-1.349.851-.214 1.561-.214 2.342-.639.427-.285.568-.568 1.066-.568.781 0 1.703.781 2.13 1.136.212.212.283.566.283.851 1.632 0 .78-1.349.214-1.846-.427-.425-1.066-.639-.641-1.207.144-.212 1.28-.354 1.492-.283.495.283.781 2.485 1.703 1.349.851-.922-.922-1.773-.922-2.413-.071-.995 1.49-1.278 2.129-.924.354.214.071.71.639.924.639.283.922-.285 1.419-.497.639-.283 2.271-.851 1.844.425-.212.783-1.632.924-1.774 1.917-.071.995.639 1.561 1.49 1.278.71-.283.783-1.419 1.349-1.561.853-.214 1.419.71 1.349 1.42-.071.781-1.703 1.561-1.561 2.342s1.419 0 1.844-.354c.57-.639.57-1.349 1.632-1.207 2.698.427-1.349 3.195 0 4.827.57-.498 1.919-2.342 2.698-1.349.287.425-.354 2.2-.354 2.768 0 1.136.142 1.419-.354 2.413-.354.782-.924 1.704-.924 2.556 0 .427.141 1.561.283 2.059.287.851 1.136 1.278 1.848 1.988 2.057 2.2-1.706 3.761-3.338 4.898-2.127 1.561-2.698 2.839-3.547 5.039-.641 1.634-2.556 2.556-4.117 1.917" fill="url(#A)"/><path d="M21.207 35.445c-1.632-1.561-3.319-1.937-4.811-3.711-.71-.853-1.49-1.846-2.698-1.988-.922-.071-1.49.498-2.342-.142-.922-.568-.71-1.49-.993-2.415-.356-1.134-1.066-1.632-1.775-2.556-.497-.566-3.549-4.825-4.4-2.767-.498 1.134 1.349 2.059 1.419 3.052.283 1.632-.985.349-1.846.283s-.852 1.49-.212 2.273c.354.425.568.495.78.993.212.427.142.922.356 1.42.425.993.637.851 1.844.922 1.136.071 1.349.214 2.129.924 1.349 1.205 3.337.71 4.046 2.13.427.851.498 1.561 1.137 2.342.639.851 1.49 1.207 2.342 1.846 1.42 1.064 2.556 1.419 4.402 1.064 1.561-.283 2.483-1.773 1.064-3.122l-.442-.548z" fill="url(#B)"/><path d="M24.348 32.232c-.142-1.705-.639-3.409.498-4.756 1.205-1.419 2.271-1.634 3.761-2.344 1.561-.851 1.561-1.773 1.844-3.193.216-1.066 2.344-2.912 2.414-.853 1.207.071 1.278-.354 1.844-1.276.641-1.066.712-.783 1.99-.853 1.915-.071 1.49-1.632 2.627-2.768.779-.851 3.122-3.336 3.759-.851.216.71 0 1.349.216 1.988.283.851.496 1.49.071 2.485-.429-.144-1.919-1.137-2.273-.639-.425.495.425.639.566.851.358.495.429.639.499 1.349.425 4.046-2.697-2.414-3.051.354-.142.924.566 1.563.212 2.556-.354 1.136-1.137 1.561-2.131 2.058-2.698 1.42-4.683 3.761-7.523 4.827-1.634.639-3.336 1.49-5.112 1.137" fill="url(#C)"/><path d="M21.862 40.178c-1.064-.212-1.988-.425-2.981-.071-.993.287-1.705 1.066-2.627 1.349-2.129.641-3.122-1.278-4.898-1.703-.639-.142-1.988-.071-2.483.212-1.136.712-.144 1.632-.639 2.485-.853 1.49-3.62 1.136-5.041 1.066-.637-.071-1.561-.283-2.2-.142-1.278.283-.851 1.062-.354 1.986.354.711.781 1.844 1.205 2.343.568.779 1.988.354 1.634 1.561-.144.496-2.556 1.986-1.42 2.698.71.496 1.561-1.207 2.129-1.207.213 0 2.413.495 2.556.712.637.991-1.351 1.632.071 2.198 1.703.641 3.122-1.986 4.683-2.415 1.49-.354 3.124-.142 4.544-.566.851-.283 4.544-1.207 3.264.995-.495.849-5.11 2.41-2.554 3.476.781.358 1.776 0 2.554-.071.783-.142 2.556.142 3.195-.283 1.349-.712.995-3.405.995-4.754l-.214-5.254c-.071-.712-.071-1.419-.212-2.061-.212-1.207-.412-1.413-1.122-2.263l-.085-.293z" fill="url(#D)"/><path d="M6.601 43.517c-.71-.141-1.915.142-2.554-.141-.853-.358-1.278-1.349-2.129-1.777C1.135 41.174 0 40.89 0 39.824c0-.639.922-1.915 1.205-2.554.568-.995.924-.995 1.492.212.425.851.212 1.846 1.276 1.917 1.846.212 2.841-2.485 4.544-2.343.851.071 1.207.639 1.705 1.207.639.78.851.922 1.844 1.066.781.071 1.136 0 1.776.495.568.429 1.205 1.278.495 1.774-.141.075-1.49-.071-1.773-.071-1.066.145-1.42.429-2.2 1.207-.924.924-2.556 3.197-3.692 1.066l-.071-.283z" fill="url(#E)"/><path d="M24.701 41.745c.639-.853 2.982-1.349 3.976-.853 1.349.637-.922 2.485.995 2.127 1.915-.283 4.329-6.457 5.607-1.915.995-.354.995-1.137 2.269-.995 1.707.216.571.712.571 1.707.566-.071.779-.499 1.207-.783.779-.425.637-.071 1.49.071 1.207.142 1.066-.849 2.127-.849 1.136 0 1.561.991 1.207 1.844-.425.92-2.057 1.066-1.915 1.986.141.712 2.344 1.919-.142 2.131-.712.071-1.631-.425-2.343-.425-.425-.075-1.774-.146-1.986.212-.499.708 1.986.425.496 1.349-1.136.637-2.981-.499-4.117-.145.637.782.354 1.494-.853.853-.991-.566-.991-1.49-2.34-1.349-.783.071-1.99.496-2.556.995-.783.708-.568 1.066-1.776 1.136-1.773.071-3.122-.141-2.91-2.131.142-1.136 0-3.976.71-4.754l.283-.212z" fill="url(#F)"/><path d="M22.216 74.548c.197-.398.102-.92.148-1.361.063-.645.055-1.302.073-1.947.025-.845.328-1.577.366-2.414l-.002-2.222.039-6.209c.114-2.309-.134-4.613-.261-6.917l-.152-6.689-.143-2.859-.063-1.011-.771-7.393c-.002-.301-.049-.716.041-1.003.13-.413.317-.208.727-.157.315.038.639.03.962.045l1.37.069c.163 1.077-.008 2.241.151 3.34.153 1.048.167 2.055.22 3.124l.148 3.366.037 1.16c.067.712-.077 1.361-.075 2.072l-.183 7.298c-.088.905-.006 1.872.035 2.777l.112 1.207c.104.716-.006 1.49.004 2.214.012.853.049 1.711.173 2.56.212 1.471.061 3.043.116 4.53.047 1.301-.138 2.685.106 3.956.096.495.179.928.185 1.439.004.397.187.916-.199 1.097-.379.181-1.04.02-1.453.036-.558.015-1.237.401-1.75.035l.038-.145z" fill="url(#G)"/><path d="M22.572 55.016c-1.044-.087-1.272-1.428-2.527-.924-.442.177-.714.484-1.305.429-.472-.043-.838-.209-1.364-.197-1.288.024-1.349.621-1.921 1.455-.299.437-.743.31-1.03.672s-.057 1.086.472 1.062c.179.676-.22 1.38.863 1.199.289-.051.531-.369.836-.448.346-.095.775-.055 1.152-.055.71 0 2.246-.146 1.423.908-.442.566-1.286.735-1.272 1.569.686.153.464-.323.838-.523.45-.244.898-.055.794.594.647.039.881-.802.997-1.329.535-.228 1.044.157 1.608.051.026-.483-.118-1.294.382-1.352.397-.051 1.015.483 1.388.574.6-1.525-1.113-2.28-1.262-3.543" fill="url(#H)"/><path d="M10.222 51.323c2.554-.778 5.678-2.552 8.517-1.274-.071.142-.071.212-.142.354-.71-.142-1.917-.142-2.058.637.425.142 2.2.924 1.276 1.703-.851.783-1.42-1.203-2.342.071-.283.429.212.783-.427 1.207-.354.358-1.064.071-1.42.641-.425.637 0 1.561.071 2.269.073 1.919-1.561 2.343-3.264 1.777-.924-.287-1.49-.712-2.556-.853-.922-.141-1.703-.708-1.064-1.844.922-1.42 2.342-.641 2.129-2.627-.142-1.49 0-1.278 1.278-2.06" fill="url(#I)"/><path d="M2.412 55.585c.498-.712 1.634-1.777 2.485-1.919.71-.071 1.561.354 2.412.212 1.917-.212 3.124-2.481 4.898-1.066 2.202 1.636-.639 1.278-1.773 1.494s-1.136 1.062-2.2 1.562c-.783.354-1.419.212-2.273 0-.78-.213-1.276-.284-2.059-.142-.639.071-1.198.941-1.554-.054l.063-.087z" fill="url(#J)"/><path d="M27.283 53.539c-3.62.566-1.163-2.499-.027-3.848.853-1.066.853-1.561 1.986-1.207-.071 0 1.137.499 1.066.499.428.283.428.637.924.92.853.358 1.561-.283 2.269-.212.429.071.641.5 1.066.57.499 0 .995-.428 1.349-.711.641-.425 1.419-1.703 2.273-1.49 1.137.213.637 1.278.212 1.919-.354.566-.566.637-.854 1.203-.212.499-.071.924-.566 1.207-.637.5-2.556.142-3.335.142-2.202 0-3.976.641-6.107.924l-.256.085z" fill="url(#K)"/><path d="M24.916 54.52c1.632-1.707 3.337-3.051 5.751-3.197l6.103.075c.995 0 1.491-.075 2.269-.783.429-.283.712-.496.995-.995.283-.425.283-.995.5-1.42.566-.849 1.274-.637 2.127-.92 1.561-.429.995-1.207 1.844-2.132.358-.496 1.066-.641 1.494-.853l1.416-.849c.712.92-1.416 1.844-.354 1.915.853 0 1.278-.924 2.273-.566 1.137.354.853.779.283 1.278-.354.284-.708-.071-.924.496-.142.283.287.995.429 1.278.92 2.839-1.99-.071-3.052 1.49-.853 1.207 4.043 2.131 1.703 3.622-.641.354-1.632-.146-2.344.071-1.561.425-.849 1.278-.778 2.34.071.853-.5 2.202-1.636 1.707-.92-.429-.849-2.061-1.915-2.415-.995-.354-1.703.425-2.344 1.066-1.207 1.062-.991.991-.425 2.34.354.782.425 1.561-.712 1.349-.92-.212-1.561-1.632-2.34-2.199-1.778-1.278-4.188-2.91-6.532-1.632-1.064.566-1.561 1.632-2.981 1.561-1.49-.071-1.49-1.207-1.065-2.485l.214-.142z" fill="url(#L)"/><path d="M38.826 52.46c.995-.496 1.137-1.49 2.061-1.774.496-.212 1.561.071 2.057.071.712 0 1.561-.142 1.919.424.141.287-.212.924-.142 1.136.283.495 1.062.354 1.419.924.496.995-.429 1.278-1.136.924-.995-.358-1.136-1.278-2.344-1.207-.637.071-4.259 1.632-4.329.071 0-.287.108-.32.32-.461l.175-.109z" fill="url(#M)"/><path d="M33.399 54.645c.712-.212 1.526-.267 2.305-.267.995.071 1.986-.287 2.91-.287.782.075 1.207.429 1.778.853.708.496 1.49.712 1.274 1.844-.779 0-1.419-.495-2.269-.354-.712.071-1.207.212-1.919.141-1.632-.071-3.335-.354-4.188-1.844l.11-.087z" fill="url(#N)"/><path d="M6.232 47.326c.26.266-.483.591-.413 1.799.071 1.773-.427 1.844-1.561 3.122.922.354 2.059.141 2.627-.779.424-.641.142-1.707.566-2.415.639-.924 1.278-.283 2.202-.428 1.135-.141 1.347-.708 1.988-1.49.566-.778.639-.566 1.703-.778 1.207-.212.922-.425 1.49-1.42.356-.641 1.988-1.49 1.136-1.99-.639-.354-1.917.358-2.556.288-1.846-.142-2.627-1.278-4.33.283-.356.354-.356.637-.851.849-.285.142-.783-.141-1.137 0-.78.429-.427 1.207-1.207 1.494-.993.283-2.981-.995-3.478.496-.568 1.774 2.839.849 3.763.924l.057.046z" fill="url(#O)"/><path d="M8.245 43.055c-1.42-1.42-2.994.745-4.199-.533-.143-.212-.073-.566-.214-.779-.283-.287-.639-.358-.922-.57-.498-.283-1.988-1.278-.993-1.988.851-.566 1.561.922 1.986 1.209.568.284 1.278.142 1.917.284.851.141 1.349.495 2.059.92.427.287 2.059 1.707.497 1.565l-.131-.108z" fill="url(#P)"/><path d="M24.986 40.466c.851-.358 1.561.071 2.412.142.427.071.995.071 1.278-.283.283-.287-.071-1.066.142-1.209.995-1.064 1.848.922 2.414 1.209 1.632.92.708-.641.853-1.209.212-.993 2.056-.496 2.981-1.135.425-.356 1.49-1.634 2.198-.781.425.567-.779 2.2.641 2.412.991.071.637-1.846 2.056-.851.57.354.5 1.063 1.278 1.418.354-.495-.141-.849.071-1.276.425-.851.354-.283 1.066-.356 1.137-.071 2.127-.495 2.057-1.915-.708-.071-2.698.071-1.986-1.42.354-.782.995-.214 1.631-.497.5-.285.641-.851.854-1.42.142-.639.708-2.271.283-2.839-.712-.71-2.415.354-3.193.283 0-1.632-3.338-1.632-4.188-.71-.641.639-.287 1.988-.853 2.839-.283.427-.637 1.066-1.207 1.136-.779.071-.425-.354-.849-.639-.924-.781-1.207-.781-2.343-.071-1.42.781-.854.071-2.061-.427-1.278-.495-1.133.639-1.632 1.207-.566.781-1.065.093-2.129 0-3.876-.339-1.703 3.478-2.129 5.961l.356.429z" fill="url(#Q)"/><path d="M23.567 34.217c.86-1.648.561-4.597 2.768-4.683.71.781 1.703.639 2.413 0 .853-.782.712-1.492.853-2.485.071-.427-.071-1.064.425-1.278.783-.283.567.497.995.71.92.568 1.632.427 2.269-.495.287-.356.499-1.137.924-1.422.495-.354.853 0 1.419-.071 1.066-.071 1.278-.852 2.202-1.205.92-.285 1.774.142 1.632 1.135-.071.568-1.777 1.917-.495 2.129.637.071 1.774-1.278 1.986-1.773s-.071-.781.424-1.207c.425-.283 1.136 0 1.419-.283.57-.427.142-1.419.641-1.846.566-.639 1.632-.356 2.34-.497.216.639.071.995-.071 1.561l-.141 1.846c0 .212 0 1.066-.142 1.207-.425.498-1.137-.071-1.349.639.5.071 2.273.495 1.42 1.49-.496.498-1.915-.285-2.485.427-.283.425.212.993-.071 1.42-.071.071-1.42.639-1.561.71-.779.212-1.632-.143-2.411.071-1.353.283-.712.851-1.207 1.703-.641.851-1.565.498-2.343.427-.641-.071-1.561-.213-2.131-.071-.991.283-1.203 1.278-1.915 1.703-1.136.568-2.839.141-4.046.568-1.134.353-2.909.78-3.76-.427" fill="url(#R)"/><path d="M22.218 42.735c-.78-.708-1.632-.141-2.343-.071-.495.142-.142.354-.852.071-.568-.212-.568-.778-1.278-.708-.639 0-.568.425-.993.637s-.71.283-1.207.354c-.78.145-1.349 0-1.632.782-.214.708.639 1.561.142 2.344-.639.92-1.988.354-2.485 1.349-.141.283 0 .849-.071 1.132-.071.216-.637.924-.566.995.212 1.349 1.561-.283 1.844-.637 1.207-1.632 1.49.212 3.124 0 1.419-.283.922-2.061 2.2-2.556.993-.354 2.271 0 3.122-.566.71-.499 1.705-2.273 1.066-2.985" fill="url(#S)"/><path d="M16.681 40.108c-1.137-.425-2.769-3.335-4.188-2.696-.851.354-.142 1.561-1.42 1.419-.498-.071-.568-.427-.924-.639-.781-.354-.495-.141-1.276-.071-2.344.142-2.912-1.705-4.615-2.839-.71-.427-1.917-.924-2.059-1.846-.071-.781.639-1.278.427-2.2-.143-.427-.568-.851-.71-1.278.922-.354 1.844.285 2.271.995.497.781.212 1.135 1.49 1.135 1.066 0 1.349-.425 2.2.427.851.922.781 1.42 2.2 1.42.71 0 1.634-.283 2.273-.071.708.283 1.774.922 2.412 1.278 1.137.566.568 1.205 1.349 1.986.568.568 2.415.497 2.059 1.846-.142.498-.851.781-1.207 1.064l-.283.071z" fill="url(#T)"/><path d="M20.632 35.762c-.939-1.376-2.674.23-4.52-.906-.851-.566-1.278-1.703-2.129-2.413-.851-.78-1.776-1.349-2.91-1.705-.78-.283-2.129-.354-2.556-1.134-.71-1.137.568-1.349 1.066-2.129C11 25.273 6.956 24.139 7.239 22.08c.142-.71 1.207-1.846 1.988-1.705.71.142.283.356.71.71.568.497.568.497 1.42.639.995.143 1.632-.141 1.988 1.066.212.71-.071 1.561.141 2.271.285 1.137.781 1.561 1.846 1.632.71 0 1.917-.637 2.412-.141.498.427.144 1.634.427 2.2.356.924 1.349 1.492 2.271 1.634.639.071 1.491-.213 1.917.212.283.141.283.995.497 1.278.354.427.922.568 1.205 1.207 1.207 2.483-1.177 2.253-2.598 2.68 0 0-.644.255-.831 0z" fill="url(#U)"/><path d="M23.964 36.125c.757-.628 1.59.222 2.442-.061 1.064-.356.71-1.278 1.135-2.058.497-1.066 1.207-1.207 2.131-1.349 1.278-.212 1.42-.354 2.198-1.349 1.491-1.774 4.97-2.556 6.815-.851.782.639 1.278 1.632 2.061 2.342.354.427.849.212.637.995-.142.425-.566.637-.991.637-.924-.071-1.565-1.915-2.415-.495-.429.781.496 2.2-.641 2.554-1.207.356-2.269-1.703-3.334-2.059-.783-.283-2.344-.139-2.202.995-.637.142-1.278 0-1.844.283-.783.427-1.207 1.136-2.129 1.492-1.136.425-4.685 1.561-3.905-.995l.043-.081z" fill="url(#V)"/><path d="M23.496 47.847c-1.349-2.057-2.698 2.272-4.046-.567-.356-.711.071-.57-.639-.853-.498-.213-.71.495-1.207-.283-.639-1.137.427-1.491 1.136-2.061.495.782.425 1.99 1.632.924.993-.924.71-1.632 2.2-1.136.639.283.215.566 1.066.283.568-.142.781-.708 1.207-.92 1.064-.5 1.205.141 2.127.354.639.142 1.492-.071 2.058.071 1.066.212 1.49.071 2.627-.496.429-.287 1.561-.995 2.202-.57.708.425.425 1.989 0 2.627-.641.924-1.419.57-2.485.783-1.207.212-1.42 1.278-2.627 1.132-.993-.141-1.703-.778-2.698-.637-1.135.141-1.488 1.726-2.481 1.372l-.073-.023z" fill="url(#W)"/><path d="M20.869 40.891c0-.283.212-.637.425-.854.71.216 1.775 1.561 2.556.783.71-.924-.639-2.2-1.278-2.627-.922-.639-1.135-.568-1.773-1.561-.356-.639-1.066-1.563-1.988-1.278-1.066.354-.427 1.419-.78 2.059-.427.781-1.137.283-1.561 1.349-.285.78-.144 1.063-.783 1.634-.71.637-1.561 1.133.071 1.42 1.349.212 1.419-.853 2.344-1.207 1.064-.354 1.632.849 2.697.354l.071-.071z" fill="url(#X)"/><path d="M22.477 18.728c-.415-.38-1.032-.472-1.461-.773-.688-.655-.627-1.593-1.162-2.224-1.213-1.366-2.806-.739-2.611-3.075.11-1.245-.629-2.762-.674-4.031.006-2.127-2.697-2.54-1.695-3.262.857-.975 1.764-1.233 2.118.083.246.983.348 1.311 1.31 1.774.784.377 1.75-1.156 2.257.183.228.586-.34 1.209-.344 1.762-.008 1.101.138.651.916 1.241 1.984 1.483.287 2.802 1.034 4.648.411.93 1.247 1.135 1.492 2.118.116.806-.047 1.983-1.091 1.588l-.089-.031z" fill="url(#Y)"/><path d="M24.701 30.029c-.73.018-2.2-.495-2.91-1.278-.71-.637-.71-1.49-1.205-2.129-.497-.781-1.705-.851-2.485-1.491-.851-.71-.924-1.278-.924-2.342 0-2.556-1.986-1.705-3.264-3.195-.285-.354-.356-.851-.568-1.205-.425-.71-.142-.497-.851-.71-.851-.285-1.705-.073-2.627-.568-.356-.214-.781-.427-1.064-.71-.427-.427-.285-.568-.568-.995-.356-.639-1.349-1.278-1.349-2.129.071-1.064 1.064-.922 1.917-.639 1.064.356 1.134.851 1.205 1.846.71-.212 1.705.283 2.344.071 1.915-.639-.356-.922-.783-1.207-1.42-.993.497-.993.853-1.632.283-.71-.214-.639-.498-.71-.497-.141-.497.498-1.349.071-.427-.212-.78-.639-1.136-.851-.566-.285-1.349-.285-.993-1.066.283-.639 1.775-.71 2.342-.922 1.419-.71 3.549-1.42 4.756 0 .568.71.71 1.632 1.775 2.058 1.207.495 1.703-.285 2.342.993.212.356.142.853.497 1.136.283.283.993.071 1.42.498.851.71.425 1.278.283 2.2-.283 1.773-.212 4.188.853 5.678.637.922 1.702.568 2.271 1.42s.142 2.2 0 3.122c-.071.782-.456 1.808-.71 2.415s1.155 2.253.425 2.272z" fill="url(#Z)"/><path d="M17.043 24.247c-.354 0-4.302-.142-3.006-1.561.236-.285.885.283 1.18.071.529-.283.354-.71.47-1.207.177-.71.118-1.49 1.062-1.064.883.425.47 1.49 1.414 2.058s1.413-.285 2.298-.071c1.001.141.647.71.765 1.632.179 1.207.708 1.42 1.475 2.058.647.568 1.826 2.412.118 2.2-.708-.071-1.711-1.632-2.239-2.2-.531-.497-1.298-1.561-1.944-1.776-.767-.283-1.355.497-2.063.142" fill="url(#a)"/><path d="M17.043 24.239c-.814-.002-1.683-.093-2.458-.344-.328-.108-.853-.324-.794-.757.031-.224.236-.537.48-.523.277.016.558.258.84.195.299-.069.472-.354.513-.635.027-.175.026-.352.053-.527l.112-.543c.055-.289.122-.702.484-.732.411-.033.804.287.979.631.153.299.21.637.354.94a1.44 1.44 0 0 0 .757.712c.33.132.641.102.973-.006.375-.124.72-.257 1.123-.169.326.073.631.145.708.517.063.313.012.649.035.965a2.66 2.66 0 0 0 .301 1.062c.147.271.371.486.607.678.246.203.513.383.735.613a4 4 0 0 1 .515.673c.212.344.611 1.117.037 1.335-.271.102-.635.059-.887-.079-.297-.163-.541-.429-.765-.678l-1.341-1.588-.822-.891c-.256-.263-.537-.533-.875-.68-.311-.136-.626-.094-.94.004-.399.128-.783.305-1.194.112-.01-.006-.02.01-.008.014.319.151.631.088.952-.02.411-.14.792-.263 1.215-.081.372.161.672.49.946.777l.834.901c.505.5.887 1.117 1.375 1.634.401.421.877.777 1.488.602.444-.128.35-.627.214-.956-.189-.46-.513-.906-.885-1.237l-.816-.668c-.267-.254-.446-.562-.554-.912-.118-.389-.13-.788-.128-1.189 0-.21.01-.472-.128-.647-.175-.22-.501-.275-.763-.303-.35-.036-.661.084-.985.194-.431.145-.82.12-1.211-.126-.362-.226-.533-.6-.661-.991-.094-.289-.181-.582-.391-.81-.187-.204-.549-.389-.832-.346-.236.033-.336.234-.399.442-.092.311-.161.661-.198.983-.02.181-.018.364-.065.543-.055.212-.269.439-.496.468-.297.037-.57-.204-.869-.2-.189.004-.324.246-.393.397-.055.124-.069.271-.01.395.153.332.59.47.911.566.474.14.967.204 1.457.252l.869.051c.01 0 .01-.017 0-.017h0z" fill="#395b2b"/><path d="M13.42 26.556c.71-.78.776-1.921 1.983-1.707 1.136.142 1.49 1.419 2.556 1.703 1.064.212 1.632-.78 2.698-.78 1.703 0 1.49 1.136 1.986 2.2.356.924 1.066 1.563 1.776 2.129.71.497 1.49.781 1.278 1.776-.141.781-1.065 2.058-1.775 2.129-.78.071-2.483-.995-2.839-1.703-.212-.497 0-1.066-.283-1.492-.212-.566-1.349-1.703-1.917-1.844-1.066-.285-1.349.639-2.2.922-.427.142-1.137.142-1.563.071-.993-.071-2.766-.639-3.476-1.419-.924-.851-.498-.71.283-1.064.427-.214.568.142.922-.214.073-.071.592-.406.592-.477l-.019-.228z" fill="url(#b)"/><path d="M22.334 14.128c.792-.395.98-1.606.98-2.445 0-.643-.248-1.435.594-1.683 1.088-.297 1.929 1.732 2.572.098.297-.692.148-1.433.94-1.73.594-.199 1.235.199 1.828-.098 1.038-.545 1.982-1.831 2.82-2.523 1.042 1.237-1.286 1.483-1.534 2.422-.197.991.743.692.991 1.286.295.842-.594.94-1.137.743-.102.444.098 1.534-.2 1.831-.492.594-1.385-.199-1.978.049-.543.248-.692 1.237-.94 1.632-.297.544-.839 1.089-1.237 1.534-.84.989-2.076.495-3.264.79-.692.199-1.038.545-1.286-.295-.198-.545.049-1.386.692-1.534l.159-.077z" fill="url(#c)"/><path d="M27.538 22.761c.498-1.066.993-1.349.993-2.627-.071-.639 0-1.632-.425-2.2-.639-.781-1.705-.851-2.129-1.917-.568-1.561.637-3.761 2.413-3.62 1.207.071 3.763 2.768 4.258.142.212-1.064-.779-1.349.783-1.703s2.556.566 2.698-1.492c.071-.639-.287-1.561.354-2.059.283-.283 2.127-.425 2.556-.212 1.137.497.637 1.491.995 2.2.354.853 1.203.639 1.915 1.349.637.71 1.278 1.775.283 2.344-.496.354-1.632.071-2.198.142-2.843.427-.783 2.98-1.99 4.329-.354.427-2.127.639-2.698.781-1.278.356-1.207.497-1.986 1.419-.641.781-1.349.71-1.848 1.776-.566 1.135-.849 1.49-2.128 1.844l-1.846-.495z" fill="url(#d)"/><path d="M22.884 23.39c-2.727.234-.733-2.872 1.529-2.015.7.313.779.78 1.557.625.546-.079.859-.547 1.325-.857.938-.78 1.402-.936 2.495-1.014.468-.079 1.168.078 1.557-.155.625-.312.625-1.015 1.093-1.404 1.014-.702 1.793.078 2.65.623.621.468 1.946.702 2.182 1.17.621 1.325-1.015 1.325-1.872 1.247-1.404-.155-1.793-.7-2.729.702s-1.246 1.015-2.882 1.091c-2.183.079-4.444 2.027-6.547.079l-.359-.09z" fill="url(#e)"/><path d="M17.707 17.244c.079-1.168.389-1.87 1.638-1.87 1.091 0 1.715 1.091 2.65 1.168s1.325-.623 2.493-.545l2.806.234c1.559 0 2.184-.857 3.742-.781 1.636 0 3.35 1.249 1.015 1.717-1.793.389-2.029-.547-3.118 1.091-.311.468.157.545-.547.857-.623.234-1.091-.234-1.557-.389-1.091-.547-1.716-.936-2.963-.312-.857.389-1.793 1.636-2.65 1.091-.389-.313 0-.936-.389-1.17s-1.091 0-1.48 0c-.936.079-2.635.556-1.699-.925l.061-.167z" fill="url(#f)"/><path d="M23.44 11.148c-1.187-1.138-3.194-1.742-1.116-3.423.543-.444 1.335-.395 1.087-1.335-.199-.694-1.038-.989-1.433-1.485.295-.346.543-.149.889-.248.594-.147.496-.147.643-.842.199-.692.495-1.286 1.286-.891-.197.495-.741 1.239-.098 1.732.248.15.741.049 1.04.199a2.98 2.98 0 0 1 1.087 1.138c-.545.344-1.929-.051-1.73 1.087.098.395.741.741.889 1.136.198.299.495 1.139.297 1.485-.147.297-.542.346-.79.594-.346.346-.248.594-.395 1.04-.348 1.087-.942.592-1.485-.1l-.17-.089z" fill="url(#g)"/></g></symbol></svg>