<svg xmlns="http://www.w3.org/2000/svg" xmlns:xlink="http://www.w3.org/1999/xlink" viewBox="0 0 42 76" fill="#fff" fill-rule="evenodd" stroke="#000" stroke-linecap="round" stroke-linejoin="round"><use xlink:href="#V" x=".5" y=".5"/><defs><linearGradient id="A" y2="76.68%" x2="94.24%" y1="5.20%" x1="5.85%"><stop stop-color="#d1d587" offset=".6%"/><stop stop-color="#8b9164" offset="50.6%"/><stop stop-color="#7a7b55" offset="99.4%"/></linearGradient><linearGradient id="B" y2="75.54%" x2="97.09%" y1="19.56%" x1="17.71%"><stop stop-color="#d1d587" offset=".6%"/><stop stop-color="#8b9164" offset="50.6%"/><stop stop-color="#7a7b55" offset="99.4%"/></linearGradient><linearGradient id="C" y2="75.73%" x2="66.40%" y1="16.37%" x1="26.72%"><stop stop-color="#d1d587" offset=".6%"/><stop stop-color="#8b9164" offset="50.6%"/><stop stop-color="#7a7b55" offset="99.4%"/></linearGradient><linearGradient id="D" y2="94.47%" x2="70.15%" y1="0.86%" x1="33.77%"><stop stop-color="#d1d587" offset=".6%"/><stop stop-color="#8b9164" offset="50.6%"/><stop stop-color="#7a7b55" offset="99.4%"/></linearGradient><linearGradient id="E" y2="118.85%" x2="73.06%" y1="-6.51%" x1="21.44%"><stop stop-color="#d1d587" offset=".6%"/><stop stop-color="#8b9164" offset="50.6%"/><stop stop-color="#7a7b55" offset="99.4%"/></linearGradient><linearGradient id="F" y2="50.00%" x2="100.00%" y1="50.00%" x1="-0.01%"><stop stop-color="#250e17" offset="2.3%"/><stop stop-color="#29141a" offset="3.6%"/><stop stop-color="#3c2a27" offset="12.3%"/><stop stop-color="#4b3a2e" offset="21.6%"/><stop stop-color="#574633" offset="31.8%"/><stop stop-color="#614f36" offset="43.1%"/><stop stop-color="#665537" offset="56.7%"/><stop stop-color="#685638" offset="78.1%"/><stop stop-color="#baaf8c" offset="99.4%"/></linearGradient><linearGradient id="G" y2="50.00%" x2="99.97%" y1="50.00%" x1="-0.01%"><stop stop-color="#baaf8c" offset="8.4%"/><stop stop-color="#c6bb9c" offset="13%"/><stop stop-color="#d1c7ad" offset="19.4%"/><stop stop-color="#d9d0b9" offset="26.5%"/><stop stop-color="#ded5c1" offset="34.9%"/><stop stop-color="#e0d7c3" offset="48.3%"/><stop stop-color="#eae8ef" offset="100%"/></linearGradient><linearGradient id="H" y2="50.00%" x2="99.70%" y1="50.00%" x1="0.00%"><stop stop-color="#baaf8c" offset="8.4%"/><stop stop-color="#c6bb9c" offset="13%"/><stop stop-color="#d1c7ad" offset="19.4%"/><stop stop-color="#d9d0b9" offset="26.5%"/><stop stop-color="#ded5c1" offset="34.9%"/><stop stop-color="#e0d7c3" offset="48.3%"/></linearGradient><linearGradient id="I" y2="50.00%" x2="100.00%" y1="50.00%" x1="0.00%"><stop stop-color="#baaf8c" offset="5.1%"/><stop stop-color="#a89b79" offset="11.1%"/><stop stop-color="#8f805f" offset="23.6%"/><stop stop-color="#7d6c4d" offset="37.4%"/><stop stop-color="#716041" offset="52.7%"/><stop stop-color="#6a583a" offset="71.1%"/><stop stop-color="#685638" offset="100%"/></linearGradient><linearGradient id="J" y2="50.00%" x2="100.00%" y1="50.00%" x1="-0.00%"><stop stop-color="#baaf8c" offset="5.1%"/><stop stop-color="#a89b79" offset="11.1%"/><stop stop-color="#8f805f" offset="23.6%"/><stop stop-color="#7d6c4d" offset="37.4%"/><stop stop-color="#716041" offset="52.7%"/><stop stop-color="#6a583a" offset="71.1%"/><stop stop-color="#685638" offset="100%"/></linearGradient><linearGradient id="K" y2="50.00%" x2="100.00%" y1="50.00%" x1="0.00%"><stop stop-color="#baaf8c" offset="3.9%"/><stop stop-color="#c6bb9c" offset="9.1%"/><stop stop-color="#d1c7ad" offset="16.1%"/><stop stop-color="#d9d0b9" offset="24%"/><stop stop-color="#ded5c1" offset="33.4%"/><stop stop-color="#e0d7c3" offset="48.3%"/><stop stop-color="#eae8ef" offset="100%"/></linearGradient><linearGradient id="L" y2="91.25%" x2="82.36%" y1="23.64%" x1="6.28%"><stop stop-color="#d1d587" offset="5.1%"/><stop stop-color="#8b9164" offset="100%"/></linearGradient><linearGradient id="M" y2="82.58%" x2="84.97%" y1="30.13%" x1="18.92%"><stop stop-color="#d1d587" offset="5.1%"/><stop stop-color="#8b9164" offset="100%"/></linearGradient><linearGradient id="N" y2="50.00%" x2="100.00%" y1="50.00%" x1="-0.00%"><stop stop-color="#d1d587" offset="1.1%"/><stop stop-color="#c3c65f" offset="100%"/></linearGradient><linearGradient id="O" y2="50.01%" x2="100.00%" y1="50.01%" x1="0.01%"><stop stop-color="#d1d587" offset="1.1%"/><stop stop-color="#c3c65f" offset="100%"/></linearGradient><linearGradient id="P" y2="49.99%" x2="100.01%" y1="49.99%" x1="-0.00%"><stop stop-color="#d1d587" offset="1.1%"/><stop stop-color="#c3c65f" offset="100%"/></linearGradient><linearGradient id="Q" y2="99.21%" x2="90.46%" y1="11.20%" x1="6.39%"><stop stop-color="#d1d587" offset="5.1%"/><stop stop-color="#8b9164" offset="100%"/></linearGradient><linearGradient id="R" y2="50.00%" x2="100.01%" y1="50.00%" x1="0.00%"><stop stop-color="#8b9164" offset=".6%"/><stop stop-color="#d1d587" offset="100%"/></linearGradient><linearGradient id="S" y2="86.64%" x2="105.77%" y1="29.45%" x1="12.13%"><stop stop-color="#d1d587" offset="5.1%"/><stop stop-color="#8b9164" offset="100%"/></linearGradient><linearGradient id="T" y2="50.00%" x2="99.99%" y1="50.00%" x1="-0.00%"><stop stop-color="#d1d587" offset=".6%"/><stop stop-color="#8b9164" offset="50.6%"/><stop stop-color="#7a7b55" offset="99.4%"/></linearGradient><linearGradient id="U" y2="50.00%" x2="99.99%" y1="50.00%" x1="-0.00%"><stop stop-color="#d1d587" offset="1.1%"/><stop stop-color="#c3c65f" offset="100%"/></linearGradient></defs><symbol id="V" overflow="visible"><g stroke="none" fill-rule="nonzero"><path d="M24.842 27.435c-.433-.986-1.296-.307-1.481.371-.246.987.433 1.603-.802 1.912-.801.185-1.971 0-2.711.062-.246.058-.804.43-1.049.058-.308-.49.494-.739.494-1.109-.06-1.355-3.206-.924-3.576.248-.06.307-.185.925.124 1.172.184.122.679-.369 1.048-.185 1.049.37.432 1.849 1.293 2.342.68.371 1.421-.616 2.099-.064.555.373.431 1.727.677 2.222.492.986.739.308 1.602.432.926.06 1.605.863 1.729 1.726.06.492-.064 1.787.984 1.11.37-.247.124-.863.493-1.047.37-.247 1.112.185 1.541.307.74.245 2.099.74 1.666-.741-.246-.8-1.417-1.049-1.85-1.787-.121-.37-.43-.557.064-.864.614-.371.492.184.861.247.616 0 1.173-.123 1.79-.062.493.062 1.479.68 1.109-.492-.185-.616-.986-.616-1.417-.864.371-.368 1.292-.368.738-1.295-.367-.679-.861-.433-1.479-.185-.863.37-.678.678-1.542.061-.245-.185-.245-.431-.615-.616-.247-.123-.742.122-.988 0-1.604-.556.556-.677.988-1.172.37-.43.431-1.17.061-1.541-.618-.554-1.296.124-1.913-.307" fill="url(#A)" opacity=".7"/><path d="M18.862 42.356c-.432.186-.184.371-.371.74 0-.06-.43.802-.43.68-.062.369-.185.307.06.616.494.492.556-.122.678-.247.372-.184.372-.678 1.173-.493.802.309.37.678.617 1.294.185.617.06.677.802.677.678 0 1.295-.309 1.726-.8 1.543-1.603-1.357-.801-2.033-.986.184-.927 3.637-1.172 1.91-2.53-.986-.737-1.234.307-2.096.494-.431.062-.74-.307-1.234-.186-.308.064-.184.68-.863.68" fill="url(#B)" opacity=".7"/><path d="M19.232 41.371c-1.051-.37-1.357.308-2.219.617-.927.246-1.976-.309-1.112 1.048-1.417-.061-.43 1.479-1.665 1.603s-.924-.987-1.049-1.727c.495-.432-.121-.8-.184-1.232.864.06.864-.678 1.481-1.048.678-.494 1.356-.369 1.417-1.543.06-.554-.738-1.417-.43-1.973.554-.925 1.049.618 1.542.677.184-.554-.619-1.106-.372-1.602.309-.491 1.173-.184 1.604-.307.863-.184.863-.68 1.79-.122.554.307 1.048.925.802 1.602-.062.184-.802.925-.987 1.048-.37.186-1.667-.061-1.479.678.121.309 1.293.432 1.541 1.049.43.801.123 1.233-.867 1.17" fill="url(#C)" opacity=".9"/><path d="M33.844 7.583c-.185-.616.555-.74 1.11-.616.248-.494-.185-.494-.37-.925-.06-.187-.37-.123-.37-.246-.122-.188.123-.433.063-.678-.125-.433.307-.68-.372-.925-.615-.187-.615.369-.925.43-1.111.184-.432-.677-1.234-1.234-.863-.614-1.107.371-1.662.68-1.296.739-3.082-.862-2.098-2.281.124-.123-.06-.309.124-.492.06-.062.493.06.553 0 .187-.187.681-.311.063-.68-.494-.308-2.034.309-2.467.493-.246-.371-.37-.801-.738-1.11-.125.309-.125.739-.433.925-.246.125-.679-.125-.924 0-.743.309-.925.863-.433 1.479-.492.124-1.107-.062-1.54.124-.495.185-1.234.987-.926 1.602.371.678 3.144-.43 2.774 1.479-.184.864-.862.062-1.541.124-1.294.123-.987.678-1.357-.614-.307-.863-.8-.74-1.171-1.419-.254-.465.044-1.114-.293-1.516-.204-.244-.565-.177-.781-.373-.251-.229-.379-.742-.353-1.064-.89-.039-1.549.12-2.397-.13-.246-.072-.86-.603-1.156-.236-.112.138.05.931.038 1.151-.359.015-.814-.081-1.161.01-.406.1-.37.359-.692.538-.361.2-1.452.193-.838.995.476-.091 1.124-.232 1.581.018.143.636-.219.651-.732.727-.639.093-.658.155-1.044.497-.139.121-.291.203-.433.306-.118.088-.371.001-.447.231-.117.349.624.436.824.732-.613-.154-1.914.592-1.177 1.305.261.254 2.929.096 3.093-.286.258.151.518.441.724.656-.579-.022-1.612.257-1.784.814-.174.563.194.666-.546.806-.477.088-.979-.113-.989.535.202.147.942.874.921 1.065-.047.408-.702.247-1.036.247-.379 0-1.091.181-1.061-.37.022-.375.441-.374.731-.441.065-.971-1.614-.606-2.272-.606-1.057-.002-1.13.46-1.182 1.408-.749.037-1.514-.021-2.261.018.028.363.175.709.296 1.04.252.669.277.382.863.736.702.425.315.807.554 1.422.268.689 1.271.646 1.902.873.317.821.356 1.614 1.431 1.595.378-.006.759-.234 1.096-.266.62-.058.574.334 1.185.575.516.206.817.064 1.34-.02.517-.081 1.116.181 1.497-.11.22-.17.603-.721.615-.984s-.275-.53-.294-.793c.504.271.202 1.286.29 1.777.087.476.271 1.739.574 2.08.969-.315.475-1.997 1.699-1.944.299.677.397.925.443 1.657.031.522.268 1.343.817 1.589.321.144.368.082.675-.033.271-.099.379-.333.587-.402.428-.138.565.035.897-.217a1.13 1.13 0 0 0 .357-.493c.548-.166.808-.295 1.413-.247-.011.055-.038.109-.05.161.843.269 1.261.543 2.202.495.103-.527.692-.831.814-1.409.159-.76.038-.782.754-1.245.248-.161.422-.404.663-.541.437-.247 1.102-.263 1.343-.755.266-.546-.032-.954.441-1.463.501-.546 1.088-.804 1.763-1.161.225-.119.647-.341.77-.565.12-.215-.013-.547.135-.806.15-.264.471-.312.636-.508.181-.215.109-.403.224-.65.052-.113.25-.359.343-.446.225-.211.871-.253.993-.428.145-.029.224-.755.145-.918-.159-.327-.693-.343-.813-.746z" fill="url(#D)" opacity=".9"/><path d="M17.814 28.176c1.048-.678 1.108.122 1.294.925.246.925.309 1.049 1.357 1.11.493 0 1.293.062 1.787-.123 1.17-.43.557-.739.372-1.541-.249-1.235.491-2.282-.494-3.145-.555-.495-1.112-1.111-1.726-1.542-.865-.68-1.172-.495-1.605-1.603-.184-.37-.122-.495-.308-.863-.185-.248-.615-.248-.739-.495.247-.123.554-.368.679-.616-.185-.062-.432-.37-.616-.43.801-.617 1.418-.555.616-1.541-.37-.371-.493-.124-.741-.74-.182-.496.125-.74-.245-1.173-.309-.308-1.603-1.108-2.034-1.231-.494-.185-1.664-.124-2.222-.062-.491.062-.554 0-.922.37-.372.309-.249.739-.494 1.047-.987 1.11-.987-1.047-1.911-.616-.308.123.062.863-.432 1.048-.618.248-.369-.432-.429-.741-.065-.49-.496-2.404-1.297-1.17-.062-.494-.554-1.481-1.296-1.111-.8.371 0 1.296-1.293 1.173-.801-.062-1.295-.865-2.034-.925-1.357-.185-.618.803-.987 1.543.247.06.927-.064 1.049.06.614.739-1.049.552-1.295.615-.617.247-2.158 1.665-1.789 2.343s.925-.247 1.418-.061c.37.123.676 1.048.616 1.355 0 .124-.493.371-.554.618-.062.184 0 .554 0 .802-.125.554-.493 1.17-.371 1.724.802.185.616-.799 1.11-1.108.125-.124.433 0 .619-.063s.615-.369.799-.369c1.234-.311 1.42.985 2.713 1.108-.245.616-.984.678-1.357 1.049-.122.183-.122.492-.245.616-.185.307-.553.37-.739.555-.556.678-.186.924-.247 1.603-.063.492-.37 1.171-.432 1.664.926.37.74-.678.987-1.172.308-.492.926-.801.864-1.417.432.739-.309 1.294.556 1.479 1.048.247.987-.678 1.17-1.356.061-.431.309-.741.491-.986 0 .06.681-.804.681-.864.431-.06.676.309.493.801-.184.432-.987.063-1.049.802s1.111.68 1.605.863c1.172.432.616 1.234 1.541 1.665.309.123.619-.062.924.123.185.122.494.741.865.987.431.186.74.247 1.17.247l.308-.371c.185 0 .43.311.616.184.247-.123.247-.554.494-.739.309-.123.861-.062 1.173-.123.246-.064.368-.309.801-.371.247 0 .494 0 .677.062" fill="url(#E)" opacity=".9"/><path d="M22.745 74.172l.308-.122.247.06.246.061.309.064.309.121-.309-.37-.06-.308-.124-.186h.369l-.369-.369-.432-.369-.37-.185-.021-.309-.081-.494v-.287l-.042-.331-.041-.328v-1.932l-.042-.411-.042-.532v-.903l.084-.535.041-.659.122-.573.125-.534.08-.452.044-.453.122-.618.081-.576.083-.532-.04-.576V58.86l.079-.742-.079-.656-.043-.822-.122-.863-.126-.576V53.97l.044-.494.082-.576.041-.494.203-.494.208-.576.245-.491.165-.576.083-.576.286-.656.249-.535.285-.576.165-.697.084-.494.038-.739.33-.577.165-.823.081-.657.042-.533.122-.699-.039-.37-.083-.289-.042-.533v-.371l.042-.492v-.246l-.247-2.056-.164-.535-.041-.328v-.248l-.041-.245-.246-.576v-.534l-.081-.452-.329-1.974-.041-.533-.619-3.084.083-.78.081-.74.166-.656.164-.535-.083-.452v-.369l.083-.288.286-.165.372-.41.329-.412.45-.369.288-.247.329-.124.658.041.575.083.41.043.412-.084.78-.287.412-.124.369-.164h-1.15l-.206.164-.37.083-.453.081-1.274-.164.206-.822.122-.369.905-.946-.082-.124-.247.041-.904.741-.122.697-.29.578-.534.573.288-1.191.289-.987.618-.987.861-1.027-.985.78.203-1.766-.203-.164-.246 2.217-.372.659-.452.985-.206 1.11-.205.576-.166.368-.287.29-.285.246h-.207v-.454l-.124-.616-.287-.494-.165-.616.248-.45.369-.413v-.369l-.327.369-.207.288-.247.164-.164-.205-.124-.247-.122-.411-.163.205.041.371.244.492.083.288.041.288v.205l.164.41.165.329.165.249v.326l.042.454v1.151l-.084.409-.123.371-.165.328v-.778l-.039-.454-.125-.328v-.288l-.203-.33-.124-.328V23.84l-.122-.699-.044-.452.126-1.4.368-.245.742-.574-1.111.411-.041-1.027.082-.659.247-.452.039-.492.246-.618.413-.451-.494.206-.041-.659-.208 1.029-.122.412-.042.326s-.08.206-.162.33-.206.205-.206.205l-.124-1.603.165-.493.08-.535-.203-.162-.249-.207v1.028l-.121.534.041.37.08.247.041.451.084.618.041.288v1.355l-.083.536.042.533v1.191l.082.413.081.411.043.411-.043.697-.039.496.328.699.121.41v.411l.042.452.083.533v1.726l.122.823.166.78.286.619v.82l.082.782.164.452.043.369.08.616-.038.659v.451l.082.452.039.412.207.206.082.328-.041.492v1.153l.162 1.356.041.451v.74l.125.411.122.329-.165.452-.165.452-.038.33-.041.369-.041.164-.207-.328-.124-.371v-.288l-.08-.575-.043-.452v-.78l-.122-2.672-.125-.781-.206-.37.206-.371.041-.286-.08-.247.122-.576v-.37l-.33-.287-.41-.658-.288-.536-.121-.492v-.699l-.535-3.781-.082-.659.042-.533v-.37l-.206-.494-.082-.245-.085-.371-.327-2.055-.082-.741-.084-.616v-1.193l-.162-.656v-.412l.162-.617v-.905l.125-.654.246-.537.288-1.315-.494 1.07-.166.368-.206.33v1.315l-.081.413-.124.205-.164-.576-.04-.575v-.371l.04-.904.042-.411-.247-.041v.657l-.04.411v.452l-.083.164-.329-.245-.329-.371-.699-.697-.821-1.439-.166-.042.37.823.122.494.453.573.658.699.288.248.286.288.206.287.042.535.163.492.082.29.124.45v.782l-.039.702.164.699.083.533v.492l.164.906.081.657.125.492.041.618.081 1.151.043.494.575 3.451.124.535-.043.328.043.454.203.492.249.369.206.124.122.328h-.328l-.331-.164-.245-.123-.329-.286-.29-.412-.081-.328v-.454l.042-.741v-.245l-1.439-2.425-.451-.412v-.492l.081-.577v-.821l.123-4.273.041-.659.166-.286.246-.207.37-.452.124-.328-.166-.249-.081.33-.288.328-.204.124-.247.207-.082-.535.041-.33-.122-.371-.207-.164v-.615l.124-.535.083-.411.163-1.275v-2.672l-.163-.288-.083-.164-.124.328.166.331-.041.574v.535l.041.615-.041.454-.33 1.396-.041.454-.123.04-.41-.164-.369-.33.369.494.246.205.206.245.041.331-.041.492-.37-.041h-.371l-.328-.247-.576-.286-.739-.289.698.536.29.039.204.042.452.495h.7l.082.287.082.164v.328l.041.412.04.493v.78l-.082.452-.122.166.122 2.877v.45l-.041.452v.411l-.041.329v.411l.123.618.164.288.247.245 1.314 2.59-.04.245v.413l-.082.492.122.454.412.287.329.371.41.329.411.163.368.288.126.411v1.605l-.082.164-.288.328.288.369.203.124.122.494.167.369-.042.905v1.931l.042.494.082.452.204.575.043.369.039.577-.039.452-.123.452-.043.49-.122.455-.164.286-.208.37v.166l-.286.166-.288-.494-.289-.452-.247-.452-.206-.576v-.411l.206-.781.043-.452.082-.699-.125-.863-.163-.454-.246-.575-.165-.452-.206.289.124.328.203.248.125.699.041.37v.616l-.041.494-.082.37-.124.329-.122.082-.371-.411-.122-.248-.164-1.15v-.658l-.085-.74-.081-.739v-1.315l.123-1.438-.205-.701.205-.574.165-.617.286-.659-.039-.657v-.328l-.166-.245-.204-.165v.494l-.124.245-.205-.124-.165-.409v-.452l-.163-.042-.247-.207.165-.533c.041-.124.123-.451.123-.451l-.329.163-.205.207-.206.081-.206-.575-.082-.33-.288-.369-.123-.699-.33-1.726-.206-.616-.082-.288v-.739L18 27.995l-.123-.823c0-.122-.124-.74-.124-.74l-.369-1.23-.863-1.151.574 1.109.37.904-.781-.328.863.618.127.78.039.577v.328l.165.205-.041.37v.328l-.083.413.083.369.041.204v.412l-.412-.124-.37-.246-.246-.208-.245-.326-.082-.371-.043-.451-.082-.165-.245-.206-.082-.452-.084-.328-.082-.37-.164-.371-.039.411v.738l.079.29.29.247.082.287.039.206.041.328-.453-.328-.367-.287-.372-.617-.327-.411-.658-.946-.37-.658-.452-.658-.37-.657-.328-.699-.207-.617-.206-1.357-.288-.863-.905-1.357.618 1.273.494 1.151v.946l.122.411.494 1.234-.575-.207-.329-.78.082.616-1.395-.165.984.29.247.205h.371l.287.287.289.044.41.369.412.698.37.658.37.493.369.574.331.495.37.492.452.37.286.166.37.368.329.371.453.371.536.288.367.369.289.699.206.863.329.821.37.494.041.37.329.412.246.328.123.412.206.205.122.245v.411l-.451 1.028-.081.328-.083.371v.74l.123.245.041.288v.371l-.081.449v.701l.081.413-.041.369v.658l.041.369-.041.247-.288-.452-.123-.329.04-.574-.04-.204-.37-.248-.33-.041-.493-.288-.287-.081-.741-.245-.494-.291-.409-.163-.372-.286-.573-.617.04-.617.163-.33v-.904l-.409-.533-.37-.164-.331-.043h-.697l-.494-.04h-.411l-1.356.083-.822-.043-.452-.081-.658-.494-.454-.328-.616-.122-.575-.083h-.246l-1.686 1.562-.49 1.027.655-.904 1.605-1.439.45.043.411.041.371.122 1.232.904.288.042h1.027l.453.041h.616l.494-.083h.903l.37.042.37.041.206.245.163.369v.246l-.163.247-.454-.699-.164-.206v.289l.413.864.122.245v.33l-.081.368.124.331.37.367.286.249.411.33.33.286.451.206.452.164.368.124.494.205.373.042.286.164.083.286v.206l.04.248.124.411.206.288.37.328.165.411.287.247.124.33v.616l.123.492.122.248.041.248-.041.739v.697l.082.328.246.373.041.493.039.246.125.207v1.025l-.04.577v.369l.04.37v.248l-.206.042-.123.286v.207l.041.286.163.286.125.497.042.407.083.452-.045 1.103v2.137l.042.987v1.52l.041 1.318-.041.45-.042.374.042.37v.327l-.207.536-.205.779-.206.701-.082.411v.41l-.081.329-.123.493v.453l-.165.286-.082.331v.205l-.041.41.123.452v2.344l.082.327-.041.577v.904l-.041.327-.246.166h-.33l-.288.042-.411.041.206.203.183.061.248.125h.309v.247l-.309.124-.308.185-.43.245-.433.06.06.249.373.06h.368l.432-.245.308-.125.249-.184.245-.124.248-.061h.678l.246.185.247.06.308.124.309.185.247-.249.302-.249z" fill="url(#F)"/><g fill="url(#G)"><path d="M20.793 70.411l-.205-.084-.123-.203v-.286l.082-.331.041-.246h-.247l-.163.125v.739l.204.328.165.204.041.331-.082.328.041.369.164.328.039.29-.039.452.039.121.29-.287.165-.162.164-.414-.082-.328.082-.204.041-.29.247.125v.206l-.123.162.041.207v.286l.205.125.083-.249.041-.37h.164v-.327-.287-.331l-.164-.245-.124.163.042.331-.206-.042-.206-.207-.122-.327.122-.167.206-.245v-.534l.124-.287-.33-.165v.699l-.082.329-.164-.166-.082-.203-.126-.407-.165.125v.327l.124.205-.124.493z"/><path d="M22.355 63.301l.124-.328.041.452v.452l.164.163.124.249-.083.244-.246.124-.247.125v.121l.163.124.246-.079-.042.287-.08.41-.125.327-.081.246.081.33-.163.452.083.37v1.398l-.167.122.125.125.082.247v.577l-.288.08-.125.165.043-.493-.043-.411-.246-.29-.287-.162-.122-.414v-.329l-.083-.285-.123-.287.082-.494.206-.286.327-.208.29-.245-.246-.331-.29-.162-.245.162-.042.331h-.082s-.041-.41-.082-.534-.042-.368-.042-.368l-.122-.249.246-.494.123-.286.083-.411.206.535v.328l-.206.166v.244l.206.126.164.162.082.249.203.042s.125-.125.125-.249.081-.37.081-.37l-.162-.248-.206-.37v-.328l.206-.245.123-.414.248-.163z"/></g><path d="M20.751 67.536l-.163.246-.123.204-.207.084.082.244v.249l-.082.286.289-.204.204-.204v-.415z" fill="url(#H)"/><path d="M21.821 62.603l-.206.082v.204l.247.166v.162h-.369s-.206-.162-.33 0l-.123.166.165-.452.205-.414.083-.329.041-.452.246-.203v-.246l-.205-.207.453-.124-.288-.246.575-.166-.658-.121-.247-.249-.041-.331.37-.245.203-.452-.122-.246-.287-.206.658-.204-.534-.166-.247-.041.206-.287-.122-.248-.249-.121.083-.331.369-.038.207-.083.37-.084.206.042.287.042.206.162.08.372v1.354l-.08.207-.658.082.738.166v.163l-1.025.161-.042.124h1.026l.041.166v.614l.084.249v.206l-.04.407.04.207v.166l-.04.327v.291l-.044.37-.121.37-.084.41-.122-.698.122-.414-.163-.124-.125.124-.08.331-.247-.124-.413-.247z" fill="url(#G)"/><path d="M22.48 62.189l-.166-.244v-.29l.286-.121.042.163z" fill="url(#I)"/><path d="M21.943 67l-.247.163-.039.452v.29l.123.37.042.202.121.166.124-.286.042-.373v-.37-.246z" fill="url(#J)"/><path d="M22.973 56.148l.039.412v.204l-.286.082h-.331l-.409-.04-.082.123-.329.042h-.165l-.04-.328.41-.042.124-.124-.247-.12-.207-.042-.123-.248.042-.37.04-.41-.04-.166-.082-.286.163-.287.207-.207-.207-.124-.207-.368v-.454l.126-.368.326-.287.126-.248-.328-.082-.207-.204-.043-.37.166-.248.165-.78-.165-.452v-.494-.576l.04-.492-.287-.329-.205-.741-.247-.204.329-.37-.205-.163-.084-.413.042-.412-.082-.286-.205-.41.165-.287-.082-.578-.04-.82-.166-.576.042-.452.042-.41-.124-.576.289.822v.287l.081 1.314.082.659.207.494.123.494.04.493.331.286.286.701.248.575v.452l.163.699v.287l-.248-.204v.452l.248.121.04.37-.084.575-.12.494-.207.124v.245l.165.248.205-.166.165-.41.165-.286.37-.126-.082-.286-.042-.331.124-.082.082-.288.326-.124-.081-.204.124-.328h.287l-.042-.415.247-.121-.084-.165-.081-.082.041-.246.124-.329.205.123.163.165h.206l.166-.248-.084-.204-.289.082-.121-.165-.042-.288-.165-.206.413.082.163-.039-.163-.288-.085-.208.168-.163.328-.04.081-.452-.204.082h-.248v-.248l.248-.286.165-.084-.37-.04v-.287l.246-.329.246-.207.124.245v.371l-.124.41.206.248-.082.289-.082.367v.497l-.124.245-.039.368.014-.048.314-.981-.248 1.192-.079.331-.207.41-.163.166h-.168l-.039.204.039.124v.287l-.245.207-.163.124-.248.204.248.207.081.286-.165.29-.123.37-.205.042v.328.286l-.165.207-.04.287-.247.244-.04.208.04.244v.208l-.084.37-.081.248.042.246v.326.415.531l.123.331v.205h-.165l-.166-.084-.162.37.204.166.124.124z" fill="url(#K)"/><path d="M21.739 53.066l-.124.162-.081.25v.244l.123.166.165-.082.121-.204v-.248z" fill="url(#J)"/><path d="M21.696 41.679c-.184.245-.554 1.973-.923.74-.185-.555.369-.371.432-.74 0-.432-.187-.618-.247-1.048-.062-.494-.431-1.543 0-1.85.247-.185 1.787-.309 2.095-.309.309.803-.985 1.048-.493 1.419.74.556.802-.616 1.235-.74.554-.185.924.37 1.54.06.369-.184.369-.49.618-.8.183-.245.616-.061.679-.677.061-.432-1.174-1.481.184-1.11.307.062.863 1.168 1.231 1.293s.988-.124 1.359-.06c1.108.184.739.493 1.046 1.479-.552-.185-1.417-.801-2.095-.43-.925.43.123.306 0 .801-.063.555-.616.678-1.234.74-.801.124-1.726-.309-2.22.492-.308.495.309 1.232-.614.863-.557-.186-.309-.863-.989-.801.122 1.355-.676 1.17-1.603.801" fill="url(#L)" opacity=".9"/><path d="M13.436 33.541c-.803.309-.864 1.295-1.728 1.481.432.247 1.049.247 1.234-.247.184 0 .494.06.617.184-.247.741-.308 1.295-.679 1.913-.184.368.122.431-.369.739-.186.183-.989.124-1.234.062-1.109-.247-.431-.801-.985-1.295-.494-.433-1.543.43-2.221.309-.432-.062-.494-.496-.988-.371-.798.247-.428.74-.368 1.295.063.678.186.369 0 .863 0-.062-.924.925-.8.863-1.111.371-.373-2.158-1.481-.986-.617.616.061 1.541-.123 2.282-.186.554-.741.802-.926 1.357-.122.431.308 1.232-.491 1.295-.742.06-.494-1.419-.494-1.975-.309.063-2.283 1.234-1.665-.246.124-.369.802-.06.926-.677.06-.369-.742-.678-.495-1.049.123-.309.616 0 .865-.185.43-.43 0-.985.245-1.358.247-.368.803 0 1.049-.245.554-.554-.184-.554-.37-1.047-.554-1.296.494-1.111 1.297-1.357s1.171-1.11 1.91-1.417c.862-.309 1.972.123.74-.864-.801-.618-1.234-.923 0-1.541.552-.247.677-.185 1.232-.185.676-.062.676-.124 1.172-.494.494-.307.678-.554.863-1.047.124-.617-.432-.801.309-1.233.801-.495 1.972-.124 2.836.123.433.124.74-.062.985.369.247.37-.061 1.111-.368 1.296.368.368.491.862 1.108.862.494 0 .803-.494.739-.986.742-.061.496-.556.803-.863.309-.246.309-.246.864-.309 1.233-.124 1.233.556 1.294 1.603 0 .309-.124 1.234.06 1.481.309.492 1.297.305 1.85.741s.926 1.539.801 2.279c-.122.617.062.43-.614.554-.247.062-.617.062-.801 0-.863-.185-1.235-.801-2.159-.554-.431.062-.677.309-.862.43-.063.064.06.372 0 .433-.185.123-.494.062-.68.185-.556.433-3.081 1.666-2.712-.062.061-.307.492-.183.555-.369.06-.371-.123-.432-.123-.741 0-.492.308-1.355-.493-1.295h-.124z" fill="url(#M)" opacity=".9"/><path d="M13.067 20.901c-.618.122-1.665 1.234-1.296 1.914.185.492.555.307.863.432.125.06.185-.309.433-.186s.185.432.306.616c.494.678.433 1.419 1.357 1.048.432-.123 1.232-1.11 1.911-.432.557.68-.616 1.974.187 2.589.679.495 1.109-.615 1.849-.368.245.062.862.739 1.049.923.309.431.246.863.493 1.234.617.801 2.157.124 1.603-.863.863-.246 1.85.125 1.418-1.294-.187-.555-1.543-2.221-1.85-.987-1.234-.184-.371-1.234-.616-1.85s-.987-.861-1.481-.184c-.739-.616-.06-2.16-1.541-2.16-.553-.059-.43.186-.863.496-.247.122-.432.492-.739.492s-.373-.432-.373-.492c-.861-.064-.185.122-.861.555-.432.307-.986.492-1.234.061-.37-.555.494-1.542-.801-1.542" fill="url(#N)" opacity=".8"/><path d="M16.641 17.139c.309-.616.803-.184 1.11-.493.619-.554.247-.986-.493-1.047-.492 0-.863.43-1.417.307-.494-.122-.864-.616-1.543-.678-.861-.06-2.095.307-2.588 1.047-.307.494-.307.987-.616 1.419-.431.618-1.233.863-.925 1.788.74.184 1.109.246 1.603-.432.185-.247.061-.616.246-.863s.495-.124.68-.431c.246-.369-.184-1.42.863-1.358.677.062.738 1.173 0 1.173v1.296c.553-.186 1.234-.373 1.787-.186-1.294 1.54 1.172.431 1.419 1.355.678-.307 1.972-1.108 1.603-1.909-.741.185-.987-.864-1.79-1.051" fill="url(#O)" opacity=".8"/><path d="M10.598 11.037c-.924.8.247 1.047.864 1.294-.679.615.863 1.11 1.356 1.172.741 0 1.111-.494 1.788-.68.247-.061.678-.122.864-.061.306.061.615.37.615.37.927.247 1.235-.309 1.728-.985-.307-.123-.616-.123-.986-.187-.187-.06-.495.247-.678.124-.249-.184 0-.369-.188-.554-.615-.555-1.107-.988-2.032-.493-.556.308-1.233 1.419-2.097.74-.061-.062.184-.618-.185-.925-.305-.247-.924-.371-1.11 0" fill="url(#P)" opacity=".8"/><path d="M5.914 15.295c.159-.038.323-.277.477-.264.508.037.302.275.308.678.011.642-.052.5.477.382.494-.115.653-.107 1.195.011.41 1.113-.338.915-1.225.915-.459 0-1.57-.014-1.737.484-.601-.162-.038-.708-.157-.995-.288-.691-1.436.194-1.218-.687.213-.849 1.306-.394 1.882-.524z" fill="url(#Q)" opacity=".9"/><path d="M21.574 29.596c-.433.186-.679.616-.926.74-.245.183-.553.246-.8.368-.309.187-.74-.185-.677.433l1.048.987c.493.739.43 1.108 1.418.986.37 0 .679-.554 1.173-.309.614.309.184.431.184.987.123 2.59 2.22 1.111 3.761 1.913.37.184 1.294 1.603 1.541.491.186-.987-1.601-1.047-1.725-1.912-.309-1.971 3.515-.492 4.07-.614-.125-.617-.739-.865-1.11-1.357.738-.309.801-.802.122-1.296-.122-.061-.678-.061-.863-.123-.309-.122-.185-.617-.618-.554-.739.06-.492.986-1.664.739-.863-.185-.803-1.17-1.479-1.109 2.528.123.184-3.085-.803-1.296-.307.554-.06 1.419-.986 1.665-.68.122-.615-.985-1.543-.74h-.121z" fill="url(#O)" opacity=".7"/><path d="M28.54 23.182c-.123.925.619.801 1.111 1.172.739.618.249.37.064 1.234.429.184.924.122 1.415.122-.309.617-1.541 1.972-.491 2.652.245-.124.738-1.603 1.294-.927-.187-.245 0 2.96.737 1.358.988.185.126.925.497 1.479 1.11-.491.8 1.481.8 2.158 1.788.124.06-4.068-.124-4.686 0-.123-.06-.925 0-.986.433-.678.37.121.555.431l-.061.492c0-.122.431.616.431.556.125.185 0 .492.125.679s.309.122.431.433c1.05-.496-.986-3.085.617-3.145.308 0 .987.924 1.171 1.17.43.556.677 1.233 1.355 1.479.184-.74-.37-1.603-.246-2.466.064-.369.064-2.775-.555-1.357-.494-.245-.429-.678-.801-.985-.491-.433-.247-.247-.801-.31-.187-.061-.493.434-.863-.123-.494-.739.37-.863.43-1.046.124-.185.68-.74.37-1.11-.184-.248-.862 0-1.171-.126-.863-.245-1.111-1.601-.063-1.539-.554-1.11-1.479-2.035-2.59-1.604-.738.307-.862.247-1.603.247-.43 0-.799-.062-1.23 0-.927.123-.681.183-1.174.741-.37.431-.864.738-1.048 1.232-.307.739-.06 1.17.433 1.666l1.232 1.355" fill="url(#R)" opacity=".9"/><path d="M29.466 18.313c-.184-.248-.678-.556-.74-.863-.186-.495.246-.741.186-1.235 0-.43-.372-.555-.372-.985.063-.433.68-.803.804-1.11.432-1.173 0-1.419 1.046-2.159.431-.308.678-.308.864-.801.186-.369-.06-.863.123-1.234.618-1.11 2.715-1.047 3.763-.863.491.062 1.725.494 1.85.989.182.861-1.483.924-1.173 2.096.739-.123 3.823 1.603 3.452 1.973-.678.74-3.514-.741-3.946.554-.431 1.111 1.294.803 1.788.803.308.06.739.184.986.37.432.308.187.183.432.615.307.371.246.494.74.802.307.247.863.124.986.679.062.246-.43.677-.43.987 0 .43.677.555.245 1.108-.429-.307-2.588-3.02-2.465-1.294-.924.186-.308-1.48-1.54-1.54-.557 0-.617.247-.987.615-.494.555.184.617-.801.74-.803.061-1.419-.123-2.222.061-.678.124-2.034.433-2.404-.245" fill="url(#S)" opacity=".9"/><path d="M28.48 20.038c-1.048.433-.924.741-1.417 1.605-.184.307-.494.432-.678.74-.249.432-.185.739-.371 1.17-.247.678-1.17 1.294-1.848.988-.247-.124-.494-.804-.619-.804-.738-.184-.431.37-.738.742-.309.309-.064.616-.803.554-.494-.06-.494-.185-.801-.554-.37-.371-.801-1.049-.678-1.664.122-.432.615-.556.801-.927.247-.556-.062-.864.494-1.171.618-.371 1.357.37 1.788-.618-.985-.74-2.097.863-2.404-.923-.187-1.111 1.047-1.973 1.973-2.221.802-.185 2.588 0 3.329.309.616.247.986.74 1.356 1.232.308.433.554 1.234.987 1.481-.062.06-.187.06-.31.122l-.06-.061z" fill="url(#T)" opacity=".9"/><g fill="#685638"><path d="M19.02 9.604c-.024 1.478.397 2.905.431 4.378.004.191.303.221.299.029-.033-1.473-.454-2.901-.431-4.378.003-.193-.295-.222-.299-.029zm7.645.734c.289-.857.731-1.561 1.688-1.708.407-.062.829.073 1.239.019.42-.055.723-.276 1.111-.426.361-.139.101-.68-.258-.542-.58.224-.989.39-1.639.351a2.88 2.88 0 0 0-1.249.194c-.779.303-1.205 1.165-1.454 1.903-.124.367.439.575.563.208z"/><path d="M29.909 19.836c.315-.288.433-.593.423-1.018-.016-.71.294-1.105.734-1.629.249-.297-.244-.638-.491-.344-.311.37-.614.716-.773 1.179-.154.448.099 1.008-.282 1.354-.286.258.1.717.388.457zm-1.255-7.971c.02-1.114.287-2.212.246-3.329-.014-.382-.611-.442-.597-.056.041 1.116-.226 2.214-.246 3.329-.007.385.59.443.597.056zm-17.178 8.91c-.197-.333-.458-.696-.826-.858-.453-.199-.943-.169-1.302-.542-.558-.579-1.471-1.561-1.562-2.384-.021-.193-.317-.139-.295.052.087.794.88 1.631 1.36 2.218.193.235.446.57.744.674.683.235 1.189.255 1.611.969.097.165.37.037.271-.129zm.367-6.167c-.271-.466-.668-.692-1.083-1.014-.49-.381-.779-.976-1.248-1.386-.145-.127-.316.12-.171.246.427.374.712.871 1.114 1.269.374.37.841.54 1.118 1.015.096.165.369.039.271-.129z"/><path d="M8.835 18.62c-.716-.456-1.592-.401-2.37-.137-.183.062-.052.332.129.271.67-.227 1.45-.282 2.069.112.163.105.336-.141.172-.245zm1.801-5.081c-.531.099-1.074.015-1.604.124-.189.039-.137.335.052.295.529-.109 1.072-.026 1.603-.124.19-.035.138-.331-.052-.295zm16.108-3.954c-.007-.742-.281-2.13.329-2.695.282-.262-.104-.722-.389-.458-.797.739-.547 2.128-.538 3.097.002.383.599.442.596.056zm-3.022 7.338c-.007-1.652-.096-3.309.356-4.917.104-.37-.459-.581-.563-.208-.467 1.664-.397 3.358-.39 5.069 0 .383.597.443.596.057zm1.455-3.533a2.49 2.49 0 0 0-.765.891c-.09.168.155.343.246.172.18-.339.398-.61.712-.835.156-.112-.039-.341-.195-.229zm3.635 3.602c-.17-1.45 1.659-1.884 2.258-2.971.092-.168-.153-.342-.247-.172-.662 1.202-2.499 1.557-2.307 3.196.024.192.319.139.296-.052z"/><path d="M22.523 14.38c-.017-.898-.345-1.934-.009-2.798.071-.181-.211-.284-.281-.104-.351.9-.027 1.944-.009 2.874.005.192.304.222.299.029zm2.206.662c-.581-1.035.212-2.002.682-2.905.09-.172-.193-.273-.281-.104-.517.992-1.303 2.015-.672 3.139.094.168.367.04.271-.129zm9.632.285c-.084-.761.602-.993 1.09-1.396.447-.368.514-1.067.858-1.514.118-.153-.128-.325-.246-.172-.197.256-.323.516-.439.817-.187.489-.467.733-.884 1.013-.49.329-.741.706-.675 1.304.021.193.316.139.295-.052z"/></g><path d="M19.848 14.611c-.186.062-1.11.558-1.171.68-.432.923.307.433.862.433 1.11 0 .988.305.988 1.293.491-.062 2.157-.802 2.157-.802.555.185.247.925.677 1.173.247.123 1.048.185 1.234.245.063 0 0 .432.247.495.246.123.554-.495.739-.433.184.123.431.493.308.74-.246.616-.802.183-1.111.556-.245.307-.06 1.046 0 1.354.556-.184 1.42-1.047 1.974-1.109.803-.123 1.11.617 1.664 1.109l-.246.247c.37.062.742.308.802.68-.679.123-.987.245-1.294.738-.062.063-.122.617-.186.739-.06.186-.43.431-.49.616.676.433 1.355 0 2.095 0 .803 0 .618.247 1.109.555.555.37.615.309 1.234.37s2.652-.309 2.652.432c0 .248-.68.74-.802 1.049-.062.37 0 .863.122 1.172.493-.247.865-.739.987-1.234.37.124.742.371 1.049.495.43-.742 0-1.05-.246-1.727-.248-.616-.309-1.296-.678-1.788-.495-.74-1.111-.863-1.789-1.172-1.234-.617-.431-.495.37-.925.371-.247.555-.494.555-1.048 0-.863-.06-.308-.678-.802-.184-.247-.432-.863-.802-.801-.678.123-.184.863-.37 1.234-.369.923-1.109.923-1.724.431-1.049-.802-.124-1.234-.494-1.974-.123-.245-.926-.43-1.173-.678-.123-.122-.37-.122-.491-.37-.125-.186.245-.494.122-.678-.801-1.234-1.045.739-2.095.37.37-.863.37-1.417-.618-.8-1.046.616-.801.739-1.726-.247-.431-.433-1.049-1.233-1.788-.925-.494.123-.309.618-.803.741-.43.062-.8-.307-1.107-.494l-.064.063z" fill="url(#O)" opacity=".8"/><path d="M19.726 6.783c-.371.124-.371.247-.555.494.491.184 1.048.122 1.541.122.37 1.11-.677.554-1.294.865-.309.185-.373.615-.618.799-.184.185-.862.433-.924.618-.924 1.541 2.406 1.232.802-.062.367-.307 1.479-.74 1.911-.494-.061.309-.802.678-.677.926.184.554.863.122.985-.186.801.122 1.047.554.616 1.047s-1.541.309-1.171 1.172c.555 1.419 2.837-1.603 2.468.371 1.541.307 2.588-1.419 3.76.307-.184.123-.37.432-.494.494 1.726.123-.432 1.355.37 1.913.618.368.494-1.173 1.356-.865-.554 1.11.616 1.726 1.296.925.493-.556-.124-1.11.063-1.419.123-.247 1.355-.617 1.601-.617.308 0 .986.122 1.173.432.308.616-.494.616-.309 1.296.122.615.986.062.617.985-.186.37-.925.554-1.235.986.37.495 1.421.987 1.852.31.185-.248-.247-2.53 1.11-1.727.309.184.246.923.556 1.233s.678.43.984.494c.804.247 1.729-.557 2.282.185.556-1.051-.984-.742-.617-1.542-.554-.247-1.355-.187-1.724-.678-.37-.558.308-1.543-.246-1.728-.678-.125-.494 1.11-1.418.062-.494-.557-.125-1.172-.803-1.543-.37-.183-.677.064-.925 0-.308-.123-.431-.308-.678-.43-.677-.308-.863-.555-1.662.062-.432.308-.68 1.293-1.298.432-.37-.556.433-1.358-.307-1.85-.678.554-1.108 0-1.851 0-.802 0-.802.492-1.296-.37-.184-.308.189-.616-.245-.863-.494-.307-.494.123-.863.247-.184.06-.124.739-.616.309-.353-.309-.039-1.003-.437-1.409-.182-.186-.608-.164-.543-.551.028-.165.345-.208.429-.366.357-.681-.626-.989-.928-.317-.411-.333-.493-1.48-1.075-1.504-.208-.009-.712.437-.826.6-.043.062-.319.897-.132.835z" fill="url(#N)" opacity=".7"/><path d="M27.002 2.342c-.249 1.048-1.112.679-1.85.556-.309-.062-.679-.369-1.049-.062-.494.371.122.371.246.494.185.186.803.06.864.493 0 .371-.617.494-.678.74-.061.308.245 1.171.308 1.603.554-.185 1.047-.802 1.664-.802.925 0 .8.555.863 1.172s-.491.862.432.925c.556 0 1.235-.371 1.111-.925.432-.185.987-.185 1.232.307.43.804-.555.987-.801 1.605-.124.368.185.677.122 1.047-.06.308-.246.556-.307.801-.124.616-.371 1.172.677.801.247-.123.247-.555.553-.679.249-.122.678-.06.926-.185 1.048-.493.43-.369.123-1.047-.433-.863-.186-.554.369-1.294.309-.432.37-1.296.802-1.296-.246-.43-.616-.245-.924-.492-.432-.371-.186-.618-.432-1.047-.308-.433-.433-.186-.739-.433h-.494c-.184-.122-.06-.554-.184-.554-.864-.247-1.296.616-1.79-.554-.184-.373-.246-2.097-.985-1.235l-.057.062z" fill="url(#U)" opacity=".7"/></g></symbol></svg>