<svg xmlns="http://www.w3.org/2000/svg" xmlns:xlink="http://www.w3.org/1999/xlink" viewBox="0 0 47 76" fill="#fff" fill-rule="evenodd" stroke="#000" stroke-linecap="round" stroke-linejoin="round"><style><![CDATA[.B{stroke-linejoin:miter}.C{fill-rule:nonzero}.D{stroke-width:.167}.E{fill:url(#S)}.F{fill:url(#C)}.G{fill:url(#R)}.H{fill:url(#M)}.I{stroke:#58652d}.J{fill:url(#J)}.K{fill:url(#K)}.L{fill:url(#L)}]]></style><use xlink:href="#c" x=".5" y=".5"/><defs><linearGradient id="A" y2="-358.05%" x2="96.50%" y1="432.85%" x1="1.47%"><stop stop-color="#6a7140" offset="0%"/><stop stop-color="#898e53" offset="100%"/></linearGradient><linearGradient id="B" y2="50.00%" x2="99.99%" y1="50.00%" x1="-0.01%"><stop stop-color="#6a7140" offset="0%"/><stop stop-color="#898e53" offset="100%"/></linearGradient><linearGradient id="C" y2="50.00%" x2="100.00%" y1="50.00%" x1="-0.00%"><stop stop-color="#60542e" offset="0%"/><stop stop-color="#89743f" offset="96.6%"/></linearGradient><linearGradient id="D" y2="796.86%" x2="-2.06%" y1="-703.70%" x1="100.84%"><stop stop-color="#6a7140" offset="0%"/><stop stop-color="#898e53" offset="100%"/></linearGradient><linearGradient id="E" x1="101.84%" y1="-155.46%" x2="-4.57%" y2="244.92%"><stop offset="0%" stop-color="#6a7140"/><stop offset="100%" stop-color="#898e53"/></linearGradient><linearGradient id="F" y2="1232.48%" x2="-1.28%" y1="-1139.31%" x1="100.52%"><stop stop-color="#6a7140" offset="0%"/><stop stop-color="#898e53" offset="100%"/></linearGradient><linearGradient id="G" y2="-996.13%" x2="1.51%" y1="1081.96%" x1="99.38%"><stop stop-color="#6a7140" offset="0%"/><stop stop-color="#898e53" offset="100%"/></linearGradient><linearGradient id="H" y2="-327.14%" x2="96.72%" y1="395.52%" x1="1.38%"><stop stop-color="#6a7140" offset="0%"/><stop stop-color="#898e53" offset="100%"/></linearGradient><linearGradient id="I" y2="-869.31%" x2="98.25%" y1="958.13%" x1="0.73%"><stop stop-color="#6a7140" offset="0%"/><stop stop-color="#898e53" offset="100%"/></linearGradient><linearGradient id="J" y2="49.99%" x2="100.01%" y1="49.99%" x1="0.01%"><stop stop-color="#60542e" offset="0%"/><stop stop-color="#89743f" offset="96.6%"/></linearGradient><linearGradient id="K" y2="49.99%" x2="100.00%" y1="49.99%" x1="-0.01%"><stop stop-color="#60542e" offset="0%"/><stop stop-color="#89743f" offset="96.6%"/></linearGradient><linearGradient id="L" y2="50.01%" x2="99.99%" y1="50.01%" x1="0.00%"><stop stop-color="#60542e" offset="0%"/><stop stop-color="#89743f" offset="96.6%"/></linearGradient><linearGradient id="M" x1="0.00%" y1="50.00%" x2="100.00%" y2="50.00%"><stop offset="0%" stop-color="#60542e"/><stop offset="96.6%" stop-color="#89743f"/></linearGradient><linearGradient id="N" y2="50.02%" x2="99.99%" y1="50.02%" x1="-0.00%"><stop stop-color="#60542e" offset="0%"/><stop stop-color="#89743f" offset="96.6%"/></linearGradient><linearGradient id="O" y2="49.99%" x2="99.99%" y1="49.99%" x1="-0.00%"><stop stop-color="#60542e" offset="0%"/><stop stop-color="#89743f" offset="96.6%"/></linearGradient><linearGradient id="P" y2="50.00%" x2="99.99%" y1="50.00%" x1="0.02%"><stop stop-color="#898e53" offset="0%"/><stop stop-color="#99a260" offset="100%"/></linearGradient><linearGradient id="Q" x1="-0.00%" y1="50.00%" x2="100.00%" y2="50.00%"><stop offset="0%" stop-color="#6a7140"/><stop offset="100%" stop-color="#898e53"/></linearGradient><linearGradient id="R" x1="0.00%" y1="50.00%" x2="100.00%" y2="50.00%"><stop offset="0%" stop-color="#898e53"/><stop offset="100%" stop-color="#99a260"/></linearGradient><linearGradient id="S" x1="-0.00%" y1="50.00%" x2="100.00%" y2="50.00%"><stop offset="0%" stop-color="#898e53"/><stop offset="100%" stop-color="#99a260"/></linearGradient><linearGradient id="T" y2="50.00%" x2="99.99%" y1="50.00%" x1="-0.01%"><stop stop-color="#898e53" offset="0%"/><stop stop-color="#99a260" offset="100%"/></linearGradient><linearGradient id="U" y2="382.22%" x2="3.79%" y1="-317.12%" x1="95.03%"><stop stop-color="#6a7140" offset="0%"/><stop stop-color="#898e53" offset="100%"/></linearGradient><linearGradient id="V" y2="49.98%" x2="100.00%" y1="49.98%" x1="0.01%"><stop stop-color="#898e53" offset="0%"/><stop stop-color="#99a260" offset="100%"/></linearGradient><linearGradient id="W" y2="49.98%" x2="100.00%" y1="49.98%" x1="-0.00%"><stop stop-color="#898e53" offset="0%"/><stop stop-color="#99a260" offset="100%"/></linearGradient><linearGradient id="X" x1="-2.02%" y1="54.79%" x2="102.60%" y2="45.60%"><stop offset="0%" stop-color="#6a7140"/><stop offset="100%" stop-color="#898e53"/></linearGradient><linearGradient id="Y" y2="50.95%" x2="100.36%" y1="47.57%" x1="0.17%"><stop stop-color="#898e53" offset="0%"/><stop stop-color="#99a260" offset="100%"/></linearGradient><linearGradient id="Z" y2="50.00%" x2="99.99%" y1="50.00%" x1="-0.01%"><stop stop-color="#9aa05e" offset="0%"/><stop stop-color="#a4b669" offset="100%"/></linearGradient><linearGradient id="a" x1="64.80%" y1="-7.71%" x2="35.37%" y2="110.51%"><stop offset="0%" stop-color="#898e53"/><stop offset="100%" stop-color="#99a260"/></linearGradient><linearGradient id="b" x1="41.23%" y1="-3.71%" x2="58.69%" y2="104.47%"><stop offset="0%" stop-color="#898e53"/><stop offset="100%" stop-color="#99a260"/></linearGradient></defs><symbol id="c" overflow="visible"><g class="B C D I"><path d="M7.962 47.668c.374-.016 1.27-2.078 1.73-2.123s.991-1.427 1.449-1.473c.463-.043 1.375-.788 1.739-.521s-.557.549-.861.919-1.547 1.785-.974 1.803 1.27-1.135 1.652-1.439-.365 1.465.113 1.006 1.075-1.457 1.511-1.587-.933 2.235-.175 1.941.687-.867 1.209-1.023-.206-1.637.34-1.707 1.075-.512 1.319-.018-.826 1.662-.341 1.707 1.565-1.413 2.06-1.657-1.173 1.768-.358 1.335 1.486-1.674 2.103-1.197 1.738-.52 1.658-.78-1.267-.752-1.543-1.048-.201-.034-.895.174-1.208.078-1.597-.276-1.579.097-1.579.097.077.259-.245.45-1.249-.38-1.744-.138-1.2-.208-1.469-.787-1.951-.831-1.821-.398.808.797.71 1.109-1.587-.562-1.796-.31 1.112.233.816.511-.608.182-.608.182-1.12.053-1.631-.078-1.781.062-2.12.826-1.275 1.421-1.623 1.525-.244.451.129.433.73-.409 1.137-.624-.416.502.103.346 1.323-.962 2.009-.885-.583 1.213-1.045 1.257-.148 1.083.209.693 1.312-.677 1.312-.677.069-.399.615-.468-1.494 1.959-1.494 1.959-.373.958 0 .937z" fill="url(#A)"/><path d="M9.413 16.297c.304.091 1.523-1.663 1.904-1.571s1.142-1.107 1.526-1.016 1.295-.37 1.523 0-.581.374-.915.648-1.676 1.292-1.219 1.478 1.296-.739 1.676-.924-.647 1.325-.151 1.016 1.22-1.107 1.6-1.107-1.29 1.914-.608 1.846.761-.647 1.218-.647.23-1.661.687-1.569.991-.185 1.066.37-1.065 1.384-.683 1.569 1.6-.924 2.056-1.015-1.373 1.386-.609 1.2 1.601-1.2 1.981-.555 1.525 0 1.525-.276-.838-1.109-.99-1.479-.154-.092-.763-.092-.991-.278-1.218-.738-1.298-.37-1.298-.37 0 .277-.304.37-.915-.739-1.37-.647-.916-.553-.993-1.201-1.373-1.385-1.373-.924.46 1.016.307 1.293-1.142-1.016-1.371-.831.838.554.532.739-.532 0-.532 0-.916-.277-1.297-.554-1.448-.462-1.904.185-1.373 1.015-1.677 1.015-.306.37 0 .462.686-.185 1.067-.277-.459.368 0 .368 1.293-.554 1.829-.277-.764 1.016-1.144.924-.382 1.016 0 .739 1.219-.277 1.219-.277.152-.37.61-.278-1.675 1.479-1.675 1.479-.535.828-.229.922z" fill="url(#B)"/></g><path d="M20.779 13.289l-.423 37.525c-.226 8.954-.887 16.093-.963 16.515-.214 1.172 0 4.155-.533 4.689s-.534.318-.961.532-1.205.714-.563.821 1.811-.425 2.664.216.672 1.097 1.312 1.097.106-.429.852-.429h1.814c.745 0 .425-.637.958-.852s-.319-.853-.533-1.277-.853-1.919-.853-2.985-.565-2.379-.459-3.337c.068-.605-.564-21.301-.703-36.527-.08-8.937.312-15.988.312-15.988h-1.922z" stroke="#503934" class="B C D F"/><g class="I"><path d="M37.904 50.614c-.379.167-2.274-1.59-2.752-1.409s-1.681-1.033-2.16-.852-1.749-.162-1.982.305.821.309 1.303.554 2.405 1.139 1.844 1.441-1.814-.582-2.341-.717 1.075 1.381.376 1.129-1.778-1.02-2.276-.946 2.017 1.925 1.119 1.986-1.104-.585-1.699-.496-.589-1.847-1.168-1.651-1.319-.012-1.32.634 1.631 1.368 1.167 1.654-2.244-.734-2.852-.747 2.025 1.307 1.003 1.246-2.291-1.049-2.673-.235-1.981.306-2.029-.01.895-1.432 1.029-1.886.18-.135.973-.254c.791-.126 1.239-.515 1.455-1.088s1.619-.682 1.619-.682.048.319.461.361 1.06-1.024 1.67-1.011 1.091-.815 1.075-1.569 1.541-1.854 1.623-1.328-.416 1.25-.17 1.535 1.309-1.386 1.637-1.221-.993.8-.563.95.693-.107.693-.107 1.14-.5 1.587-.892 1.801-.815 2.509-.169 1.96.883 2.358.823.46.36.078.526-.923-.073-1.434-.101.66.33.065.421-1.781-.373-2.427.05 1.171 1.005 1.649.825.674 1.082.13.843-1.633-.074-1.633-.074-.265-.389-.842-.194 2.438 1.349 2.438 1.349.838.844.46 1.008z" fill="url(#D)" class="B C D"/><path d="M35.877 30.339c-.322.225-2.335-.563-2.746-.301s-1.702-.313-2.114-.05-1.631.351-1.77.758.801.009 1.281.06 2.388.195 1.918.568-1.756.056-2.26.1 1.203.73.52.73c-.677 0-1.789-.275-2.232-.085s2.15.879 1.336 1.165-1.106-.135-1.635.092-.833-1.207-1.332-.906-1.212.346-1.112.824 1.709.57 1.33.906-2.171.061-2.735.215 2.065.418 1.117.65-2.267-.158-2.49.545-1.768.758-1.863.536.598-1.296.649-1.666.145-.149.853-.452 1.055-.713 1.164-1.192 1.379-.939 1.379-.939.095.221.479.143.809-1.042 1.372-1.196.874-.895.741-1.447 1.122-1.781 1.28-1.416-.185 1.037.085 1.18.982-1.375 1.31-1.342-.785.858-.367.853.621-.266.621-.266.968-.674 1.315-1.084 1.523-1.087 2.274-.8 1.939.126 2.292-.025.48.141.158.367-.859.193-1.333.309.655.067.125.294-1.692.204-2.217.689 1.231.429 1.64.165.789.618.253.588-1.51.387-1.51.387-.303-.219-.803.082 2.45.341 2.45.341.91.397.587.623z" fill="url(#E)" class="B C D"/><path d="M36.036 61.845c-.371.125-2.085-1.191-2.554-1.053s-1.55-.772-2.018-.634-1.662-.116-1.911.239.767.228 1.215.412 2.239.847 1.685 1.078-1.702-.434-2.2-.534.952 1.039.299.849-1.646-.762-2.123-.702 1.822 1.44.961 1.491c-.862.045-1.026-.438-1.598-.367s-.463-1.391-1.027-1.239-1.26-.007-1.297.483 1.484 1.02 1.026 1.239-2.105-.545-2.686-.551 1.865.972.89.933-2.132-.782-2.541-.167-1.91.234-1.94 0 .934-1.082 1.085-1.423.183-.102.946-.196 1.211-.393 1.449-.824 1.583-.519 1.583-.519.029.238.422.271 1.069-.776 1.651-.767 1.086-.617 1.112-1.185 1.574-1.403 1.622-1.003-.465.94-.244 1.155 1.325-1.048 1.631-.927-.991.605-.59.719c.403.109.668-.084.668-.084s1.116-.38 1.565-.676 1.765-.621 2.407-.138 1.827.66 2.21.611.421.27.047.395-.877-.051-1.364-.073.611.247.038.318-1.681-.273-2.32.048 1.063.75 1.529.613.587.813.079.633-1.558-.048-1.558-.048-.229-.293-.793-.142 2.257 1.007 2.257 1.007.756.632.385.757z" fill="url(#F)" class="B C D"/><path d="M33.629 68.03c-.304.02-1.307-1.336-1.687-1.329-.375.006-.992-.909-1.37-.901s-1.216-.438-1.472-.219.523.331.819.564 1.492 1.111 1.032 1.171-1.18-.685-1.529-.862.494.982.045.706c-.448-.281-1.067-.921-1.437-.977s1.059 1.471.406 1.329-.674-.543-1.114-.611-.056-1.149-.508-1.152-.939-.267-1.068.092.893 1.085.505 1.156-1.455-.852-1.888-.981 1.188 1.129.47.894-1.427-1.035-1.859-.657-1.475-.219-1.448-.405.923-.625 1.107-.849.156-.042.745.048.985-.046 1.252-.323 1.291-.061 1.291-.061-.028.183.258.293c.287.103.959-.367 1.39-.239s.94-.242 1.079-.665 1.465-.735 1.419-.422-.544.618-.424.824 1.205-.518 1.409-.361-.866.251-.59.422.517.074.517.074.911-.055 1.309-.187 1.444-.1 1.823.399 1.225.882 1.52.927.258.29-.047.309-.645-.223-1.001-.342.404.315-.038.248-1.199-.556-1.741-.447.635.792 1.012.785.267.737-.074.496-1.151-.361-1.151-.361-.111-.27-.562-.276 1.473 1.236 1.473 1.236.434.635.129.653z" fill="url(#G)" class="B C D"/><path d="M9.413 68.893c.327-.051 1.141-1.612 1.543-1.689s.89-1.121 1.293-1.201 1.211-.705 1.523-.55-.493.451-.764.743-1.381 1.432-.88 1.387 1.127-.94 1.464-1.197-.343 1.081.082.705.964-1.148 1.346-1.287-.85 1.69-.184 1.404.613-.69 1.071-.858-.153-1.142.325-1.249.948-.476 1.153-.148-.75 1.268-.326 1.248 1.391-1.168 1.827-1.39-1.054 1.381-.335.988 1.324-1.346 1.855-1.071 1.525-.548 1.462-.724-1.094-.409-1.332-.59-.175-.003-.784.216-1.057.18-1.391-.032-1.381.231-1.381.231.063.177-.22.348-1.086-.141-1.521.08-1.045-.025-1.268-.412-1.693-.389-1.585-.094.69.487.602.719-1.378-.238-1.564-.039.967.056.703.281-.533.193-.533.193-.979.154-1.424.112-1.554.229-1.863.809-1.14 1.142-1.444 1.255c-.305.106-.221.345.106.293s.644-.364 1.004-.564-.372.402.085.238 1.168-.824 1.767-.836-.53.924-.933 1-.145.788.172.474 1.155-.618 1.155-.618.068-.29.547-.396-1.337 1.549-1.337 1.549-.339.727-.012.677z" fill="url(#H)" class="B C D"/><path d="M6.255 57.918c.374.034 1.56-1.874 2.022-1.851s1.188-1.268 1.649-1.246 1.474-.582 1.794-.264-.629.46-.983.785-1.792 1.542-1.228 1.641 1.421-.94 1.844-1.184-.575 1.396-.035 1.01 1.276-1.284 1.725-1.348-1.249 2.076-.454 1.893.804-.757 1.344-.837.032-1.649.584-1.639 1.141-.35 1.308.174-1.061 1.525-.585 1.638 1.752-1.168 2.279-1.338-1.419 1.58-.547 1.267 1.714-1.438 2.252-.878 1.796-.261 1.756-.532-1.144-.927-1.376-1.258-.193-.065-.911.042-1.205-.096-1.539-.505-1.578-.135-1.578-.135.04.267-.305.412-1.182-.557-1.707-.39-1.157-.379-1.337-.995-1.812-1.104-1.746-.657.682.905.542 1.201-1.49-.789-1.734-.57 1.066.393.733.624-.628.091-.628.091-1.115-.109-1.603-.312-1.77-.199-2.217.505-1.47 1.222-1.829 1.275-.306.412.064.447.782-.296 1.216-.452-.486.434.054.358 1.447-.759 2.115-.585-.753 1.117-1.215 1.094-.305 1.049.104.714 1.395-.48 1.395-.48.127-.382.679-.373-1.765 1.722-1.765 1.722-.507.895-.136.934z" fill="url(#I)" class="B C D"/></g><g stroke="#503934"><path d="M8.094 19.366c-.321.32 5.223 3.09 6.288 3.836s6.609 2.557 6.609 2.557v-.851l-6.502-2.239c-1.172-.639-6.076-3.623-6.395-3.302z" class="B C D J"/><g class="K"><path d="M6.863 24.473c-.23.388 5.827 1.7 7.042 2.16s7.037.84 7.037.84l-.211-.826-6.853-.559c-1.295-.329-6.784-2.006-7.015-1.615z" class="B C D"/><path d="M10.267 15.71c-.296.261 4.11 3.193 4.939 3.948s5.317 2.829 5.317 2.829l.074-.766-5.257-2.533c-.927-.668-4.778-3.74-5.075-3.478z" class="B C D"/></g><path d="M12.996 13.609c-.244.226 3.401 2.73 4.087 3.376s4.402 2.411 4.402 2.411l.062-.657-4.352-2.158c-.768-.572-3.954-3.196-4.2-2.973z" class="B C D L"/><g class="H"><path d="M12.464 9.025c-.245.226 3.399 2.729 4.086 3.377s4.4 2.411 4.4 2.411l.064-.657-4.351-2.158c-.765-.572-3.95-3.196-4.197-2.973z" class="B C D"/><path d="M28.686 10.038c.133.262-2.797 2.134-3.378 2.659s-3.439 1.656-3.439 1.656l.063-.657s2.741-.978 3.365-1.416 3.256-2.502 3.389-2.241z" class="B C D"/></g><path d="M30.692 12.33c.165.369-3.567 3.064-4.307 3.816s-4.368 2.398-4.368 2.398l.091-.932s3.474-1.425 4.269-2.055 4.147-3.595 4.314-3.228z" fill="url(#N)" class="B C D"/><path d="M33.462 14.994c.234.427-4.824 3.448-5.824 4.294s-5.941 2.665-5.941 2.665l.104-1.068s4.735-1.566 5.812-2.272 5.615-4.045 5.85-3.617z" class="B C D J"/><path d="M34.423 18.619c.248.432-5.086 3.452-6.137 4.302s-6.269 2.657-6.269 2.657l.103-1.076s4.999-1.558 6.135-2.262c1.136-.71 5.919-4.052 6.169-3.621z" class="B C D L"/><path d="M36.34 34.393c.296.43-5.86 3.312-7.072 4.131s-7.252 2.507-7.252 2.507l.102-1.059 7.103-2.121c1.308-.677 6.82-3.888 7.118-3.46z" class="B C D H"/><path d="M4.529 36.165c-.446.119 6.872 2.223 8.268 2.735s8.76 2.132 8.76 2.132l.042-.427-8.633-1.96-8.438-2.48z" class="B C D F"/><g class="K"><path d="M40.285 43.239c.401.415-7.498 2.93-9.041 3.663s-9.332 2.125-9.332 2.125l.094-.998 9.153-1.764c1.676-.594 8.723-3.442 9.126-3.024z" class="B C D"/><path d="M36.874 39.829c.325.365-6.15 2.648-7.419 3.309s-7.65 1.944-7.65 1.944l.086-.886 7.498-1.622c1.374-.538 7.157-3.109 7.485-2.743z" class="B C D"/></g><path d="M44.323 51.28c.492.486-9.135 3.38-11.017 4.226s-11.383 2.427-11.383 2.427l.112-1.165s9.118-1.323 11.163-2.009 10.63-3.968 11.124-3.479z" class="B C D F"/><path d="M40.927 59.492c.251.531-7.749 1.49-9.382 1.934-1.629.448-9.214.235-9.214.235l.374-1.043 8.945.11c1.714-.266 9.024-1.766 9.277-1.236z" class="B C D H"/><path d="M40.713 31.354c.252.529-7.747 1.49-9.379 1.937s-9.214.231-9.214.231l.374-1.041 8.941.111c1.716-.271 9.024-1.772 9.277-1.24z" class="B C D L"/><path d="M2.695 56.063c-.462.396 7.119 4.313 8.566 5.344s9.08 3.701 9.08 3.701l.047-1.106s-7.348-2.383-8.949-3.281-8.278-5.052-8.743-4.657z" class="B C D H"/><path d="M5.089 68.262c-.209.429 6.84-.702 8.285-.756s8.095-1.912 8.095-1.912l-.352-.646-7.851 2.092c-1.512.196-7.969.792-8.176 1.22z" class="B C D J"/><path d="M35.38 68.713c.098.389-5.531-.904-6.715-1.014s-6.362-2.034-6.362-2.034l.403-.56 6.127 2.183c1.219.241 6.448 1.036 6.548 1.425z" class="B C D K"/><path d="M8.309 41.001c-.324.311 5.264 2.988 6.339 3.71s6.664 2.472 6.664 2.472v-.824l-6.556-2.163c-1.183-.618-6.125-3.504-6.447-3.195z" class="B C D F"/><path d="M.013 47.775c-.411.64 8.923 4.249 10.774 5.317s10.93 2.984 10.93 2.984l-.226-1.506s-8.691-1.583-10.68-2.443S.424 47.134.012 47.775z" class="B C D H"/><path d="M3.522 43.028c-.47.41 7.601 4.042 9.152 5.014s9.629 3.366 9.629 3.366l.008-1.097s-7.769-2.118-9.477-2.954-8.842-4.738-9.313-4.329z" class="B C D F"/><path d="M42.016 45.795c.487.34-7.734 3.609-9.309 4.471s-9.827 3.074-9.827 3.074l-.024-.94s7.937-1.967 9.674-2.717 8.997-4.229 9.485-3.889z" fill="url(#O)" class="B C D"/><path d="M10.939 55.098c-.153.445 2.911-1.142 4.194-1.297s7.064-2.473 7.064-2.473l-.364-.617-6.831 2.633c-1.334.301-3.912 1.313-4.063 1.753z" class="B C D F"/></g><g class="I"><path d="M21.845 27.358s.745-1.385 1.386-1.385h2.133c.639 0 2.024-1.386 2.664-1.598s2.665-1.385 3.305-1.706 1.49-1.386 1.599-.853-2.56 1.918-1.706 2.131 2.13.214 2.77 0 1.28-.213 1.492.533 0 1.705 0 1.705-.959-.426-1.385-.851-2.025-.426-2.344 0 .426.745.213 1.172-.746.212-1.386 0-.534.853-.961 1.065-.745-.106-.745-1.065-.958-.532-1.279-.427-.533.427-.533.427-.214.959.639 1.173.961-.32.853.213-.426.746-.959.639-.318 1.173-.852 1.173-.214-1.279-.321-1.706-.534-.639-1.065-.639-1.74.008-2.273-.418-.703 2.337-.703 2.337l-.545-1.919z" fill="url(#P)" class="B C D"/><path d="M5.888 34.221c.426.106 2.133-1.918 2.665-1.812s1.598-1.278 2.131-1.172 1.812-.426 2.133 0-.811.431-1.28.745-2.345 1.492-1.706 1.706 1.814-.853 2.347-1.066-.906 1.529-.215 1.172 1.707-1.278 2.239-1.278-1.807 2.208-.853 2.131 1.065-.745 1.706-.745.318-1.919.958-1.812 1.386-.214 1.494.426-1.494 1.598-.96 1.811 2.239-1.065 2.878-1.172-1.918 1.6-.853 1.386 2.238-1.386 2.771-.639 2.132 0 2.132-.321-1.173-1.279-1.385-1.706-.213-.106-1.068-.106-1.386-.321-1.704-.853-1.811-.427-1.811-.427 0 .321-.427.427-1.279-.852-1.918-.745-1.28-.64-1.386-1.385-1.919-1.6-1.919-1.067.639 1.171.427 1.492-1.598-1.172-1.919-.959 1.173.638.745.853-.745 0-.745 0-1.279-.318-1.812-.639-2.026-.533-2.665.212-1.918 1.173-2.345 1.173-.426.427 0 .533.96-.213 1.492-.32-.639.426 0 .426 1.812-.639 2.559-.318-1.067 1.172-1.601 1.066-.532 1.172 0 .853 1.707-.32 1.707-.32.212-.427.853-.318-2.345 1.704-2.345 1.704-.747.961-.321 1.067z" fill="url(#Q)" class="B C D"/><path d="M21.9 18.782s-.344-1.138-.864-1.277l-1.731-.462c-.52-.139-1.384-1.416-1.864-1.704s-1.905-1.557-2.364-1.92-.951-1.3-1.138-.948 1.718 1.908.984 1.874-1.77-.312-2.25-.601-1-.428-1.314.052-.32 1.203-.32 1.203.858-.094 1.284-.301 1.726.14 1.907.509-.488.435-.394.78.566.312 1.124.3.274.718.579.961.626.085.807-.589.881-.169 1.12-.024.352.416.352.416-.006.722-.74.689-.72-.433-.732-.036.206.62.657.66.038.895.474 1.01.414-.856.579-1.131.553-.337.986-.221 1.41.382 1.924.197.13 1.8.13 1.8l.799-1.235z" class="B C D G"/><path d="M6.71 35.459c-.214.851-.427.106-.533-.535s.318-1.384 1.066-1.384 1.6-.855 1.385-1.494-.533.106-1.385 0-.533.106-1.172.426-.108.533-.747 1.067-.747-.429-.427-.961 1.812-.96.959-1.066-.959.639-1.491.533-.533-.747-.106-.959.639.212.746-.213-.853-.214-.64-.534 1.173-.318 1.598.107.961.532.853-.107-.96-.959-1.492-1.384 0-.641.32-.641 1.279 1.812 1.919 1.812.747.427 1.172.107-1.172-.639-1.066-.959.641-.106.853 0 2.344.853 2.665 1.065 1.172.214 1.598.427 3.197 1.173 4.37 1.493 3.728.533 3.728.533l.214 1.386s-1.385.532-1.917.532-1.386.106-1.492.959-1.918 1.173-1.707 1.812-.639-.214-.853-.747.32-1.278.959-1.278 1.493-1.387 1.067-1.6-.534.321-1.28.426-1.385.713-1.492 1.246-.213 1.313-1.066 1.418-.532-.639-.745-1.065.213-.959.853-1.492.746-1.173 0-1.28-.747-.106-.853.429-.32.531-.959.745 0-.533.319-.959 1.812-1.173 1.386-1.386-.853-.321-1.278-.214-.32 1.173-.852 1.173-1.173-.747-1.812.32-2.452 1.389-2.665 2.244z" class="B C D E"/><path d="M30.931 15.363c.341.414.287-.056.192-.439s-.538-.678-.991-.475-1.186-.033-1.213-.444.35-.087.843-.38.351-.087.82-.085.196.265.717.386.35-.439.023-.647-1.341-.034-.848-.327.741.091 1.039-.114.14-.557-.175-.559-.336.293-.506.087.466-.351.258-.47-.794.143-.946.496-.453.557-.546.175.345-.793.563-1.173-.158-.354-.352-.265-.329 1.349-.719 1.524-.349.439-.688.38.556-.674.412-.823-.414.117-.52.234-1.214 1.112-1.358 1.318-.66.438-.866.671-1.656 1.523-2.29 2.02-2.139 1.315-2.139 1.315l.214.823s.976-.084 1.298-.23.87-.32 1.146.122 1.459.124 1.487.534.336-.293.335-.644-.511-.619-.901-.446-1.252-.357-1.045-.592.404.033.886-.112 1.018.014 1.214.28.457.666 1 .492.167-.498.191-.794-.367-.471-.888-.59-.745-.445-.318-.707.427-.262.625.004.328.206.77.15-.134-.294-.434-.444-1.393-.151-1.186-.387.438-.408.724-.466.486.56.809.414.529-.73 1.183-.317 1.832.094 2.174.506z" fill="url(#T)" class="B C D"/><path d="M16.754 61.758c-.732.673-1.536 1.957-2.543 2.401s.161-1.583-1.104-.559-2.397 1.174-3.447 1.52-2.581-1.192-3.544-.651-2.109-.119-1.809-.602 1.263.141 2.686-.136-2.813-1.323-2.139-1.734 2.956 1.258 3.831 1.686 2.327-.557 2.327-.557-.042-.099.659-.058 2.354-.106 2.9-.815c.547-.704 2.915-1.168 2.183-.494z" fill="url(#U)" class="B C D"/><path d="M8.2 69.567l1.387.534s1.066 2.025 1.49 1.384 1.918-.319 1.599-.747.96-.425.747-.85-.429-.534-1.173-.639-1.173-1.494-.32-1.172 1.28-1.175 1.494-.216.958 1.174 1.171 1.815.959-1.281 1.704-1.07.108-.852.641-.959.532.959.853 1.281 1.492-1.6 2.024-1.494.002-.959.534-1.387-.426-.637-.426-.637l-.533.637s-.64.322-1.067 0 .534.853 0 .747-1.386-.747-1.812-.96-.318.96-.745.747-1.067-.747-1.493-.64 2.026 1.387 1.281 1.493-2.027-.747-2.347-1.066-.853.425-1.386 0-1.492-.212-2.132 0 1.706.641 1.281.96-.747.959-1.494.318-1.918-.746-2.665-.852-.106 1.281-.853.534-1.916-.641-2.451-1.065.426 1.278-.106.853 1.492.318 1.386.744-1.704.322-1.279.64 1.812.747 1.812.747l1.171.639 1.707-.323z" class="B C D E"/><path d="M35.859 33.333l-1.301.926s-.572 2.414-1.189 1.853-2.085.167-1.866-.365-1.114-.197-1.003-.702.302-.674 1.052-.983.826-1.88.021-1.319-1.645-.898-1.613.169-.687 1.486-.74 2.217-1.341-1.095-2.062-.674-.338-.87-.92-.841-.301 1.151-.55 1.572-1.982-1.292-2.509-1.039-.255-1.011-.924-1.319.274-.785.274-.785l.726.533s.751.169 1.111-.28-.328 1.038.198.786 1.248-1.151 1.636-1.487.589.927.976.589.913-1.065 1.386-1.065-1.745 1.992-.938 1.908 1.916-1.32 2.163-1.739 1.003.223 1.445-.365 1.498-.618 2.223-.562-1.608 1.124-1.08 1.347 1.034.814 1.641-.055 1.803-1.293 2.553-1.601.452 1.32 1.031.338 1.827-1.18 2.272-1.768-.104 1.459.338.87-1.471.73-1.245 1.151 1.862-.113 1.501.338-1.688 1.262-1.688 1.262l-1.053.983-1.865.106z" class="B C D G"/><g class="E"><path d="M44.334 53.897c-.639-.106-2.236.747-3.196 1.175s-1.78.531-1.569-.109 1.035-1.703 1.888-1.066 1.812-.743 2.665-1.065 1.6-3.731.745-2.878-1.598.959-1.918 1.6-.639.746-1.279.637 2.025-2.13 1.279-2.237-1.919 1.494-2.558 2.025-2.344 1.28-2.344 1.28 1.598-2.024 2.131-2.024 1.918-2.24 1.6-2.453-2.559 1.813-2.878 2.559-2.344 1.278-2.879 1.918-1.81.319-2.77 1.066-2.665.213-3.092.213 1.279-.747.639-.853-1.812.959-2.665.853-2.878.852-3.516 1.065-2.345-.531-2.345 0 1.916.215 1.812.747 2.237.641 2.451 1.386 1.918 1.278 2.45 1.066-2.132-1.493-1.492-1.387 1.6.64 2.557.64-2.024-1.064-1.598-1.064.959-.535 1.492-.429-.106-.853-.106-.853 1.706.747 2.665 1.494 1.28 1.384 1.813 1.278-.853-1.171-.747-1.489-.214-1.066-.214-1.066.961.532 1.173.959.395.711 1.034.927.993.244 1.525.033-1.492-1.069-1.492-1.069l2.451.216s.639-.429 1.066.105.747.318 1.279.747 1.171-.641 2.026 0 2.45-.534 1.918-.959-1.386-.215-2.025-.109-1.385-.531-1.385-.531 1.066 0 2.132-.212 1.922-2.028 1.283-2.135z" class="B C D"/><path d="M2.248 57.483c.613.097 1.973.982 2.802 1.464s1.576.747 1.474.326-.703-1.239-1.594-1.079-1.576-.879-2.321-1.271-.922-2.543-.259-1.84 1.345.946 1.545 1.393.483.585 1.094.683-1.563-1.725-.851-1.603S5.7 56.884 6.215 57.35s1.991 1.313 1.991 1.313-1.182-1.561-1.678-1.693-1.447-1.761-1.115-1.802 2.107 1.674 2.292 2.182 1.989 1.313 2.388 1.813 1.64.63 2.419 1.297 2.451.779 2.849.884-1.079-.747-.466-.65 1.541 1.002 2.352 1.15 2.552 1.2 3.115 1.48 2.267.27 2.184.576-1.821-.348-1.801-.016-2.184-.185-2.495.193-1.983.267-2.447.01c-.464-.251 2.214-.333 1.6-.429s-1.586-.026-2.479-.263 2.049-.113 1.651-.219-.812-.545-1.324-.612.229-.466.229-.466-1.703.009-2.711.202-1.401.483-1.883.29.974-.463.922-.675.362-.561.362-.561-.975.07-1.239.264-.476.312-1.102.28-.962-.102-1.428-.357 1.554-.252 1.554-.252l-2.318-.479s-.529-.406-1.009-.203-.743 0-1.306.116-.995-.657-1.886-.5-2.203-.911-1.641-1.026 1.325.22 1.902.438 1.373.034 1.373.034-.993-.264-1.954-.647-1.478-1.641-.867-1.545z" class="B C D"/><path d="M11.96 9.984c.318-.006.976.672 1.382 1.024s.782.495.758.08-.285-1.152-.768-.837-.775-.63-1.141-.908-.309-2.457-.006-1.849.646.742.72 1.168.215.521.532.514-.707-1.507-.34-1.503.735 1.102.975 1.492.962 1.009.962 1.009-.516-1.402-.77-1.452-.644-1.564-.465-1.665 1.001 1.36 1.062 1.85.962 1.011 1.137 1.456.826.366 1.193.918 1.244.381 1.447.42-.519-.581-.202-.588.747.763 1.168.776 1.267.797 1.547.989 1.18-.111 1.114.219-.939-.047-.951.291-1.145.188-1.336.629-1.07.613-1.297.431 1.195-.724.879-.718-.839.246-1.297.158 1.094-.472.892-.51-.394-.421-.661-.404.155-.519.155-.519-.903.303-1.451.676-.777.737-1.018.623.549-.647.536-.854.23-.641.23-.641-.522.242-.675.486-.274.404-.604.476-.503.06-.732-.122.841-.521.841-.521l-1.195-.095s-.253-.323-.52-.034-.394.129-.7.343-.481-.505-.966-.19-1.102-.559-.798-.771.687-.003.978.122.724-.201.724-.201-.506-.1-.991-.33-.671-1.433-.354-1.44z" class="B C D"/><path d="M35.849 35.441c-.489.051-1.53.885-2.17 1.332s-1.227.666-1.171.224.492-1.265 1.22-1.022 1.218-.807 1.795-1.167.585-2.644.094-1.949-1.026.901-1.161 1.363-.353.589-.839.641 1.154-1.719.586-1.647-1.177 1.296-1.563 1.749-1.525 1.241-1.525 1.241.858-1.571 1.25-1.671 1.059-1.765.789-1.839-1.598 1.616-1.716 2.145-1.524 1.241-1.815 1.742-1.285.537-1.873 1.186-1.929.629-2.244.71.824-.708.335-.656-1.182.941-1.828 1.033-1.984 1.072-2.423 1.324-1.814.102-1.73.436 1.449-.223 1.456.132 1.751-.014 2.026.416 1.618.449 1.975.215-1.808-.542-1.319-.594 1.28.105 1.986-.074-1.663-.293-1.346-.374.622-.513 1.031-.545-.214-.517-.214-.517 1.376.153 2.202.444 1.162.633 1.536.467-.816-.578-.786-.8-.325-.631-.325-.631.79.156 1.015.385.405.377.91.393.768-.031 1.128-.264-1.269-.392-1.269-.392l1.84-.322s.403-.388.802-.132.6.063 1.061.232.763-.62 1.492-.377 1.722-.792 1.262-.961-1.054.124-1.509.311-1.104-.077-1.104-.077.786-.2 1.534-.531 1.094-1.629.606-1.578z" class="B C D"/><path d="M21.701 47.395s.745-.745 1.492-.425.318-.107.852-.319 0 0 .533.212 1.28.107 1.919.214 0-1.174.639-1.174 1.066-.959 1.812-.852 1.173.214 1.494.106-.32-.532 0-.745.532-.214.958-.214-.319.534.108.639.958-.212.958.108-1.066-.108-.958.426.745.532.745.532.214 0 .321.321-.319.532-.853.426.108.426-.212.532-.591-.176-.591-.176l-.349-.104s-.766-.892-1.086-.678 1.813 1.276 1.279 1.387-.851.425-1.704.212-2.027-.428-2.558-.322c-.533.11 1.065 1.175.426.96s-1.28-.744-1.707-.638 1.601.853.854 1.066-1.918.211-2.344 0l-1.066-.535h-1.172l.214-.963z" class="B C D"/></g><g fill="url(#V)"><path d="M21.989 27.945s.511-.827 1.02-.473.217-.119.582-.354 0 0 .363.235.873.119 1.311.237 0-1.299.436-1.299.727-1.064 1.237-.945.799.236 1.02.118-.22-.589 0-.825.363-.237.652-.237-.217.591.074.708.655-.235.655.118-.728-.118-.655.473.508.591.508.591.147 0 .22.354-.22.591-.583.473.074.471-.145.591-.403-.196-.403-.196l-.239-.116s-.522-.986-.741-.752 1.235 1.418.872 1.535-.582.473-1.164.236-1.382-.471-1.745-.354.727 1.299.291 1.062-.874-.828-1.166-.708 1.091.945.584 1.182-1.311.236-1.602 0l-.727-.591h-.8l.148-1.066z" class="B C D"/><path d="M23.195 31.253s-.372-.827-.742-.473-.159-.118-.425-.354 0 0-.265.236-.639.118-.955.237 0-1.3-.318-1.3-.532-1.062-.904-.943-.584.236-.743.117.159-.591 0-.828-.264-.235-.476-.235.159.59-.053.708-.479-.236-.479.117.532-.117.479.473-.373.589-.373.589-.105 0-.158.356.158.589.425.472-.055.471.106.591.292-.195.292-.195l.174-.116s.383-.989.541-.752-.902 1.416-.635 1.534.423.474.85.237 1.007-.471 1.273-.354-.533 1.299-.213 1.062.635-.826.848-.708-.796.945-.424 1.181.955.237 1.168 0l.532-.59h.582l-.105-1.063z" class="B C D"/></g><path d="M33.676 44.519c.64.319 1.493 1.172 2.239 1.172s-.533-1.386.532-.958 1.813.104 2.56 0 1.279-2.133 2.023-2.026 1.28-.959.96-1.278-.747.639-1.705.957 1.385-2.343.853-2.451-1.494 2.345-1.919 3.091-1.6.427-1.6.427 0-.108-.426.212-1.492.853-2.025.427-2.13.108-1.491.427z" class="B C D E"/><path d="M28.488 66.239c.366.615.625 1.793 1.254 2.195s.297-1.455.965-.521 1.468 1.068 2.156 1.381 2.225-1.108 2.797-.616 1.594-.115 1.498-.56-.973.139-1.953-.109 2.43-1.23 2.039-1.606-2.521 1.168-3.281 1.567-1.578-.502-1.578-.502.058-.089-.475-.048-1.715-.087-1.933-.734-1.85-1.06-1.485-.448z" fill="url(#T)" class="B C D"/><g class="E"><path d="M10.76 50.804c-.803.351-1.875 1.281-2.813 1.281s.67-1.513-.67-1.046-2.276.116-3.213 0-1.608-2.33-2.544-2.215-1.607-1.047-1.206-1.397.936.698 2.144 1.049-1.741-2.563-1.072-2.678 1.875 2.559 2.408 3.377c.539.814 2.011.463 2.011.463s0-.116.536.235 1.874.93 2.545.467 2.678.115 1.875.463z" class="B C D"/><path d="M12.068 50.151c-.521.705-.987 2.047-1.8 2.513s-.173-1.644-1.102-.576-1.915 1.239-2.786 1.606-2.554-1.217-3.309-.65-1.915-.107-1.741-.609 1.16.136 2.381-.161-2.788-1.351-2.266-1.786 2.903 1.285 3.774 1.722 1.974-.599 1.974-.599-.06-.1.58-.065 2.09-.125 2.438-.866 2.38-1.233 1.857-.531z" class="B C D"/></g><path d="M14.566 23.075c-.296.716-.42 1.93-1.001 2.537s-.465-1.276-1.025-.148-1.345 1.545-1.996 2.089-2.353-.251-2.868.422-1.606.462-1.561.006.988-.221 1.941-.809-2.572-.295-2.224-.794 2.653.206 3.461.312 1.518-1.046 1.518-1.046-.067-.065.468-.219 1.707-.699 1.851-1.394 1.731-1.677 1.436-.958z" class="B C D G"/><path d="M44.442 43.561c.105.745-1.494 4.052-2.452 4.158s-1.6.959-2.131.531-.747 1.387-1.6 1.6-.321 1.706-1.281 2.237-1.918-1.066-1.918-1.066l-.959-.959s-1.492-.744-1.704 0-.532 2.984-1.279 2.24-1.174-.216-1.921-.322-.426.959-.851 1.28-1.812-.534-2.238-.534-.853-.212-1.28.429-2.13.425-2.13.425l-.639-1.387s2.128-.956 2.663-.744 1.813 1.384 2.345.959-.214-.852-.532-1.065-.959-1.387-.426-1.494 1.597-.747 1.597-.212 1.173.96 1.6.425 1.813-1.172 1.813-1.172.639-.535 1.17-.535 1.601-.106 2.027.107 3.304-1.172 3.304-1.706-.32-1.598.426-1.598 1.598.853 2.239.108.853.106 1.492 0 .639-1.919 1.066-1.494 1.488-.957 1.596-.21z" fill="url(#W)" class="B C D"/><path d="M6.289 22.712c.069.583 1.618 2.877 2.211 2.825s1.131.506 1.376.107.694.951 1.244.993.494 1.256 1.165 1.527.964-1.08.964-1.08l.406-.866s.764-.777 1.025-.238.848 2.2 1.165 1.527.667-.327 1.096-.513.427.671.74.854.994-.658 1.249-.718.475-.281.844.145 1.358.027 1.358.027l.138-1.144s-1.452-.435-1.734-.197-.845 1.31-1.239 1.059-.024-.679.131-.887.331-1.189-.008-1.196-1.092-.346-.998.061-.534.893-.884.549-1.298-.641-1.298-.641-.478-.317-.798-.243-.981.143-1.2.365-2.192-.431-2.287-.836-.093-1.263-.539-1.159-.81.872-1.328.394-.492.201-.895.208-.725-1.372-.905-.986-1.065-.525-.998.058z" class="B C D E"/><path d="M31.294 13.295c.094.566-.492 3.151-.947 3.265s-.716.791-.999.485-.282 1.085-.679 1.28-.059 1.314-.492 1.756-.983-.747-.983-.747l-.515-.7s-.761-.518-.823.06-.089 2.301-.49 1.758-.577-.121-.943-.177-.151.748-.338 1.007-.903-.343-1.108-.327-.423-.134-.593.37-1.004.402-1.004.402l-.386-1.038s.974-.81 1.244-.665.95.996 1.182.65-.15-.643-.315-.795-.54-1.027-.291-1.127.73-.628.76-.22.616.692.794.27.806-.961.806-.961.279-.429.537-.449.764-.138.981.009 1.526-1.014 1.496-1.419-.243-1.213.115-1.239.82.597 1.085.003.417.052.72-.053.199-1.49.43-1.179.665-.788.758-.221z" fill="url(#X)" class="B C D"/><path d="M38.557 38.013c.084.573-1.149 3.106-1.887 3.188s-1.23.735-1.64.408-.575 1.062-1.232 1.226-.245 1.307-.984 1.716-1.477-.818-1.477-.818l-.739-.735s-1.148-.572-1.313 0-.411 2.288-.985 1.717-.903-.164-1.478-.246-.328.736-.657.982-1.395-.409-1.722-.409-.657-.164-.984.327-1.642.327-1.642.327l-.494-1.062s1.643-.736 2.054-.574 1.393 1.064 1.805.737-.163-.655-.412-.817-.736-1.064-.327-1.145 1.23-.573 1.23-.164.905.735 1.231.327 1.395-.898 1.395-.898.492-.409.901-.409 1.233-.082 1.562.08 2.543-.9 2.543-1.307-.247-1.226.329-1.226 1.23.653 1.723.082.657.082 1.147 0 .492-1.471.822-1.145 1.15-.739 1.229-.166z" class="B C D G"/><g class="E"><path d="M2.647 41.984c-.172.364.905 2.348 1.747 2.58s1.322.783 1.843.663.52.846 1.257 1.112.106.931.904 1.379 1.82-.194 1.82-.194l.956-.315s1.408-.109 1.519.312.16 1.626.905 1.381 1.066.107 1.743.187.28.569.625.811 1.67.058 2.052.136.78.048 1.094.454 1.854.608 1.854.608l.715-.593s-1.798-.882-2.295-.869-1.759.377-2.191.061.281-.399.588-.447 1.001-.537.537-.688-1.347-.676-1.401-.402-1.146.28-1.47-.074-1.493-.93-1.493-.93-.513-.392-.987-.488-1.415-.348-1.815-.316-2.821-1.207-2.765-1.479.454-.761-.212-.898-1.513.145-2.005-.354-.77-.101-1.33-.274-.367-1.1-.792-.959-1.232-.765-1.405-.403z" class="B C D"/><path d="M33.89 14.138c.062.573-.874 3.107-1.436 3.19s-.937.734-1.249.407-.438 1.062-.937 1.226-.187 1.307-.75 1.718-1.123-.819-1.123-.819l-.563-.734s-.874-.573-.999 0-.314 2.287-.748 1.715-.687-.162-1.123-.244-.252.736-.501.982-1.061-.408-1.31-.408-.5-.165-.75.325-1.248.328-1.248.328l-.373-1.062s1.249-.736 1.559-.573 1.062 1.062 1.375.735-.126-.654-.313-.817-.562-1.062-.25-1.145.935-.571.935-.164.688.737.939.328 1.061-.899 1.061-.899.375-.409.688-.409.936-.082 1.186.082 1.934-.899 1.934-1.308-.187-1.226.25-1.226.936.654 1.311.082.5.082.875 0 .376-1.471.625-1.145.877-.736.94-.165z" class="B C D"/></g><path d="M8.412 19.273c.008.593 1.178 3.086 1.713 3.11s.961.653 1.216.286.531 1.04 1.017 1.154.326 1.318.899 1.677.956-.954.956-.954l.441-.811s.751-.678.935-.106.557 2.308.897 1.675.624-.238 1.026-.368.319.726.58.951.945-.531 1.179-.557.449-.221.739.254 1.207.203 1.207.203l.226-1.127s-1.253-.621-1.525-.42-.871 1.199-1.201.898.041-.682.198-.869.402-1.146.101-1.198-.943-.486-.896-.067-.557.824-.839.433-1.096-.808-1.096-.808-.398-.377-.691-.345-.884.015-1.099.208-1.915-.715-1.962-1.133.032-1.273-.376-1.228-.8.769-1.216.223-.46.136-.818.092-.521-1.465-.716-1.104-.904-.657-.898-.066z" fill="url(#V)" class="B C D"/><g class="G"><path d="M7.027 49.439c.003.618 1.275 3.216 1.862 3.238s1.054.676 1.337.293.578 1.084 1.112 1.2.349 1.374.979 1.748 1.058-1.004 1.058-1.004l.491-.853s.83-.711 1.028-.116.597 2.407.978 1.745.688-.252 1.13-.389.345.756.632.988 1.043-.56 1.301-.589.496-.233.812.261 1.325.206 1.325.206l.258-1.178s-1.375-.64-1.678-.431-.964 1.258-1.325.946.05-.714.224-.911.451-1.197.119-1.249-1.033-.502-.985-.068-.618.866-.926.457-1.202-.837-1.202-.837-.435-.393-.756-.354-.973.02-1.212.226-2.102-.737-2.152-1.175.044-1.332-.406-1.281-.885.808-1.34.241-.505.145-.901.099-.562-1.528-.781-1.148-.988-.686-.982-.066z" class="B C D"/><path d="M7.987 40.059c.013.658 1.238 3.441 1.788 3.472s.995.735 1.252.329.557 1.162 1.057 1.294.348 1.467.94 1.871.975-1.05.975-1.05l.446-.899s.764-.745.957-.106.594 2.568.94 1.872.639-.261 1.049-.402.335.812.605 1.062.968-.58 1.207-.607.46-.24.762.292 1.242.235 1.242.235l.222-1.249s-1.293-.702-1.573-.481-.881 1.325-1.224.986.036-.758.195-.966.403-1.27.092-1.328-.973-.55-.921-.085-.563.911-.857.473-1.135-.908-1.135-.908-.413-.425-.713-.391-.909.01-1.128.222-1.975-.814-2.028-1.278.023-1.416-.398-1.37-.816.847-1.249.236-.469.147-.839.095-.549-1.634-.747-1.235-.934-.742-.921-.085z" class="B C D"/><path d="M3.724 42.068c.427.105 2.131-1.918 2.664-1.814s1.6-1.278 2.133-1.172 1.812-.426 2.132 0-.813.431-1.279.747-2.345 1.492-1.706 1.705 1.812-.852 2.345-1.066-.906 1.53-.212 1.173 1.705-1.28 2.238-1.28-1.807 2.21-.852 2.131 1.065-.745 1.706-.745.318-1.918.959-1.812 1.386-.212 1.492.426-1.494 1.598-.96 1.811 2.238-1.064 2.879-1.172-1.919 1.6-.854 1.385 2.239-1.385 2.772-.639 2.132 0 2.132-.319-1.174-1.279-1.386-1.706-.214-.108-1.066-.108-1.387-.319-1.706-.851-1.812-.428-1.812-.428 0 .321-.427.428-1.279-.853-1.92-.747-1.277-.639-1.384-1.386-1.92-1.6-1.92-1.065.641 1.171.428 1.492-1.6-1.173-1.92-.959 1.174.639.746.851-.746 0-.746 0-1.278-.318-1.812-.639-2.024-.533-2.664.214-1.919 1.171-2.344 1.171-.427.427 0 .532.959-.212 1.492-.319-.639.425 0 .425 1.811-.639 2.557-.318-1.065 1.171-1.598 1.065-.533 1.173 0 .853 1.706-.32 1.706-.32.213-.427.851-.319-2.345 1.705-2.345 1.705-.744.964-.319 1.07z" class="B C D"/><path d="M7.966 18.896c.291.193 2.107-.817 2.477-.594s1.538-.496 1.91-.272 1.469.185 1.594.584-.722.091-1.157.195-2.152.446-1.73.777 1.583-.127 2.039-.136-1.086.868-.474.798 1.617-.467 2.019-.322-1.943 1.118-1.209 1.323.999-.253 1.476-.077.751-1.311 1.202-1.059 1.094.222 1.003.72-1.543.758-1.202 1.059 1.96-.165 2.467-.068-1.863.642-1.007.777 2.044-.397 2.243.293 1.595.584 1.68.351-.536-1.256-.581-1.626-.132-.136-.769-.369-.952-.613-1.049-1.09-1.241-.808-1.241-.808-.085.235-.433.195-.729-.972-1.235-1.07-.787-.816-.666-1.39-1.011-1.693-1.153-1.304.167 1.032-.078 1.207-.884-1.294-1.18-1.226.705.788.33.827-.557-.205-.557-.205-.872-.584-1.186-.962-1.373-.945-2.05-.575-1.75.33-2.068.214-.433.195-.143.388.776.108 1.204.175-.595.137-.115.312 1.526.029 1.999.467-1.11.563-1.48.339-.713.71-.229.623 1.361.233 1.361.233.273-.253.725 0-2.211.603-2.211.603-.814.494-.523.689z" class="B C D"/></g><g class="E"><path d="M30.321 12.82c-.194.131-1.404-1.202-1.651-1.059s-1.025-.781-1.271-.636-.978-.111-1.062.249.482.23.771.414 1.434.854 1.155 1.091-1.056-.433-1.36-.533.723 1.051.315.863-1.076-.767-1.343-.705 1.294 1.458.806 1.513-.666-.439-.983-.365-.501-1.413-.801-1.258-.73.001-.668.497 1.028 1.035.801 1.258-1.306-.544-1.643-.549 1.24.986.671.948-1.361-.786-1.495-.16-1.062.25-1.119.01.356-1.107.387-1.453.087-.106.512-.206.634-.403.7-.844.826-.534.826-.534.056.24.288.272.486-.795.824-.79.522-.634.443-1.211.672-1.435.767-1.031-.111.962.053 1.18.588-1.075.786-.951-.47.621-.221.732.373-.087.373-.087.58-.392.788-.697.915-.641 1.365-.15 1.165.662 1.378.612.288.272.095.404-.517-.05-.799-.067.393.246.074.322-1.018-.27-1.332.058.741.763.986.619.475.824.153.646-.906-.043-.906-.043-.182-.296-.482-.142 1.473 1.015 1.473 1.015.543.638.35.769z" class="B C D"/><path d="M31.337 72.114c-.282-.096-.324-2.054-.669-2.194s-.315-1.436-.66-1.578-.817-.982-1.187-.834.259.589.378.975.636 1.863.184 1.752-.625-1.253-.826-1.596-.182 1.325-.407.83-.375-1.481-.67-1.69.015 2.108-.482 1.688-.257-.892-.616-1.14c-.352-.251.684-1.346.281-1.529s-.676-.676-1.021-.313.114 1.6-.278 1.526-.768-1.551-1.074-1.87.35 1.767-.147 1.213-.623-1.758-1.253-1.491-1.184-.833-1.042-1.035 1.224-.354 1.534-.545.165.016.64.351.912.338 1.329.126 1.199.438 1.199.438-.142.203.047.438 1.091-.039 1.4.276c.307.32.997.094 1.39-.338s1.782-.263 1.542.074-.88.493-.905.783 1.414-.122 1.497.141-.937-.056-.796.248.415.292.415.292.852.296 1.293.302 1.364.454 1.385 1.178.542 1.497.778 1.665.047.438-.238.336-.438-.511-.686-.785c-.249-.279.165.518-.191.27s-.721-1.117-1.278-1.207.068 1.162.411 1.303-.229.954-.382.545-.802-.872-.802-.872.07-.354-.334-.537.541 2.001.541 2.001-.015.903-.301.802z" class="B C D"/></g><path d="M40.573 65.979c-.461.023-1.845-2.304-2.414-2.304s-1.415-1.568-1.985-1.568-1.793-.775-2.203-.418.759.582 1.182.985 2.144 1.924 1.444 2.009-1.712-1.195-2.223-1.506.652 1.68.002 1.194-1.524-1.594-2.072-1.697 1.454 2.524.483 2.263-.963-.943-1.623-1.068.027-1.947-.655-1.97-1.391-.479-1.621.129 1.244 1.863.655 1.966-2.116-1.484-2.757-1.715 1.685 1.947.622 1.529-2.053-1.799-2.743-1.172-2.202-.419-2.143-.731 1.45-1.026 1.75-1.407.239-.06 1.121.107 1.491-.045 1.922-.505 1.95-.065 1.95-.065-.059.315.361.505 1.48-.589 2.121-.358 1.44-.38 1.69-1.091 2.28-1.194 2.18-.669-.879 1.026-.719 1.38 1.872-.837 2.163-.567-1.331.4-.93.693.771.149.771.149 1.381-.065 1.991-.274 2.192-.129 2.713.731 1.764 1.529 2.206 1.613.36.502-.1.522-.952-.397-1.483-.605.581.543-.079.418-1.753-.982-2.584-.815.884 1.361 1.455 1.361.331 1.256-.159.838-1.704-.651-1.704-.651-.139-.46-.82-.479 2.104 2.134 2.104 2.134.593 1.09.13 1.111z" class="B C D G"/><path d="M34.793 21.255c-.296.167-1.909-.351-2.282-.155s-1.405-.187-1.778.008-1.409.283-1.571.575.674-.01 1.074.016 1.992.087 1.557.362-1.485.077-1.915.119.938.492.363.507-1.481-.158-1.875-.015 1.721.579 1.005.798-.918-.072-1.389.1-.574-.839-1.026-.615-1.057.27-1.025.608 1.381.369 1.027.615-1.838.09-2.327.209 1.694.254.873.439-1.893-.066-2.156.438-1.57.575-1.627.42.639-.932.721-1.196.138-.108.766-.338.965-.528 1.107-.87 1.258-.692 1.258-.692.055.153.39.088.791-.755 1.283-.875.829-.654.777-1.042 1.129-1.289 1.225-1.032-.264.737-.052.835.972-.997 1.244-.98-.75.624-.399.611.551-.201.551-.201.884-.499 1.221-.797 1.399-.802 2.002-.615 1.62.049 1.933-.066.391.091.096.258-.744.154-1.156.246.548.034.076.206-1.448.181-1.943.537.994.278 1.366.082.6.422.15.412-1.312.305-1.312.305-.233-.148-.684.075 2.028.191 2.028.191.723.258.43.424z" class="B C D E"/><path d="M14.461 59.485l1.041.454s.927 1.96 1.184 1.297 1.36-.425 1.097-.834.66-.479.472-.892-.348-.509-.895-.572-.963-1.42-.322-1.15.831-1.242 1.06-.296.782 1.114.986 1.738.593-1.327 1.148-1.156.009-.859.385-.995.461.927.717 1.227.951-1.678 1.342-1.6-.073-.955.278-1.413-.355-.611-.355-.611l-.335.666s-.438.354-.771.061.451.817.06.743-1.059-.666-1.382-.857-.158.976-.482.789-.827-.685-1.126-.553 1.57 1.264 1.04 1.413-1.52-.627-1.776-.93-.582.473-.999.077-1.094-.125-1.54.123 1.281.541.999.885-.462.998-1.052.402-1.444-.637-1.989-.702.022 1.281-.574.581-1.433-.528-1.851-.924.407 1.252-.011.857 1.102.234 1.057.666-1.207.415-.872.708 1.365.644 1.365.644l.897.569 1.204-.416z" fill="url(#Y)" class="B C D"/><path d="M26.321.285c.64.533.64 1.708-.107 1.173s-1.279.214-1.279.214 1.6.425 1.279.745-.959-.213-1.705.214-1.492 2.131-.852 1.704 2.239 0 2.664 0 .107.533.532.533 1.173-.533 1.6-.533.532.853-.106.853-1.812.106-2.133.639-.959 0-1.279-.212-.639.533-1.279.533-1.067.638-.639.852 1.6.107 2.558-.214 5.117.747 4.048 1.067-2.342.851-2.663.318-1.706-.533-2.026-.318-.746 1.171-1.599 1.065-.638.214-1.065.321-.746 1.598-.32 1.598 2.237-1.598 2.237-1.065-1.919 2.665-2.237 2.344-1.706-.853-1.387-1.173 1.387-.745.96-.96-.853.639-1.492.534-.639-.32-1.068-.641-1.385.213-1.385.213l-1.384-.425s-.959.425-1.386.212-.108-1.386.851-1.173-.425-.425.109-.533 1.171-.106 1.81-.106 1.067.639 1.6.639-.107-.533.214-.851-1.28 0-1.067-.535-.959.108-1.598 0-.96-.959-.641-.959 1.067-.639.32-.851-.746-2.132-.212-1.706.959-.32 1.384 0 .534 1.706.961 1.706 1.277-.746.532-.746-1.065-1.172-.532-1.386-.747 0-.853-.32.212-.745.745-.852 1.813.533 2.239.961.746-.533 1.067-.961.106.32.852.32.535-1.811 1.28-2.131 1.807-.641 2.446-.108z" class="B C D E"/><path d="M20.138 8.172c-.104-.532.642-2.878 1.493-2.984s1.6-1.386 2.239-1.172.852.639.852.959-.535.212-1.278.212.852 1.171.212 1.492-.639-.426-1.385.214-.427 1.811-.853 2.239-1.172-.428-1.28-.961z" fill="url(#Z)" class="B C D"/><path d="M22.207 49.723c-.466-.293-2.988-.107-3.422.891s-1.941 1.513-1.986 2.353.275 1.23.579 1.326.411-.58.702-1.484.784 1.391 1.337.715-.156-.905.743-1.613 1.892.038 2.464-.347.049-1.549-.416-1.841z" fill="url(#a)" class="B C D"/><g fill="url(#b)"><path d="M21.608 35.589c.462-.213 2.744.381 3.014 1.437s1.582 1.804 1.518 2.638-.409 1.163-.7 1.212-.301-.639-.452-1.575-.894 1.242-1.314.486.26-.865-.473-1.709-1.733-.269-2.207-.742.153-1.534.614-1.747z" class="B C D"/><path d="M21.608 55.736c.462-.212 2.744.383 3.014 1.439s1.582 1.802 1.518 2.639-.409 1.162-.7 1.21-.301-.638-.452-1.577-.894 1.242-1.314.489.26-.866-.473-1.71-1.733-.27-2.207-.743.153-1.536.614-1.748z" class="B C D"/></g></g></symbol></svg>