<svg xmlns="http://www.w3.org/2000/svg" xmlns:xlink="http://www.w3.org/1999/xlink" viewBox="0 0 45 76" fill="#fff" fill-rule="evenodd" stroke="#000" stroke-linecap="round" stroke-linejoin="round"><use xlink:href="#f" x=".5" y=".5"/><defs><linearGradient id="A" y2="50.00%" x2="100.00%" y1="50.00%" x1="0.00%"><stop stop-color="#4d4a44" offset="0%"/><stop stop-color="#615545" offset="38.8%"/><stop stop-color="#8b867d" offset="100%"/></linearGradient><linearGradient id="B" y2="50.03%" x2="99.99%" y1="50.03%" x1="0.01%"><stop stop-color="#4a694a" offset="0%"/><stop stop-color="#789747" offset="100%"/></linearGradient><linearGradient id="C" y2="49.99%" x2="100.00%" y1="49.99%" x1="0.00%"><stop stop-color="#508944" offset="0%"/><stop stop-color="#629664" offset="56.2%"/><stop stop-color="#68977e" offset="100%"/></linearGradient><linearGradient id="D" y2="49.97%" x2="100.01%" y1="49.97%" x1="0.04%"><stop stop-color="#6c8f41" offset="0%"/><stop stop-color="#789747" offset="56.2%"/><stop stop-color="#9aae82" offset="100%"/></linearGradient><linearGradient id="E" y2="50.00%" x2="99.98%" y1="50.00%" x1="0.01%"><stop stop-color="#508944" offset="0%"/><stop stop-color="#58876f" offset="100%"/></linearGradient><linearGradient id="F" y2="50.01%" x2="100.04%" y1="50.01%" x1="0.03%"><stop stop-color="#508944" offset="0%"/><stop stop-color="#58876f" offset="100%"/></linearGradient><linearGradient id="G" y2="49.99%" x2="100.01%" y1="49.99%" x1="-0.00%"><stop stop-color="#58876f" offset="0%"/><stop stop-color="#508944" offset="43.8%"/><stop stop-color="#73a080" offset="100%"/></linearGradient><linearGradient id="H" y2="50.00%" x2="100.00%" y1="50.00%" x1="-0.00%"><stop stop-color="#508944" offset="0%"/><stop stop-color="#629664" offset="56.2%"/><stop stop-color="#68977e" offset="100%"/></linearGradient><linearGradient id="I" y2="49.98%" x2="100.00%" y1="49.98%" x1="0.00%"><stop stop-color="#508944" offset="0%"/><stop stop-color="#58876f" offset="100%"/></linearGradient><linearGradient id="J" y2="49.98%" x2="99.98%" y1="49.98%" x1="-0.00%"><stop stop-color="#508944" offset="0%"/><stop stop-color="#58876f" offset="100%"/></linearGradient><linearGradient id="K" y2="50.00%" x2="99.99%" y1="50.00%" x1="-0.01%"><stop stop-color="#58876f" offset="0%"/><stop stop-color="#508944" offset="43.8%"/><stop stop-color="#73a080" offset="100%"/></linearGradient><linearGradient id="L" y2="50.00%" x2="100.00%" y1="50.00%" x1="0.01%"><stop stop-color="#508944" offset="0%"/><stop stop-color="#629664" offset="56.2%"/><stop stop-color="#68977e" offset="100%"/></linearGradient><linearGradient id="M" y2="73.61%" x2="96.91%" y1="39.23%" x1="1.84%"><stop stop-color="#4a694a" offset="0%"/><stop stop-color="#789747" offset="100%"/></linearGradient><linearGradient id="N" y2="50.00%" x2="100.00%" y1="50.00%" x1="-0.00%"><stop stop-color="#4a694a" offset="0%"/><stop stop-color="#789747" offset="100%"/></linearGradient><linearGradient id="O" y2="105.54%" x2="17.57%" y1="-4.75%" x1="76.79%"><stop stop-color="#508944" offset="0%"/><stop stop-color="#629664" offset="56.2%"/><stop stop-color="#68977e" offset="100%"/></linearGradient><linearGradient id="P" y2="20.82%" x2="46.36%" y1="77.47%" x1="58.42%"><stop stop-color="#508944" offset="0%"/><stop stop-color="#73a080" offset="100%"/></linearGradient><linearGradient id="Q" y2="50.00%" x2="100.00%" y1="50.00%" x1="-0.01%"><stop stop-color="#58876f" offset="0%"/><stop stop-color="#699679" offset="56.2%"/><stop stop-color="#73a080" offset="100%"/></linearGradient><linearGradient id="R" y2="4.09%" x2="83.91%" y1="131.64%" x1="24.69%"><stop stop-color="#58876f" offset="0%"/><stop stop-color="#508944" offset="43.8%"/><stop stop-color="#73a080" offset="100%"/></linearGradient><linearGradient id="S" y2="49.97%" x2="100.00%" y1="49.97%" x1="-0.00%"><stop stop-color="#58876f" offset="0%"/><stop stop-color="#68977e" offset="100%"/></linearGradient><linearGradient id="T" y2="50.00%" x2="99.99%" y1="50.00%" x1="-0.00%"><stop stop-color="#508944" offset="0%"/><stop stop-color="#58876f" offset="100%"/></linearGradient><linearGradient id="U" y2="50.00%" x2="100.00%" y1="50.00%" x1="0.02%"><stop stop-color="#58876f" offset="0%"/><stop stop-color="#508944" offset="43.8%"/><stop stop-color="#73a080" offset="100%"/></linearGradient><linearGradient id="V" y2="50.00%" x2="100.00%" y1="50.00%" x1="-0.00%"><stop stop-color="#508944" offset="0%"/><stop stop-color="#58876f" offset="100%"/></linearGradient><linearGradient id="W" y2="50.00%" x2="99.93%" y1="50.00%" x1="-0.01%"><stop stop-color="#58876f" offset="0%"/><stop stop-color="#68977e" offset="100%"/></linearGradient><linearGradient id="X" y2="49.99%" x2="99.99%" y1="49.99%" x1="-0.00%"><stop stop-color="#508944" offset="0%"/><stop stop-color="#629664" offset="56.2%"/><stop stop-color="#68977e" offset="100%"/></linearGradient><linearGradient id="Y" y2="50.02%" x2="100.01%" y1="50.02%" x1="-0.03%"><stop stop-color="#58876f" offset="0%"/><stop stop-color="#508944" offset="43.8%"/><stop stop-color="#73a080" offset="100%"/></linearGradient><linearGradient id="Z" y2="50.01%" x2="100.00%" y1="50.01%" x1="0.01%"><stop stop-color="#58876f" offset="0%"/><stop stop-color="#699679" offset="56.2%"/><stop stop-color="#73a080" offset="100%"/></linearGradient><linearGradient id="a" y2="99.50%" x2="94.29%" y1="30.96%" x1="3.43%"><stop stop-color="#4a694a" offset="0%"/><stop stop-color="#789747" offset="100%"/></linearGradient><linearGradient id="b" y2="287.28%" x2="3.08%" y1="-174.42%" x1="98.15%"><stop stop-color="#508944" offset="0%"/><stop stop-color="#58876f" offset="100%"/></linearGradient><linearGradient id="c" y2="50.01%" x2="99.99%" y1="50.01%" x1="-0.00%"><stop stop-color="#508944" offset="0%"/><stop stop-color="#629664" offset="56.2%"/><stop stop-color="#68977e" offset="100%"/></linearGradient><linearGradient id="d" y2="287.25%" x2="3.08%" y1="-174.42%" x1="98.16%"><stop stop-color="#4a694a" offset="0%"/><stop stop-color="#789747" offset="100%"/></linearGradient><linearGradient id="e" y2="50.01%" x2="-0.00%" y1="50.01%" x1="100.01%"><stop stop-color="#58876f" offset="0%"/><stop stop-color="#508944" offset="43.8%"/><stop stop-color="#73a080" offset="100%"/></linearGradient></defs><symbol id="f" overflow="visible"><g stroke="none" fill-rule="nonzero"><path d="M26.168 73.464c0-.806.101-1.681 0-2.48-.12-.948-.578-1.558-.611-2.557-.057-1.682.306-3.315.306-5.063 0-2.212-.191-2.817 1.691-3.494.395-.141 1.924-.442 2.255-.688.7-.519.554-1.531 1.537-1.829.04-.274.019-.45-.039-.695-1.014.234-1.674 1.23-2.653 1.705-1.044.506-2.188.837-3.338.704-.214-1.413-.164-2.005-.167-3.453-.005-1.425.268-2.602.268-4.026 0-1.969-.201-3.655-.503-5.565-.201-1.28-.541-2.594-.167-4.125.317-1.298.352-2.475.926-3.677.652-1.367.773-2.613 1.22-3.975 1.043-3.174 2.959-3.463 5.266-4.519 1.014-.464 2.317-1.343 3.298-1.908 1.47-.845 3.598-.918 4.235-2.693-1.294-.207-2.198 1.035-3.2 1.583-1.157.633-2.423.996-3.525 1.677-2.261 1.402-4.821 2.618-6.971 4.321.48-1.314 1.936-2.793 2.735-3.98.908-1.353 1.532-2.399 2.643-3.517 1.998-2.013 3.384-5.239 2.995-8.134-1.866 1.144-.581 3.972-1.843 5.429-.793.915-1.544 1.16-2.139 2.263-.4.738-.657 1.5-1.225 2.175-1.247 1.484-2.271 2.261-3.059 3.976-.772 1.684-1.46 2.921-1.46 5.153 0-5.309-.21-12.457 3.783-16.503 1.187-1.205 2.242-2.037 3.361-3.38.775-.928 2.375-1.666 2.957-2.586 1.314-2.079-.647-.182-1.545.498-1.087.823-1.936 1.896-2.849 2.884-.859.926-2.687 2.483-3.354 2.95s.669-6.496.954-7.004-.35-.003-.528 0c-1.855 2.543-.36 6.017-1.723 8.684-.249.486-.91 1.171-1.139 1.726-.267.644.006 1.58-.062 2.296-.084.889-.113 3.646-.892 4.12-.759-1.529-.133-5.035.115-6.762.307-2.134.614-4.879.615-6.23s-.167-2.308.002-3.322-.096-1.73 1.38-3.25 2.696-4.178 2.748-6.481c-.778.753-1.366 2.77-1.849 3.377s-.454 1.417-.987 2.105c-.473.61-1.281.565-1.605 1.337-.026-1.71.885-4.934-.222-6.333-1.069.646.096 3.111-.229 4.461s.164 3.102-.674 4.087-2.342-3.273-2.978-4.837c-.328 2.77 1.873 4.401 2.393 6.871.537 2.541.721 4.763.493 7.302-.135 1.515-.694 2.287-.924 3.513-.234 1.252.342 2.78.46 4.018.127 1.293.336 2.837.159 4.209-.169 1.31-.908 2.027-.918 3.516-.006.763.373 1.361.313 2.214-2.151-4.681 1.225-10.382-3.08-14.213.661 1.596 1.453 3.208 1.544 4.967.078 1.547.625 4.152.243 5.531-2.066-1.269-1.092-3.919-1.314-5.948-.23-2.107-2.992-4.277-3.696-6.165-.658-1.765-1.036-1.937-.839-4.024.165-1.757 1.819-3.842 2.112-5.523-1.336.978-2.047 3.333-2.447 4.652-1.408-.973-1.699-2.774-2.212-3.689-.628-1.116-1.676-2.683-2.108-3.831-.153 2.298 1.647 3.72 2.431 5.609.343.821 1.52 2.54 1.655 3.387.299 1.888-1.681.889-2.925.019-.794-.558-4.758-3.481-4.02-2.229.373.633 2.522 1.43 3.15 1.885.777.561 1.221 1.401 2.013 1.953.954.665 2.358 1.418 2.889 2.563.441.949 2.006 3.199 2.113 4.292-1.142.062-7.984-1.563-7.88-.153 2.219.643 7.586-.558 8.515 2.264.383 1.161.234 3.075.604 4.259.295.938 1.298 3.265 1.745 4.123 1.105 2.126.326 1.977 1.079 4.204.861 2.558.575 5.633.575 8.449 0 1.877-.505 3.931-.368 5.618-1.837-1.351-3.159-3.673-4.764-5.354-1.422-1.492-3.216-4.444-5.364-4.331-.221-1.648.102-4.35-.734-5.746-.751.786-.11 3.586-.296 4.861-2.869.328-6.006-2.04-8.835-.128.944.984 3 .208 4.321.206 1.408-.002 2.722.584 3.926 1.207 2.008 1.041 3.644 1.408 5.197 3.051.944 1.001 2.207 2.43 3.085 3.521.999 1.242 1.335 2.965 2.448 4.159 1.478 1.587 1.273 3.518 1.169 5.625-.094 1.865-.026 3.754-.029 5.775-.003 1.155-.175 3.758 1.273 3.989.19.393 1.5.24 2.209.422s.741-.331.89-.737v-.609z" fill="url(#A)"/><path d="M29.832 57.479c.274.361-.031.971.189 1.312s.315-.306.623-.112-.162.597-.029.703.227-.29.518-.011-.011.366.121.47.308.195.317.348-.553.315-.553.315.049.133-.203.225-.476-.134-.682-.175.06-.099-.086-.239-.593.331-.655.159.053-.248-.046-.52-.415-.885-.574-.673-.296.239-.247.372.398-.082.441.17-.061.48-.002.653.326.11.531.153-.209.343-.23.543.578.021.526.271-.74.457-.993.548-.76-.261-.888-.483.172-.448.141-.665.068-.6-.27-.746-.528.114-.643-.075.002-.383-.101-.538-.777-.179-1.012-.17-.284-.396-.425-.653.193-.913.435-.77.558-.357.738-.381.266.135.417.157.083-.298.334-.389.752-.157.926-.068.355.254.596.399.512-.488.785-.129zm-1.765.716c-.211-.192-.465-.179-.403-.006s-.029.315.147.405.469-.207.256-.398zm1.394.492c-.146-.138-.71-.127-.487.101s.11.571.304.581.328-.542.183-.681z" fill="url(#B)"/><path d="M22.442 62.946s-.073.6-.215 1.065.09 3 .208 4.001-.244 3.199-.05 3.601.718 1.009.523.739.38 1.273.38 1.273.139-.333.142-.665-.254-.67-.379-1.337-.148-3.536-.071-4.201-.023-3.067-.016-3.6-.519-.876-.519-.876zm1.272-19.412s-.066.6-.2 1.067.133 2.997.266 3.996-.2 3.203 0 3.603.469.766.469 1.231-.097 1.223.374 2.426l.222-2.326c0-.333-.265-.666-.4-1.332s-.198-3.534-.131-4.199-.066-3.065-.066-3.601-.536-.864-.536-.864zm-1.105-17.916s-.065.602-.201 1.067.136 3.001.27 4-.201 3.201 0 3.601.467.765.467 1.233-.096 1.219.373 2.425l.224-2.324c0-.334-.265-.668-.398-1.333s-.198-3.534-.133-4.201-.067-3.065-.067-3.599-.534-.87-.534-.87z" fill="#908683" opacity=".9"/><path d="M10.282 35.47a3.78 3.78 0 0 0-.389.931c-.016.144-.274.188-.432.396s-.161.53.026.681-.214.581.01.827.437-.013.539.152.366.24.188.535-.319.354-.366.14-.402-.659-.544-.597-.627.509-.816.357.023-.465-.286-.314-.739-.159-.689.114.243.485.102.548-.367.143-.617-.078-.801.153-.665.412.588.428.71.832-.405.045-.405.045-.954-.286-.737.224.645.761.86.888.631.258.877.42.107.608-.037.611-.406-.337-.574-.246-.308.473-.068.574.248-.16.425-.13.252.221.46.287.539-.17.412-.31-.256-.606-.146-.704.325.412.5.441.162-.532.42-.573.482.203.643.378.33.47.287.639-.422-.516-.67-.353-.161.532.028.681.503.118.765.136.287-.392.536-.23-.036.289.052.658-.498-.058-.484.12.555.715.742.866.447-.214.374-.406-.244-.485-.063-.392.407.336.567.511-.443.276-.338.501.428.25.562.451-.195.438.018.563.225-.078.413.072-.327.62-.055.756.136.583.383.744.596-.543.596-.543-.274-.519-.297-.759.528-.289.424-.513-.407-.337-.567-.512-.324-.41-.185-.475.571-.133.571-.133.727-.021.856-.203.541-.493.46-.743.081-.458-.201-.714-.211.256-.49.062-.464-.67-.548-.98.376-.73.213-.964-.504-.441-.368-.566.374-.728.189-.879-.496-.381-.545-.597.253-.102.18-.29-.213-.451-.213-.451.13-.568 0-.705-.344.057-.391-.157.245-.222.057-.373-.23.016-.363-.182-.441-.754-.513-.563.114.67-.073.518-.076-.571-.178-.738-.215-.509-.376-.682-.628-.199-.758-.014zm1.093 5.493c-.11-.286-.295-.052-.4-.278s-.32-.352-.122-.404.296.052.504.117.23-.399.156-.59-.809-.289-1.065-.569-.122-.404-.045-.54.717.569 1.028.477.276.136.435.313-.221.845.06 1.1.527.74.329.794-.769-.138-.88-.421zm-2.694-.564c-.242-.101-.459-.992-.119-.728s.434-.011.66.235-.299.593-.541.492zm2.003 2.413c-.247-.16-.14-.642-.473-.788s-.89-.217-.942-.49.48-.182.711-.202.369-.464.525-.347-.315.415-.156.59.508.503.737.808-.156.59-.402.428zm.5-5.21c-.248-.222-.442-.431-.542-.597s.347.003.611.02.183.798-.069.578z" fill="url(#C)"/><g fill="url(#D)"><path d="M17.497 16.928c.386 0 0-.722.242-.673s.769-.144.962.193.431 1.104.431 1.104.145.337.435.288-.146-.433.094-.529.242.24.481.047-.192-.769-.192-.769-.094-.529-.24-.72-.336 0-.336 0l-.193-.577s-.431-.192-.626-.049-.72-.098-.911.144-.675.096-.818.482c-.148.383.284 1.057.668 1.057z"/><path d="M8.145 27.811c.386 0 0-.72.242-.674s.769-.143.962.194.432 1.105.432 1.105.146.338.432.291-.144-.435.096-.53.24.24.482.047-.193-.769-.193-.769-.094-.529-.24-.722-.337 0-.337 0l-.192-.576s-.435-.191-.627-.048-.72-.097-.915.146-.671.094-.814.479.289 1.058.671 1.058z"/></g><path d="M18.94 13.897c0-.191 1.058-.097.818-.336s-.721-.529-.818-.819.963 0 1.058-.239.431-.24.673 0 .242.769.433.962.337 0 .528.047.481.529.24.529-.336 0-.289.24.578.626.385.722-.242-.096-.432-.096.19.673 0 .673-.721-.818-1.011-.818-.817-.626-1.106-.482-.481-.193-.481-.384zm2.308.578c.047-.338-.288-.144-.384-.386s-.529-.047-.289.146.623.576.672.24zm-.666-.931c-.198-.274-.253.033-.464-.102s-.317.218-.061.245.723.133.525-.143z" fill="url(#E)"/><g fill="url(#F)"><path d="M39.922 25.877c.031-.177-.987-.347-.721-.509s.766-.308.901-.55-.908-.237-.962-.482-.371-.328-.637-.166-.349.649-.563.777-.316-.083-.507-.086-.539.368-.312.428.32.081.234.288-.643.435-.476.57.242-.028.424.017-.289.571-.106.618.811-.573 1.085-.501.872-.375 1.122-.172.488-.06.517-.235zm-2.274-.039c.006-.318.293-.06.423-.256s.508.084.252.203-.681.377-.674.054zm.777-.687c.23-.204.232.091.455.019s.266.276.016.24-.702-.055-.471-.259z"/><path d="M43.406 24.843c.036-.212-1.485-.496-1.097-.675s1.126-.315 1.317-.597-1.369-.355-1.458-.655-.57-.425-.958-.249-.488.76-.796.9-.478-.123-.762-.141-.784.404-.441.493.477.123.364.373c-.114.245-.939.474-.682.65s.357-.018.631.053-.402.671-.127.743 1.179-.636 1.59-.529 1.279-.386 1.662-.12.721-.034.758-.245zm-3.389-.217c-.003-.389.438-.052.621-.282s.761.143.383.266-1 .404-1.005.015zm1.126-.779c.333-.23.351.128.679.058s.408.357.039.293-1.048-.121-.717-.352z"/></g><path d="M15.105 53.763c-.531.081-.725-2.865-1.28-2.099s-1.142 2.212-1.891 2.6-.419-2.643-1.119-2.801-.848-1.085-.296-1.852c.558-.763 2.013-.994 2.456-1.606s-.146-.924-.097-1.474 1.244-1.55 1.351-.889.143.923.783.686 1.465-1.856 1.815-1.369-.16.704-.076 1.229c.084.532 1.767-.817 1.85-.29s-1.933 2.336-1.806 3.129-1.362 2.517-.843 3.247-.319 1.406-.846 1.491zm.582-6.593c-.945.013-.269.856-.889 1.226s.097 1.469.523.726 1.313-1.968.367-1.952zm-2.264 2.235c-.669.663.192.678-.084 1.319s.736.778.704.056c-.033-.717.048-2.036-.619-1.374z" fill="url(#G)"/><path d="M29.697.513c.289.192-.193.673.144.769s.913.096 1.153.289-.336.48-.049.72.817.289.963.48-.24.289-.049.483.671.094.866.24.026.865.362 1.057.647.24.936.432-.315.289-.266.577 1.178.769 1.228 1.058-.07.769-.214.913.021.913-.315 1.01-1.011-.24-1.299-.097 1.106.722.626 1.009-.674.77-1.155.963-1.23-.31-1.563-.31-.745.406-.937.357-.721-.527-1.01-.433-.337.386-.529.433-.48-.384-.674-.287-.384.576-.817.865-.864.289-1.009.24-.482.819-.962 1.059-.817.047-1.106.047-.383.287-.673.287-.434-.334-.528-.72-.049-.673 0-.913.576-.433.623-.722-.335-.336-.144-.529.77-.096.962-.337.097-.671 0-.912-.432-.049-.721-.146-.913-.48-.72-.72-.626-.673-.338-.866.672-.143.816-.334-.625-.53-.239-.626 1.058.24 1.346.144.816-.337.671-.482-.72-.193-1.009-.144-.049-.433-.192-.576-.674-.097-.579.096-.239.529-.479.625-.049.433-.146.626-.338.336-.72.287-.482-.431-.674-.527-.241.047-.53-.097-.143-.289.049-.482 1.106-.864.963-.287.863-.577.72-.722-.481.193-.769.144-.146-.529-.386-.577-.673-.432-.673-.432-.336-.386-.096-.528.432-.049.626-.097.24-.914.529-.914.383-.336.192-.433-.625.626-.625.626-.288-.146-.577-.146-.529-.383-.433-.623-.384-.577.049-.817 1.395-.626 1.827-.482.577.673.915.673.335-.24.577-.24 1.201 0 1.152.336-.143.673.097.771.529-.338.866-.384.623.433.863.384-.24-.866.049-1.01.769.191 1.058.191.434-.384.723-.384.964-.046 1.253.146zM28.64 6.232c.288.097.624-.239 1.104-.143s.481-.771.144-.771-.672.193-.961-.047-.576.866-.287.96zm2.499 1.252c.242-.097.385-.242.193-.626s-.288.144-.626 0 0 .435 0 .435.192.287.433.191zm-4.711-4.087c.24.144.195 0 .434.048s.721.529.912.48.145-.577 0-.722-.289-.047-.576-.096-.145-.383-.336-.383-.675.527-.434.672zm2.789-.866c.192.097.432-.047.721.097s.483-.529.144-.626-1.057.434-.864.529zm-5.915-.912c.192.192.77-.386.579-.337s-.195-.482-.386-.24-.385.384-.193.577zm1.156 3.028c.481-.144 1.344.047 1.01-.288s-.578-.529-.769-.384-.723.817-.241.673zm.383 4.615c.338.049.48-.288.722-.24s.192.625.48.625.77-.625.77-.816-.481-.435-.721-.529-.193.094-.433.094-.433-.143-.626 0-.527.817-.189.866z" fill="url(#H)"/><path d="M6.883 29.114c-.191.031-.259-1.03-.46-.755s-.409.796-.682.936-.149-.95-.402-1.009-.305-.39-.104-.664.721-.358.882-.577-.052-.333-.036-.53.448-.558.485-.32.052.333.283.248.526-.668.652-.493-.058.253-.029.443.636-.297.665-.105-.694.84-.649 1.126-.49.904-.302 1.166-.117.503-.305.534zm.208-2.37c-.337.005-.096.308-.317.44s.035.53.188.263.471-.71.13-.702zm-.812.804c-.24.237.07.243-.029.474s.265.279.252.02.018-.731-.222-.493z" fill="url(#I)"/><path d="M6.308 30.283c-.049-.292 1.576-.415 1.152-.717s-1.226-.616-1.447-1.03 1.457-.245 1.541-.634.593-.473 1.019-.172.561 1.104.902 1.346.51-.085.814-.062.864.678.497.74-.508.086-.373.438 1.033.8.766.994-.39-.082-.682-.036.464.972.172 1.021-1.301-1.055-1.737-.982-1.397-.738-1.798-.446-.776-.168-.825-.459zm3.643.287c-.013-.524-.476-.144-.682-.485s-.814.062-.402.292 1.096.714 1.083.193zm-1.249-1.239c-.368-.365-.373.112-.727-.039s-.424.41-.029.389 1.126.015.756-.35z" fill="url(#F)"/><path d="M37.665 24.063c-.162-.199-1.067.654-1.048.232s.223-1.064.067-1.431-.895.685-1.187.503-.61.058-.628.48.427.97.411 1.307-.312.24-.451.427.002.892.226.722.313-.24.472.044-.006 1.059.252 1.024.143-.271.323-.409.393.837.57.701-.021-1.364.248-1.568.23-1.233.622-1.289.284-.542.123-.741zm-1.659 2.242c-.331-.315.144-.357.031-.675s.451-.425.391-.055-.093 1.048-.422.731zm-.171-1.44c-.047-.426.263-.146.344-.438s.481 0 .266.214-.56.65-.611.223z" fill="url(#J)"/><path d="M19.903 11.878c.433 0 .72.29.962.29s.528-.097.768 0 .817.48.627.72 0 .866-.146 1.106.288 1.058.146 1.442.527 1.202.816 1.346.673-.336.913-.433-.578-.673-.338-.962-.096-.771.146-.771.386.29.72.386.338.624.578.577-.143-.722.242-.818-.144-.913-.289-1.155-1.01-.529-1.299-.576-.48-.433-.289-.482.77.24 1.057.289.146-.289 0-.481-.481-.337-.72-.337-.338-.433-.577-.433-.48.144-.77.097-.049-.673-.433-.625-.674-.193-.962-.338-.481.338-.818.192-.191.242-.528.337-1.057-.049-.913.289.672.335 1.105.335z" fill="url(#K)"/><path d="M24.066 58.514c.434 0 .722.289.963.289s.529-.097.768 0 .818.481.627.721 0 .866-.146 1.106.289 1.057.146 1.441.528 1.202.814 1.345.673-.334.915-.432-.575-.673-.338-.962-.095-.769.145-.769.385.289.722.385.335.624.577.577-.144-.721.24-.818-.143-.911-.289-1.155-1.009-.529-1.298-.576-.48-.432-.288-.481.769.242 1.057.289.144-.289 0-.48-.48-.338-.722-.338-.335-.433-.575-.433-.48.144-.768.096-.049-.672-.433-.623-.673-.193-.962-.337-.48.337-.817.191-.191.24-.529.337-1.057-.048-.915.289.672.34 1.103.34z" fill="url(#L)"/><g fill="url(#M)"><path d="M5.825 45.555c-.282-.224-.649-.144-.804-.269s-.286-.347-.502-.394-.831-.044-.854.243-.535.68-.59.943-.845.681-.989 1.057-1.088.671-1.368.635-.229-.61-.326-.808.792-.234.815-.584.54-.551.382-.678-.428.029-.707-.068-.607.318-.735.156.541-.492.351-.766.661-.642.902-.756.988.104 1.205.214.581-.092.487-.229-.652-.206-.869-.316.084-.301.298-.38.523-.016.678.109.486-.167.645-.044.224.36.441.471.447-.503.668-.268.558.196.837.232.104.511.412.571-.024.287.136.537.718.506.416.696-.646-.079-.929-.302z"/><path d="M13.233 43.25c-.282-.222-.651-.144-.807-.268s-.285-.349-.501-.396-.83-.044-.855.243-.536.678-.591.941-.843.683-.989 1.059-1.087.671-1.366.636-.231-.61-.327-.81.794-.23.817-.581.538-.555.381-.678-.43.028-.709-.07-.606.316-.733.156.54-.491.35-.764.659-.644.902-.759.986.106 1.205.216.58-.092.484-.229-.65-.208-.869-.318.086-.3.299-.377.522-.018.679.107.489-.169.644-.044.224.36.442.471.448-.503.669-.268.557.196.836.23.105.513.413.571-.024.289.135.539.721.506.419.694-.647-.079-.929-.302z"/></g><path d="M7.964 17.301c-.371-.175-.739-.031-.945-.127s-.41-.302-.657-.313-.903.102-.843.398-.372.782-.351 1.058-.7.84-.741 1.245-.967.871-1.275.884-.432-.576-.597-.761.784-.375.701-.733.412-.655.207-.752-.454.104-.782.055-.554.428-.739.287.431-.594.146-.835.514-.767.739-.926 1.09-.068 1.356.005.597-.196.454-.318-.76-.094-1.028-.167 0-.319.206-.436.557-.107.76-.01.474-.254.678-.159.349.328.616.399.33-.587.638-.388.657.099.965.086.266.5.616.505.058.297.307.521.923.383.656.629-.72.03-1.088-.147z" fill="url(#N)"/><path d="M37.015 25.343c-.034-.276.299-.467.279-.623s-.159-.331-.06-.486.526-.535.835-.422 1.062-.026 1.369.057 1.275-.216 1.76-.136 1.432-.374 1.588-.563-.466-.417-.603-.566-.781.387-1.153.245-.936.084-.956-.068.325-.253.415-.471.739-.233.663-.386-.874.115-1.022-.127-1.11.12-1.393.221-.571.659-.607.843-.496.318-.567.198.234-.496.272-.681-.366-.083-.59.015-.377.317-.357.47-.505.227-.486.38.214.302.178.487-.825.05-.734.295-.185.433-.337.621.449.295.298.512.31.115.454.326.023.675.424.573.364-.44.329-.714z" fill="url(#O)"/><path d="M34.044 27.082c-.083.162-.812-.321-1.017-.094s-.594.874-.705 1.069-.379-.227-.658-.063-.415.388-.554.615-.672.098-.672.098-.738.101-.735.456-.261.647-.193 1.001.496.743.658 1.067-.238.548.099.678.62.678 1.007.321.815-.616.883-.908.036-.97.402-.872.967-.068 1.249-.166-.039-.388.338-.519.809.613 1.15.451.332-.584.592-.584.649.646.889.451.615-1.326.826-1.489.549-.034.738-.099.24-.194.422-.324.686.031.84-.067.38-.422.619-.617.513-.066.784-.292.312-.777.429-.909l.526-.581c.177-.194.731-.165.812-.326s.563-.55.349-.745-.97-.289-1.14-.029-1.103.003-1.316.165-.396.581-.396.581.263.357.094.616-.312.485-.535.517-.708-.579-1.025-.514-.409.454-.62.616-.874-.613-1.148-.451-.782.649-.999.746-.522-.353-.811-.321-1.1.362-1.181.524z" fill="url(#P)"/><path d="M35.077 57.409c.146.143.577.048.769.289s0 .336-.288.336-1.058-.336-1.058-.336l-.334-.289s-1.012-.097-.82.094.385.289.579.243.482.672.145.721-.482-.338-.674-.386-.575.049-.575.049h-.484c-.191 0-.431.481-.671.528s-.72-.383-.913-.383-.433.335-.722.431-1.011-.337-1.058-.626.192-.48.578-.48-.193-.335-.193-.577.673-1.346 1.251-1.298.577.385.96.385.914-.287 1.106-.287.338-.097.481-.338-.528-.432-.528-.432-.481-.047-.385-.24.769-.529 1.01-.482.673.24.914.337.624-.143.912-.24.963-.097 1.204-.097.337-.287.624-.383.433.24.722.24.768-.288.913.047-.578.531-.817.531.673.575.384.624-1.057-.433-1.298-.384-.674.335-.674.335-.383.24-.094.289.817.145 1.056.096 1.01.72.721.72-.577-.286-.769-.191-.049.337-.145.481-.864.143-.864.143 0-.336-.483-.336.288.385.048.433-.672.289-.528.433z" fill="url(#Q)"/><path d="M15.887 32.579c.277-.331.685-.367.838-.55s.266-.469.494-.589.895-.318.955-.016.664.555.754.821.997.458 1.2.816 1.259.367 1.554.239.175-.73.256-.978-.885.008-.954-.36-.652-.42-.497-.605.471-.109.759-.305.695.142.812-.071-.645-.354-.471-.711-.791-.477-1.07-.519-1.054.433-1.275.623-.642.091-.554-.088.677-.434.901-.624-.13-.297-.37-.31-.566.154-.72.337-.549-.021-.704.164-.198.462-.421.652-.547-.398-.756-.071-.579.394-.876.521-.05.585-.377.749.062.304-.084.623c-.14.321-.714.78-.364.886s.691-.296.968-.63z" fill="url(#R)"/><path d="M14.921 21.518c-.583.287-.783 1.13-1.294 1.422s-.068-.501-.548-.423-.331.766-.558.824.013-.443-.519-.26-.297.427-.523.486-.478.078-.613.25.302.623.302.623-.166.133.016.357.6.07.846.118.02-.141.287-.232.33.659.537.493.156-.311.484-.579 1.167-.824 1.155-.504.1.413-.062.548-.338-.285-.594-.016-.342.589-.546.754-.43-.024-.674-.076-.075.496-.221.738-.61-.248-.765.063.373.876.555 1.1.997.057 1.316-.139.198-.594.414-.831.434-.723.903-.733.445.381.721.217.319-.444.554-.574.947.161 1.181.281.626-.32.983-.55.571-1.144.204-1.093-.276-.672-.438-.788-.382.031-.558-.013.165-.384-.015-.61-.638-.534-.893-.512-.578.127-.945.179-.106-.805-.691-.517zm1.208 1.654c.38-.12.626.016.422.182s-.239.38-.493.399-.305-.46.072-.579zm-1.841-.088c.265-.093.835.19.416.344s-.596.607-.799.526.117-.777.383-.87z" fill="url(#S)"/><path d="M25.659 5.993c.289-.242.914-.049 1.249 0s.435.768.627.864.528-.24.72-.191-.047.529.195.72 1.489-.384 1.681-.094-.721.96-.385 1.152.673-.192.866-.192 0-.289.193-.48.24-.289.624-.289 1.299.529 1.348.769.72.626.767.913-.238.529-.481.624-.721-.288-1.009-.337 0 .146-.289.29-.48-.097-.72-.097-.48.433-.769.482-.817-.577-1.106-.675-.528-.383-.915-.336-.24.819-.577.771-.769-.915-.721-1.155-.384-.769-.577-.72-.672 0-.96.096-.721.384-.962.24-.482-.336-.531-.722.385-.384.577-.384-.191-.482.049-.433.529.433.867.433.769-.287.866-.48-.916-.53-.627-.768z" fill="url(#T)"/><path d="M6.801 9.898c.191.12.808.331.951.34s.2.266.418.412.536.133.678-.062.59.185.824-.052-.034-.433.127-.542.224-.381.524-.217.372.302.161.36-.639.435-.569.573.54.602.397.797-.467.003-.3.301-.122.748.147.681.472-.266.545-.13.159.36-.049.621.191.793.445.641.397-.608.795-.749.065.402.065.402-.235.967.263.726.726-.684.843-.903.226-.644.373-.898.604-.138.614.005-.315.423-.218.586.49.284.578.039-.174-.239-.153-.417.208-.262.264-.475-.196-.529-.33-.394-.592.284-.696.182.396-.347.419-.524-.54-.133-.595-.388.176-.493.345-.662.453-.354.623-.318-.494.448-.318.686.538.133.678-.062.094-.509.097-.774-.405-.266-.254-.521.288.021.65-.086c.367-.107-.032.5.146.477s.688-.59.829-.784-.237-.436-.424-.354-.472.268-.389.082.315-.423.481-.592.297.428.518.312.229-.439.421-.582.448.172.562-.047-.088-.222.052-.417.635.295.757.016.576-.166.726-.419-.575-.567-.575-.567-.502.301-.741.334-.316-.512-.536-.396-.312.422-.481.59-.395.344-.464.207-.164-.563-.164-.563-.057-.725-.244-.845-.521-.516-.766-.422c-.245.089-.46-.057-.702.237s.268.198.086.487-.648.496-.95.595-.748-.339-.974-.164-.415.526-.548.396-.744-.337-.885-.144-.357.514-.568.573-.117-.247-.301-.162-.438.234-.438.234-.572-.101-.705.036.073.34-.138.397-.234-.232-.377-.037.031.229-.162.373-.73.479-.535.54.661-.147.52.047-.567.106-.728.214-.497.242-.665.412-.17.636.02.756zm5.431-1.369c-.279.127-.037.297-.256.415s-.334.337-.398.139.037-.297.093-.509-.412-.209-.598-.125-.248.822-.514 1.092-.399.142-.535.073.528-.744.421-1.051.123-.28.292-.448.853.177 1.093-.118.713-.565.777-.367-.096.774-.374.899zm-.427 2.718c-.089.247-.968.51-.721.154s-.032-.433.2-.67.61.271.521.516zm2.308-2.122c-.148.255-.633.172-.764.511s-.17.901-.443.965-.204-.467-.234-.697-.481-.347-.373-.508.43.293.597.125l.768-.776c.294-.243.599.127.448.38zm-5.229-.236c-.208.259-.409.462-.568.571s-.013-.347-.01-.612.786-.222.578.041z" fill="url(#U)"/><path d="M17.783 30.683c-.253.024-.625-.363-.802-.282s-.525.488-.739.625-.979-.532-1.135-.396-.156.466-.43.519-.84-.477-1.037-.451-.272.217-.369.436.215.527.215.527-.076.354-.231.491-1.056-.093-1.152.126-.803.13-1.036-.037.115-.495.153-.631.549-.106.665-.269l.351-.492c.077-.11-.003-.577.191-.769s.471-.078.644-.241.313-.436.429-.517.607.06.743-.049.154-.218.309-.273.489.058.646-.076.252-1.098.427-1.262.665.391.898.394.136-.357.412-.491.549.196.864.089.197-.352.431-.431.775.087 1.127.173.174-.495.174-.741.446-.047.718-.347.101.32.433.431.506.204.72.484c.185.233.599.071.769.448.136.305-.174.114-.094.417s-.578.433-.578.433-.499.094-.579.289-.015.555-.229.691-.866-.328-.924-.162.046.814-.091 1.006-.898-.231-.937-.091-.701.407-.955.431zm-3.638-.814c.242.431.718.288.96.383s.819-1.44.338-1.009-1.54.19-1.299.626z" fill="url(#N)"/><g fill="url(#H)"><path d="M7.698 10.988c.577-.146 1.204.383 1.732.287s-.243-.433.143-.673.673.386.866.289-.263-.336.218-.529.456.146.647.049.385-.24.578-.193.144.673.144.673.193 0 .193.289-.386.433-.531.626-.094-.097-.336 0 .144.72-.096.72-.288-.145-.674-.145-1.298.096-1.104.338.165.384.359.384.075-.433.41-.384.578.24.82.24.285-.289.431-.482.336.338.578.433.288-.577.577-.433.239.915.239 1.202-.671.673-1.009.722-.482-.338-.769-.385-.722-.289-1.057 0-.097.576-.385.624-.484-.144-.721-.096-.576.722-.674.962-.626.143-1.009.191-1.057-.529-.772-.72-.192-.696-.143-.889.289-.217.385-.362-.336-.193-.336-.48.143-.819.336-.962.481-.266.77-.461-.387-.695.191-.838zm.097 2.045c-.338.144-.435.407-.195.407s.385.143.577 0-.049-.551-.382-.407zm1.248-1.228c-.239.096-.48.672-.095.529s.768.094.864-.097-.529-.529-.769-.432z"/><path d="M11.411 26.733c.575-.142 1.201.386 1.731.289s-.242-.431.145-.675.673.386.864.289-.261-.336.219-.529.454.146.645.049.386-.24.579-.192.144.672.144.672.192 0 .192.289-.386.433-.528.626-.097-.097-.338 0 .146.72-.096.72-.289-.143-.673-.143-1.298.096-1.106.336.167.385.356.385c.195 0 .075-.432.414-.385s.575.242.816.242.289-.289.435-.482.334.336.574.433.291-.577.578-.433.242.913.242 1.202-.674.671-1.009.72-.482-.334-.771-.383-.72-.288-1.057 0-.096.576-.386.625-.48-.145-.72-.097-.577.722-.674.962-.623.144-1.007.193-1.059-.529-.771-.722-.191-.694-.142-.885.286-.221.382-.363-.334-.193-.334-.482.143-.817.334-.962.482-.266.772-.459-.384-.693.193-.838zm.094 2.048c-.334.143-.431.405-.192.405s.386.144.578 0-.049-.552-.386-.406zm1.251-1.231c-.239.096-.48.673-.096.529s.768.096.866-.096-.528-.53-.77-.433z"/></g><path d="M9.523 46.756c.406-.206.95.198 1.327.042s-.247-.366 0-.636.557.266.684.154-.247-.276.078-.514.359.075.484-.039.246-.268.397-.25.213.599.213.599.143-.024.188.24-.214.446-.292.641-.084-.076-.247.042.221.642.044.675-.234-.097-.52-.047-.944.255-.764.45.183.333.325.309-.013-.406.243-.406.464.146.64.115.167-.3.243-.497.304.265.495.323.123-.566.357-.471.324.807.369 1.07-.389.704-.629.792-.409-.248-.63-.255-.58-.172-.785.134.023.541-.183.623-.377-.071-.546.005-.312.734-.346.967-.44.213-.715.307-.867-.351-.685-.564-.253-.61-.247-.794.178-.236.227-.38-.278-.133-.325-.398-.024-.767.095-.926.313-.305.496-.518-.396-.59.007-.795zm.398 1.861c-.226.175-.255.428-.078.398s.306.081.426-.075-.123-.497-.348-.323zm.728-1.286c-.162.12-.248.679.013.499s.583-.011.622-.201-.473-.415-.636-.296z" fill="url(#V)"/><path d="M22.739 1.493c-.049.289-.338 1.059-.435 1.204s.049.431 0 .769-.286.626-.528.577-.287.72-.623.72-.288-.433-.481-.384-.434-.144-.529.289-.047.625.144.482.77-.193.818 0 .048 1.058.288 1.104.334-.431.432 0 .626.577.386.771-.529.192-.484.383.146.483.484.529.433.915.142 1.012-.72-.195-1.104.047.24.433.24.433.864.673.336.913-1.009.047-1.249-.049-.626-.384-.915-.482-.529.435-.432.577.529.098.578.337-.146.72-.386.577-.047-.386-.192-.529-.337-.049-.528-.194-.24-.671-.049-.671.626-.289.626-.48-.528.049-.674-.097.289-.624.146-.913-.48-.289-.722-.289-.577.096-.673.289.673-.047.72.336-.287.626-.528.577-.432-.383-.623-.624.094-.625-.193-.722-.192.289-.53.529.386.435.24.578-.911.097-1.152.049-.146-.626.046-.721.528-.193.337-.289-.528-.096-.769-.096.097.673-.144.769-.481-.193-.721-.144-.192.577-.432.482-.097-.289-.337-.337-.24.866-.529.722-.528.384-.817.287 0-1.057 0-1.057.577-.191.769-.383-.143-.771.097-.866.529.096.769.096.529-.047.481-.24-.289-.673-.289-.673-.48-.722-.431-1.009 0-.963.239-1.106.289-.48.674-.433-.049.433.286.529.818-.144 1.107-.337.288-1.009.577-1.058.674.096.674-.145.289-1.009.529-.96.624.143.816 0-.096-.338.096-.433.482-.193.482-.193.335-.626.528-.626.193.386.385.244 0-.435.24-.386.145.24.386.191.864-.24.77 0-.578.482-.338.529.481-.432.674-.48.527-.24.77-.24.582.432.536.72zm-4.856 3.799c.289-.143.24.24.48.146s.481 0 .386-.242-.242-.24-.435-.384.146-.577.338-.673.769.529 1.155.529.382-.241.431-.433-.913-.192-1.058-.577-.288-.143-.528-.143-.48.961-.864.912-.914.146-.82.386.624.626.913.48zm2.259 2.115c.242.146 1.057-.431.625-.529s-.289-.431-.625-.431-.238.818.002.96zm-3.174.193c.289.096.578-.433.915-.24s.769.673 1.01.482-.191-.626-.338-.866.097-.769-.094-.817-.097.673-.338.673-.72-.047-1.106 0-.335.673-.048.769zm3.558-5.096c.338.049.626.049.817 0s-.24-.336-.431-.576-.725.529-.386.576z" fill="url(#W)"/><path d="M3.947 20.953a5.8 5.8 0 0 0 1.273.094c.17-.029.377.217.705.311s.685-.01.737-.246.775.031.91-.273-.283-.436-.162-.59.042-.449.475-.363.591.211.383.326-.481.618-.328.738c.159.12.951.47.899.707s-.529.129-.172.391.279.796.551.657.386-.399.542-.279.382.325.294.649.663.759.864.537.114-.73.486-.979.3.392.3.392.271 1.053.702.672.446-.892.454-1.148-.105-.718-.078-1.02.609-.302.701-.157-.123.516.078.657.721.161.682-.115-.331-.199-.406-.386.089-.325.034-.556-.52-.49-.598-.315-.513.448-.688.372.255-.459.182-.647-.687.008-.895-.24-.071-.55.023-.765.318-.483.533-.493-.312.589.021.788.686-.01.738-.246-.18-.545-.323-.816-.611-.166-.583-.466.34-.057.694-.263.243.523.433.45.45-.787.504-1.023-.515-.383-.681-.247-.386.399-.399.187.127-.518.221-.735.577.358.76.18.015-.511.154-.709.605.058.613-.198-.225-.203-.171-.44.887.131.869-.187.562-.321.588-.623-.968-.425-.968-.425-.405.443-.658.539-.646-.441-.83-.263-.12.517-.217.735-.255.458-.411.338-.501-.534-.501-.534-.471-.723-.753-.797-.882-.388-1.106-.228-.556.067-.665.435.415.13.368.472-.455.681-.747.863-1.04-.146-1.197.096-.18.647-.4.55-1.04-.146-1.09.089-.119.623-.326.74-.269-.224-.435-.087-.366.357-.366.357-.708.052-.782.226.274.329.066.444-.397-.175-.449.063.162.226.024.423-.567.686-.307.696.668-.328.616-.091-.585.26-.707.415-.432.38-.526.597.166.693.448.767zm5.411-2.855c-.247.201.123.313-.06.493s-.193.433-.373.248-.123-.313-.18-.543-.586-.104-.75.032.178.907.026 1.255-.376.25-.569.216.187-.903-.107-1.189-.018-.318.078-.535 1.072-.047 1.181-.413.496-.767.678-.582.323.814.076 1.019zm1.035 2.894c.036.275-.816.782-.733.352s-.281-.435-.146-.739.843.111.879.388zm1.441-2.789c-.026.3-.626.345-.584.728s.31.967.039 1.106-.496-.425-.658-.654-.743-.222-.71-.417.655.185.751-.033.242-.671.44-.999.749-.03.723.27zm-6.08 1.159c-.091.323-.207.584-.327.738s-.213-.352-.356-.623.77-.439.683-.115z" fill="url(#X)"/><path d="M.145 48.763c.192.12.808.331.951.341s.2.266.415.413.541.133.682-.062.59.185.825-.052-.034-.435.125-.544.222-.381.525-.216.37.302.157.359-.637.436-.567.573.54.602.397.796-.467.003-.298.304-.123.745.145.681.474-.268.546-.13.159.359-.049.62.193.794.445.642.399-.609.795-.749.068.4.068.4-.239.968.26.727.726-.683.843-.904.226-.644.373-.898.603-.138.613.006-.317.422-.218.584.49.285.578.039-.172-.239-.152-.417.209-.261.264-.475-.196-.528-.329-.392-.592.282-.698.18.396-.346.419-.524-.538-.133-.595-.387.176-.494.345-.662.451-.352.623-.316-.493.446-.318.685.539.133.678-.062.094-.508.097-.772-.405-.266-.254-.522.288.021.653-.086-.036.502.144.477.686-.589.827-.784-.237-.436-.424-.352-.473.267-.389.081.315-.424.481-.592.297.429.518.312.229-.438.422-.582.447.173.561-.047-.089-.221.052-.415.636.295.757.016.576-.165.726-.419-.573-.568-.573-.568-.504.302-.744.333-.315-.513-.532-.398-.314.425-.483.593-.393.344-.466.208-.161-.564-.161-.564-.058-.724-.246-.844-.521-.516-.766-.425-.46-.055-.7.24.266.198.084.487-.646.496-.951.595-.748-.339-.974-.164-.415.524-.548.396c-.128-.129-.744-.339-.885-.146s-.357.516-.568.574-.117-.25-.301-.164-.438.234-.438.234-.571-.099-.705.036.073.342-.138.397-.234-.231-.377-.037.029.23-.162.373-.73.479-.535.54.661-.146.522.047-.567.105-.73.215-.497.242-.665.411c-.167.174-.167.642.022.762zm5.431-1.368c-.279.122-.036.294-.256.413s-.334.337-.396.141.036-.297.091-.509-.412-.209-.598-.125-.248.822-.515 1.092-.399.14-.536.071.532-.743.423-1.051.123-.279.292-.448.853.178 1.093-.117.713-.565.777-.366c.063.193-.096.771-.374.898zm-.427 2.719c-.089.247-.968.51-.722.153s-.032-.432.2-.668.61.268.521.515zm2.308-2.124c-.146.255-.633.174-.762.511s-.172.902-.443.967-.205-.469-.235-.701-.481-.343-.373-.504.428.291.598.125.475-.532.769-.776.597.123.448.377zm-5.227-.235c-.209.26-.411.463-.57.572s-.013-.348-.01-.614.786-.222.58.042z" fill="url(#Q)"/><path d="M14.607 8.05c-.255.04-.283-.965-.57-.691s-.599.784-.97.936-.143-.899-.477-.938-.385-.352-.097-.627.989-.386 1.218-.607-.05-.313-.015-.504.636-.558.672-.334.05.315.363.218.75-.668.907-.511-.094.245-.065.425.871-.323.897-.143-.985.845-.941 1.114-.714.894-.48 1.132-.187.49-.443.53zm.43-2.276c-.458.028-.151.302-.458.441s.014.503.235.238.679-.706.223-.68zm-1.143.819c-.338.243.08.228-.068.456s.336.248.338.002.07-.699-.27-.457z" fill="url(#U)"/><g fill="url(#F)"><path d="M29.645 5.58c-.159-.169.566-.694.221-.767s-.88-.044-1.178-.242.59-.554.449-.821.066-.462.412-.389.783.534 1.059.59.206-.195.364-.265.733.185.585.323-.206.194.023.378.869.212.832.409-.227.054-.343.164.674.48.558.59-1.119-.297-1.294-.13-1.017-.075-1.075.218-.451.11-.611-.058zm1.888-.831c-.25-.321-.296.042-.553-.112s-.364.263-.057.292.859.143.609-.18zm-1.177-.425c-.347-.127-.127.172-.367.175s-.015.375.166.25.549-.3.202-.425z"/><path d="M22.674 3.627c-.161-.17.565-.697.221-.768s-.879-.046-1.178-.242.588-.556.45-.822.065-.461.41-.39.785.534 1.061.59.206-.194.364-.264.731.186.584.324-.204.195.023.376.87.214.834.409-.229.055-.344.167.674.477.554.589-1.116-.298-1.29-.131-1.019-.074-1.077.219-.451.112-.611-.057zm1.888-.83c-.251-.324-.296.039-.554-.115s-.364.264-.055.293.859.143.609-.178zm-1.177-.429c-.348-.126-.127.172-.368.179s-.015.373.167.25.548-.302.201-.429z"/></g><path d="M14.322 22.245c-.191.029-.261-1.03-.461-.754s-.409.795-.679.934-.151-.95-.404-1.007-.304-.389-.104-.665.724-.357.882-.577-.052-.332-.036-.53.448-.558.487-.318.052.331.283.245.525-.666.652-.491-.058.253-.029.443.636-.295.665-.105-.695.84-.649 1.126-.489.905-.304 1.166-.116.504-.304.534zm.207-2.37c-.338.005-.095.308-.319.441s.037.529.188.261.472-.708.13-.704zm-.812.805c-.242.237.07.243-.031.474s.266.279.253.019.02-.733-.222-.492z" fill="url(#E)"/><path d="M19.485 15.482c-.282-.222-.648-.144-.804-.268s-.286-.347-.503-.396-.83-.046-.854.244-.534.678-.593.942c-.051.264-.84.683-.986 1.058s-1.09.673-1.368.636-.227-.61-.325-.81.791-.23.814-.581.54-.555.383-.678-.428.028-.708-.069-.606.316-.734.155.54-.492.351-.765.66-.642.903-.758.986.105 1.204.216.58-.092.486-.229-.652-.207-.869-.318.084-.3.299-.377a.79.79 0 0 1 .678.107c.157.123.487-.169.646-.044s.224.36.439.472.45-.504.671-.269.558.198.835.231.106.512.414.57-.023.289.136.539.72.506.415.696-.645-.082-.928-.304z" fill="url(#M)"/><path d="M22.985 17.852c.402-.207.947.198 1.324.042s-.247-.366 0-.635.559.266.686.152-.247-.274.076-.512.36.075.487-.039.246-.269.395-.25.214.597.214.597.141-.023.185.24-.213.448-.289.643-.086-.076-.25.042.222.642.045.672-.237-.094-.522-.044-.944.254-.763.449.182.331.325.308-.013-.406.243-.406.463.146.642.115.167-.301.244-.496.302.264.495.323.122-.566.358-.47.323.805.367 1.07-.39.703-.629.79-.409-.247-.63-.255-.577-.17-.782.136.021.542-.185.623-.378-.072-.548.003-.312.735-.344.967-.44.214-.718.307-.866-.349-.681-.563-.253-.61-.25-.793.179-.237.227-.381-.279-.135-.325-.399-.023-.767.094-.924.315-.305.497-.519-.392-.587.011-.793zm.397 1.861c-.225.175-.254.43-.077.397s.308.083.428-.074-.126-.497-.352-.322zm.729-1.286c-.164.12-.25.68.011.498s.582-.01.624-.2-.473-.416-.636-.299z" fill="url(#F)"/><path d="M15.949 8.983c.406-.207.95.196 1.327.042s-.247-.366 0-.635.558.266.684.152-.246-.274.078-.513.36.075.485-.039.247-.269.398-.25.212.599.212.599.141-.024.187.238-.214.448-.292.642-.084-.078-.246.042.22.643.044.673-.235-.096-.521-.045-.944.254-.764.449.184.331.326.307-.013-.406.243-.404.464.146.643.115.165-.302.241-.498.303.266.497.324.122-.566.355-.47.324.805.369 1.069-.389.704-.629.792-.411-.247-.63-.255-.58-.171-.783.136.021.542-.183.623-.379-.071-.549.003-.31.735-.344.967-.439.214-.715.307-.866-.349-.685-.563-.251-.61-.246-.793.178-.238.226-.381-.279-.135-.327-.399c-.044-.262-.022-.767.098-.924s.311-.305.496-.519-.392-.586.009-.792zm.4 1.862c-.227.174-.256.427-.078.396s.307.083.425-.074-.123-.498-.347-.321zm.726-1.288c-.162.12-.247.679.013.498s.584-.011.625-.199-.473-.415-.638-.298z" fill="url(#U)"/><path d="M17.378 24.171c.406-.206.95.198 1.327.042s-.247-.363 0-.636c.243-.268.558.268.684.154s-.247-.274.076-.513.36.075.487-.039.244-.268.397-.252.211.6.211.6.143-.026.188.24-.214.444-.292.639-.084-.075-.247.044.221.642.044.673-.234-.095-.52-.045-.944.255-.764.45.184.332.326.306-.013-.405.242-.405.466.146.644.117.166-.302.242-.496.303.264.495.321.123-.564.356-.47.325.807.37 1.07-.39.704-.629.791-.411-.246-.631-.253-.579-.172-.782.133.021.542-.185.623-.378-.07-.546.005-.313.735-.346.967-.438.212-.717.306-.865-.349-.683-.563-.253-.611-.247-.793.179-.237.227-.383-.279-.133-.326-.396-.024-.769.096-.926.312-.305.495-.517-.392-.587.011-.795zm.4 1.862c-.227.175-.256.428-.078.397s.306.083.424-.073-.124-.498-.347-.323zm.726-1.286c-.162.12-.25.68.013.498s.583-.01.624-.199-.476-.418-.638-.299z" fill="url(#Y)"/><path d="M34.032 2.573c.449.052.681.691 1.079.771s-.003-.441.352-.529.317.532.485.508-.054-.365.349-.383.258.261.426.237.354-.086.468.013-.154.615-.154.615.131.06.023.303-.426.253-.596.372-.029-.11-.232-.102-.172.659-.336.584-.143-.211-.408-.326-.928-.313-.886-.05-.029.377.101.437.216-.346.428-.203.305.38.468.453.307-.157.477-.277.106.389.235.543.415-.402.558-.193-.179.85-.288 1.095-.714.368-.964.307-.202-.432-.382-.561-.386-.463-.726-.321-.283.462-.498.415-.276-.267-.461-.3-.665.438-.822.613-.482-.067-.767-.143c-.279-.076-.523-.771-.253-.848s.13-.649.234-.798.28-.097.402-.191-.158-.266-.05-.509.407-.652.593-.717.43-.081.7-.156-.002-.707.449-.655zm-.704 1.768c-.286.021-.451.214-.286.287s.211.239.395.175.175-.483-.109-.462zm1.32-.665c-.201.01-.584.426-.265.422s.489.315.629.18-.163-.608-.364-.602z" fill="url(#K)"/><path d="M28.222 11.137c.45.052.678.691 1.077.769s-.002-.44.354-.527.316.53.483.508-.052-.367.351-.383.258.26.425.237.353-.088.468.011-.154.616-.154.616.13.058.023.304-.428.251-.6.37-.026-.11-.229-.101-.174.657-.337.584-.144-.211-.407-.327-.928-.312-.886-.049-.033.376.101.434.214-.344.426-.201.307.38.469.451.308-.157.478-.278.106.39.232.545.417-.404.56-.193-.178.85-.287 1.093-.716.37-.963.308-.204-.431-.383-.561-.386-.464-.726-.321-.283.461-.498.415-.274-.269-.459-.302-.667.438-.823.613-.483-.066-.767-.143-.526-.771-.255-.847.128-.649.235-.798.279-.098.401-.192-.157-.266-.05-.512.407-.649.593-.714.428-.081.7-.157.002-.707.452-.653zm-.704 1.768c-.286.019-.451.214-.286.287s.209.238.396.175.172-.483-.111-.462zm1.32-.665c-.204.008-.584.425-.266.42s.489.316.629.18-.163-.608-.362-.6z" fill="url(#L)"/><path d="M13.197 18.889c.19.12.804.332.95.34s.201.266.416.413.539.131.678-.062.59.185.825-.052-.034-.435.125-.545.224-.38.525-.214.37.3.159.357-.639.438-.567.574.538.6.398.795-.469.003-.3.303-.123.748.148.683.471-.269.543-.131.159.36-.049.621.193.793.445.642.398-.61.796-.749.067.399.067.399-.237.97.26.727.727-.681.843-.901.227-.646.375-.899.602-.139.613.006-.316.422-.219.584.49.286.58.039-.174-.24-.153-.417.209-.261.263-.475-.196-.529-.329-.394-.59.284-.695.18.394-.345.416-.522-.538-.133-.593-.389.177-.491.344-.662.454-.352.624-.316-.495.446-.32.686.539.133.678-.062.094-.509.098-.772-.405-.269-.254-.522.287.019.652-.088-.036.501.145.478.686-.589.827-.783-.234-.438-.423-.354-.472.268-.39.081.317-.422.484-.591.295.428.515.312.229-.442.424-.584.446.175.559-.045-.088-.222.053-.415.635.295.758.015.575-.164.723-.419-.571-.568-.571-.568-.506.302-.744.333-.316-.512-.534-.396-.314.424-.483.592-.393.346-.464.208-.161-.563-.161-.563-.059-.723-.247-.845-.52-.516-.766-.423-.46-.055-.7.24.266.198.084.486-.645.495-.95.594-.747-.337-.973-.162-.416.524-.546.394-.747-.339-.889-.144-.357.516-.567.574-.115-.25-.302-.166-.438.234-.438.234-.571-.099-.704.036.073.342-.138.399-.234-.232-.377-.037.029.229-.164.371-.73.48-.533.542.662-.148.52.046-.567.107-.73.216-.496.242-.663.41c-.16.166-.16.635.03.756zm5.428-1.37c-.279.125-.036.297-.256.414s-.334.337-.396.141.036-.297.091-.508-.411-.211-.598-.127-.248.824-.515 1.093-.397.139-.535.071.53-.745.421-1.051.123-.279.292-.448.853.178 1.095-.117.712-.565.777-.368-.096.776-.376.9zm-.425 2.72c-.091.245-.97.509-.721.152s-.034-.433.201-.668.609.269.521.515zm2.31-2.123c-.149.255-.635.174-.767.511s-.171.9-.442.967-.203-.47-.234-.7-.483-.344-.374-.506.429.293.596.125l.769-.775c.295-.244.599.126.451.38zm-5.229-.239c-.211.263-.411.464-.571.574s-.013-.349-.01-.613.789-.222.581.039z" fill="url(#S)"/><path d="M27.57 20.621a3.83 3.83 0 0 0 .952.342c.144.01.2.266.416.412s.539.133.678-.062.592.185.826-.052-.034-.435.125-.543.224-.381.524-.215.371.302.16.358-.639.436-.567.573.538.602.398.795-.469.005-.3.305-.123.748.148.681.471-.268.543-.13.159.358-.049.62.192.793.445.642.398-.61.795-.749.068.401.068.401-.237.969.26.727.726-.683.843-.903.227-.644.375-.899.601-.139.613.006-.316.422-.219.584.492.286.579.039-.174-.238-.153-.417.209-.261.265-.475-.198-.529-.331-.393-.592.282-.696.18.394-.345.416-.524-.538-.133-.595-.389.178-.492.345-.66.455-.352.625-.318-.495.446-.318.686.537.133.677-.062.094-.509.099-.772-.406-.268-.257-.522.291.02.654-.086-.034.501.144.477.686-.589.829-.783-.237-.437-.424-.354-.471.27-.389.083.315-.423.483-.592.295.428.515.311.23-.439.422-.582.447.173.561-.047-.088-.222.054-.416.635.296.757.016.575-.165.724-.419-.571-.568-.571-.568-.506.3-.742.333-.317-.513-.536-.398-.313.425-.482.592-.393.346-.464.21-.163-.565-.163-.565-.055-.724-.245-.844-.519-.516-.766-.425-.46-.055-.7.24.266.198.084.487-.645.496-.95.594-.746-.338-.973-.162-.415.524-.547.396-.746-.339-.887-.146-.357.516-.567.574-.115-.25-.3-.164-.44.233-.44.233-.57-.099-.705.036.075.341-.138.398-.234-.23-.377-.037.032.23-.162.373-.73.478-.535.54.663-.146.522.047-.567.105-.73.214-.496.243-.665.412-.165.632.024.753zM33 19.253c-.279.125-.037.295-.256.413s-.334.336-.396.141.036-.298.091-.509-.412-.211-.597-.127-.25.824-.516 1.093-.397.141-.535.072.532-.743.421-1.051.123-.279.292-.448.853.178 1.093-.117.714-.564.777-.366-.094.774-.373.9zm-.425 2.718c-.091.245-.97.509-.721.153s-.034-.431.201-.668.608.271.521.517zm2.308-2.123c-.148.254-.634.174-.764.511s-.172.902-.443.967-.203-.47-.234-.701-.483-.344-.374-.506.429.294.596.127.476-.532.769-.775.6.124.451.379zm-5.227-.235c-.21.26-.411.461-.572.571s-.013-.347-.01-.613.789-.22.581.043z" fill="url(#H)"/><g fill="url(#Z)"><path d="M30.934 31.79a3.79 3.79 0 0 0 .95.343c.143.01.201.264.416.412s.537.133.68-.062.59.185.824-.052-.032-.433.127-.543.222-.38.522-.215.373.3.161.358-.637.436-.569.574.541.6.399.795-.467.003-.301.303-.122.748.149.681.471-.268.543-.13a.52.52 0 0 1-.049.621c-.209.261.193.791.446.642s.395-.61.795-.749.067.399.067.399-.239.968.26.727.728-.683.843-.902.226-.646.375-.901.603-.138.613.007-.315.421-.218.585.49.286.578.039-.175-.24-.153-.418.208-.261.263-.474-.197-.529-.331-.394-.59.284-.694.18.395-.345.415-.522-.538-.133-.593-.389.179-.493.347-.662.451-.352.623-.318-.493.448-.318.688.537.132.678-.062.092-.509.097-.773-.405-.268-.256-.522.288.021.653-.086-.034.501.145.477.687-.589.827-.784-.237-.436-.421-.352-.474.266-.393.081.318-.423.484-.59.298.428.517.31.229-.439.424-.582.444.174.561-.046-.089-.224.052-.418.636.297.755.016.578-.164.727-.418-.575-.566-.575-.566-.502.3-.741.332-.316-.513-.536-.396-.316.422-.481.59-.396.345-.466.208-.162-.561-.162-.561-.056-.725-.246-.847-.521-.516-.766-.422-.459-.055-.7.239.268.198.086.486-.645.495-.95.595-.75-.339-.975-.164-.416.524-.547.394-.746-.337-.885-.143-.357.516-.568.573-.116-.248-.301-.163-.438.233-.438.233-.572-.099-.707.036.075.341-.136.399-.234-.233-.377-.038.029.23-.162.373-.731.478-.535.54.661-.146.519.047-.567.105-.727.214-.498.243-.665.412-.168.633.022.753zm5.43-1.368c-.279.127-.037.298-.256.415s-.334.337-.398.14.037-.295.091-.508-.41-.209-.598-.125-.247.822-.513 1.092-.398.141-.537.073.53-.746.423-1.051.123-.281.289-.45.856.179 1.096-.116.714-.563.777-.367-.097.772-.374.897zm-.428 2.72c-.088.245-.968.509-.72.154s-.032-.435.201-.67.611.27.52.517zm2.31-2.123c-.148.254-.632.173-.766.512s-.17.898-.441.965-.204-.469-.234-.699-.483-.345-.374-.506.429.292.598.125l.769-.777c.292-.242.597.127.448.38zm-5.229-.236c-.208.261-.409.464-.568.573s-.015-.349-.011-.611.788-.226.579.037z"/><path d="M13.095 36.624a3.67 3.67 0 0 0 .95.342c.145.011.201.266.417.414s.536.133.679-.063.59.187.824-.05-.034-.435.127-.545.222-.38.524-.214.371.3.158.358-.637.436-.567.572.54.602.398.795-.467.003-.3.305-.125.746.148.681.471-.268.543-.132.159.358-.049.621.193.792.446.642.398-.61.795-.75.065.399.065.399-.237.97.261.727.728-.681.843-.901.227-.646.375-.899.603-.139.613.007-.314.422-.217.584.49.286.578.039-.174-.24-.153-.418.208-.261.263-.474-.195-.529-.329-.394-.592.284-.695.18.395-.345.416-.522-.538-.133-.595-.389.178-.491.347-.66.45-.354.622-.32-.493.448-.318.687.539.133.678-.061.094-.51.097-.772-.406-.268-.256-.522.289.02.652-.088-.032.503.146.478.688-.589.827-.783-.235-.438-.421-.354-.474.268-.39.081.315-.422.48-.59.298.428.519.312.227-.441.422-.584.447.175.561-.045-.088-.222.052-.417.636.297.756.016.577-.164.726-.418-.575-.568-.575-.568-.504.302-.741.333-.316-.513-.535-.396-.315.424-.482.592-.394.344-.466.208-.162-.563-.162-.563-.057-.724-.245-.845-.523-.514-.768-.423-.459-.055-.7.24.268.198.084.485-.645.496-.949.595-.749-.338-.976-.162-.415.522-.545.396-.746-.34-.886-.146-.357.516-.567.574-.117-.25-.302-.166-.438.234-.438.234-.572-.099-.707.035.075.343-.136.399-.234-.232-.377-.037.029.228-.162.373-.73.478-.536.54.661-.146.521.045-.57.107-.729.216-.498.241-.665.41-.168.638.022.758zm5.43-1.365c-.279.123-.037.295-.256.412s-.334.338-.398.141.037-.297.093-.508-.412-.211-.6-.127-.247.824-.513 1.093-.398.141-.536.071.53-.745.423-1.051.123-.28.291-.448.855.178 1.095-.117.714-.565.777-.368-.093.774-.373.901zm-.427 2.717c-.089.246-.968.511-.721.154s-.033-.431.201-.67.611.271.521.517zm2.308-2.123c-.148.256-.632.175-.765.513s-.169.902-.441.967-.205-.47-.234-.7-.483-.346-.374-.507.429.292.596.127.476-.532.771-.777.596.123.448.377zm-5.229-.236c-.208.261-.409.462-.568.573s-.014-.349-.011-.613.787-.22.579.042z"/><path d="M25.957 44.436c.151.167.691.532.829.577s.125.309.294.506.485.27.672.117.523.334.811.167.081-.429.263-.493.314-.308.564-.071.279.388.058.388-.729.255-.697.406.363.72.176.872-.452-.12-.368.214-.315.689-.036.696.525-.135.558.016.062.388-.207.586-.02.817.262.736.542-.483.963-.516-.041.404-.041.404-.481.874.06.77.883-.47 1.051-.652.386-.565.596-.77.618.023.59.165-.413.326-.363.508.398.403.549.188-.107-.278-.039-.443.27-.2.377-.39-.05-.562-.214-.466-.645.12-.72-.006.471-.232.538-.398-.484-.267-.471-.528.299-.43.504-.55.531-.222.685-.145-.591.305-.484.581.484.27.668.117c.19-.151.224-.467.299-.72s-.323-.364-.112-.571.274.096.652.087-.162.474.015.498.817-.391 1.004-.54-.114-.483-.317-.451-.525.135-.397-.023.415-.328.62-.446.175.492.416.436.338-.366.562-.454.386.284.554.102-.029-.239.157-.389.537.452.729.213.596-.008.807-.214-.404-.697-.404-.697-.566.158-.806.128-.169-.576-.412-.522-.415.326-.619.446-.471.23-.503.079-.01-.586-.01-.586.133-.713-.018-.879-.368-.634-.627-.61-.432-.172-.739.049.205.261-.045.491-.753.31-1.07.328c-.323.015-.636-.522-.899-.412s-.538.398-.631.239-.632-.521-.819-.37-.479.406-.698.406-.047-.27-.248-.237-.483.112-.483.112-.527-.245-.691-.151-.018.351-.237.351-.164-.286-.352-.134-.032.228-.256.316-.83.272-.657.383.678.03.492.181-.576-.045-.76.016-.545.104-.749.224-.331.57-.18.735zm5.6.094c-.302.049-.114.278-.357.335s-.408.236-.418.032.114-.279.221-.469-.343-.31-.546-.277-.451.73-.782.921-.421.032-.536-.07.706-.581.683-.905.191-.238.397-.357.779.394 1.087.173.838-.36.847-.152c.009.202-.296.719-.597.767zm-1.12 2.515c-.153.214-1.071.24-.736-.041s.079-.427.366-.592c.29-.171.521.418.371.632zm2.78-1.448c-.208.206-.656 0-.872.294s-.399.825-.676.817-.075-.506-.046-.738-.377-.458-.23-.584.341.394.545.276.598-.389.944-.548.545.275.334.483zm-4.987-1.593c-.269.198-.515.341-.697.406s.076-.341.149-.593.817-.011.548.187z"/></g><g fill="url(#C)"><path d="M30.75 46.444c-.216.153-.863.478-1.004.517s-.266.29-.514.472-.553.236-.632.084-.617.295-.774.123.154-.411.033-.48-.105-.308-.441-.091-.438.357-.252.367.485.274.381.416-.685.674-.606.825.446-.094.203.221-.092.67-.334.665-.376-.149-.481-.006-.255.367-.128.569-.409.78-.607.691-.21-.484-.549-.533-.177.39-.177.39-.045.853-.454.731-.503-.485-.552-.665-.034-.557-.104-.761-.538-.003-.59.133.184.328.046.502-.549.368-.565.157.237-.259.265-.421-.125-.201-.119-.39.338-.533.427-.434.486.139.614.023-.279-.24-.253-.403.555-.235.68-.487-.031-.421-.145-.545-.334-.234-.506-.165.346.315.11.575-.551.236-.632.084.055-.455.127-.701.46-.334.389-.54-.28.08-.598.055-.109.462-.273.476-.491-.407-.572-.559.35-.454.506-.417.377.151.349-.005-.183-.329-.295-.451-.404.46-.582.399-.094-.363-.24-.457-.476.256-.523.076.148-.226.068-.378-.691.409-.73.174-.505-.034-.575-.238.708-.65.708-.65.395.175.616.154.445-.543.623-.48.182.33.295.451.279.24.386.097.313-.561.313-.561.258-.686.47-.839.644-.589.854-.555.455-.148.602.076-.312.24-.218.47.477.327.742.357.809-.472.978-.355.249.402.408.254.811-.473.889-.319.198.404.383.413.182-.254.334-.214.354.126.354.126.574-.212.664-.115-.169.334.02.342.287-.265.368-.112-.093.219.052.313.562.293.358.392-.59 0-.509.153.512-.021.635.048.406.12.519.243c.106.124-.027.563-.242.714zm-4.805-.139c.232.057-.049.267.13.331s.224.245.338.048.049-.269.059-.456c.003-.187.45-.282.606-.241s.005.717.185.911.338.049.492-.045-.297-.584-.109-.892-.039-.234-.153-.357-.866.344-1.014.12-.523-.378-.638-.182-.127.702.103.764zm-.358 2.445c.016.211.784.273.646-.008s.154-.41-.003-.582-.66.38-.644.59zm-1.608-1.495c.07.206.554.029.585.315s-.088.805.151.81.328-.481.422-.703.558-.421.499-.549-.494.363-.606.242-.305-.396-.516-.563-.606.242-.534.449zm5.063-1.316c.127.199.263.347.383.415s.114-.328.182-.572-.687-.045-.564.157z"/><path d="M10.343 58.234c-.19.029-.26-1.03-.46-.756s-.409.795-.678.935-.153-.951-.402-1.006-.305-.39-.107-.665.723-.357.882-.577-.052-.335-.034-.533.446-.556.485-.318.051.331.282.247.526-.668.652-.491-.057.251-.026.441.632-.294.663-.106-.694.841-.649 1.126-.49.905-.304 1.168-.114.505-.305.536zm.211-2.37c-.341.005-.097.307-.321.44s.036.528.188.261.474-.708.133-.701zm-.814.802c-.242.239.068.243-.031.474s.264.28.253.021.018-.735-.222-.495z"/></g><path d="M15.511 51.469c-.282-.224-.649-.146-.807-.27s-.285-.347-.501-.396-.83-.042-.854.243-.536.68-.591.942-.843.684-.989 1.059-1.088.672-1.366.636-.231-.61-.326-.809.794-.232.816-.583.538-.552.382-.677-.431.029-.71-.068-.606.318-.733.156.541-.494.35-.766.661-.642.902-.757.986.104 1.204.216.581-.093.485-.231-.65-.206-.867-.318.084-.299.297-.376a.8.8 0 0 1 .679.107c.158.123.489-.167.644-.042s.224.36.441.47.448-.504.67-.269.557.198.836.23c.278.038.105.513.413.573s-.024.288.136.537.718.506.417.698-.648-.079-.93-.302z" fill="url(#M)"/><path d="M20.63 51.195c-.237-.272-.611-.263-.743-.415s-.216-.394-.419-.481-.808-.198-.885.079-.652.567-.756.814-.958.515-1.17.856-1.195.456-1.462.367c-.266-.084-.11-.64-.169-.855s.821-.08.908-.419.635-.442.503-.595-.427-.052-.682-.199-.655.198-.752.015.623-.382.489-.686.769-.508 1.028-.575.949.287 1.144.437.587.02.519-.133-.6-.324-.793-.476.14-.281.364-.315.515.079.647.232.51-.073.64.078.154.396.346.545.536-.41.707-.136.51.295.779.382.007.523.298.639-.077.278.032.551.614.633.279.763-.62-.202-.855-.475z" fill="url(#a)"/><path d="M19.009 53.838c.406-.206.951.198 1.324.042.378-.156-.245-.367 0-.636s.562.266.688.154-.247-.274.078-.512.356.073.485-.041.245-.268.394-.25.214.598.214.598.142-.025.188.24-.215.446-.291.641-.084-.076-.247.043.221.643.042.674-.237-.097-.519-.047-.944.255-.764.449.182.333.326.309-.013-.405.241-.405.466.145.641.114.169-.299.244-.496.303.265.496.323.123-.565.357-.471.325.806.37 1.07-.39.704-.63.79-.41-.246-.631-.252-.58-.172-.784.134.023.541-.183.623-.378-.07-.548.005-.312.735-.344.967-.439.213-.717.307-.864-.351-.683-.565-.253-.61-.247-.791.179-.239.227-.383-.281-.133-.328-.397-.023-.768.097-.926.312-.305.494-.518-.392-.587.011-.792zm.397 1.861c-.226.175-.255.429-.079.398s.308.083.428-.075-.123-.498-.349-.323zm.729-1.286c-.161.118-.247.678.013.498s.584-.01.623-.2-.475-.418-.636-.299z" fill="url(#K)"/><path d="M9.222 54.874c.188.122.805.332.95.342s.201.265.415.412.539.133.678-.062.592.185.828-.052-.034-.434.127-.543.22-.381.522-.216.372.302.159.359-.636.436-.568.572.54.602.399.794-.467.005-.302.305-.123.746.149.681.471-.267.542-.129.161.358-.047.619.193.793.444.642.398-.608.797-.749.065.401.065.401-.237.968.259.725.73-.681.844-.902.226-.644.376-.898.601-.138.614.006-.316.421-.221.584.493.286.58.039-.174-.239-.152-.416.207-.261.262-.476-.196-.529-.33-.393-.591.282-.695.18.395-.346.417-.524-.54-.133-.596-.389.178-.492.346-.66.453-.352.625-.318-.495.447-.318.686.537.133.678-.062.093-.509.097-.772-.406-.268-.256-.523.289.02.652-.085-.034.501.146.478.684-.59.827-.785-.237-.437-.424-.354-.471.269-.389.083.316-.424.481-.59.297.426.518.309.228-.439.423-.584.446.175.562-.045-.089-.222.052-.415.634.295.756.016.578-.165.725-.418-.572-.568-.572-.568-.505.3-.742.333-.315-.515-.536-.398-.315.425-.481.594-.394.343-.466.207-.162-.564-.162-.564-.057-.723-.245-.843-.52-.516-.765-.425-.459-.055-.702.24.269.198.086.486-.646.497-.951.594-.747-.338-.975-.162-.415.524-.545.396-.746-.341-.887-.146-.355.515-.568.574-.115-.248-.3-.166-.437.235-.437.235-.575-.099-.708.036.075.341-.136.398-.234-.23-.377-.036.029.229-.162.373-.731.476-.536.538.662-.146.519.047-.567.106-.726.216-.5.24-.665.409c-.173.168-.173.638.019.758zm5.43-1.368c-.28.123-.039.297-.257.414s-.334.337-.398.141.039-.299.093-.51-.412-.211-.599-.127-.246.824-.514 1.094-.398.143-.537.071.532-.743.425-1.051.122-.279.29-.448.855.178 1.095-.117.713-.564.775-.366-.096.772-.374.898zm-.428 2.719c-.088.244-.968.509-.721.152s-.034-.431.201-.668.607.271.519.516zm2.31-2.123c-.149.254-.635.173-.766.51s-.17.902-.441.967-.204-.47-.234-.7-.484-.344-.377-.506.432.294.599.127.475-.532.769-.775.596.123.448.377zm-5.231-.237c-.209.261-.408.462-.567.572s-.016-.346-.011-.611.787-.223.579.039z" fill="url(#U)"/><path d="M39.936 18.474c.16.029.218-1.03.386-.756s.344.795.571.934.127-.949.337-1.006.257-.389.088-.665-.606-.358-.739-.577.045-.334.029-.53-.375-.558-.406-.319-.046.331-.236.246-.443-.667-.549-.492.049.252.023.443-.532-.295-.558-.107.584.84.546 1.126.412.905.253 1.168.099.502.257.534zm-.175-2.371c.285.006.081.308.267.441s-.029.529-.157.263-.395-.707-.109-.704zm.683.804c.201.239-.057.243.024.473s-.221.279-.211.021-.017-.731.187-.494z" fill="url(#F)"/><path d="M35.602 11.711c.237-.224.544-.146.675-.269s.24-.347.421-.396.698-.042.717.245.451.678.496.941.708.683.831 1.059.911.672 1.145.636.194-.61.274-.81-.665-.232-.684-.582-.451-.555-.32-.678.36.029.594-.068.509.317.616.156-.454-.493-.294-.765-.553-.642-.757-.758-.829.104-1.012.216-.487-.093-.406-.231.545-.206.727-.316-.07-.3-.25-.378-.438-.016-.57.107-.407-.167-.54-.042-.188.36-.37.47-.376-.504-.561-.269-.469.198-.701.232-.09.511-.348.571.02.287-.115.537-.602.506-.349.696.543-.081.78-.303z" fill="url(#b)"/><path d="M32.666 14.079c-.341-.206-.798.198-1.113.042s.208-.365 0-.636-.47.266-.574.154.205-.274-.065-.513-.303.073-.409-.039-.208-.269-.333-.251-.179.598-.179.598-.117-.024-.157.24.179.446.243.641.071-.076.208.044-.185.641-.036.673.198-.097.438-.045.791.253.639.449-.153.331-.272.306.01-.405-.204-.405-.39.146-.539.117-.14-.302-.203-.498-.254.266-.416.323-.102-.566-.299-.47-.273.808-.312 1.071.328.704.531.792.343-.248.527-.255.487-.172.657.135-.018.542.154.623.317-.072.46.005.263.735.289.967.37.213.6.306.729-.35.576-.564.211-.61.208-.791-.151-.239-.192-.383.235-.133.273-.398.021-.767-.079-.924-.263-.305-.416-.518.328-.589-.009-.796zm-.335 1.862c.188.175.214.428.065.397s-.257.083-.356-.075.105-.497.292-.322zm-.611-1.288c.136.12.21.681-.01.5s-.492-.011-.524-.201.397-.415.533-.298z" fill="url(#X)"/><path d="M40.88 15.117a2.9 2.9 0 0 1-.799.341c-.121.01-.168.264-.35.412s-.451.133-.57-.062-.494.185-.692-.052.029-.434-.104-.543-.188-.381-.442-.215-.311.302-.133.358.536.436.477.573-.454.602-.334.794.393.005.253.305.101.746-.127.681-.395-.268-.454-.13-.135.358.039.62-.162.793-.373.643-.334-.61-.668-.75-.055.4-.055.4.199.969-.218.727-.61-.683-.708-.903-.191-.644-.314-.899-.506-.138-.516.006.266.422.185.584-.412.286-.487.039.146-.238.127-.417-.172-.261-.22-.475.165-.529.278-.393.497.282.583.179-.331-.344-.349-.522.451-.133.498-.388-.149-.493-.291-.662-.38-.352-.523-.316.414.446.266.684-.45.133-.567-.062-.078-.508-.083-.772.34-.268.215-.522-.243.021-.548-.086.028.501-.123.477-.574-.589-.694-.783.2-.437.356-.354.396.269.328.083-.266-.423-.405-.592-.25.428-.435.311-.191-.44-.355-.582-.374.173-.47-.047.075-.221-.044-.415-.533.295-.636.016-.483-.165-.606-.418.48-.568.48-.568.422.302.623.333.265-.513.449-.398.264.423.404.594.331.344.391.208.135-.565.135-.565.049-.723.207-.845.437-.514.643-.423.386-.055.589.24-.224.198-.072.487.542.495.797.594.629-.338.817-.162.351.524.457.396.628-.34.745-.146.3.516.478.574.097-.25.253-.164.367.233.367.233.48-.099.593.036-.065.342.114.398.196-.232.316-.037-.024.23.138.373.613.478.447.54-.554-.146-.437.047.477.105.613.216.417.241.558.409.141.637-.018.758zm-4.558-1.368c.234.123.031.295.216.412s.28.339.332.143-.031-.299-.076-.509.346-.209.502-.127.208.824.434 1.093.332.141.449.072-.446-.743-.355-1.051-.101-.279-.244-.448-.718.178-.919-.117-.598-.565-.652-.367.079.772.313.898zm.358 2.719c.075.245.813.509.605.152s.029-.431-.169-.668-.508.268-.436.515zm-1.937-2.123c.123.255.532.173.643.511s.143.902.369.967.172-.469.198-.701.404-.344.315-.504-.364.292-.503.125-.398-.532-.645-.775-.5.122-.376.377zm4.388-.235c.175.26.344.461.477.571s.013-.347.01-.613-.662-.222-.487.042z" fill="url(#c)"/><path d="M30.456 41.206c.161.031.219-1.028.386-.754s.345.795.569.934.127-.95.338-1.007.258-.389.091-.663-.609-.358-.741-.577.043-.334.031-.532-.376-.556-.409-.318-.044.331-.237.246-.441-.668-.546-.493.047.253.023.443-.534-.293-.56-.105.584.84.547 1.126.41.905.254 1.168.091.502.253.531zm-.175-2.37c.284.006.081.308.268.441s-.029.529-.158.261-.397-.706-.111-.702zm.683.805c.2.239-.058.243.026.473s-.224.279-.213.021-.014-.732.187-.494z" fill="url(#T)"/><path d="M26.12 34.445c.237-.224.545-.146.678-.269s.239-.347.419-.396.697-.042.718.243.45.678.495.943.709.683.83 1.058.915.671 1.147.637.193-.609.274-.811-.665-.231-.685-.581-.45-.555-.321-.678.36.028.595-.068.508.317.615.156-.453-.493-.292-.766-.555-.642-.759-.759-.828.105-1.009.215-.489-.092-.409-.228.546-.206.73-.318-.071-.3-.251-.376-.438-.016-.57.107-.409-.167-.541-.044-.189.36-.371.472-.377-.505-.562-.269-.467.196-.7.23-.088.512-.347.573.019.287-.114.537-.603.506-.35.696.545-.084.78-.304z" fill="url(#d)"/><path d="M23.185 36.813c-.339-.207-.797.198-1.113.042s.207-.366 0-.636-.467.266-.575.153.208-.274-.065-.513-.301.075-.407-.039-.206-.268-.333-.25-.178.599-.178.599-.12-.024-.159.24.182.446.247.641.07-.076.208.042-.187.642-.039.674.2-.097.437-.047.794.254.643.451-.156.331-.276.306.013-.405-.204-.405-.387.146-.536.115-.14-.3-.203-.496-.255.264-.417.322-.102-.566-.3-.47-.273.806-.31 1.069.329.704.53.792.344-.245.529-.255.483-.172.655.136-.02.542.156.623.317-.072.459.005.261.733.291.967.366.212.6.306.726-.35.574-.564.211-.61.208-.793-.151-.239-.191-.381.234-.133.273-.397.02-.767-.081-.926-.261-.305-.415-.517.328-.587-.009-.793zm-.332 1.862c.19.175.214.428.067.396s-.26.083-.36-.073.105-.497.295-.322zm-.612-1.287c.135.12.207.679-.01.499s-.49-.011-.526-.201.398-.418.535-.299z" fill="url(#C)"/><path d="M31.397 37.849c-.159.122-.674.333-.798.343s-.169.264-.349.412-.45.133-.569-.062-.497.185-.693-.052.029-.434-.105-.543-.187-.381-.441-.215-.31.3-.133.358.536.435.477.572-.453.602-.334.795.393.005.253.305.102.746-.123.681-.398-.268-.458-.13-.133.358.042.62-.164.791-.375.642-.335-.61-.666-.749-.057.399-.057.399.2.97-.217.727-.611-.681-.708-.901-.19-.646-.315-.899-.505-.139-.515.007.267.421.185.584-.412.286-.485.039.146-.24.128-.417-.175-.261-.221-.475.166-.529.276-.393.496.282.583.179-.33-.345-.35-.522.454-.133.499-.389-.149-.491-.289-.66-.381-.352-.525-.318.416.446.269.686-.453.133-.571-.062-.078-.509-.081-.772.339-.268.214-.522-.244.02-.548-.088.029.503-.12.478-.578-.589-.696-.784.2-.438.355-.353.396.27.328.081-.266-.422-.406-.59-.25.428-.432.311-.194-.439-.356-.584-.373.175-.471-.046.075-.222-.044-.417-.533.297-.636.018-.485-.165-.608-.42.48-.568.48-.568.425.301.622.334.266-.514.451-.397.263.423.406.592c.137.169.329.345.389.208s.136-.563.136-.563.047-.724.204-.845.438-.514.642-.423.388-.055.591.24-.224.198-.072.486.541.496.798.594.627-.338.817-.162.347.522.458.396.626-.34.744-.146.299.516.477.574.096-.25.252-.165a4.67 4.67 0 0 1 .368.233s.482-.099.592.036-.062.342.117.399.195-.232.314-.037-.026.23.136.373.614.478.451.54c-.169.062-.558-.146-.438.047s.477.105.61.214.418.242.558.411c.136.175.136.642-.026.763zm-4.557-1.367c.237.123.032.295.217.412s.279.338.334.143-.033-.299-.078-.511.344-.209.502-.125.208.824.432 1.093.334.141.45.071-.446-.743-.355-1.051-.104-.279-.244-.448-.717.178-.92-.117-.598-.564-.652-.367.084.772.314.898zM27.2 39.2c.075.245.814.509.603.153s.029-.432-.166-.668-.51.268-.437.515zm-1.936-2.124c.123.256.532.175.639.513s.144.902.373.967.169-.47.195-.701.405-.345.314-.506-.359.294-.502.127l-.643-.776c-.247-.247-.503.123-.376.376zm4.386-.237c.177.261.343.462.478.573s.011-.349.008-.613-.657-.222-.485.04z" fill="url(#Z)"/><g fill="url(#d)"><path d="M28.77 26.289c.238-.224.545-.146.678-.269s.24-.349.419-.396.697-.044.717.243.451.678.498.942.707.683.828 1.057.913.673 1.149.636.191-.608.273-.809-.666-.23-.685-.581-.45-.555-.321-.678.36.029.596-.068.507.316.614.154-.452-.491-.291-.764-.555-.642-.759-.759-.827.105-1.009.215-.489-.093-.408-.228.545-.208.73-.318-.071-.3-.25-.376a.58.58 0 0 0-.57.107c-.132.123-.409-.169-.542-.044s-.187.36-.369.472-.377-.504-.562-.27-.468.196-.7.23-.088.513-.347.573.02.287-.114.537-.603.506-.351.696.544-.082.78-.304z"/><path d="M25.815 30.059c.237-.22.545-.142.675-.267s.239-.347.421-.396.698-.044.717.245.45.678.496.941.708.683.83 1.058.912.671 1.145.636.195-.61.276-.808-.666-.232-.684-.582-.453-.553-.321-.678.36.028.594-.068.509.317.616.156-.454-.491-.294-.766-.553-.644-.757-.757-.827.104-1.01.216-.489-.092-.407-.228.546-.208.729-.318-.071-.302-.252-.378-.438-.018-.57.107-.407-.167-.54-.044-.188.361-.37.472-.377-.504-.561-.267-.471.196-.703.23-.089.512-.346.571.021.289-.115.537-.602.508-.347.696.545-.082.781-.307z"/></g><path d="M28.486 15.813c-.338-.206-.796.196-1.113.04s.208-.365 0-.636-.468.268-.575.156.208-.276-.065-.514-.301.075-.407-.039-.206-.268-.333-.25-.179.598-.179.598-.12-.026-.158.24.18.444.244.639.071-.075.208.044-.184.644-.036.673.198-.095.436-.045.793.253.641.449-.153.332-.273.306.011-.405-.202-.405-.393.146-.539.117-.141-.302-.204-.496-.257.264-.416.323-.102-.566-.3-.472-.27.808-.308 1.07.328.704.529.792.343-.247.528-.253.485-.172.656.135-.016.54.155.621.318-.068.461.006.261.733.289.967.366.211.6.305.727-.349.575-.563.211-.61.208-.793-.151-.237-.192-.383.233-.133.272-.396.021-.769-.08-.926-.26-.305-.415-.517.329-.585-.009-.792zm-.335 1.861c.192.175.216.428.068.399s-.26.081-.36-.075.103-.498.292-.323zm-.609-1.286c.136.12.208.68-.009.498s-.49-.01-.526-.198.398-.418.534-.301z" fill="url(#c)"/><path d="M30.626 26.516c-.338-.206-.796.198-1.113.042s.208-.367 0-.636-.467.266-.575.154.208-.276-.064-.514-.302.074-.407-.039-.208-.268-.333-.25-.178.6-.178.6-.12-.026-.159.239.182.446.247.64.071-.076.208.042-.187.642-.037.673.198-.096.437-.046.793.255.642.451-.154.331-.274.307.011-.405-.202-.405-.391.146-.539.115-.141-.3-.204-.496-.255.265-.415.323-.104-.564-.302-.47-.271.806-.308 1.07.328.704.529.791.343-.246.528-.255.485-.172.656.134-.018.542.156.623.316-.07.46.005.259.735.289.967.368.212.6.306.727-.35.575-.565.211-.61.208-.793-.151-.237-.192-.381.235-.133.273-.397.019-.767-.079-.926-.261-.305-.417-.517.329-.588-.008-.795zm-.332 1.862c.19.175.216.429.066.398s-.259.083-.36-.075.103-.5.295-.323zm-.612-1.286c.136.119.208.678-.009.498s-.49-.01-.524-.2.397-.418.533-.299z" fill="url(#H)"/><path d="M25.325 27.842c-.339-.206-.799.197-1.113.041s.208-.363 0-.634-.468.266-.575.154.208-.275-.065-.512-.301.073-.408-.039-.204-.269-.331-.251-.18.599-.18.599-.118-.023-.157.24.182.444.247.641.071-.076.208.044-.187.642-.039.671.2-.094.438-.045.791.256.642.451-.156.331-.274.306.011-.407-.203-.405-.392.146-.54.115-.141-.302-.203-.496-.255.266-.417.324-.102-.568-.299-.472-.273.806-.31 1.069.328.704.531.792.343-.247.528-.253.484-.172.655.135-.016.542.156.623.316-.07.459.005.261.733.289.967.368.213.602.307.726-.349.573-.564.212-.61.209-.793-.153-.237-.191-.381.233-.135.272-.398.019-.768-.079-.924-.262-.305-.416-.519.323-.588-.014-.795zm-.334 1.862c.191.175.216.427.068.397s-.26.081-.36-.075.103-.498.292-.322zm-.611-1.286c.135.12.207.678-.011.496s-.489-.01-.523-.198.4-.416.534-.298z" fill="url(#e)"/><path d="M30.074 26.024c-.16.122-.678.332-.798.342s-.169.265-.351.412-.45.131-.569-.062-.497.183-.692-.052.029-.433-.106-.543-.186-.38-.44-.216-.312.3-.135.358.536.435.479.574-.454.6-.336.795.393.003.253.303.102.748-.125.681-.396-.267-.454-.13-.134.359.039.621-.162.792-.372.641-.334-.608-.669-.749-.055.401-.055.401.198.968-.217.726-.612-.683-.708-.902-.192-.646-.317-.9-.504-.138-.514.006.266.423.183.585-.412.284-.485.039.146-.24.127-.418-.174-.261-.221-.475.166-.529.278-.394.497.285.584.181-.333-.345-.351-.524.452-.131.499-.388-.148-.493-.29-.662-.38-.352-.523-.318.414.448.266.688-.451.133-.568-.063-.079-.508-.083-.772.339-.267.214-.521-.242.02-.546-.088.028.501-.123.477-.576-.589-.694-.783.197-.436.356-.352.396.266.328.081-.266-.423-.407-.59-.248.428-.433.31-.193-.439-.357-.582-.373.172-.469-.045.075-.224-.044-.418-.532.297-.636.016-.484-.164-.606-.419.48-.568.48-.568.422.302.623.334.264-.513.447-.396.266.422.406.59.331.344.389.208.136-.561.136-.561.049-.723.208-.847.437-.514.643-.422.386-.055.587.237c.204.298-.224.199-.07.488s.54.495.796.595.628-.339.818-.164.35.524.457.395.628-.338.747-.143.298.514.476.572.097-.248.252-.164a4 4 0 0 1 .369.234s.48-.101.592.036-.062.34.115.399.198-.232.315-.039-.023.23.14.373.613.478.447.54-.554-.147-.438.047.477.105.61.214.419.243.561.412c.136.169.136.636-.022.756zm-4.557-1.37c.233.127.031.299.213.415s.282.338.334.14-.031-.295-.076-.509.346-.208.502-.123.208.823.431 1.092.334.141.451.073-.448-.744-.357-1.051-.101-.282-.243-.449-.717.179-.918-.117-.598-.563-.652-.366.082.774.316.898zm.358 2.719c.075.247.813.511.605.156s.028-.433-.169-.67-.512.271-.436.515zm-1.939-2.121c.125.255.532.174.642.512s.143.899.37.965.172-.469.196-.699.407-.346.316-.506-.364.292-.503.124l-.645-.777c-.245-.242-.5.127-.376.38zm4.388-.236c.177.261.346.464.479.572s.013-.349.008-.611-.66-.224-.486.039z" fill="url(#L)"/></g></symbol></svg>