<svg xmlns="http://www.w3.org/2000/svg" xmlns:xlink="http://www.w3.org/1999/xlink" viewBox="0 0 39 76" fill="#fff" fill-rule="evenodd" stroke="#000" stroke-linecap="round" stroke-linejoin="round"><use xlink:href="#Y" x=".5" y=".5"/><defs><linearGradient id="A" y2="50.00%" x2="100.00%" y1="50.00%" x1="-0.00%"><stop stop-color="#2f3d1f" offset=".6%"/><stop stop-color="#323c1e" offset="47.2%"/><stop stop-color="#475729" offset="100%"/></linearGradient><linearGradient id="B" y2="50.00%" x2="100.00%" y1="50.00%" x1="-0.00%"><stop stop-color="#60542e" offset="0%"/><stop stop-color="#89743f" offset="96.6%"/></linearGradient><linearGradient id="C" y2="2.97%" x2="89.46%" y1="81.39%" x1="15.80%"><stop stop-color="#2f3d1f" offset=".6%"/><stop stop-color="#323c1e" offset="47.2%"/><stop stop-color="#475729" offset="100%"/></linearGradient><linearGradient id="D" y2="50.01%" x2="100.00%" y1="50.01%" x1="-0.00%"><stop stop-color="#2f3d1f" offset="0%"/><stop stop-color="#243119" offset="100%"/></linearGradient><linearGradient id="E" y2="50.01%" x2="100.00%" y1="50.01%" x1="-0.00%"><stop stop-color="#2f3d1f" offset="0%"/><stop stop-color="#525f2a" offset="96.6%"/></linearGradient><linearGradient id="F" y2="82.91%" x2="25.95%" y1="19.13%" x1="71.98%"><stop stop-color="#2f3d1f" offset="0%"/><stop stop-color="#525f2a" offset="96.6%"/></linearGradient><linearGradient id="G" y2="50.01%" x2="100.00%" y1="50.01%" x1="0.00%"><stop stop-color="#2f3d1f" offset="0%"/><stop stop-color="#525f2a" offset="96.6%"/></linearGradient><linearGradient id="H" y2="50.00%" x2="100.00%" y1="50.00%" x1="0.02%"><stop stop-color="#848c67" offset="0%"/><stop stop-color="#75864a" offset="96.6%"/></linearGradient><linearGradient id="I" y2="49.19%" x2="104.10%" y1="50.38%" x1="-4.27%"><stop stop-color="#4d5f2b" offset="0%"/><stop stop-color="#75864a" offset="96.6%"/></linearGradient><linearGradient id="J" y2="76.95%" x2="25.15%" y1="27.07%" x1="62.18%"><stop stop-color="#4d5f2b" offset="0%"/><stop stop-color="#435427" offset="100%"/></linearGradient><linearGradient id="K" y2="52.03%" x2="92.42%" y1="49.05%" x1="9.31%"><stop stop-color="#848c67" offset="0%"/><stop stop-color="#75864a" offset="96.6%"/></linearGradient><linearGradient id="L" y2="50.00%" x2="99.99%" y1="50.00%" x1="-0.00%"><stop stop-color="#4d5f2b" offset="0%"/><stop stop-color="#75864a" offset="96.6%"/></linearGradient><linearGradient id="M" y2="50.00%" x2="100.00%" y1="50.00%" x1="-0.00%"><stop stop-color="#4d5f2b" offset="0%"/><stop stop-color="#75864a" offset="96.6%"/></linearGradient><linearGradient id="N" y2="50.00%" x2="99.99%" y1="50.00%" x1="-0.00%"><stop stop-color="#2f3d1f" offset="0%"/><stop stop-color="#525f2a" offset="96.6%"/></linearGradient><linearGradient id="O" y2="50.00%" x2="100.01%" y1="50.00%" x1="0.01%"><stop stop-color="#4d5f2b" offset="0%"/><stop stop-color="#75864a" offset="96.6%"/></linearGradient><linearGradient id="P" y2="50.00%" x2="100.00%" y1="50.00%" x1="0.00%"><stop stop-color="#4d5f2b" offset="0%"/><stop stop-color="#435427" offset="100%"/></linearGradient><linearGradient id="Q" y2="397.27%" x2="101.68%" y1="-296.49%" x1="-3.66%"><stop stop-color="#4d5f2b" offset="0%"/><stop stop-color="#63743b" offset="100%"/></linearGradient><linearGradient id="R" y2="-5.01%" x2="22.07%" y1="105.09%" x1="78.44%"><stop stop-color="#4d5f2b" offset="0%"/><stop stop-color="#63743b" offset="100%"/></linearGradient><linearGradient id="S" y2="225.61%" x2="-3.51%" y1="-125.60%" x1="110.39%"><stop stop-color="#4d5f2b" offset="0%"/><stop stop-color="#63743b" offset="100%"/></linearGradient><linearGradient id="T" y2="40.66%" x2="68.46%" y1="59.88%" x1="31.10%"><stop stop-color="#4d5f2b" offset="0%"/><stop stop-color="#75864a" offset="96.6%"/></linearGradient><linearGradient id="U" y2="42.17%" x2="12.24%" y1="61.68%" x1="79.04%"><stop stop-color="#404e25" offset="21.4%"/><stop stop-color="#525f2a" offset="96.6%"/></linearGradient><linearGradient id="V" y2="49.99%" x2="100.00%" y1="49.99%" x1="-0.00%"><stop stop-color="#4d5f2b" offset="0%"/><stop stop-color="#75864a" offset="96.6%"/></linearGradient><linearGradient id="W" y2="1.94%" x2="70.93%" y1="71.94%" x1="19.48%"><stop stop-color="#4d5f2b" offset="0%"/><stop stop-color="#75864a" offset="96.6%"/></linearGradient><linearGradient id="X" y2="50.00%" x2="100.00%" y1="50.00%" x1="-0.00%"><stop stop-color="#848c67" offset="0%"/><stop stop-color="#75864a" offset="96.6%"/></linearGradient></defs><symbol id="Y" overflow="visible"><g stroke="none" fill-rule="nonzero"><path d="M11.739 49.47c-.65.249-1.454-1.235-1.472-1.821.204.151.677.253.899.354.079-.772-.397-1.024.318-1.356.398-.185.801-.288 1.05.073.11-.015.244-.068.346-.071.084.21.368.301.458.409.118-.185.467-.301.574-.412.537.537-.333 1.371.306 1.819.315.218 1.008.112 1.375.161-.472 1-1.519.786-.645 1.833.855-.268 1.015.175 1.597.424.62.265 1.55.372 2.017.83-.445.493-.966-.263-1.685-.089-.283.066-.566.491-.742.669 1.404.207 2.307 1.135 2.58 2.143-1.072-.267-2.294-1.538-3.431-1.237.616.387 1.244 1.069 1.129 1.666-.448-.151-.939-.109-1.153.253-.687-.492-.894-1.059-1.434-1.538-.109.336-.411.598-.737.844-.118.007-.45-.037-.565-.071.023-.233-.17-.404-.017-.659-.602.611-1.81.957-2.709 1.261.189-.534.561-1.054.89-1.496-.46.057-.823.264-1.216.416-1.241-1.661 1.19-1.478 1.69-2.643-.624-.221-1.568-.435-2.262-.528-.204-.672.878-.278 1.121-.82-.613-.282-1.529-.73-1.156-1.328.634.114.98.582 1.48.823.046-.16.223-.296.265-.468.097.066.73.351.56.225l.573.329z" fill="url(#A)"/><path d="M21.497 47.048c.121-.302.483-1.382.423-1.55s-.518-.159-.778-.104-.744 1.297-.925 1.552-.772 3.074-1.132 3.517c-.366.442-1.391 4.231-1.459 4.607s.063 1.061.107 1.395.383 3.615.285 4.139-.054 2.999.068 3.364c.128.366.43 10.054.289 10.303s-.338.484-.553.518-.988.017-1.27.056-1.075-.199-1.326-.21-.602-.099-.903-.234-.277-5.562-.055-5.67.231-5.467.479-5.771.226-1.305.215-1.94l-.105-4.344-.162-3.106s-.173-1.462-.16-2.174.102-1.19.109-1.707-.296-1.605-.162-2.017.205-2.825.426-3.495.529-2.056.518-2.638-.189-1.1-.215-1.706.278-.747.373-1.087-.07-2.002.052-2.174.154-.742.214-1.088.089-1.611-.041-1.938-.677-1.668-.966-1.786-.768-.614-.961-.543-.71.844-.849 1.163-.369.619-.448 1.051.92 1.735.905 1.941.529 1.213.694 1.629.606 1.075.639 1.32-.305 1.118-.427 1.085.151-.773.158-1.008-.383-.817-.479-.854-.231.715-.479.854-.231 1.368-.319 1.32-.165-1.231 0-1.475.495-.699.534-1.008-.372-1.419-.534-1.473c-.165-.06-.74-1.621-.851-1.556s.21.916.157 1.166.781 1.36.693 1.396-.917-.988-.851-1.242-.321-1.164-.321-1.164-.197-.008-.265.233.168.783.054.778-.417.665-.641.62-.248 1.179-.426 1.165.029-.899.108-1.165.253-.267.533-.62.09-.671.105-.855.464-.421.64-.542.429-1.182.443-1.516.319-.854.319-.854-.91-.166-1.117-.155-.794 1.38-.903 1.32.558-1.258.637-1.477.4-.401.584-.386c.191.016.662.239.799.233s.345.044.534-.311.53-.233.53-.233-.391-.84-.53-1.087-.441-.996-.585-1.242-.355-.265-.48-.466-.278-.971-.321-1.164-.634-.171-.903-.155-.635.898-.743.854c-.115-.042-.48.401-.586.389s.066-.492.21-.621.784-.822.797-1.009-.865-.068-.956-.233.587-.154.906-.311.979.511.957.311-.472-1.006-.532-1.242-.364-1.228-.478-1.396c-.119-.17-.215-.39-.215-.39s-.173-.392-.322-.465-.351-.112-.582-.154-.826.188-1.225.54c-.406.356-1.036.152-1.332.236-.053.013-1.237-.741-1.363-.779.097-.151 1.271.443 1.371.301.399.058.77.058 1.005-.065.731-.399.839-.519 1.117-.7s.746 0 .746 0-.196-.222-.373-.544-.047-.558-.161-.7c-.034-.041-.109-.162-.2-.317.124-.102.251-.199.38-.294a3.57 3.57 0 0 0 .139.227c.083.1.1.527.215.774a25.94 25.94 0 0 0 .585 1.087s.231-1.735.373-2.25c.042-.168-.147-.874-.103-1.165.127-.063-1.336-14.485-1.208-14.54-.036.498 1.758 15.789 1.682 16.015-.163.488-.358 2.061-.37 2.327s.406 1.132.479 1.475 1.234 2.622 1.541 3.104 1.33 3.102 1.651 3.649 1.598 1.63 1.598 1.63.107-1.446.053-1.863.054-1.886 0-2.174.657-5.932.798-6.286c.103-.256-1.022-12.198-.781-13.559.181.039.768 9.926.951 9.973-.007.01.523 4.205.523 4.205s.44-1.181.585-1.394.614-1.323 1.011-1.553c.28-.162.606-.371.816-.634.019.01 1.794-7.115 1.815-7.105.244.112-1.77 7.416-1.47 7.56-.071.008-1.081.959-1.322 1.189-.236.228-1.216 3.099-1.383 3.337s-.082 1.372-.265 1.786-.372 2.496-.48 2.871.108.849.09 1.242-.129 1.583-.07 2.07.267 1.085.282 1.656-.073 2.226-.073 2.226.107-1.041.321-1.346.84-2.144 1.208-2.744a4.89 4.89 0 0 1 1.03-1.189c.219-.178.928-.673 1.278-.983s.536-.456.777-.724c.248-.268.41-.802.819-1.449s.788-3.026.81-3.536c.003-.099.605-8.284.604-8.475.146.593-.544 9.91-.387 10.51a1.49 1.49 0 0 1 .002.259c-.042.508-.493 1.605-.493 1.605s.298.11.531.103c.116-.003.291-.055.462-.105l.137.506c-.184.131-.348.297-.459.272-.166-.039-.46.294-.638.207s-.325-.023-.427 0-.777.783-.961.932-.494.728-.639.776-.431.503-.531.518-.326.277-.498.257-.333.422-.389.468-.22.43-.32.619-.427 1.09-.64 1.243-.538 1.126-.603 1.448-.185 1.582-.283 1.811-.355.248-.426.516-.055 1.486-.107 1.71-.2 1.093-.18 1.501.306 2.009.287 2.431.046 1.782.034 1.967.113.681.037.882c-.076.194-.2.642-.249 1.084s.223.912.212 1.192.037.93.037.93l-.037 1.76s.264-.702.392-.725.323-.964.46-1.139.178-.673.178-.673.361-1.203.57-1.292.172-1.079.247-1.192.321-.145.463-.307c.139-.168.238-.788.317-.83s.925-.26.925-.26l.461-.154c.16-.053.465-.603.567-.776s.149-.522.354-.671.496-2.01.747-2.33.348-.96.39-1.085.087-1.414.178-1.604.184-1.016.281-1.294.256-1.294.358-1.346 3.068-8.794 3.265-8.92c.099-.058.138-.172.172-.283l.11.493c-.171.134-3.173 8.946-3.299 9.229s-.356 3-.356 3 .434-.285.675-.621.238-.872.428-1.085c.159-.184 2.377-2.429 2.64-2.613.04.252-1.123 1.386-1.094 1.64-.058.069-.818 1.46-.909 1.488-.251.084-.534.157-.534.157a13.4 13.4 0 0 0 0 .466c-.003.191-.094.424-.246.518s-.323.171-.389.362-.162.611-.358.725-.338.262-.566.412c-.234.154-.494 2.036-.677 2.33s-.214.983-.214.983.346-.144.534-.313.715.05.993 0 .681.352.922.467c.233.112.44.408.587.458-.06.281-1.579-.238-1.701-.364-.173-.171-.989.559-1.335.579s-.936.667-.993.828.662 2.043.851 2.174.306.27.426.153.966-.76.996-.621-.783.957-.923.932-.361.026-.568-.102-.627-1.49-.711-1.554-.36 1.061-.46 1.193.073 1.295.178 1.447c.003.004-.579-1.247-.46-1.548z" fill="url(#B)"/><path d="M21.997 52.295c.232-.066.392-.226.623-.328.579-.261.468-.151 1.022-.164.395-.009.969.198 1.364.059.546-.195 1.111-1.433 1.884-.885.463.329-.894.96-.263 1.126.323.084 1.519-.222 1.771-.448.307.133.668.284.869.562.249-.179.552-.268.857-.233-.112 1.223 1.367.322 2.069.573.107.038.92.657.946.737.1.332-.579 1.616-.854 1.776-1.142.668-3.015.009-3.896 1.448 1.852.121-.775 1.923-.95 2.421l.163.013c-.326.956-1.132 1.65-2.156 1.373-.482-.131-.906-.781-1.373-.956-.426-.156-.674.165-1.033.112-.192-.032-.538-.333-.752-.44-.256-.129-.609-.116-.806-.349-.297-.349-.022-.686-.173-1.012-.292-.634-.698-.66-1.287-1.076-.445-.315-1.395-.901-1.39-1.496.003-.986 1.008-.857 1.721-.973a1.71 1.71 0 0 1 .175-.842l1.468-1z" fill="url(#C)"/><path d="M9.297 61.436c.163-.582.485-.175.786-.414.217-.172.178-.23.354-.502.422-.639.267-1.261.5-1.847.353-.889 1.545-.991 2.352-1.059.736-.063 2.753-.51 3.109.384.737-.064 1.323-1.05 2.2-1.22.757-.147 1.289-.175 1.925-.647 1.018-.748 1.003-.618 2.153-.108.446.195 1.384.185 1.492.828.099-.078.263-.125.345-.191-.003.118.094.29.079.442.547.029 2.047.372 1.886 1.002-.54-.041-.644.529-1.183.266-.113.212-.807.521-.971.592-.222.097-.475.599-.835-.075-.075.036-.194.11-.27.153.012.687 1.007.991.571 1.726-.117-.048-.367-.019-.485-.075-.204.825 1.028 1.54-.357 1.218-.154-.035-.246.192-.458.081-.251-.133-.065-.393-.296-.534-.38-.231-.604-.408-1.11-.112.202.706.956.974 1.278 1.602-.548.624-1.114.2-1.668.72-.008-.168-.185-.363-.187-.552a2.54 2.54 0 0 0-.308-.026 1.55 1.55 0 0 0-1.269-.922c.39.488.031.8.27 1.212.359.607 1.275 1.049 1.925 1.315.173.72-.534.838-1.028.672-.652-.222-.941-.633-1.207-1.265-.57.209-.594-.375-.687-.818-.464-.229-.825-.053-1.049.395-.19-.139-.397-.081-.582-.166-.027.334-.059.67-.184.984-.401-.259-.908-.058-1.237-.227-.501-.252-.526-.952-.912-1.334.015.282-.027.563-.123.828-.194-.36-.77-.869-1.173-.908-.082.595.129 1.123.319 1.642-.818.182-1.271-.746-1.7-1.231-.056.414-.344.757-.778.572.097-1.027-.47-.33-.772-.572-.325-.259-.355-.647-.788-.748-.394-.09-.854.861-1.051-.09-.086-.427.411-.88.696-1.077l.431.088zm3.544-1.081c.084.176.358.638.757.757.519.159.93-.387 1.466.22.491-.448.865.021.904.577l.937-.804c.215-.362.217-.99.344-1.485.195-.763.369-1.001-.519-1.1l-1.721-.109c-.249-.269-.764-.21-1.027.174-.665-.876-1.227.32-1.572.773l.43.995z" fill="url(#D)"/><path d="M15.605 58.861c-.139.477-.638 1.132-1.016 1.491.489-.312.777-.572 1.349-.742-.171.694.402.674.774.357.355-.307.292-1.025.618-1.368.044.11.314.414.351.521.19-.199.238-.514.163-.815.037.075.238.465.328.491.107.032.563-.013.609.01.58.3.774.572 1.473.706.005-.806-1.197-1.265-1.188-2.053l1.188.147c-.002-.253.121-.404.022-.667.437-.241.931-.161 1.274-.553.041 1.009 1.359.453.972-.34.655.075 1.186.022 1.799-.1.899-.18 1.081-.283.103-.576-.283-.086-.782.104-.976-.246-.321-.576.676-.319.767-.67.184-.691-.964-.501-1.351-.441.037-.48-.115-.91-.504-1.212a.13.13 0 0 1-.105.119c-.246-.736-.638-.288-1.023-.387-.124-.032-.286-.021-.43-.075-.229-.085-.263-.323-.431-.402-1.048-.49-.358.134-1.124.716.012-.32.079-.653.031-.967-.594.222-.021.835-.671 1.139-.321.151-.711-.144-1.02-.129-.524.019-1.11.156-1.633.285-.037-.075-.141-.185-.185-.285-.424 0-2.055 1.666-1.808 2.14l1.642 3.906z" fill="url(#E)"/><path d="M13.791 54.955c-.563-.597-1.862-.694-2.598-.241-.566.35-.273.529-1.017.657-.351.058-.845.029-1.154-.061-.185.211-.228.676-.417.822-.28.218-.725.136-1.042.246-.757.268-.942.644-.966 1.375-.726.107-1.331-.131-1.869.204-.188.113-1.202 1.428-1.163 1.656.135.711 1.437-.105.609.967-.363.469-.988.499-1.252 1.088-.199.438.032.875-.09 1.346.041.041.223.189.28.233.815-.448.306-1.67 1.096-2.057.233.506.186 1.093.773 1.313.05-.212.295-.439.349-.57.392.568 1.047.4 1.273-.157.178-.431-.185-.891-.041-1.293.158-.442.666-.668 1.007-.966.309.334.248.865.149 1.33-.112.527-.256.377-.147.847.046.186.366.301.363.657.797-.469.359-1.792 1.024-2.478.519.485.041 1.346.711 1.805.051-.06.185-.149.256-.244.277.277.317.768.496 1.13 1.721.311-.133-2.326.951-2.86.144.306.354.586.606.815.436-.155.472-.644.777-.912.504 1.158 1.465-.359 1.918-.524.526-.194.385.301.935-.336.37-.431.383-.874.92-1.222-.553-.273-1.324.034-1.947-.131.343-.177.692-.343.92-.637-.159-.463-.657-.938-.219-1.385-.136-.151-.338-.295-.54-.336l-.951-.081z" fill="url(#F)"/><path d="M11.458 53.708c-1.007.407-2.001.059-2.233-.846-.238.136-.532.267-.769.338-.109-.382.136-1.3-.65-.913-.66.329-.15.974-1.256.745-.026-.966-.616-.343-1.055-.411-.662-.103-1.261-.948-1.793.1.08.07.153.182.239.26-.58 1.011-2.338 1.157-1.708 2.551.112-.061.334-.1.431-.165.218.644-.407 1.346-.246 2.054.944-.769 1.626-2.422 3.008-1.158.123-.151.461-.262.594-.414.801 1.611 1.04-.608 2.226-.389.171.495 1.348.159 1.892.487-.33.248-.755.18-.893.574.472.042.889-.209 1.36-.242.44-.029.872.272 1.183.261.533-.021.548-.263 1.058-.555.402-.231 1.784-.097 1.821-.531.054-.633-1.965-.494-1.037-1.326-.186-.44-.654-.385-.961-.088l-1.21-.329z" fill="url(#G)"/><path d="M22.251 6.35c-.463.045-.848-.578-1.02-.932-.121-.257.364-1.803.264-1.553.56.311 1.282.919 1.628 1.427.317.469.018 1.404.59 1.74-.195.239-.309.562-.259.88.114-.45.323-.928.767-1.139.056.548-.439 1.98.706 1.326.063.65-.537 1.64-.351 2.232.233.734.709.429.419 1.394-.119.398-.498.904-.408 1.327.078.343.469.391.582.684.256.668-.173 1.252-.228 1.916-.042.547.173 1.108.126 1.656-.044.511-.283.972-.248 1.496.042.705.246.914.113 1.57-.026.126-.306.421-.363.592-.073.229-.022.585-.073.839-.052.264-.153.731-.253.969-.238.556-1.113 2.114-1.705 2.232.03-.165-.089-.422-.055-.595-.146.056-.395.016-.579.116.152-.314.146-.647-.178-.794-.092.011-.156.055-.178.134.054-.412-.291-.59-.331-.923-.088-.707.134-1.095-.097-1.813-.273-.864-.487-1.634.323-2.308-.294-.789.344-.81.455-1.425.095-.542-.494-2.821-.903-3.083.283-.475.707-1.038.848-1.574.106-.407-.037-.845.061-1.242-.013.053.218-.746.216-.646.003-.251.173-.708-.119-1.067-.472-.581-.608-.204-.702-1.126-.024-.231-.22-.652-.009-.841.564-.516.618.573.866.754.615.449.694-.17.526-.731l-.434-1.496z" fill="url(#H)"/><path d="M19.623 4.514c-.356-.377-.267-1.177-.005-1.635.46.838-.182 2.311 1.207 1.598-.304.55-1.035 1.476-.421 2.014.104-.143.397-.349.466-.442-.134.378-.55.967-.365 1.339.194.393.998.133.671.812.389-.543.495-1.282 1.096-1.692.07.454-.141.996-.153 1.475.173-.027.393.075.513.065-.063.718-.987 1.218-.862 1.957.026.149.46.304.526.55.108.44-.244.986-.374 1.404l-.514 1.796c-.175.559-.453 1.027.492.967-.185 1.53-.624 2.38-1.402 3.712-.605 1.03-.68 2.203-1.073 3.291.027-.244.117-.398.22-.586.055 1.064-.741 2.064-1.34 2.863l.227-.288c-.398.581-.723 1.27-1.278 1.734.17-.877-.543-1.941.122-2.708 0 0-.022.249-.032.152.275-.603.558-1.255.565-1.921-.875.149-1.408.133-1.252-.83.156-.982 1.053-1.15 1.502-1.826.273-.414.54-1.665.421-2.081-.197-.694-.504-.742-.389-1.458.087-.534.184-.529.629-.504-.378-.751-.572-3.232-.572-3.232.468.133 1.163 1.65 1.157-.359-.002-.686-.444-.747-.571-1.164-.112-.369-.003-.739-.162-1.139-.241-.589-1.129-1.386.078-1.412-.291-.469-.028-2.822.608-2.538-.059.306-.071.618-.044.928l.308-.841z" fill="url(#I)"/><path d="M6.736 18.169c.06-.459-.386-1.139-.781-1.452.097.902 1.232 1.986-.034 1.842.466.379 1.396.946 1.245 1.637-.139-.089-.434-.17-.523-.226.27.284.83.663.884 1.059.062.417-.599.469-.055.954-.519-.346-.945-.962-1.539-1.116.168.43.567.836.805 1.255-.128.037-.224.204-.307.239.385.614 1.239.732 1.507 1.431.057.142-.16.432-.084.674.138.427.637.79.92 1.113l1.205 1.41c.38.437.791.754.134 1.032.856 1.292 1.556 1.892 2.714 2.801.894.702 1.505 1.715 2.287 2.543-.137-.207-.268-.314-.426-.443.471.964 1.482 1.57 2.26 2.07l-.287-.178c.543.375 1.087.873 1.679 1.09-.532-.718-.567-1.912-1.38-2.358 0 0 .136.212.096.123-.471-.44-.972-.919-1.296-1.507.654-.176 1.001-.376.434-1.174-.573-.815-1.252-.65-1.872-1.094-.383-.272-1.158-1.286-1.279-1.698-.201-.686-.017-.835-.44-1.43-.31-.441-.372-.404-.658-.227-.11-.797-1.168-3.067-1.168-3.067-.248.282.019 1.873-.94.089-.33-.611-.065-.82-.18-1.235-.102-.364-.352-.655-.438-1.066-.124-.607.088-1.627-.73-1.226-.031-.517-1.331-2.51-1.621-2.036a4.29 4.29 0 0 1 .475.81l-.608-.644z" fill="url(#J)"/><path d="M27.25 10.841c-.3-.421-.094-1.202.234-1.619.329.891-.522 2.261.961 1.745-.385.503-1.241 1.321-.713 1.936.124-.126.443-.291.525-.373-.186.354-.684.883-.554 1.278.131.416.966.267.543.893.464-.487.677-1.201 1.331-1.525.005.46-.283.967-.365 1.44.173-.003.377.126.496.134-.167.702-1.153 1.071-1.139 1.82.005.152.414.364.439.618.045.448-.387.943-.575 1.338l-.773 1.706c-.253.53-.599.957.345 1.025-.405 1.49-.967 2.274-1.931 3.486-.75.94-.996 2.088-1.541 3.112.061-.238.172-.377.301-.548-.099 1.059-1.037 1.941-1.744 2.653l.266-.256c-.482.52-.901 1.158-1.519 1.543.292-.844-.254-1.993.517-2.662 0 0-.06.242-.055.145.361-.559.736-1.168.843-1.828-.893.029-1.415-.058-1.12-.99.302-.949 1.214-.996 1.755-1.605.333-.373.779-1.575.723-2.004-.093-.715-.39-.804-.175-1.496.163-.514.262-.498.701-.414-.267-.794-.095-3.277-.095-3.277.441.196.909 1.792 1.197-.197.097-.681-.33-.799-.394-1.232-.055-.377.107-.731.005-1.149-.147-.615-.914-1.525.289-1.386-.223-.506.382-2.797.971-2.431a3.34 3.34 0 0 0-.178.916l.431-.796z" fill="url(#K)"/><path d="M30.545 13.328c-.922-.04-.75-1.143-.852-1.65.325.096.417.483.645.794.199-.401-.027-.832.455-1.055.042.446-.059.922-.008 1.333.555-.159.466-.546 1.056-.585-.281.534-.845 1.265-1.208 1.743.764-.136 1.16-.751 1.555-.081-.59.194-2.081.724-1.983 1.65.511.027.935-.464 1.356-.071-.388.386-1.096.168-1.437.663 1.188.511-.097 1.051-.45 1.496-.236.294-.207.557-.257.764-.011.058.165.338.095.561-.105.328-.692.595-.879.909-.17.285-.596 1.139-.188 1.4.501.32.738-.771.886-1.048.388-.734.895-1.805 1.469-2.4-.185.489-.178 1.179-.273 1.729-.128.714-.748 2.263-.4 2.832.091 0 .172-.026.243-.073-.393 1.541-1.15 2.728-2.413 3.757.047-.07.102-.137.165-.201-.277 1.297-.556 2.373-1.169 3.541l.032-.372c-.784.888-1.327 2.166-1.852 3.217-.285.579-.338 1.338-.972 1.66.018-.16-.029-.336-.009-.495-1.38.475-1.881 2.817-2.301 3.99s-.47.574-1.301.999c-.652.333-1.134 1.294-1.429 1.913-.47-1.538.639-4.005 1.412-5.392l.883-1.672c.333-.634.943-.97 1.283-1.578-.091-.007-.183.007-.268.039-1.67-2.006.951-3.565 1.664-5.249.395-.93.683-1.907 1.011-2.848.026-.078.105-.692.183-.754.355-.28.499.226.841-.008.72-.503.3-2.641.508-3.392.218-.786.718-1.365.978-2.083.251-.696.123-.573.784-1.056.275-.202.123-.463.585-.532.03-.129.02-.456-.022-.576-.419-.165-.316-.56-.652-.835-.003-.12.029-.446.065-.552.479.464.437 1.251 1.044 1.563-.122-.344-.203-.7-.241-1.063.065.128.677.624.767.728.079-.032-.319-.489.173-.581l.427-1.079z" fill="url(#L)"/><path d="M10.554 21.097c-.876-.873-2.46-.739-3.417-1.258.436-.412 1.146-.498 1.662-.821-.781.009-.771-.809-1.346-1-.489-.163-.929.323-1.453.091.455-.287.964-.298 1.429-.416l-1.512-.568c.267.031.576-.039.845-.026-.382-.399-1.018-.446-1.304-.975.339-.049.691-.008 1.023.066-.436-.45-.657-1.029-1.04-1.496-.312-.38-.747-.521-.833-1.063.02-.027.05-.052.081-.071.184.155.504.26.662.372-.584-.761-.906-1.381-1.006-2.313.283.222.385.631.673.902l.021-1.043c.08.175.345.416.422.576.073-.098.3-.2.346-.251.151.353.168.733.337 1.071.105-.029.243-.026.357-.062.301.382.2.832.509 1.226.066.087.385-.071.502.068.228.267.229.768.202 1.087.485-.045.681-.508 1.103-.189-.552-.843-1.706-1.312-2.286-2.232-.33-.523-.967-1.208-.559-1.808-.064-.029-.173-.01-.239-.016 0 .005-.034-.252 0-.217.29.149.598.261.917.332-.495-.298-1.09-.479-1.195-1.101-.098-.573.469-.849.121-1.567.054.032.102.087.152.125-.049-.287-.031-.534-.176-.787.114.052.355.055.501.132.015-.136.097-.187.044-.385.036.045.222.181.299.337.083-.696-.214-1.394.012-2.079.22.577.299 1.37.609 1.813.157-.422.066-1.071.518-1.252.675 1.428.147 3.238.375 4.744.059-.089.373-.286.463-.406.283.388.134.831.276 1.239.076.217.422.414.494.655.129.427-.173.859.038 1.253 1.236-1.129 1.585 2.067 1.828 2.73.235-.501.104-1.2.851-1.132.139.469 0 1.954.861 1.33.331.437.026 1.038.108 1.566.092-.118.388-.255.494-.434.343.482.29 1.191.416 1.76.118-.024.241-.023.365-.058.571 1.137.707 2.601.923 3.862.179 1.042-.105 1.606-.148 2.601.769.233.754-.252 1.116.475.207.414.032.917.365 1.302a.66.66 0 0 1 .155-.244c.18.468.193 1.003.173 1.507-.433-.642-2.262-1.873-3.118-1.21.081-.321-.686-.94-1.05-1.25.171-.393.537-.687.908-.907-1.014-.25-2.23-.339-2.332-1.533-.032-.369.215-.623-.02-1.041-.427-.773-1.005-.414-1.276.156-.488-.614-.889.05-1.044-1.011.335-.16.767-.223 1.08-.318-.124-.257-.032-.529.03-.587l.691-.253z" fill="url(#M)"/><g fill="url(#H)"><path d="M13.531 7.264c-.587-.603-1.037-2.308-.677-3.125.08.034.268.037.389.123.073-.616-.103-1.357.128-1.946.335.699.389 1.501.876 2.125.306-.932-.396-2.146-.009-3.131.05.208.265.433.325.605.388-.606.015-1.467.585-1.915.311 1.022.524 2.041.299 3.108.151-.058.392-.007.566-.071-.032.442-.455 3.743.684 3.335.071.696-.511 1.577-.068 2.242.441-.346.815-1.386 1.229-1.912-.094.444-1.037 3.94.32 2.808.088.32.049.646.022.987.738-.835.618-2.006 1.383-2.803.159.998-1.53 4.349.526 3.583.333.912.031 2.021-.356 2.898-.411.927-1.38 1.485-1.631 2.454.041-.024.061-.055.061-.097-.446.445-.47 1.157-.239 1.622.122.249.448.411.589.644.131.217.079.446.184.63.361.628.319.605.334 1.132.017.613-.22 1.217-.173 1.844.055.678.207 1.017-.176 1.617-.65-.217-2.391-3.869-2.769-2.471-.066.023-.166-.068-.248-.07-.083.058-.056.139-.156.166-.833-.865-1.12-2.537-1.394-3.607-.132-.511.128-1.918-.503-1.978l-.379-2.187c-.132-.623-.487-1.137-.604-1.771-.168-.927.503-1.527.508-2.342.003-.618-.495-1.103-.614-1.752.149-.124.453-.238.65-.246.089.15.239.409.253.577l.088-1.078zm3.457 9.307c-.047-.209-.034-.351.262-.496.804.888 1.931-1.064 1.884-1.723-.759.257-.362-.967-.26-1.344a.32.32 0 0 1-.154-.029c.083-.34.195-.709.105-1.045-.179.039-.192-.035-.364-.044.066-.186.008-.467.068-.636-.076.065-.378.142-.492.248-.269-.396-.034-.741-.209-1.163-.186.197-.346.508-.572.718.178-.621-.726-1.088-1.035-1.543-.007.126.044.198.068.325-.086.073-.199.125-.244.225l.07.831c.154-.084.368-.068.506-.139-.063.304-.109.653-.053.973.165-.058.535-.103.686-.22.19.458.029.987-.241 1.417.05-.092.121-.172.173-.262.183.707-.322 1.119-.272 1.819.433.028.74-.383 1.079-.552-.084.899-1.581 1.375-1.179 2.058l.177.581z"/><path d="M31.666 16.403a3.31 3.31 0 0 1 1.097-.658c-.314.888-1.205 1.351-.909 2.315.263-.217.501-.573.823-.723-.119.179-.081.39-.134.554.647-.113.677.456.508.916.159-.1.56-.155.681-.218-.139.373-.409.757-.499 1.126.123-.016.287.034.409.021.01.5-.441.735-.605 1.161 1.782.469-.61 3.93-.99 4.707.123.019.254.1.38.11-.608.951-1.029 4.357-2.739 4.152.013-.183-.123-.513-.026-.755-1.244-.184-1.78 3.023-3.463 2.348-.903.508-1.106 1.388-2.227 1.385.108-1.147.878-2.041 1.03-3.076a.95.95 0 0 0-.392-.065c-.19-.464.11-1.37.324-1.841.378-.822.969-.873 1.459-1.504.548-.704-.047-1.352.093-2.158.122-.702-.12-1.42.328-2.025.51-.684 1.551-.547 2.075-1.2.398-.495.458-1.265.511-1.84-.972-.084.039-1.967.645-2.203.071.078.173.136.244.212.683-.221.417-.87.843-1.197.012.238.158.351.207.529.166-.087.417-.26.499-.404l-.171.331zm.693 4.403c-.043.126.005-.105.012-.152.46.037.884-.268.489-.666-.09.036-.217.045-.296.065.141-.345.078-.696-.204-.921-.257.241-.42.79-.433 1.011l.433.665zm-1.296.084c.39-.738.467-1.352-.312-1.753.438.752-.875 2.19-1.341 2.837.569.557 1.066-.554 1.501-.029.186-.228.125-.39.064-.556l.09-.498z"/></g><path d="M9.991 26.456c-1.193.215-1.962.864-3.068 1.371.197-.393 1.96-1.892 1.344-2.358-.548-.414-1.446.935-2.165.644.187-.12.39-.385.595-.5-.159-.023-.384-.141-.576-.15.149-.071.257-.191.395-.265-.514.084-1.938.113-2.196-.391-.157.029-.441.022-.584.076.736-.173 1.344-.086 1.983-.404-.561-.257-2.342.163-2.303-.506-.037-.003-.215.007-.229-.008.402.029.803.11 1.205.068-.417-.243-1.26-.034-1.659-.378-.616-.529-.08-.568.506-.526.733.055 1.732.826 2.395.337-.708-.171-1.38-.476-2.018-.676a.95.95 0 0 1-.089-.637c.163-.016.33-.149.482-.159-.512-.556-.969-.702-1.274-1.371-.159-.345-.58-1.229-.105-1.546.832-.556 1.109 1.983 1.82 1.808.187-.835-1.235-1.61-.848-2.633.446-1.184.94.407 1.123.957.204-.636.835-.439.702.18.484-.403.641-1.015 1.356-.562.09.084.07.082.18.157-.036.56-.576.678-.471 1.163.026.123.508.459.582.647.194.475-.141.954.04 1.297-.114.115-.213.346-.311.453.245-.087.511-.045.759-.112.234 1.076-.504 1.27.692 1.925-.116-.361-.311-.844-.006-1.144-.028 1.022.596 2.106 1.486 2.636.086-.052.19-.09.264-.134.43.87 1.183.391 1.721.991l-1.726-.252z" fill="url(#L)"/><path d="M20.958 51.298c.204.492.755-.217 1.1-.304.5-.126.639.531 1.15-.161.102.397.384.633.781.475.091.162.282.233.345.304.236-.87.005-.608.689-1.035.439-.275 1.008-.399 1.216-.915.501.469 1.75-.261 1.687-.865-.518-.162-.967-.412-.828-1.059.133 0 .27-.03.402-.006-1.425.026.426-1.758.879-.592.639-.007 1.911-.948 2.196-1.485.747-.065.645-2.109 1.577-2.025-.05-.356-.153-.678-.377-.959-.655.426-1.367.067-1.392-.676-.088.055-.239.083-.343.154.068-1.09-1.624.393-2.174.385-.745-.013-1.525-2.01-2.051-1.157-.238-.517-.788-.296-1.15-.292-1 .003-2.051-.015-3.094.178-.039.12-.122.212-.154.298-.884-.728-2.368.417-2.792 1.164 1.54.066-.672 1.01-.346 1.663-.467.275-1.052.637-1.389 1.064-.787 1.003.452.886.242 1.853-.776.359-1.169.408-1.251 1.244-.06.629.103.847.658 1.095.343.152.871.227 1.245.336.202.059.378-.084.572-.026.283.084.466.687.528.35l2.075.992z" fill="url(#N)"/><path d="M11.889 50.218c-.701.287-1.373-.2-1.972.243.321.29.76.47 1.174.566-.519.17-1.256 0-1.365.694.562.197.968-.403 1.552-.324-.275.243-.599.537-.764.88.658.128.776-.702 1.452-.641-.032.314-.003.621.154.887.084-.137.222-.24.297-.384-.034.49-.155 1.295.51 1.38.252-.389.172-.859.184-1.301.436.078.364.512.616.884.196-.377.721-.4.683.084-.041.529-1.162.419-.702 1.084.336-.188.624-.424 1.024-.471-.036.697.434.72 1.05.59.156.295.294.59.509.827.122-.095.335-.639.367-.652.398-.138.344.253.696.23.482-.033 1.03-.314 1.534-.01.343-.749.759.022 1.111-.47.115-.162-.25-.555-.17-.777.102-.271.353-.277.424-.43.331-.712.156-.617-.335-1.304-.147-.204-.339.125-.344-.338-.005-.351.165-.453.516-.423-.071-.141-.023-.356-.068-.478.17-.002.325-.118.501-.111-.139-.478-.637-.508-1.014-.767.207-.401.722-.485 1.11-.408.083-.384.149-.896.595-.706l.43-.734c.308.106 1.807 1.068 1.313-.113.075.195.375.433.511.582l.701-.523c.078.441 1.205.54 1.624.28-.229-.317-.535-.676-.875-.911.35-.124.93.018 1.381-.024.127-.579-.674-.555-1.096-.6-.029-.578.736-.586 1.027-.989.314-.43.309-1.006-.499-.501.245-.663-.611-1.999-1.289-1.068-.147-.246-.21-.171-.359-.33-.128-.155-.714-1.388-.716-1.388-.772-.391-.45 1.006-.919 1.317-.05-.091-.294-.243-.356-.391-.427.181-.603.518-.893.721-.116.081-.124.239-.297.346-.089.053-.471-.084-.48-.08-.369.189-1.315.746-.859 1.237-.589.1-1.538.042-1.724.66-.194.631.619 1.074-.419 1.475 1.024-.133.629.539.264.88s-1.424.737-1.149 1.287c-.398.112-.781-.026-.94-.397-.676.119-.942.606-1.375 1.044-.426-.53-.046-1.158-.438-1.626-.529.053-.482.773-.791 1.151-.307-.326-.531-.837-1.092-.718.34 2.586-.609-.123-1.219.556.288.084.529.26.648.504-.309.249-.701.269-1.076.345.127.059.291.28.514.335-.32.375-.993.029-.947.727l2.068-1.416z" fill="url(#M)"/><path d="M34.862 22.302c-.1-.571-.062-1.203-.251-1.732.489.204.341.87 1.013.728.08-.29.255-.324.364-.467.214.648-.157 1.332-.338 1.959.328-.075.524-.419.847-.462-.044.346-1.145 1.782 0 1.559.055.502-.265 1.064-.511 1.485.422-.281.878-.21 1.377-.323-.105.744-1.492 1.926-1.053 2.573-.319.701-.764 1.105-1.207 1.671-.407.518-.398.806-1.032 1.158-.458.255-1.021.251-1.179.749.168.034.325.205.487.249-.099 1.144-1.505 1.674-2.262 2.386-.402.375-.72.899-1.164 1.187.022-.155.003-.317.049-.479a14.91 14.91 0 0 1-3 2.643c-.875.589-1.697 1.328-2.667 1.816l.334-.847c-.945.212-2.012 1.758-3.173 1.189-1.39-.681.682-2.077 1.21-2.533.923-.799.42-2.069 1.183-2.861.302-.312.387.011.702-.432.243-.34.097-.652.175-1.003.194-.906.608-1.675 1.052-2.494 1.409-.036 1.268-1.071 1.885-1.905.884-1.205 2.367-.479 2.822-2.31.077-.315-.161-.558.032-.902.255-.45.286-.124.506-.365.299-.33.694-.681.943-1.092.325-.526.381-1.094 1.03-1.315.204-.07.54.094.701.091l1.126.084zm-.087 2.326c.018.434-.364 2.402.359 2.481-.448.749-.862 1.303-.775 2.255.579-.343.961-1.085 1.182-1.685.112-.31.605-1.423.427-1.714l-.226.136c-.071-.424-.411-.645-.429-1.058-.017-.446.607-.712.099-1.093.156-.312.068-.304.037-.556-.156.076-.465.196-.587.32l-.088.916z" fill="url(#O)"/><path d="M12.925 24.795c.299-.083.632-1.511.973-1.996.141.152.456.301.592.489.233-.366.207-.838.506-1.21.614.744 1.052.259 1.736.667.469-.556.317-1.694 1.273-.697.288.301.112.639.537.838.364.172.475-.094.788-.011.236.063.297.356.525.434.235.077.534.039.772.103.175.048.245.338.417.382.215.056.585-.097.77.005.318.178.489.195.359.749.726-.071.784-.349 1.405-.002.263.147.511.513.68.752-.526.398-.943.733-1.047 1.424.938.037 1.294.063 1.127 1.15.406-.034.592.139.378.505-.686.079-1.968.259-2.513.761-.499.463-.306 1.116-.735 1.561-1.074 1.114-3.182.802-4.478.592-.567-.094-1.12-.089-1.573-.584-.472-.518-.141-1.764-.844-2.177-.99-.574-2.368-.518-1.905-1.886-1.137-.322-.401-.698-.168-1.271s-.222-.637-.005-1.157l.428.581z" fill="url(#L)"/><path d="M12.667 37.512c0-1.37.103-2.473.325-3.693.126-.713-.005-1.942.71-2.146.527 1.669.815-.464.969-.949.312-.988 1.04-.872 1.278-1.784.417 1.085.833-.33.933-.985l.104.391c.194-.502-.046-1.216.253-1.729.542.904.753 1.723 1.629.862-.197 1.572.755.404 1.054-.051.005.235.173.644.18.888.85.159.648-1.019 1.466-.204.255.256.138.838.595.938.282.06.585-.508.95-.484-.103.351-.042.78-.052 1.126.563.186 1.134.115 1.708.15-.103 1.258-.34 1.783-.786 2.843.608.199.995-.568 1.641-.349-.191.772-.311 1.634-.359 2.407.286-.016.578-.185.789-.437.07.278.228.462.184.855.293.215.642.136.964-.084-.209 1.098.277 1.224-.356 2.389-.219.406-.642 1.279-.976 1.504-.489.327-.925-.209-1.235.492-.066.147.155.838.111 1.142-.053.362-.457 1.089-.604 1.42-.504 1.143-1.045 2.077-1.879 2.793-.654-1.588-1.511.142-2.328.01-.019-.424-.085-.867-.19-1.25-.755.009-1.809.22-2.315-.71-.388-.715-.159-1.179-.707-1.571-.393-.28-.864-.264-1.292-.128-.031-.291-.166-.857-.171-1.022l-2.59-2.636z" fill="url(#P)"/><path d="M6.388 25.481c.285.356 1.344.162.775 1.482.233-.039.743-.32.964-.253.6.185.105.626.461.922.299.249.622-.165.841-.026.46.288.2.586.364 1.024.214.577.464 1.021.52 1.651.073.828-.113.725.444 1.417.527-.67.229-1.847.414-2.656.399.566.063 2.351.854 2.643.026.353.021.722.139 1.043.099-.091.351-.137.487-.296.094.37.243.712.579.799.133-.762-.018-1.805.346-2.478.048.171.124.197.187.296l-.027.429c.083.034.157-.019.229.016.031.282.22.487.29.741.065-.111.297-.225.382-.42.621.427.294 1.308.369 1.993.448.255.865.107 1.168-.346.369.275.933.954.942 1.44.888-.874.874.653 1.013 1.159.238.894.275 1.567-.178 2.63-.369.863-.961 1.763-1.39 2.558-.455.852-1.745 1.203-2.069 2.083-.569-.55-.701-1.543-1.389-2.106-.648.631-.502.484-1.14.11-.091-.184-.209-.348-.349-.492-.236-.179-.521-.061-.762-.213-.613-.39-.836-.692-1.569-.812-.639-.105-.784-.13-1.266-.443a2.23 2.23 0 0 1-.116-.495c-.091-.042-.385 0-.398-.006a1.22 1.22 0 0 1-.275.239c-.258-.087-.426-.286-.649-.451-.623-.458-.618-1.056-1.035-1.643-.477-.678-1.095-.535-1.329-1.365-.222-.776.267-1.551.153-2.331-.11-.742-.983-3.883.39-3.899-.015-.797-.796-1.698-.438-2.436.443-.928 1.481-.129 1.725.427.137-.294.368-.386.597-.592-.026.272.081.558.007.844.161.052.22-.044.353-.143l-.613-2.046z" fill="url(#Q)"/><path d="M22.488 29.877c.239-.076.553-.141.742-.163-.279.133-.595.328-.639.657.204.081.427.081.643.029-.608.209-.664.899-.03.611-.249.078-.503.207-.635.433.134.041.297.175.465.191-.151.209-.499.171-.695.396.587.4.229.327-.186.466-.524.176-.503.466-.743.857-.107.176-.802.717-.404.976.294.194.668-.641.878-.802-.014.56-.825.894-.552 1.53.092-.042.209-.018.307-.071-.091.242-.383.736-.729.758.119.645-.837 1.03-1.188 1.556-.032-.548.314-1.163.317-1.746-.137.238-.346.459-.579.616-.039-.039-.09-.078-.131-.13-.017.024-.032.05-.046.076-.061-.014-.051-.021-.092-.052-.558.239.136 2.255-.448 2.02-.166.341-.639.804-.621 1.148-.093.123-.232.259-.325.386-.036-.441.273-.684.419-1.069s.177-.828.154-1.24c-.018-.29-.112-.348-.046-.67.085-.443.404-.733.579-1.042.188-.332.107-.529.165-.836.023-.111-.071-.149-.019-.304.171-.508.441-.227.711-.4.631-.399-.032-1.124.492-1.635.055.046.171.073.236.146.142-.248.165-.909.147-1.174.236.081.304.349.417.568-.023-.194-.193-.911.008-1.04.382-.246.243.614.215.692a1.05 1.05 0 0 1 .126.101c.13-.353.214-.73.339-1.084.073.033.185.026.263.055a5.35 5.35 0 0 0 .222-.527l.258-.284z" fill="url(#R)"/><path d="M18.347 23.848a6.77 6.77 0 0 1 .84-.49c-.282.265-.579.613-.48 1a1.54 1.54 0 0 0 .81-.236c-.652.485-.389 1.281.254.695-.275.191-.526.439-.579.749.182-.011.45.07.663.018-.087.296-.538.398-.672.732.913.202.436.27-.01.6-.562.413-.397.728-.508 1.263-.047.239-.647 1.134-.039 1.257.46.094.521-.993.704-1.262.248.631-.592 1.341.041 1.938.095-.084.252-.107.345-.207.007.311-.122.982-.54 1.151.45.67-.545 1.499-.726 2.23-.299-.597-.166-1.428-.436-2.081-.058.323-.209.657-.422.93-.066-.027-.147-.052-.225-.092-.008.036-.013.071-.018.105-.084.008-.07-.003-.139-.021-.577.501 1.232 2.462.402 2.442-.039.45-.406 1.161-.222 1.539-.056.178-.163.385-.217.569-.253-.479.012-.88.01-1.368-.005-.495-.173-.998-.399-1.449-.157-.317-.3-.341-.371-.728-.102-.532.157-.988.224-1.405.073-.448-.118-.632-.191-1-.026-.137-.16-.137-.168-.335-.027-.636.436-.435.687-.739.587-.707-.571-1.243-.168-2.033.091.029.249.012.364.065.058-.333-.225-1.082-.375-1.372.328-.006.542.265.783.46-.122-.206-.67-.935-.48-1.163.353-.435.589.584.59.682a1.23 1.23 0 0 1 .204.062l-.095-1.352c.104.005.242-.049.349-.047a6.09 6.09 0 0 0 .028-.681l.189-.422z" fill="url(#S)"/><path d="M2.296 25.47a7.53 7.53 0 0 0-1.137.031c.453.089.98.258 1.157.708-.272.186-.6.264-.933.267.962.084 1.276 1.048.254.86.392.019.806.115 1.072.395-.18.102-.375.35-.616.434.293.243.789.066 1.155.32-.725.773-.225.544.428.597.823.067.891.487 1.373.961.214.212 1.41.739.919 1.247-.368.378-1.189-.679-1.553-.838.209.793 1.505.985 1.324 1.986-.15-.028-.312.047-.47.003.21.317.806.915 1.32.825.048.961 1.572 1.174 2.259 1.8-.137-.791-.852-1.544-1.054-2.376a2.87 2.87 0 0 0 1.056.676c.047-.071.1-.142.146-.232.034.029.065.06.09.094.088-.044.066-.047.122-.108.898.147.564 3.256 1.336 2.717.355.429 1.205.919 1.295 1.419.176.142.424.286.609.436-.101-.642-.634-.88-.974-1.376-.344-.502-.541-1.116-.645-1.711-.075-.417.043-.53-.161-.967-.28-.602-.842-.899-1.2-1.279-.385-.407-.336-.713-.523-1.129-.071-.154.052-.238-.076-.443-.421-.658-.718-.167-1.173-.317-1.054-.348-.335-1.614-1.274-2.156-.064.084-.225.165-.295.288-.292-.299-.548-1.23-.611-1.617-.316.201-.325.607-.419.954-.029-.285-.024-1.362-.361-1.477-.642-.215-.15.959-.082 1.059a1.45 1.45 0 0 0-.147.189c-.311-.457-.558-.965-.864-1.425-.095.071-.263.102-.362.171-.196-.234-.332-.417-.505-.671l-.48-.32z" fill="url(#T)"/><path d="M13.874 46.245c-.631.331-1.365.446-1.619 1.207-.306-.015-.805-.354-1.067-.19-.322.202-.048.585-.221.862s-.794.932-1.076 1.1c-.251.149-.532-.012-.775.207-.209.188-.1.482-.265.648-.365.367-.419.576-1.009.318-.04-.807.658-1.324.498-2.118-.108.008-.231-.013-.341 0 .365-.589.657-1.144-.23-1.493-.438-.171-.925-.231-.988.319-.221-.306-.317-.712-.828-.587-.267-.962-1.848-.919-1.94.037-.286-.283-.548-.642-.508-1.064-.338.419-.451.81-1.044.692-.701-.14-.895-.898-.711-1.425-.042.011-.08.003-.116-.021.129-.318 1.087-1.053 1.444-1.311-.149-.267-.498-.453-.855-.479.01-.278-.002-.577-.038-.841-.107.103-.23.178-.329.298-.377-.128-.702.055-.937.344-.323-.286-.542-.451-.698-.812-.125-.293.003-.593-.222-.798.105-.189.133-.431.287-.606-.134.267.399-.186.55-.311.128.131.346.149.438.22.149-.395.401-1.077.328-1.488-.063-.365-.5-.488-.593-.852-.088-.351.139-.765.248-1.087-.039.005-.075.023-.099.05-.213-.443-.74-1.111-.147-1.441.752.87.968-.833 1.282-1.042.003.049.012.096.026.143.243-.377.204-.872.068-1.291.014.026.066.176.077.207.351-.1.57-.361.749-.676.024-.006.307-.003.394.013.181.308.306.668.434.981l.302-.036.071.288c.073.003.144-.011.204-.048.153.225.317.412.38.679.39-.184.923-.07.85.424.508.092 1.475.103 1.393.809.871.001 1.119 1.494 1.799 1.978.2-.298.018-.628.275-.932.056.079.188.167.254.278.178-.126.487-.162.667-.282-.089.194-.018.463-.063.664.313.037.632-.12.852-.293.372.406.686 1.258.438 1.711.519.034 1.087-.291 1.152-.699.247.697.939.524 1.361.783.645.393.73 1.01.533 1.666.102-.009.36.097.477.081l.009 1.145-1.123 4.072zm-7.552-8.22c-.102 0 .2-.071.253-.075-.058-.077-.063-.181-.119-.257.248-.053.542.029.773-.11-.146-.34-.595-.249-.889-.18-.162-.28.319-.441-.022-.644a4.12 4.12 0 0 1-.877.451c-.343-.597.435-1.229-.623-1.514-.048.171-.064.359-.176.513-.09-.265-.2-.576-.372-.838-.129.379-.333.862-.253 1.275-.063-.144-.189-.154-.283-.25-.07.037-.135.083-.195.136.013.189.034.379.144.542-.356-.031-.655-.191-1.061-.183.092.202-.031.361-.227.432.219.265.686.349 1.029.32-.204.446-1.089.307-1.511.514.502.311 1.154.41 1.646.083.022.121.121.367.068.475-.134.277-.603.132-.527.455.328.042.64-.188.933-.264.273-.071.504.053.637-.296.696.152.305.372.589.896.125-.087.28-.33.461-.335.373-.013.474.563.854.617-.016-.075.036-.22-.008-.327.073.016.191-.031.306.026.028-.029.044-.091.069-.126.224.067.297-.09.334-.278.066-.335-.176-.294-.475-.617.104-.026.283-.123.407-.123-.251-.223-1.11-.566-1.191-.281l.305-.038z" fill="url(#U)"/><path d="M31.041 29.649c.263-.273.577-1.108 1.048-1.085.677.036.241 1.132.363 1.63.985-.676 2.133-1.426 1.554.446.188-.081.478-.036.689-.139.142.393-.168.769-.202 1.128.137-.019.295.005.427-.024-.336.786-1.332 1.163-1.726 1.957l.889-.137c-.499.707-1.376 1.399-1.784 2.062.185-.062.402-.062.577-.11-.36.556-2.286.864-2.201 1.375.539-.293.862-.052.884.469s-.638.898-1.006 1.163c-.196.142-2.401 1.317-1.157 1.373-.942 1.034-1.758.572-2.783 1.26-.469.316-.758.867-1.213 1.22l-1.957 1.536c-.871.728-1.847.568-2.756 1.137-1.153.717-1.792 1.687-3.181 1.904.092-.196.058-.49.199-.692-.163.126-.495.175-.668.291-.17-.88-.231-1.705.128-2.556-1.702.387-1.12-1.836-.252-2.402.484-.315 1.085-.404 1.548-.792.38-.317.585-.783.969-1.101l2.636-2.018c.808-.493 1.644-.797 2.23-1.6.517-.702.534-1.685 1.269-2.287.431-.359 1.124-.446 1.538-.938.34-.407.44-.951.789-1.342.76.43 1.721-1.476 2.423-1.826l.726.103zm3.32-1.912c-.079-.372-.188-.737-.325-1.092.021.461-.013 1.016-.434 1.301-.262-.212-.43-.508-.519-.828.162.948-.754 1.504-.826.469.081.385.091.807-.129 1.139-.153-.145-.458-.271-.606-.48-.178.345.138.78-.032 1.195-.986-.495-.621-.073-.507.572.144.814-.272.987-.637 1.575-.162.262-.4 1.556-1.049 1.216-.49-.257.393-1.329.46-1.719-.764.409-.628 1.71-1.707 1.797-.012-.15-.133-.288-.128-.453-.275.288-.737 1.019-.511 1.491-.981.296-.806 1.823-1.275 2.649.783-.34 1.378-1.224 2.184-1.639-.227.348-.378.776-.426 1.195.087.026.175.063.277.081a.69.69 0 0 1-.071.113c.066.071.065.052.142.084.081.908-3.222 1.401-2.465 2.002-.35.458-.637 1.404-1.129 1.622-.103.209-.185.485-.294.7.637-.264.744-.839 1.169-1.299.431-.465 1.015-.812 1.604-1.071.416-.181.558-.097.961-.408.546-.425.71-1.05 1.009-1.494.322-.477.653-.509 1.032-.8.141-.11.263-.01.44-.188.575-.579-.011-.738.023-1.215.089-1.109 1.583-.746 1.903-1.794-.107-.038-.231-.173-.378-.209.233-.361 1.132-.852 1.514-1.014-.288-.254-.708-.155-1.095-.152.288-.104 1.404-.383 1.435-.738.054-.678-1.034.107-1.117.2-.089-.042-.151-.068-.239-.097l1.251-1.203c-.097-.075-.172-.226-.272-.307l.565-.66.198-.545z" fill="url(#O)"/><path d="M14.644 41.578c-.489.25-1.096-1.236-1.11-1.821.152.149.509.252.676.354.064-.77-.296-1.024.244-1.354.3-.186.605-.29.793.071.083-.013.185-.068.261-.071.064.21.278.301.346.411.09-.188.354-.303.431-.412.407.535-.248 1.371.234 1.819.236.218.76.11 1.034.159-.354.998-1.144.788-.485 1.834.646-.268.769.175 1.205.424.47.267 1.173.372 1.525.83-.336.494-.73-.262-1.276-.089-.214.068-.424.492-.56.671 1.062.205 1.746 1.134 1.951 2.141-.809-.267-1.732-1.538-2.593-1.236.467.387.94 1.069.854 1.666-.34-.152-.71-.11-.87.253-.519-.493-.678-1.061-1.084-1.54-.085.336-.311.598-.557.846-.089.005-.339-.038-.424-.072.017-.233-.131-.404-.016-.66-.455.612-1.366.958-2.048 1.263.144-.535.426-1.056.67-1.496-.341.055-.619.262-.917.414-.935-1.661.9-1.478 1.279-2.643-.474-.22-1.185-.433-1.709-.525-.155-.675.665-.278.844-.82-.462-.281-1.151-.731-.87-1.329.475.116.737.584 1.115.823.036-.16.168-.296.203-.466.072.065.548.349.418.223l.437.331z" fill="url(#V)"/><path d="M7.887 43.625c-.073.286-.938-.036-1.197-.253.122-.003.299-.105.406-.133-.312-.314-.553-.268-.495-.605.034-.188.102-.346.325-.285.026-.037.041-.099.069-.13.113.055.231.005.302.019-.047-.107.002-.252-.015-.327.38.044.497.618.869.596.183-.01.332-.257.453-.346.297.514-.085.745.611.883.125-.356.359-.238.631-.315.29-.084.594-.32.922-.286.09.321-.382.188-.513.468-.046.11.056.354.083.474.484-.34 1.135-.257 1.646.04-.419.219-1.307.102-1.498.553.342-.037.812.034 1.035.293-.187.076-.31.238-.213.438-.405.018-.709-.134-1.067-.155.116.16.145.348.158.539a.9.9 0 0 1-.188.139c-.093-.094-.221-.102-.289-.244.094.411-.097.899-.219 1.281-.176-.257-.297-.564-.394-.828-.104.157-.117.344-.164.517-1.063-.257-.301-.91-.661-1.499-.272.103-.631.303-.862.476-.348-.194.128-.369-.041-.644-.292.076-.744.178-.898-.159.229-.144.526-.068.773-.128-.058-.076-.066-.178-.126-.254.056-.005.353-.084.253-.081l.302-.045z" fill="url(#W)"/><path d="M9.155 1.886c-.316-.197-.744-.404-1.009-.508.349.291.728.682.653 1.161-.333.034-.657-.052-.949-.204.794.523.579 1.512-.219.87.335.201.646.477.738.848-.205.003-.505.13-.757.087.131.351.655.43.847.822-1.023.337-.47.371.073.723.684.445.531.843.711 1.482.08.287.859 1.308.175 1.519-.515.16-.697-1.15-.933-1.456-.219.789.813 1.562.152 2.353-.116-.094-.296-.105-.416-.218.025.377.243 1.177.74 1.341-.448.859.778 1.762 1.059 2.628.282-.754.041-1.746.282-2.568.1.389.307.777.581 1.087.073-.042.163-.078.246-.133.014.039.024.081.034.123.095.003.079-.01.153-.039.714.55-1.151 3.109-.205 3 .096.54.587 1.366.414 1.846l.309.666c.237-.608-.106-1.064-.153-1.658-.047-.602.095-1.227.307-1.797.146-.401.302-.443.346-.92.06-.655-.282-1.181-.401-1.68-.132-.535.071-.78.114-1.233.016-.165.168-.181.159-.42-.034-.774-.541-.482-.862-.826-.748-.798.523-1.564-.022-2.479-.1.042-.28.038-.404.113-.102-.398.144-1.333.285-1.698-.377.024-.594.375-.85.637.12-.264.667-1.204.432-1.461-.451-.49-.616.769-.605.888a1.79 1.79 0 0 0-.228.094l-.029-1.646c-.12.016-.283-.034-.409-.021-.047-.272-.08-.547-.098-.823l-.259-.499z" fill="url(#X)"/></g></symbol></svg>