<svg xmlns="http://www.w3.org/2000/svg" xmlns:xlink="http://www.w3.org/1999/xlink" viewBox="0 0 76 67" fill="#fff" fill-rule="evenodd" stroke="#000" stroke-linecap="round" stroke-linejoin="round"><style><![CDATA[.B{fill-rule:nonzero}.C{fill:url(#A)}]]></style><use xlink:href="#X" x=".5" y=".5"/><defs><linearGradient id="A" y2="-0.00%" x2="50.00%" y1="100.00%" x1="50.00%"><stop stop-color="#9d5552" offset="1.1%"/><stop stop-color="#c97577" offset="100%"/></linearGradient><linearGradient id="B" y2="50.00%" x2="100.00%" y1="50.00%" x1="0.00%"><stop stop-color="#7a6961" offset=".6%"/><stop stop-color="#393828" offset="100%"/></linearGradient><linearGradient id="C" y2="50.00%" x2="99.96%" y1="50.00%" x1="-0.01%"><stop stop-color="#7a6961" offset=".6%"/><stop stop-color="#967d5f" offset="100%"/></linearGradient><linearGradient id="D" y2="19.12%" x2="80.72%" y1="93.32%" x1="7.84%"><stop stop-color="#ad615f" offset="0%"/><stop stop-color="#c97577" offset="81.5%"/></linearGradient><linearGradient id="E" y2="-0.00%" x2="50.00%" y1="99.99%" x1="50.00%"><stop stop-color="#9d5552" offset="1.1%"/><stop stop-color="#b56766" offset="56.7%"/></linearGradient><linearGradient id="F" x2="50.00%" y1="100.00%" x1="50.00%" y2="-0.00%"><stop stop-color="#bd7174" offset="1.1%"/><stop stop-color="#c97577" offset="100%"/></linearGradient><linearGradient id="G" y2="0.01%" x2="50.00%" y1="100.00%" x1="50.00%"><stop stop-color="#ad615f" offset="0%"/><stop stop-color="#c97577" offset="100%"/></linearGradient><linearGradient id="H" y2="29.44%" x2="83.83%" y1="77.64%" x1="-2.14%"><stop stop-color="#c76873" offset="0%"/><stop stop-color="#c97577" offset="100%"/></linearGradient><linearGradient id="I" y2="66.29%" x2="102.78%" y1="27.15%" x1="2.60%"><stop stop-color="#ca7562" offset="1.1%"/><stop stop-color="#c97577" offset="100%"/></linearGradient><linearGradient id="J" y2="-20.76%" x2="16.10%" y1="107.76%" x1="73.95%"><stop stop-color="#b05761" offset=".6%"/><stop stop-color="#c97577" offset="81.5%"/></linearGradient><linearGradient id="K" y2="-19.69%" x2="87.66%" y1="105.96%" x1="13.67%"><stop stop-color="#c76873" offset="0%"/><stop stop-color="#c97577" offset="100%"/></linearGradient><linearGradient id="L" y2="0.00%" x2="50.00%" y1="100.00%" x1="50.00%"><stop stop-color="#9d5552" offset="1.1%"/><stop stop-color="#c97577" offset="100%"/></linearGradient><linearGradient id="M" y2="0.01%" x2="50.00%" y1="100.01%" x1="50.00%"><stop stop-color="#ca7562" offset="1.1%"/><stop stop-color="#c97577" offset="100%"/></linearGradient><linearGradient id="N" y2="-4.22%" x2="49.99%" y1="103.63%" x1="49.97%"><stop stop-color="#c76873" offset="0%"/><stop stop-color="#c97577" offset="100%"/></linearGradient><linearGradient id="O" y2="-3.08%" x2="50.00%" y1="105.36%" x1="50.02%"><stop stop-color="#ca7562" offset="1.1%"/><stop stop-color="#c97577" offset="100%"/></linearGradient><linearGradient id="P" y2="0.02%" x2="50.01%" y1="100.01%" x1="50.01%"><stop stop-color="#c45770" offset="1.1%"/><stop stop-color="#c97577" offset="100%"/></linearGradient><linearGradient id="Q" y2="-4.03%" x2="20.10%" y1="107.04%" x1="74.86%"><stop stop-color="#ca7562" offset="1.1%"/><stop stop-color="#c97577" offset="100%"/></linearGradient><linearGradient id="R" y2="0.00%" x2="50.00%" y1="100.00%" x1="50.00%"><stop stop-color="#bd7174" offset="1.1%"/><stop stop-color="#c97577" offset="100%"/></linearGradient><linearGradient id="S" y2="-3.20%" x2="49.99%" y1="102.45%" x1="50.00%"><stop stop-color="#bd7174" offset="1.1%"/><stop stop-color="#c97577" offset="100%"/></linearGradient><linearGradient id="T" y2="-0.00%" x2="50.00%" y1="100.00%" x1="50.00%"><stop stop-color="#ca7562" offset="1.1%"/><stop stop-color="#c97577" offset="100%"/></linearGradient><linearGradient id="U" y2="0.00%" x2="50.00%" y1="99.99%" x1="50.00%"><stop stop-color="#ca7562" offset="1.1%"/><stop stop-color="#c97577" offset="100%"/></linearGradient><linearGradient id="V" y2="60.15%" x2="96.69%" y1="33.45%" x1="4.73%"><stop stop-color="#ca7562" offset="1.1%"/><stop stop-color="#c97577" offset="100%"/></linearGradient><linearGradient id="W" y2="1.76%" x2="84.76%" y1="91.52%" x1="11.92%"><stop stop-color="#b25f63" offset="0%"/><stop stop-color="#c97577" offset="100%"/></linearGradient></defs><symbol id="X" overflow="visible"><g stroke="none"><g class="B C"><path d="M41.206 18.761c.52 0-.31 1.868.312 2.18s1.038.103 1.556 0 .208 1.557.725 1.662 2.183-.521 2.91-.625-.416-4.463-.933-4.567-.729-.518-.521-1.039 1.245-.312 1.559 0 1.661 1.35 2.386 1.246.622-2.18 1.246-2.284 0-3.321-.726-3.01-1.245-.416-1.142-1.142 1.244-2.179.414-1.868-1.66-.206-2.178-.312-1.559.83-1.767 1.246.208 2.596-.415 2.7-1.765-.624-2.595-.312-.934 3.114-1.35 3.114-.725-1.454-1.245-1.35-1.765 1.972-1.765 2.284.728.416 1.35.518-.415.622-.934.622-.623 1.454.104 1.662 2.493-.723 3.012-.723z"/><path d="M33.382 14.437c.442.765-.386 2.115.236 2.22s.934 1.246 1.765 1.35 1.038 1.868.623 1.868-1.558-.416-1.35.102.831 1.144 1.245 1.56-.31 1.868-.726 2.179-.52.104-1.35 0-.623-1.35-.831-1.661-.934-.312-1.452-.312-1.247.83-2.078.622-.415 1.04-1.143 1.246-.414-.622-1.348-.311-1.663-1.039-1.765-1.764 1.143-1.35 1.349-1.662.624-.104.936-.52-.831-1.452-.312-1.868.519 0 1.247 0 .518-1.556 1.037-1.452.415-1.246 1.143-1.35.556-1.415 1.284-1.207 1.051.192 1.492.957z"/></g><path d="M34.354 64.75c-.102-.518.313-1.767-.206-3.841l-1.311-6.06c-.52-1.659-.143-3.905-.143-4.945s-1.349-3.32-1.661-3.841-1.038-1.413-1.661-1.725-.934-.417-1.766-.312-1.972-.247-2.699.065l-4.052 1.766c-.621.31-3.629 1.348-3.629 1.348l-2.182.52 4.049-1.764 3.738-1.767c1.141-.621 3.945-.933 3.945-.933s-1.142-.793-2.181-.895-2.18-.248-3.011-.144-2.18 1.455-3.01 1.869-2.492.936-2.492.936 2.076-1.558 2.908-1.87 1.142-1.142 1.971-1.348 2.803-.416 3.738-.312 2.802 1.039 3.528 1.142 1.558.623 1.558.623l-.726-2.493c-.415-1.245-1.559-2.387-2.388-3.737s-3.948-5.191-5.193-7.163-4.463-5.295-4.463-5.295-1.465-1.972-.74-1.556 1.909 1.556 2.739 2.595l4.322 5.739c1.038 1.037 4.06 5.265 4.89 6.097s1.87 1.972 2.18 3.113.416 1.87.936 2.908 1.349 2.181 1.349 2.181.621-2.699.207-3.635-1.105-2.076-1.52-4.153-.557-3.011-.659-4.775-1.04-4.465-1.04-4.465-1.038-3.738-1.557-4.567-1.87-2.388-2.076-2.803-3.322-4.464-3.322-4.464l5.087 5.709c.518.624.934 1.87 1.452 2.908s1.662 5.709 1.662 5.709.104-5.295-.206-6.229-3.116-4.257-3.116-4.257 3.011 3.427 3.427 3.427 0-2.18 0-3.218-6.333-8.202-6.333-8.202l.415-.622s2.802 4.153 3.633 4.879 1.766 2.595 2.284 2.907.83.726.83 1.764.104 3.738-.104 4.777 0 3.633.104 4.775.104 3.453.312 4.699 1.557 5.06 1.557 5.06.831-1.518.621-2.141-1.387-2.218-1.491-2.738l-.375-1.764s1.452 3.113 1.866 3.01.002-3.01-.102-4.048-1.245-3.945-1.35-4.776-.623-4.047-.623-4.047.831 3.01 1.037 4.047 1.142 4.152 1.142 4.152 0-2.075-.104-2.905-1.038-2.182-1.038-3.219.624-4.466.624-4.466 0 3.218.104 4.257.622 2.078.831 3.114 0 5.088.102 5.919.521 2.075.104 2.698-.624 4.256-.624 4.256 1.04-3.632 1.662-4.464.102-3.633 0-5.917.104-2.803-.104-5.607-.518-3.631-.934-5.191-1.246-2.736-1.35-3.67.104-1.831.104-1.831l2.076 5.917s.52-1.764.208-3.323l-.831-4.255s-.041.141.48 1.076a9.69 9.69 0 0 1 1.077 3.595l.312 8.825s-.104 9.135-.104 9.135l.934-2.076c.31-.728.104-9.656.208-10.694s.623-1.972 1.038-3.736 0-6.957 0-6.957l.934.624s.104 5.087-.104 6.333-1.039 2.18-1.246 4.465-.102 9.343-.102 9.343 1.764-1.766 2.802-2.908l2.386-2.595c.832-.934 3.738-3.531 3.738-3.531l-5.192 6.021c-.623.728-3.426 3.426-3.841 4.568s-.518 3.114-1.037 4.152-1.35 2.698-1.558 3.529-.727 2.699-.727 3.531v2.596s2.078-4.362 2.699-5.089 1.246-3.218 1.557-4.152.831-4.153.936-4.775.414-.934.518-1.661.208-3.114.52-4.361.829-1.558 1.245-3.01.832-5.294.832-5.294.102 4.358-.104 5.397-.934 1.766-1.247 2.7-.415 3.426-.415 4.671-1.037 3.946-1.037 3.946 2.386-1.209 2.699-2.142.143-1.492.869-2.114 2.867-1.662 2.867-1.662-2.076 1.662-2.596 2.284 0 1.35-.416 1.972-1.971 1.868-2.594 2.389-.518 1.558-.518 1.558 1.142-.728 2.389-.624 3.528.414 4.36 1.038 2.076 1.764 2.076 1.764-1.558-.518-2.596-1.142-3.011-.726-3.84-.831-1.764.208-2.285.518-.934 2.701-.934 2.701 2.285-1.04 3.841-1.973 3.634-1.869 5.193-2.803 3.633-2.804 5.087-3.634 3.425-2.491 4.255-3.633 2.386-2.492 2.386-2.492-1.14 2.077-2.076 3.219-3.556 2.83-4.49 3.556-4.334 3.191-5.162 3.711-7.165 4.361-7.996 4.465-1.453.623-1.972.934-1.869 4.462-2.492 5.19c.728 0 3.635-2.076 4.775-3.739s3.53-6.747 3.841-7.681.935-1.831 1.453-2.973 1.868-2.738 2.492-3.568 3.633-3.01 3.633-3.01-2.907 2.7-3.424 3.323-1.973 2.49-2.389 3.633-3.012 6.541-3.114 7.267-.831 2.492-1.35 3.323-3.738 3.426-4.465 3.945-2.178 1.557-2.386 1.972.31 1.868.521 2.804 1.244 4.23 1.66 5.683l1.142 3.971s-.623.83-2.076.83c-1.458-.002-2.704-.314-2.808-.832z" fill="url(#B)" class="B"/><path d="M38.391 64.555c-.219-.661-3.078-6.156-3.297-8.353s-.219-3.52 0-4.399-1.979-5.056-1.1-6.154 1.302-1.961 1.742-3.501l1.336-4.195-3.315 5.496-.642-3.077.219 3.956c0 1.538-.439 1.1-.66 2.2s.679 2.399.898 4.598-.458 3.537-.018 5.075.439 3.737 1.098 5.277-.66 3.075.221 3.515 3.739.222 3.519-.439z" fill="url(#C)" class="B"/><path d="M56.526 6.166c.623.208 1.661 1.556.623 1.973s-1.661 1.142-1.142 1.454.623.726.312.934-1.559.102-1.973.518.414.83.414 1.143-1.35.933-1.35.933 2.181-.414 2.492-.83-.102-.416-.102-.83 1.244-1.35 1.244-1.35.726-.622 1.142-.416.727.727.623 1.143-.209.623-.623.934.102 1.452.414 1.556-.206 1.246.104 1.246 1.04-1.452 1.66-1.558.208-1.349.728-1.349.624-.208 1.038 0 .414-1.662.934-1.765 1.245-.312 1.35 0-.416.83 0 1.349l.415.52-.102 1.66c0 .414.207.83.519.934s1.245.312 1.659.312.934.312 1.246.518.934.208 1.558.104 1.038-.622 1.454-.726.726 1.246.31 1.454-1.038.726-.934 1.14.104 1.247-.312 1.662-.831.102-1.245.102-2.492 1.558-1.868 1.662 1.868-.518 2.178-.104-.52.934-.104 1.142 1.246-.312 1.766-.622.623-1.35 1.246-1.456.933-.207 1.556 0 1.142 1.56.622 1.662-1.556.312-1.348.622 1.453 1.144.831 1.456-1.455 1.348-1.767 1.038-1.348 1.141-1.764.724-2.492.416-1.973.832-.102 1.556.415 1.452 1.143-1.556 1.662-1.765 2.076-.726 2.491-.416.728 2.597.105 2.492.104 1.35-.83 1.246-1.039-.414-1.87-.52.208 1.038-1.244.934-1.974-.829-2.492-.934-1.454 1.04-2.492.83-2.075 1.974-2.699 1.974-2.18 2.284-2.804 2.386-.83-.208-1.244-.208-.105 2.907-1.143 3.011-2.284-.622-3.114-.829-3.425.103-4.152 0-1.765-1.87-1.765-2.181-1.143.105-1.869-.414-1.765-.934-1.453-1.142 1.039-.518 1.557-.312 1.662-1.66 2.284-1.556 1.556-.518 2.076-.312 1.247.83 1.972.83.313-1.246 0-1.66-.83.312-1.452.208-.623-.518-1.04-.624-.934.312-1.453.416-1.558-.208-2.18-.52-1.142-1.661-.312-1.661 1.974-2.076 2.388-2.698-.31-2.492-.831-2.492-1.867-1.35-1.557-1.87 1.245-2.075 1.662-1.971l2.388.726c.623.208-.208-1.036-.106-1.556s.832-1.868 1.247-1.868-1.662-1.87-1.247-2.39.832-2.178 1.558-2.075-.104-1.246.416-1.868 2.594-1.766 3.115-1.558 1.557-1.034 2.18-.826z" fill="url(#D)" class="B"/><path d="M5.242 50.141S3.895 51.18 4.1 51.802s.83.415 1.35.518.52-.623.934-.518.622.623 1.142.727 3.115-.934 3.531-.521-.521 1.87 0 2.079 1.764.518 2.386.414.414-1.246.934-.831.415 1.141.934 1.245.934-1.452 1.557-1.348.726-.831 1.143-.831-1.041-.621-.624-1.038.624-1.35.934-1.038-.106.623-.106 1.142.831-.208.831.206-1.245.831-1.036 1.453.726.209.829.626 1.143 1.037 1.247 1.452 1.66-.31 2.178.104.934-.934 1.246-.934 1.142.415 1.246.934.624.312.726.726-.933.416-.831.726.417.312.934.624.519-.519.934-.414.728.207 1.35.207.209-.31.623-.831-.623-.415-.934-.415.104-.934-.414-.934-1.04.103-1.558 0-1.348-.934-.83-.934.726-.104 1.142.104.934 0 1.453 0 .208-.623-.206-1.142-.624-.312-1.247-.104-.518-.83-.518-.83.623.104.934.208.518-.312.831-.624-1.453-.934-.831-.934.831.105 1.348 0 1.038-1.348 1.455-.933.104 1.039-.312 1.039-.832.31-.832.724-.31.831.21.934.415-.414.934-.622 1.246-.312 1.142 0 .726.415 1.142.829.622-.207 1.14-.31.934-.621 1.662-.311-.312-1.661.726-1.765-.83-1.558-1.142-1.868.416-.623.312-1.143-1.039-.624-1.35-.415-.934-.518-1.453-.416.207 1.104-.52 1.209-.934-.377-1.35-.481-.727.517-1.348.312-1.142-1.142-1.765-1.142-.869-.039-1.284.063-1.104-1.206-1.52-1.101-1.142.726-1.453.31-2.078.209-2.387.624-.416-.518-.934-.832-1.66-.207-1.66.314-1.247.828-1.247.828l-1.558-.414s-1.662 1.453-2.076.83-.934 1.142-1.556.726-1.87.105-2.388.209-.349 1.558-.765 1.558-2.243.31-2.243.31z" fill="url(#E)" class="B"/><path d="M22.722 4.861c-.83.104-.31 2.037-.31 2.037s.831.208 1.142.832-.415 1.452-1.246.83-.31 2.076.104 2.595 3.945 2.907 3.945 2.907l5.398.624 8.098.622s7.371-2.18 8.202-1.868 2.803-2.18 3.737-2.701 1.453-2.698 1.246-3.321-.726 0-.726 0 .102-.622.518-.622.208-2.388-.311-2.492-1.246.726-1.661.414-.727.416-.623.832.208 1.038-.207 1.246-1.038.415-1.038.415-.934 1.038-1.142 1.454-.726.934-.52 1.35-.103.934-.829.934-.727.518-1.142.414-.415-.726-.104-.83.729-.104 1.351-.104.102-1.455.518-1.455 1.558-1.971 1.972-2.076-.52-1.036-.103-1.246-.312-1.452-.831-1.661-1.348.208-1.556.623-.104 1.247-.209 1.662-.31.104-.831.104 0-1.142-.414-1.142h-.832s.521-.726.935-.726-.104-.416.104-.934-.415-1.144-.831-1.038-.312-.208 0-.624S43.797.114 43.173.009s-1.764.765-1.868 1.182.312.83-.103.83-1.038-.726-1.662-.52-1.038-.518-1.556-.414-.209.726 0 .934 1.142.416 1.244.726-.415.416-.83.52-1.661-.52-2.076-.52-.519.416-.934.312-.687-.83-.375-1.246-.973-.726-1.493-.83-1.142 1.038-1.661 1.038.065 1.454-.455 1.454-.375-1.35-.791-1.662-1.35-.102-1.87-.102-1.244 1.245-1.244 1.764.518.311.934.518.31.623-.104.726-.208.002-.934.104-1.142.728-1.142 1.247 1.142.934.624 1.142-.934-.585-1.454-.689-.102-1.595-.726-1.803-1.145.039-1.976.143z" fill="url(#F)" class="B"/><path d="M34.922 13.186s-1.453 1.623-2.285 1.623-3.113-.897-3.84-.793-2.387 1.038-2.907.83-2.389 1.246-1.869 1.868.832 1.35.728 1.87-1.455.518-.936.83 2.388 1.452 3.012 1.556 2.907-1.245 3.633-1.661.623-1.142 1.142-.934 2.907 1.556 4.049 1.765 2.076-1.868 2.492-1.557 3.218-.934 4.049-.934 1.453-2.596 1.453-3.323-1.454-1.35-2.285-1.35-1.452.934-2.283.726-.831-1.868-2.078-2.179-2.079 1.659-2.079 1.659z" fill="url(#G)" class="B"/><path d="M19.2 4.642c-.832-.312-1.767.972-1.767 1.699s1.142 1.207 1.349 1.519-1.037.726-1.037 1.036.726 1.039 0 1.039-1.662.104-1.87.52.312 2.284 1.246 2.492 1.87-.208 2.7-.52 1.141.208 1.141.622-1.247 1.246-2.491 1.246-2.698.416-2.698.83.934 2.076 1.454 2.388 1.556.52 2.387.416 2.18-.83 2.699-.83 1.868.725 2.283.725.105-1.037.105-1.037-2.285-.52-2.388-.934.726-1.246 1.037-1.142.105 1.454.52 1.349.623-1.14 1.144-.829.414 1.661 1.038 1.557 2.389-.416 2.595-1.246-1.141-1.66-.727-1.972-1.452-3.011-.726-3.219-.624-1.661-1.142-1.556-.831.895-1.559.895-1.14-2.141-1.348-1.207-.767.442-1.182.234a1.86 1.86 0 0 1-.894-1.48c0-.624.726-.934 0-1.246s-1.036-1.036-1.865-1.348z" fill="url(#H)" class="B"/><path d="M14.527 7.133c.622.104.83.83 1.454.934s.414-.518 1.246-.415.83 1.556 1.661 1.66 2.49 1.868 2.697 2.492-.518 1.349-.415 2.283.934 1.87 1.662 1.87 1.454-.312 2.076 0-.104 1.972.622 2.178.937 1.87 1.038 2.804-1.765 1.662-2.282 1.973-2.078-.416-2.701-.416-1.038 1.142-1.557 1.246-1.557-.83-1.557-1.246-1.764-.207-1.35.208 1.142.83 1.558 1.142-1.143.726-1.143.726l-1.764.312c-.624.104-1.764-.83-2.491-.518s-2.388-1.558-1.974-2.076-1.038-3.946-1.66-3.946-.312-1.556.414-1.556 2.7 1.868 3.22 1.868-.313-.52-.418-1.039-.622.104-1.245-.208-1.765-.83-1.972-1.35.311-.206.414-.726-.83-.726-.934-1.246.312-.83.934-.726.728 1.039 1.246.934.414-.726.208-1.038-.728 0-.728 0-1.452-.518-1.556-.83-.104-1.662.416-1.557.934.727 1.452.727-.31-1.141.208-1.038.521.52.934.52-.831-.728-.831-1.248.417-1.452 1.143-1.348.83 1.246 1.142.934-.209-.52-.104-1.142.314-1.245.936-1.14z" fill="url(#F)" class="B"/><path d="M38.611 18.552c-.726-.208-1.454-.102-2.076 0s0 1.35-.415 1.454-.934 0-1.454 0 .52 2.284-.312 2.284-1.452 1.971-2.386 1.868-.622 1.348-.415 1.764 1.038.104 1.764.52 1.767-.52 2.701-.209 3.842-2.283 4.568-2.283-.726-2.388 0-2.181.831-1.452.102-1.764-.934.206-1.453 0 .102-1.245-.624-1.454z" class="B C"/><path d="M67.82 32.567c.518.104 1.558-.312 2.076-.206s.518-1.246 1.349-.934.623.726.727 1.349-2.284 1.246-1.66 1.35 1.348-.52 1.764-.416.415 1.454-.311 1.764-.934-.31-1.142 0 .623.728.104.832-1.245-1.038-1.767-1.142c-.515-.104.314.518-.204.518s-1.453-.208-1.973 0-1.558-.311-1.558.104 1.247 1.142 1.972 1.142 1.763-.208 2.595 0 1.766.52 2.598.415 3.114 1.662 2.283 1.974-3.114-.104-3.114-.104l-.726.726h-2.284l-.934 1.35h-2.389l-.934-1.35-1.453-.415s.312-1.246-1.14-1.246-4.257-1.35-4.777-1.765 1.246-.83.936-1.454-1.248-.208-1.559-.52.105-1.244.831-1.348 1.244-1.35 1.766-1.454.933.518 1.661.83 1.452-1.142 2.283-1.246 1.35 1.87 1.558 1.039 1.454-1.87 1.867-1.87.52.312 1.142.312 2.077-2.076 2.596-1.868.831 1.452.415 2.076-1.868.726-1.66.311.102.832.62.416c.526-.419-2.069.724-1.551.828z" fill="url(#I)" class="B"/><path d="M7.259 19.591c.934-.206 1.66 1.662 2.284 1.868s1.038-.726 1.661-.518 1.038.622.83 1.037-1.972.728-1.557.832 1.455 1.452 2.077 1.452.518-.622 1.038-.726 2.906.104 3.529.416 2.805 1.764 3.322 1.66.312-1.869 1.142-1.973.934.622 1.559 0 .31-1.142 1.037-1.662 2.284.313 2.805.52 1.868 1.35 1.142 1.558-.52 1.246.102 1.246 1.558.933 1.87.622 1.453-.622 2.491-.208 1.974.83 1.35 1.142-.726 1.038-1.14.726-1.87.312-2.39.104-1.556-.622-2.076-.416-.31.728.104.936.728-.104 1.143.206.104.208-.518.832-.728-.312-1.35-.416-.726 1.454.104 1.454 1.66-.416 1.66-.832 2.077.624 2.389-.104 2.595.936 3.426.622 1.351.418 1.869 0 1.661.418 2.492.832-.209.518.622.83 1.869 1.35.934 1.35-.726-.416-1.556-.518-.52 1.038-1.662 1.141-.83.624-1.972.416-2.388-1.246-3.322-1.142 1.038 2.077 0 1.87-.519-.21-.934 0 .415 1.064-.415 1.037-1.142.832-2.284.52-1.143-.208-2.076-.312-1.143.726-1.765.83-.934-.104-1.455.104 1.143.83.521.934.206 1.142-.208 1.35-.729.624-1.662.208-2.388-.518-2.698-1.142-1.454-.104-2.077-.416.83-1.66.518-1.972-.83-.31-.83-.31.312.206.312.726-.312.83-.726.934-1.766-.934-2.18-1.35 1.246-.83.726-1.038-.934.208-1.453.312-.415-1.038-1.038-1.142-.623.518-1.037.208-.312-.52-.624-.727-1.246-.936-1.66-.832-.728.934-1.142 1.038-1.143-1.349-1.143-1.349l-.312-1.142.623-1.248-.518-.622c-.208-.622.416-1.349 1.038-1.556s1.35-.208 1.972.416.622-.624.104-.936-1.764-.104-2.181-.31.208-.934-.726-1.35-.624-.104-1.246 0-.83-1.452-1.454-1.35-.726-1.141-.207-1.348 1.038.83 1.765.622.416-.208-.104-.622-.83-.52-1.454-.416-1.349-1.349-1.142-1.869.832-1.556 1.248-1.454 1.555.627 2.49.419zm17.337 12.561c-.933.102-1.142.208-.623.622s1.04.727 1.662.83 1.35-.726.829-1.038-.934-.518-1.868-.413zm-.416-2.701c-.415-.104-.829.312-.726.832s.415.622 1.038.622.105-1.35-.311-1.455z" fill="url(#J)" class="B"/><path d="M27.399 37.447c.416.414 1.247.31 1.766.414s.31-.934 1.038-.83.726 1.103 1.764.793 2.181-.273 2.803-.273 1.142-1.558 1.869-1.144 1.037 1.35 1.765 1.558 2.076.726 2.698.936-.207.935.726 1.037 2.181-1.66 2.803-1.142.208 1.764-.416 2.077-1.452.207-2.283.104-1.246 1.559-2.075 1.766-1.766-1.039-2.389-.934-1.037 1.244-1.869 1.348-2.178-1.66-2.699-1.452-1.142-.208-1.765-.104-.312-.623-.728-1.039-1.97-.83-2.076-.206-.622.414-1.037.518-1.661 0-1.246-.623-1.559-1.454-.934-1.972 1.868-1.245 2.281-.829z" fill="url(#K)" class="B"/><path d="M3.155 32.153c.624-.104.934.518 1.452.414s.416-1.14 1.246-1.036.624.414 1.142 1.036 1.973.312 2.18 1.142 1.556.312 1.972.105 1.143-.312 1.764.103 1.454.726.934 1.038.104 1.558.519 1.452.624-.934 1.247-.934 1.348.208 1.661.624-1.142 1.35-.726 1.454.831.623 1.348.415.728-.104 1.247-.104 1.142 1.35 1.973 1.246 2.388-.416 2.906-.622 1.246.934 1.558.934.519-1.142 1.453-.518 1.764 1.556 1.246 1.971-1.246.104-1.557.832-1.245.104-1.765.104-1.037 1.036-.518 1.244 1.142.726 1.764 1.247 1.972.727.936.933-1.142.417-1.662.105-.831-.934-.831-.934.311 1.038-.312.934-.934.208-1.764 0 .208-.624.208-1.452-.416-1.04-.936-1.558-1.038-.209-1.66 0 .726.415.208 1.038.933 1.661.207 1.973-.623.934-1.038.934-.415-1.245-1.142-1.349-.312.727-1.142.727-.622 1.556-1.35 1.556-1.867.312-2.492.209-1.037-.728-1.661-.728-.934 1.35-1.661 1.35-.209-.414-.934-.518-.622 1.143-1.142 1.037-1.556.936-2.492.729.312-1.143-.415-1.143-.83 0-1.662-.208.624-1.452 1.142-1.556 1.972-.624 2.388-.726.312.414 1.037.102 1.351 0 1.142-.414-.935-.415-1.454-.624-.875.376-.875.376-.163.455-.577.248-1.039-.209-2.077-.726-3.322.518-3.841 0-.418-1.038 0-1.142.726-.518 1.556-.312.83-.829.52-1.245 0-1.35.414-1.35.622.832.622.832.52.416.936.207.934.831 1.557.622l1.764-.517s-1.143-.312-1.557-.312-.207-.416-.83-.624-1.142 0-1.662-.208-.208-1.141.312-1.141 1.142 0 1.246-.312-.624-.104-.83-.622-1.766.104-2.076-.416-.416-.83 0-1.142 1.14-.208 1.66-.414 2.076.414 2.076.414-.726-.31-1.038-.83-1.038.416-1.662.104-1.245-1.038-1.452-1.452-.312-1.558 0-1.87.622-.624 1.246-.726zm6.021 6.021c-.207-.416-.416-.832-.83-.727s-1.35-.208-1.246.414 1.038 1.246 1.763 1.04 1.661.829 1.973.414 2.389-1.35 1.87-1.454-3.322.726-3.53.31zm1.661 2.802c-.518-.31-.935-.104-1.559 0s.107 1.245.937.832.831.727 1.246.622-.105-1.142-.624-1.455z" fill="url(#L)" class="B"/><path d="M56.917 23.356c-1.142-.312-1.038 1.48-1.662 1.48s-1.038.104-1.973.208-1.35 1.245-1.764 1.971.208 1.766.934 2.182 2.076-.754 2.907-.339.727 2.104 1.765 2.31 3.218-2.075 3.84-1.765 3.114-.31 3.01-1.348-1.13-.728-1.753-1.246 1.027-1.453-.116-2.076-2.18.726-3.114.414-.934-1.478-2.075-1.79z" fill="url(#M)" class="B"/><path d="M38.63 5.789c-.702.725.213 1.228-.088 1.678s-.451.785-.852 1.493-.05 1.378.099 1.912.952.418 1.505.026.64-1.743 1.241-2.211 1.365.154 1.968-.528.555-2.997 1.005-3.348 1.352-2.351.803-2.611-.899.583-1.45.866-.204-1.21-1.057-.587-.704 1.812-1.304 2.387-1.165.199-1.868.923z" fill="url(#N)" class="B"/><path d="M28.752 10.329c.141.952 1.391.328 1.591.796s.408.745.778 1.415c.376.667 1.328.634 1.982.723s1.196-.696 1.26-1.366-1.202-1.331-1.173-2.08 1.276-1.186 1.096-2.029c-.185-.841-2.521-1.782-2.494-2.344s-1.22-2.242-1.93-1.849-.158 1.073-.332 1.696-1.37-.325-1.451.721 1.217 1.415 1.294 2.211-.762 1.152-.621 2.106z" fill="url(#O)" class="B"/><path d="M39.838 23.089c.934.103 1.868.312 2.388.415s.414-1.038 1.245-.934 1.868 1.454 2.804 1.35 3.424 1.556 3.424 2.076-1.764.934-2.491 1.038.001 1.972-.623 1.972-1.973-.208-2.594-.208-.623-.622-1.04-.934-1.764-.312-2.077-.312-.516-1.142-1.14-1.038-1.142.728-1.66.728-1.766-.728-1.766-.728-.104-1.556.415-1.764 1.868-.727 2.491-.623-.308-1.142.626-1.039z" fill="url(#P)" class="B"/><path d="M16.803 14.616c.494.947 1.277.224 1.626.679s.636.721 1.207 1.368 1.345.534 1.922.577.709-.791.496-1.471-1.522-1.246-1.795-2.003.578-1.292.091-2.126-2.787-1.604-2.989-2.172-1.9-2.161-2.33-1.711.298 1.091.404 1.731-1.259-.223-.91.836 1.57 1.331 1.948 2.125-.168 1.217.331 2.165z" fill="url(#Q)" class="B"/><path d="M20.283 25.545c-.894-.244-.815 1.16-1.302 1.16s-.812.081-1.545.163-1.056.976-1.382 1.545.163 1.385.733 1.708 1.626-.59 2.276-.265.571 1.647 1.383 1.812 2.522-1.626 3.009-1.383 2.44-.243 2.357-1.058-.884-.57-1.372-.977.805-1.137-.089-1.626-1.708.569-2.44.325-.732-1.16-1.627-1.406z" fill="url(#M)" class="B"/><path d="M62.581 17.808c-.748.52.016 1.154-.326 1.503s-.527.621-.999 1.184-.248 1.237-.187 1.75.811.565 1.373.319.839-1.454 1.458-1.758 1.228.406 1.88-.096.944-2.603 1.407-2.832 1.583-1.863 1.116-2.204-.905.35-1.454.499-.011-1.138-.881-.74-.907 1.501-1.542 1.906-1.097-.048-1.846.47z" fill="url(#R)" class="B"/><path d="M55.861 17.48c-.492.772-1.203-.04-1.544.309s-.613.538-1.169 1.017-1.276.233-1.815.16-.644-.858-.422-1.439 1.46-.847 1.739-1.485-.506-1.29-.027-1.958 2.657-.929 2.864-1.408 1.841-1.612 2.227-1.118-.307.937-.424 1.504 1.186.036.827.938-1.504.913-1.885 1.568.124 1.145-.368 1.915z" fill="url(#S)" class="B"/><path d="M14.676 39.353c-.893-.244-.812 1.16-1.299 1.16s-.812.081-1.545.163-1.058.976-1.385 1.544.165 1.382.733 1.708 1.628-.59 2.278-.265.569 1.647 1.383 1.809 2.521-1.627 3.008-1.382 2.439-.245 2.358-1.056-.886-.57-1.373-.976.804-1.139-.09-1.627-1.708.569-2.44.325-.733-1.16-1.628-1.404z" fill="url(#T)" class="B"/><path d="M49.781 21.055c.332.104-.578 1.134-.242 1.459s.645.276 1 .315-.182 1.04.128 1.211 1.503.107 1.989.188.637-2.944.325-3.116-.363-.479-.123-.77.86.052.996.315.793 1.199 1.28 1.28.838-1.272 1.259-1.212.671-2.128.141-2.075-.714-.518-.5-.963 1.238-1.144.643-1.113-1.023-.468-1.333-.64-1.164.218-1.381.442-.391 1.704-.812 1.646-1.006-.756-1.6-.723-1.227 1.806-1.493 1.722-.172-1.077-.525-1.116-1.529.906-1.592 1.106.381.413.76.605-.393.315-.724.211-.694.806-.271 1.084c.427.283 1.745.04 2.079.147z" fill="url(#U)" class="B"/><path d="M14.468 21.097c.333.104-.577 1.134-.241 1.458s.645.277.998.315-.182 1.04.13 1.212 1.502.107 1.988.189.635-2.944.322-3.116c-.308-.171-.358-.48-.12-.77s.861.052.998.315.79 1.199 1.279 1.279.839-1.27 1.259-1.21.671-2.129.143-2.077-.715-.516-.502-.962 1.238-1.143.643-1.113-1.022-.47-1.334-.64-1.165.218-1.383.442-.39 1.704-.811 1.646-1.006-.756-1.6-.723-1.229 1.805-1.495 1.722-.17-1.077-.525-1.116-1.529.907-1.591 1.106.382.412.758.604-.391.316-.724.211-.692.806-.268 1.084 1.74.041 2.073.147z" fill="url(#V)" class="B"/><path d="M36.951 51.671c.103.622.518.728 1.141.83s1.038-1.038 1.558-1.142 1.036-.415 1.453-.52.207-1.14.207-1.14.417.83.417 1.452-.934.52-.832.934.415.728.934 1.038.83-.414 1.35 0 2.387-.622 2.803-.622.416-1.038.416-1.662.622-1.349.622-1.349-.414 1.349-.104 1.869.416.829.936.726-.415-1.14.206-1.14.832-.208 1.142.309.52 1.869 1.038 2.181 2.285.726 2.492 1.246.518-1.246.934-1.246-.208 1.454.518 1.662 3.219.623 3.841.311-.414-.934.104-.934 1.04 0 1.455.104.83-1.244 1.452-1.454 1.974-.207 2.285-.83-.934-.208-1.35-.31.209-1.144-.414-1.144-1.453.209-1.973.312-1.038-.726-1.038-.726.414-.623 1.142-.311 1.661-1.04 2.283-.831 1.144.519 1.766.621.933-.414 1.869-.518.103-1.35.727-1.557 1.037 0 1.66-.415-.832-.934-1.764-1.142-.935.312-1.663.623-3.739.208-4.361 0-1.556-1.245-2.282-1.038l-3.115.829c-1.142.209-1.868 1.143-2.492 1.453s-1.764.312-1.869-.31-1.868-1.143-2.284-1.557-1.454-.105-1.972-.209-.208-1.66-.622-1.764-1.247-.105-1.87-.209-1.661 1.972-2.076 1.972-.415-.726-1.037-.934-.726.209-1.35.416-2.18-.207-2.18-.518-.831-.313-1.142-.104-1.868 1.972-1.348 2.178 1.14.104 1.348.52-.934 1.142-.623 1.558 1.661.518 1.972.934-.413.933-.308 1.555z" class="B C"/><path d="M70.068 42.222c-.209.831-.624 1.455-1.662 1.455s.312 1.764-.415 1.764-1.248-.518-1.872-.518-.101 2.075-.724 2.178-1.145-1.35-2.076-1.14-1.141-1.144-1.764-1.038-1.869.934-1.557 1.244-.415 1.038-1.04.934-1.971-1.35-2.491-1.35.104 1.35-.83 1.453-2.076-.414-2.597-.726-.622.518-1.452.518-2.597-1.037-2.076-1.246 1.038-.934 1.038-.934-1.558.415-1.869.728-1.143.104-1.35-.207 2.076-1.247 1.974-1.558-.728-.518-1.454 0-1.558-.518-1.143-.623.934-.414.623-.934-2.18-1.142-2.909-.829-1.452-1.038-.932-1.35 2.076-1.452 2.386-.934 1.454.416 1.974.312-.104-.727.31-.83-.415 0-.623-.934-1.038-.314-1.661 0 .206-.52-.415-.832-.831.104-1.349.208-.831-.624-.208-1.142 1.973-1.556 2.595-1.246 2.699.728 3.116 1.35 1.869-.934 2.388-.934.828 1.142 1.557 1.454-.831.103-.414.726 1.036-.208 1.556.416.312-1.558.831-1.454 1.348.622 1.557 1.038-3.426 1.038-2.596 1.246 2.596-.52 2.596-.52.933-.415 1.557-.31.52 1.764 1.038 1.868.416-.934.83-.934-.414-1.039.208-1.248 1.557-.622 1.765 0 1.454.727 1.974 1.143-1.662-.208-1.454.622.518 1.247 1.349 1.351 1.246-.622 1.762-.52c.522.104-1.037 1.142-.621 1.766s.934.623 1.661.831.623-1.246 1.558-1.039 1.555-.102 1.347.728zm-8.618 1.247c.415.208.726-.83 1.246-.726s1.038.623 1.454.831.31-.417.83-.934-1.142-1.04-1.454-.83-.936.518-1.558.518-.933.936-.518 1.142zm-10.795-1.973c.414.208 1.14-.416 1.556 0s-.207 1.454.312 1.66.518-.726 1.038-.726.726.622 1.245.726-1.142-1.453-.727-1.556.831-.414.623-.934-1.556-.312-1.973-.106-.52-.829-.933-.934c-.418-.1-1.56 1.665-1.144 1.871z" fill="url(#W)" class="B"/></g></symbol></svg>