<svg xmlns="http://www.w3.org/2000/svg" xmlns:xlink="http://www.w3.org/1999/xlink" viewBox="0 0 76 57" fill="#fff" fill-rule="evenodd" stroke="#000" stroke-linecap="round" stroke-linejoin="round"><style><![CDATA[.B{opacity:.9}.C{opacity:.85}.D{opacity:.8}.E{fill:url(#E)}]]></style><use xlink:href="#j" x=".5" y=".5"/><defs><linearGradient id="A" y2="49.98%" x2="100.00%" y1="49.98%" x1="-0.00%"><stop stop-color="#645e40" offset="4.5%"/><stop stop-color="#535747" offset="100%"/></linearGradient><linearGradient id="B" y2="50.00%" x2="100.00%" y1="50.00%" x1="0.01%"><stop stop-color="#95926b" offset="16.9%"/><stop stop-color="#878561" offset="97.2%"/></linearGradient><linearGradient id="C" y2="49.99%" x2="99.99%" y1="49.99%" x1="-0.03%"><stop stop-color="#645e40" offset="2.8%"/><stop stop-color="#535747" offset="100%"/></linearGradient><linearGradient id="D" y2="50.00%" x2="100.00%" y1="50.00%" x1="-0.00%"><stop stop-color="#848856" offset="2.8%"/><stop stop-color="#535747" offset="100%"/></linearGradient><linearGradient id="E" y2="50.00%" x2="100.00%" y1="50.00%" x1="0.00%"><stop stop-color="#848856" offset="2.8%"/><stop stop-color="#535747" offset="100%"/></linearGradient><linearGradient id="F" y2="94.72%" x2="94.62%" y1="8.68%" x1="3.46%"><stop stop-color="#848856" offset="2.8%"/><stop stop-color="#535747" offset="100%"/></linearGradient><linearGradient id="G" y2="50.00%" x2="100.00%" y1="50.00%" x1="-0.00%"><stop stop-color="#645e40" offset="0%"/><stop stop-color="#535747" offset="100%"/></linearGradient><linearGradient id="H" y2="50.00%" x2="100.00%" y1="50.00%" x1="0.00%"><stop stop-color="#9e8f49" offset="4.5%"/><stop stop-color="#848856" offset="7.9%"/><stop stop-color="#95926b" offset="70.8%"/></linearGradient><linearGradient id="I" y2="49.99%" x2="100.00%" y1="49.99%" x1="0.01%"><stop stop-color="#95926b" offset=".6%"/><stop stop-color="#7d714c" offset="100%"/></linearGradient><linearGradient id="J" y2="85.40%" x2="95.18%" y1="30.68%" x1="9.41%"><stop stop-color="#b39a57" offset="3.4%"/><stop stop-color="#a59661" offset="9.4%"/><stop stop-color="#999369" offset="17.5%"/><stop stop-color="#95926b" offset="24.7%"/><stop stop-color="#a59b65" offset="55.1%"/><stop stop-color="#95926b" offset="91%"/></linearGradient><linearGradient id="K" y2="49.99%" x2="100.00%" y1="49.99%" x1="0.00%"><stop stop-color="#b39a57" offset="3.4%"/><stop stop-color="#a59661" offset="9.4%"/><stop stop-color="#999369" offset="17.5%"/><stop stop-color="#95926b" offset="24.7%"/><stop stop-color="#878b5d" offset="100%"/></linearGradient><linearGradient id="L" y2="-0.02%" x2="50.00%" y1="100.01%" x1="50.00%"><stop stop-color="#848856" offset="2.8%"/><stop stop-color="#535747" offset="100%"/></linearGradient><linearGradient id="M" y2="0.03%" x2="50.00%" y1="100.03%" x1="50.00%"><stop stop-color="#c99f69" offset="0%"/><stop stop-color="#6d5b4a" offset="31.5%"/><stop stop-color="#3f413c" offset="100%"/></linearGradient><linearGradient id="N" y2="50.00%" x2="99.99%" y1="50.00%" x1="-0.00%"><stop stop-color="#9e8f49" offset="4.5%"/><stop stop-color="#95926b" offset="70.8%"/></linearGradient><linearGradient id="O" y2="50.00%" x2="99.99%" y1="50.00%" x1="-0.01%"><stop stop-color="#b39a57" offset="3.4%"/><stop stop-color="#a59661" offset="9.4%"/><stop stop-color="#999369" offset="17.5%"/><stop stop-color="#95926b" offset="24.7%"/><stop stop-color="#878b5d" offset="100%"/></linearGradient><linearGradient id="P" y2="50.00%" x2="100.00%" y1="50.00%" x1="0.00%"><stop stop-color="#9e8f49" offset="22.5%"/><stop stop-color="#95926b" offset="100%"/></linearGradient><linearGradient id="Q" y2="40.78%" x2="1.37%" y1="83.27%" x1="99.21%"><stop stop-color="#535747" offset=".6%"/><stop stop-color="#95926b" offset="100%"/></linearGradient><linearGradient id="R" y2="50.00%" x2="100.00%" y1="50.00%" x1="-0.00%"><stop stop-color="#b39a57" offset="3.9%"/><stop stop-color="#9e8f49" offset="100%"/></linearGradient><linearGradient id="S" y2="50.01%" x2="100.00%" y1="50.01%" x1="0.00%"><stop stop-color="#9e8f49" offset="4.5%"/><stop stop-color="#95926b" offset="70.8%"/></linearGradient><linearGradient id="T" y2="50.00%" x2="100.00%" y1="50.00%" x1="0.00%"><stop stop-color="#b39a57" offset="3.9%"/><stop stop-color="#9e8f49" offset="100%"/></linearGradient><linearGradient id="U" y2="50.00%" x2="100.00%" y1="50.00%" x1="-0.00%"><stop stop-color="#9e8f49" offset=".6%"/><stop stop-color="#535747" offset="100%"/></linearGradient><linearGradient id="V" y2="50.00%" x2="100.02%" y1="50.00%" x1="0.01%"><stop stop-color="#9e8f49" offset=".6%"/><stop stop-color="#535747" offset="100%"/></linearGradient><linearGradient id="W" y2="49.99%" x2="100.00%" y1="49.99%" x1="0.01%"><stop stop-color="#9e8f49" offset=".6%"/><stop stop-color="#535747" offset="100%"/></linearGradient><linearGradient id="X" y2="0.01%" x2="50.00%" y1="100.00%" x1="50.00%"><stop stop-color="#535747" offset=".6%"/><stop stop-color="#95926b" offset="100%"/></linearGradient><linearGradient id="Y" y2="50.00%" x2="100.00%" y1="50.00%" x1="-0.00%"><stop stop-color="#b39a57" offset="3.4%"/><stop stop-color="#a59661" offset="9.4%"/><stop stop-color="#999369" offset="17.5%"/><stop stop-color="#95926b" offset="24.7%"/><stop stop-color="#a59b65" offset="55.1%"/><stop stop-color="#95926b" offset="91%"/></linearGradient><linearGradient id="Z" y2="50.01%" x2="-0.00%" y1="50.01%" x1="100.00%"><stop stop-color="#535747" offset=".6%"/><stop stop-color="#95926b" offset="100%"/></linearGradient><linearGradient id="a" y2="50.01%" x2="100.00%" y1="50.01%" x1="-0.01%"><stop stop-color="#95926b" offset=".6%"/><stop stop-color="#535747" offset="100%"/></linearGradient><linearGradient id="b" y2="50.00%" x2="100.00%" y1="50.00%" x1="-0.00%"><stop stop-color="#535747" offset=".6%"/><stop stop-color="#95926b" offset="100%"/></linearGradient><linearGradient id="c" y2="66.47%" x2="84.11%" y1="33.77%" x1="9.34%"><stop stop-color="#9e8f49" offset="4.5%"/><stop stop-color="#95926b" offset="70.8%"/></linearGradient><linearGradient id="d" y2="67.22%" x2="109.71%" y1="28.16%" x1="0.06%"><stop stop-color="#9e8f49" offset="4.5%"/><stop stop-color="#95926b" offset="70.8%"/></linearGradient><linearGradient id="e" y2="63.40%" x2="83.10%" y1="42.84%" x1="20.34%"><stop stop-color="#9e8f49" offset="4.5%"/><stop stop-color="#95926b" offset="70.8%"/></linearGradient><linearGradient id="f" y2="69.26%" x2="96.50%" y1="43.50%" x1="16.54%"><stop stop-color="#9e8f49" offset="4.5%"/><stop stop-color="#95926b" offset="70.8%"/></linearGradient><linearGradient id="g" y2="61.37%" x2="82.66%" y1="41.01%" x1="20.87%"><stop stop-color="#b39a57" offset="3.4%"/><stop stop-color="#a59661" offset="9.4%"/><stop stop-color="#999369" offset="17.5%"/><stop stop-color="#95926b" offset="24.7%"/><stop stop-color="#a59b65" offset="55.1%"/><stop stop-color="#95926b" offset="91%"/></linearGradient><linearGradient id="h" y2="50.00%" x2="100.01%" y1="50.00%" x1="0.00%"><stop stop-color="#9e8f49" offset="16.9%"/><stop stop-color="#95926b" offset="70.8%"/></linearGradient><linearGradient id="i" y2="50.01%" x2="100.00%" y1="50.01%" x1="-0.00%"><stop stop-color="#9e8f49" offset="4.5%"/><stop stop-color="#95926b" offset="100%"/></linearGradient></defs><symbol id="j" overflow="visible"><g stroke="none" fill-rule="nonzero"><path d="M54.43 35.043c-.876.958-1.752 1.037-2.949.718-1.197-.238-2.235-.32-1.116 1.038.636.797 1.753.797.396 1.833-.396.32-1.116.242-1.592.558s-.639.798-1.038 1.358c1.275.796 3.669-.56 4.944-.72.798-.158 1.118-.556 1.914-.718.638-.159 1.276.24 1.835.24 1.514.08 4.544-.639 3.109-2.792-.719-1.035-2.312-.238-3.508-.636-.638-.238-1.515-1.355-1.994-.876" fill="url(#A)" class="C"/><path d="M16.234 29.061c.08 2.072-1.356-.556-1.596-.556-1.116.157-.398 2.231.24 2.549-.559 1.598-2.312.481-3.11-.556-.24-.398-.16-.798-.32-1.118-.08-.078-.798-.874-.798-.954-.08-.4.56-1.676 1.038-1.994s1.514-.161 2.152-.161c.558 0 1.515-.398 1.914-.317 1.356.078 1.197 2.63.24 3.108" fill="url(#B)" class="B"/><path d="M58.899 28.743c-.798-.08-1.436.4-1.436 1.276-1.517.398-2.394 1.434-3.908 1.594-.32 1.118-1.356 2.236.397 2.871.639.242 2.154.161 2.633 0 1.194-.397.878-1.433 1.516-2.631.398-.798.638-.718.798-1.674.079-.401 0-.958 0-1.437" fill="url(#C)" opacity=".65"/><path d="M50.283 36.798a1.62 1.62 0 0 0-.719-1.276c-.796-.56-.557-.082-1.356 0-1.753.158-1.593-.64-2.232-1.674-.08-.082-.478 0-.638-.24-.078-.16 0-.401-.078-.558-.24-.398-.24-.796-.56-1.198-.636-.718-1.993-1.992-3.029-1.516-1.116.48-.16 1.199 0 2.154 0 .32-.16.716-.08.958.32.878.32.478.957.878.639.318 1.436.637 1.994 1.196.398.398.558.955.957 1.276.877.636 2.074.398 3.11.317.636 0 1.116.16 1.516-.397" fill="url(#D)" class="B"/><g class="E"><path d="M50.683 33.051c-.718-.878-1.514-1.916-2.553-2.392-.477-.16-1.276 0-1.594-.16-.718-.48-.32-.958-.64-1.596-.398-.718-1.435-.956-1.036-2.072.56-1.754 1.676.08 2.312.877.48-.639 2.154-.957 2.952-.639.717.318.717.958.876 1.438.4.716.08.636.957 1.273.8.558 1.993 1.199 1.436 2.475-.399 1.033-1.912.953-2.87.557" class="B"/><path d="M58.179 44.133c-.956.796-1.753-.237-2.789-.318-.559-.082-1.038.238-1.596.16-.956-.079-3.908-2.314-2.392-2.394.317.718.877.242 1.437.4.636.158.796.478 1.432.638 1.436.318 2.953-.24 3.908 1.278" class="B"/></g><path d="M44.065 41.183c.956.798-.48.639-.639 1.038-.159.956.32.556.877.876.558.239.958-.08 1.118.637.158.799-.878.72-1.038 1.517-.158.875 1.514 1.515 2.234 1.116.797-.558.158-1.116.239-1.675 0-.559.24-1.197.16-1.756 1.356-.398.558 1.276.639 1.674.16.48.556.4.638.96 0 .316-.638.716-.478 1.352.238-.158.478-.238.717-.556.639 1.036 1.754.477 1.036-.639.56-.239 1.276.478 1.596 0 .32-.318-.32-1.514-.32-1.912-.717.48-2.073 1.674-1.833-.24.16-1.436 1.595-.718 2.232 0 .558.558 1.357 2.63 2.473 2.551.716-.078.716-.317.796-1.035.16-1.037-.398-.558-.558-1.357-.158-.717.719-2.789-1.034-1.833-.48.238-.399 1.116-.879 1.116-.717-.08-.239-1.116-.557-1.516-.559-.797-.877-.238-1.516-.398-.56-.159-.72-.556-1.276-.798-.876-.318-1.516-.158-2.392-.158-.637 0-3.03-.32-2.312.956" fill="url(#F)" class="C"/><g fill="url(#G)"><path d="M56.026 41.741c-.958.24-1.756 1.116-.718 1.834.398.321 1.036-.08 1.516.4.478.398.238.636.398 1.036.399.638.556 1.594 1.276 2.233 1.276 1.038 1.356-.32 2.154-.32.956.082 1.274 1.594 2.311 1.836 1.755.4 1.198-1.197.48-2.074-.24-.398-.798-.398-.88-.798-.396-1.116.32-.478.64-.796.24-.162 1.198-.08.719-.796-.24-.32-1.277-.162-1.595-.242-.24-1.994 1.912.558 1.834-1.276-.162-1.514-1.756-1.116-2.71-1.356-.878-.238-2.156-1.274-.56-1.514.56-.08.877.398 1.276.398.558 0 1.036-.238 1.596-.238.476 0 .236 1.117.876.08.159-.24 0-1.197 0-1.596.08-.798.32-1.913-.957-2.073-1.436-.239-.719 1.754-1.915 2.233-.478.24-2.391.08-2.869-.08-.4-.08-.48-.557-.88-.638-.239-.078-.636.16-.796.16-.957-.4-.717-.718-1.277-1.596-.398-.556-.956-.717-1.276-1.433s.398-1.596-.318-2.154c.716-.56 1.674-1.518.558-2.312-1.196-.798-.798 1.116-2.152 1.036-1.196 0-2.074-1.357-3.192-1.594-.636-.161-2.152-.321-2.71-.081-1.196.318-3.829 3.51-2.075 3.908 1.676.4 2.633-2.39 4.465-1.036-.955.558-.316.796-.077 1.275.396.638.796.959 1.115 1.755-1.275.557-1.835-.48-3.031.08-.158.08-.08.477-.398.638-.239.08-.479-.24-.718-.24-.477 0-.956-.16-1.436-.16-2.152.08-4.225 2.072-3.588 4.067.32 1.276.718 1.596 1.914 1.676l2.473.24c1.038 0 2.074-1.038 3.03-.878 1.355.158 1.196 1.276 2.632.716.877-.318 1.437-1.115 2.392-1.355.639-.158 2.312-.08 2.392.717" class="D"/><path d="M68.386 34.883c-.32-.08-1.276-.318-1.516-.08-.796.638.798.638.08 1.356-.4.48-1.036-.158-1.436.639-.479 1.035.24 1.035.959 1.355.158.078 1.434.398 1.513.398.639-.078 1.116-1.036 1.995-.718 1.037.398.797 3.828 2.233 1.994.159.08 2.072 3.03 1.912 1.436 0-.24-.796-.958-.957-1.276-.32-.558.24-1.276-.876-1.196 0-.16 0-.398.079-.56.797-.317.797.32 1.433.161.32-.082 1.118-1.036 1.038-1.358-.558.08-1.435.24-1.994-.078-.32-.159-.24-.718-.398-.798-.319-.238-.798-.158-1.038-.238-1.193-.796-1.514-2.072-2.869-2.95-.56.796.639 1.276 0 1.754" class="C"/><path d="M62.882 25.075c-.876.398-.396.878-.636 1.436-.159.318-.878 1.115-.638 1.514.159.4 1.355.078 1.675.4.399.317.16 1.114.399 1.513.557.958 1.755.878 2.792.878 1.992 0 1.434-.716.158-1.754 3.03-.16 1.114 1.916 2.71 2.949.24-.398.48-.237.4-.796.239.16.557.16.796.48 1.116-1.436-1.276-2.552-1.834-3.51.957-.718 3.19 1.994 2.79.16-.08-.16-.716-.16-.796-.638-.08-.32.796-.557.636-1.036-.239-.716-1.513-.158-2.073-.558.796-1.117 2.792-.4 2.952-2.394.08-.636-.241-1.435-1.038-1.115-.877.398-.237 1.035-1.514 1.276-1.676.318-2.314-.878-3.748-.878-1.276 0-2.472.878-2.952 1.994" class="C"/></g><path d="M35.293 44.611c-1.036.4-1.835.4-2.792-.158-.479-.32-.796-.72-1.356-.958-.716-.399-1.196 0-1.753-.079-1.833-.161-1.196-.719-1.196-2.074s-.958-2.313.956-2.871c.72-.162 2.95.078 2.552-1.276-.24-1.038-2.952-.958-2.073-2.472.398-.639 1.913-.718 2.47-.876 1.675-.32 1.436.398 2.791.717 1.036.318 1.676-.318 2.552.56.48.477-.078 1.034 1.036 1.274.48.079 1.038-.24 1.436-.24 3.032-.238 2.075 1.356 2.712 3.35.16.638 1.196 1.675.638 2.63-.398.638-2.154.878-2.952 1.116-1.034.4-1.674.958-2.87 1.118-.636.08-1.355.238-1.992.16" class="B E"/><path d="M41.592 7.212c-.956 2.074-2.791 1.435-4.226 1.913-.32.082 0 .718-.798.56-.479-.08-.479-.878-.876-.958-.399-.16-.56.48-1.036.398-.56-.158-.56-.318-.959-.558-.317-.238-.637-.476-1.117-.636-.398-.16-.718.16-1.116-.32-.637-.876.877-1.593.24-2.312-.16-.08-1.196-.08-1.356.08-.638.558 0 .478.16.956.239.798.956 2.074-.798 1.676.32 2.39-4.624.876-2.791-.08-.719-.798-1.356.318-1.996.558-1.114.318-.874-.08-1.513-.796-.399-.321-1.276-1.438-1.676-1.674-.798-.481-2.073.236-2.472-.959.799-.478 1.037.478 1.756.32.796-.24.32-1.036 1.036-1.356 1.116-.478 2.233 1.116 3.348.718-.718-.878-2.472-1.436-.796-2.152.796-.32 3.188.238 1.516 1.036 1.036 1.036 2.073-1.198 3.508-.64.637.24.877 1.117 1.675.878s.876-1.275.477-1.914c.956-.636 1.435.957 2.153.32s-.639-1.835.719-2.232c.876-.238 1.114.796 1.673.877.719.16 1.994-1.276 2.392-.159-1.354 0-1.833 2.151-.637 2.073.637 0 2.073-1.994 1.833-2.313.398-.478 1.356-.4 1.676.159.636 1.036-.56 1.198.796 1.754 1.277.478 2.392-.078 3.589-.078 0 .24.08.557.08.718.16-.082.32-.082.48-.082 0 .878.08 1.038-.48 1.516-.16.16-.558-.08-.718.08-.318.238-.318.798-.478.878-.558.56-3.189.16-3.269 1.434" fill="url(#H)" class="B"/><path d="M34.336 13.671c-.798.56-.957 1.198-.639 2.073-.317.08-1.196-.078-1.515.16-.798.48-.238.958-.32 1.676-.078.638-.078.478-.318 1.036s-.797.718-.557 1.436c.477 0 1.593-.24 1.993 0 .479.238.239.796.64 1.116.477.478.717.24 1.113.798.56.558.082 1.354 1.196 1.354.4 0 .72-.717 1.516-.717.639 0 1.117.478 1.676.478 1.116.08 2.392-2.073 3.348-.478.957-.398.48-1.436.798-2.154.318-.878 1.356-1.116.558-2.152-1.117-1.277-2.392.479-3.588.158-2.153-.478-.08-3.19-1.756-4.066-.637-.32-1.752-.079-2.472-.32-.636-.239-.876-.639-1.752-.557" fill="url(#I)" class="B"/><path d="M49.966 3.224c-1.914-1.912-1.436 3.828-3.589 3.192-1.596-.48-.798-2.074-2.872-.958-1.913.958-.479 1.434-.797 3.108-1.196-.078-1.676 1.198-.399 1.356.32.08.639-.636 1.276-.557.559.079 1.276.636 1.196 1.196-.478.078-1.115-.08-1.514.158-.558.24-.798.798-1.276 1.037-1.116.638-2.075.558-2.55 1.994 0 .16-.4.24-.4.639 0 .238.477.4.477.558s.159.56.159.796c0 .16-.636.241-.557.48.08.958 1.276.878 2.072.797 2.553-.318-.4-.717.32-1.593.4-.558 1.036.158 1.436.238.399 0 1.037-.958 1.595-.238 1.276 1.593-1.835 1.514-2.314 1.674-.796.239-2.472 1.754-1.354 2.391.876.48 1.434-.636 2.232-.318.878.318.958 2.154 2.314 1.914.796-.159 1.675-1.754 1.594-2.394 0-.317-.478-.317-.478-.557v-.718c-.08-.158.238-.478.159-.798 0-.318-.4-.478-.48-.798-.08-.636.639-2.551 1.677-1.674.716.558-.24.64-.24 1.196-.08 1.116.556.72.796 1.356.4.958-.716 1.993.72 2.552 1.752.718 1.355-1.116 2.232-1.594.637 1.754-1.117 2.63 1.117 3.589.796.316 1.752 1.116 2.55 1.036.56-.078.56-.158.958-.318-.16 0 .878-.718.798-.638.558-.639.398-.878 1.276-1.276.398-.16.798.158 1.195-.24.16-.24 0-1.118 0-1.357.082-.558.32-1.036.399-1.594.16-1.118-.239-1.276-.796-2.234-.4.48-.72 1.438-1.516.718s.478-1.115 0-1.914c.478-.158 1.356.082 1.755-.158 1.196-.558-.082-.638.078-1.436.08-1.036 1.039-.558 1.276-1.274.32-1.118-1.036-.64-1.513-.798-.639-.24-.878-.878-1.276-1.118-.72-.398-1.118.16-1.837 0-1.116-.238-.476-1.196-1.116-1.514-.956-.478-.876.798-1.036 1.356-1.356-1.195-1.835-1.276-2.073-3.19-1.596.08-1.117-1.038-1.596-2.074" fill="url(#J)" class="C"/><path d="M18.863 33.051c.48-1.276-.158-2.234-1.352-1.598-1.197.801-.958 1.754-2.713.64-.558-.398-.48-.878-1.357-.718-.556.162-.636.879-1.354.958-1.436.079-1.992-1.595-3.588-1.436-.798.082-1.834.318-2.392.878-.638.637-.24.878-.48 1.513-.399.96-.238.48-1.117 1.039-.556.319-.876.798-1.514 1.115-.318.16-1.276.16-1.514.4-.48.478-.16 1.037-.4 1.594-.24.48-.72.558-.956 1.116-.24.639-.16 1.834.477 1.914-.078-1.036.72-1.276 1.676-1.116 1.516.32 1.196 1.198.876 2.232-.159.478-.956 2.714.16 2.714.32 0 1.596-3.51 1.356-.878 1.116 0 1.116-1.755 1.994-2.154.158-.08.878-.08 1.118 0 .637.08.716.478 1.195.638 1.276.398 1.834-.16 2.792.718.238.238-.08 1.115.798.798.477-.161.477-.958.796-1.278 1.516-1.674 3.508-.317 5.265-1.116 1.436-.718 1.674-4.225 1.752-5.662.08-.878-.158-2.63-1.516-2.391" fill="url(#K)" class="B"/><path d="M38.322 43.256c-.239 1.118.479 1.356 1.118 2.074.396.398.237.558.556.797.08 0 .318-.477.56-.398.158.081.236.559.396.559.16.08.72.718 1.038.238.397-.557-.558-.557-.558-.955 0-.56 1.116-2.315-.48-1.756-.238-1.834-1.276-1.993-2.472-.56" fill="url(#L)" class="B"/><path d="M32.261 54.927l.318-.427.373-.371.318-.587.16-.531.107-1.167V50.3l-.055-.798-.104-.743v-.64l-.266-.371-.533-.426-.796-.372-.745-.478-.425-.478-.318-.158-.477-.427-.745-.638-.69-.477-.957-.639-.799-.426-.69-.478-1.752-1.065-.8-.159h-1.966l-1.327-.053-.691.16-.64.318-.531.054 1.329-.798-.478-.64v-.371l.904 1.011.955-.053h2.765l.48.106.636.265.958.692.745.424 1.115.585.798.426.85.64.587.583.742.48.693.424.372.158.318.107-.479-.689-.48-.48-.425-.318-.476-.265-.48-.213-.796-.481-1.702-1.222-.48-.267.371-.318.374.16 1.487 1.169.906.478.636.374.533.107.423-.162-.158-.85-.213-.849v-.799l-.477-1.274-.851-1.117-3.135-2.553.32-.266.476.372 2.552 2.074.638.531.638.85.426.585.106 1.011.16.956.16.691-.16 1.065.795 1.276.586.531.534.051v-.424l-.109-.956-.159-.905v-.585l-.478-.478-.798-.956-.212-.48-.106-.637.691.531.745.905.637.477.212.373.107.374.371.531.32.053.16-1.223-.054-.693-.426-1.487-.585-1.17-.425-.904-.532-.744-.37-.798-.533-.585-.904-.798-.531-.689-.638-1.063.956-1.435.534 1.327.318.692.478.531.69.478.641.798.476.638.16.531.373.372.584.479.16-.425-.531-3.083-.105-.903v-1.011l.318-2.339.372-.691.744 1.382-.055.903-.158.853-.107.849v.692l.158.478.162.798.265.584.053.743-.159 1.116-.107.532v.426-6.651l.16-1.171.426-.531.21.211.32.798.214.746v.638l-.159.691v.639l.213.318.212.905-.054.904-.317.904v1.223l.21.531-.106 1.649.426.904.582.158.799-.424.531-.745.213-.904.425-1.276.531-1.596.693-1.009.956-2.287.425-.849.851-2.765.212-1.7 1.064-1.969c0-.16.531-.903.531-.903l-.478-1.065v-.689l.798 1.381.532-.214h1.808l.798.32.85.322-.957-.054-1.063-.16h-.745l-.531.215-.425.316-.055.214.694-.054.691.054.423.106.745.373.691.371h.798l.105.373-.798.053h-.531l-.745-.478-.583-.266h-.796l-.534-.107-.477.373-.32.318-.212.533-.427.796-.104.587-.107.743v.266l.425-.266.319-.531.532-.638 1.171-.798.584-.32.691-.213-.212.48-.851.533-.532.531-.691.691-.531.531-.107.478.956-.266s.639-.265.744-.425 1.49-.796 1.49-.796l1.171-.267 1.273-.107.8-.16.956-.424.744-.318.319.211-.476.372-.48.371 1.223.054-.267.32-.531.531-.425-.478-.476-.267h-.851l-.906.162-.636.105-.587.318-.796.265-.638.213-.585.265-.371.32.903-.158 1.17-.213 1.116-.373 1.33-.214h.956l1.487.054.585-.265.69-.265 1.171-.16h.851l.745.051.69.214-.265.32h-1.065l-.797-.054h-1.223l-.477.213-.851.373h-.638l-.639.054h-.69l-.851.158-.851.266-1.116.265-.531.266h-.906l-.745.054-.956.318-.479.212-.478.373-.585.32-.214.584-.157.48-.054.796.159.585.636-.212.48-.373.745-.158h.797l.352-.301.393-.337.478-.425.957-.32-.851.585-.318.318-.214.267h2.181l.531.265-.531.105-1.064.107-1.01.16h-.638l-.904.211-.638.107-.531.213-.373.372-.583.051-.532.054-.372.425-.16.427.16.265 1.276.106 1.008-.054 1.224.054 1.011.053h.426l.851-.158.639-.214-1.225.851 2.66 1.703-.533.212-1.276-.798-.691-.424-.691-.161-.85-.159-.957-.054-.905-.158h-1.015l-.636-.053h-.691l-.267.211-.479.587-.32.584-.21.691-.215.905-.531 1.009-.212.213 1.062-.32.48-.158.531-.053 1.86-.213.852-.32 1.17-.213h1.063l-.372.48h-.745-.798l-.744.266-.903.265-1.595.371-.798.161-1.062.424-.585.32-.64.371-.476.427-.534.532-.476.529-.107.905-.107 1.009v1.329l-.051.905-.054.903v1.701l.054.744.158.691.158.692.425.691.427.373h-1.809l-.636.213h-.639l-.371.16-.531.318-.16.371-.372-.053-.32-.371-.424-.374-.639.162h-.266l.053-.265-.371.053-.584.156z" fill="url(#M)"/><path d="M32.685 19.572l.428.16.477.267-.211.158s-.427.053-.585.107l-.585.211-.373.214-.372.32-.054.424h.268l.318-.478.798-.211.636-.055.531-.16.425.16.534.424s.211.107.371.32.32.478.32.478v.372l.105.425.053.585v.691c0 .212.213 1.01.213 1.01l.318-.16.267-.585h.266l.371.265.374.32.425-.107s.371-.104.477-.318.69-.372.69-.585.8-1.434.8-1.434l.904-1.063 3.243-2.34-.212-.267-3.191 1.914.267-2.605.691-.691s.584-.424.636-.851.851-1.061.851-1.061l-.105-.585-.426.479-.372.531-.318.584-.797.745-.48.212-.16-1.809.055-.851.211-.798.533-1.009.638-1.01 1.647-1.862-1.382.905-.055-1.172-.371-.582v2.392l-.425.373-.638.689-.371.533-.162.743-.212.905.106 1.276-.055.956v1.967l.055 1.062-.16.641-.531.635-.372.321.054-1.543v-1.222l.266-.48.533-.638.051-.585-.956.798v-2.287l-.055-.902v-.745l-.848.425.212.371.265 1.01v3.138l.055.745-.055.638v.689l-.054.798-.266.745-.265.745-.638.317v-.584l.055-.904.158-.903.691-.798.107-.585-.479.425.16-1.967v-.744l-.48.691.055 1.222-.109.638-.158.534-.158.424-.107.585-.159.639v.478l-.372-1.276-.16-.904-.162-1.01v-2.394l.214-.849.426-.318.585.052h.479l-.639-.478.32-1.117-.958.955.107-.851.16-.744-.427-.053-.267.478v.904l-.424-1.011-.053-.475-.531-.267-.32-.214.638 1.171.107.424.105.428-1.01-.532-.69-.055v.213l.639.16.637.371.32.374v.478l-.055.744v1.754l-.16.796v1.12l-.956-.692-.532-.32-.639-.318-.476-.16-.48-.16-.479-.318.852.794zm-1.276 3.509l-.797-.798-.69-1.009L28.54 19.2l-1.809-3.988-.107-2.445.426-1.912.533-.905v-.479l-.638 1.062-.531 1.703-.055 2.232s-.742-.904-.742-1.065-.161-1.167-.161-1.167l.212-.692.266-.903.214-1.062-.32-1.278-.478-.531.372 1.701v.797l-.477 1.17-.958-1.86-.105-.747c0-.158-.373-.851-.373-.851l.105 1.651.373.743.212.531-1.488-.638-1.329-1.702 1.329 1.967 1.33.585.371.533.425.478.053.851.106.478.32.691.265.478.372.851 1.276 2.448-2.817-.959-.903-.531-1.383-.744-2.232-1.065-2.765-4.359 2.339 4.359-.266.053-1.966-1.382-2.127-.796 2.232 1.223 1.649 1.222.318.053h.48l.478.213 1.755.852 1.275.689 1.222.692.958.318 1.222.585.637.426.745 1.169.585.956.531 1.276.532.958.638.796.319.853.531.264-.212-1.222.106-.742zm-5.846 11.963l-.585.425-.478.107-.318.478-.426.638h-.745c-.371 0-.636-.053-.798 0s-.798.213-.798.213l-.691.531-.636 1.011-.691.744-.693.798-.478.798-.744.796-.852 1.011-.582 1.224-.639.796-.48.48-.851.48-1.009.369 1.594-1.011.745-.796.639-1.276.212-.584.585-.692 1.011-1.169.582-1.009.425-.531.639-.376-1.49.48h-.637l-.479.213-.531.265-.797.214.797-.692h-1.436l-.689.054h-1.436l-.851-.267h1.383l1.806-.158 1.222-.109h1.701l.796-.211.745-.585.532-.744.532-.691.692-.107-1.65-.158h-2.018l-.64.105-.531.265-.531.585-.851.691 1.062-1.436-.424.107-.639.214-.585.424s-.638.213-.796.213h-.692l.052-.371h1.011l.691-.427.426-.478.585-.213.318-.265.533.053.744-.158-.638-.958-.211-.585.745.851.582.585.637.054h.853l1.116.104h.85l.745.214.797.105 1.009-.265.267-.425.583-.318.532-.16.851.16-.593.376zm1.486-4.784l-.528-.373-.427-.266-.532-.052-.267-.425-.69-.373-.745-.263h-.53l-.108.156-.531.48-.584 1.009-1.009 1.117-1.437 1.01 1.913-1.862.373-.689.427-.904.531-.373-1.011-.425-1.117-.106h-.85l-.532.265-.799.744H17.59h-1.224l-1.915-.159 2.712-.16 1.274-.052.425-.266.427-.479.425-.265-2.124-1.222-.32-.533.585.373 1.647.903h.427.638l.69-.052h.319v-.53l-.742-.85-.584-.799-.481-.904v-.692l-.32-.742-.69-1.064-.054-1.275.268-.478v.903l.317.796.425.639.268.585.266.849.051.693.69.85.692.744.319.53.85.746.693.371.957.425.638.268.69.317.427.16.159.531.531.267.214.106.532.212zm-5.102-12.175l-.692-.214-.585-.265-.742.265h-.745-1.011l-1.382-.105h-.957l-.746.319h-2.072l-.798-.266 1.063-.052h.958l.744-.106-.055-.319-.051-.531.265-.373v.481l.106.53.106.159.693-.211.638-.054 1.009.106h.584.85l.693-.052.477-.213-1.275-.533-.904-.478-.795-.641-1.12-.103-.157-.319h-2.235L13.122 15l-.265-.211-1.967-.162 2.019-.106.373.158.585.109.851-.055h.637.639l.159-.744.052-.265.109.796.105.479.319.054.425.054-.958-2.128 1.223 2.128.744.635.745.376.53.159.692.424.639.319.585.265.584.32.744.373zm11.534-1.436l-.37-.478-.584-.744-.693-.638-.638-.478-.85-.64-.585-.744-.692-.85-.53-1.276-.427-.585.054-.904.16.585.478.851.479.958.531.797.585.691.585.532.584.265-2.18-2.607-.106-.529 2.499 2.763.106.318.265.426.585.531.477.48z" fill="#3f413c"/><path d="M35.053 10.482c-.239 1.196 1.595.558.956 2.072-.08.16-.716.718-.956 1.116-.239.64.08.956-.636 1.356-1.198.638-1.676-.4-1.996-1.196-.318-.638-.078-.638-.716-1.196-.398-.398-.637-.24-1.116-.558-1.993-1.276-2.074-4.066.556-3.51.399.08.717.4 1.117.48.398 0 .798-.32 1.196-.32.878.08 1.994.878 1.754 1.836" fill="url(#N)" class="B"/><path d="M41.831 9.525c-.558 0-1.194.24-1.675.24-1.036 0-1.515-.399-2.472-.08-.4.158-.48.638-.796.716-.399.24-1.118-.078-1.436.24-.638.718.24 1.994.476 2.473.64.796 1.276 1.275 2.314 1.196.238 0 .878 0 1.118-.161.317-.399.08-.956.317-1.117.559-.558 1.436-.318 2.074-.956.558-.638.957-1.994-.079-2.472" fill="url(#O)" class="B"/><path d="M39.756 10.482c-.956 2.072-2.791 1.435-4.225 1.912-.32.08 0 .72-.8.558-.476-.08-.476-.876-.876-.958-.398-.158-.558.48-1.036.4-.558-.158-.558-.318-.958-.558-.318-.238-.638-.478-1.115-.638-.399-.158-.717.16-1.115-.32-.64-.876.877-1.592.24-2.312-.162-.078-1.2-.078-1.357.08-.638.56 0 .478.158.958.24.796.96 2.074-.796 1.674.32 2.392-4.625.878-2.791-.08-.718-.798-1.356.32-1.994.558-1.116.32-.878-.079-1.516-.797-.4-.32-1.275-1.436-1.676-1.674-.797-.48-2.073.239-2.471-.958.798-.48 1.036.478 1.754.318.8-.238.32-1.036 1.038-1.353 1.118-.481 2.231 1.115 3.35.717-.72-.878-2.472-1.436-.799-2.154.799-.32 3.19.238 1.516 1.036 1.036 1.038 2.072-1.196 3.508-.638.639.24.876 1.116 1.674.878s.878-1.276.479-1.914c.959-.638 1.436.956 2.153.318s-.638-1.834.718-2.232c.877-.238 1.117.798 1.675.876.718.161 1.994-1.276 2.394-.158-1.356 0-1.835 2.152-.639 2.072.639 0 2.074-1.993 1.835-2.312.397-.478 1.357-.398 1.673.162.639 1.035-.556 1.194.8 1.752 1.274.478 2.392-.078 3.588-.078 0 .238.08.557.08.716.158-.08.318-.08.476-.08 0 .878.08 1.039-.476 1.516-.16.16-.56-.079-.72.078-.317.242-.317.798-.479.878-.558.56-3.19.16-3.27 1.436" fill="url(#P)" class="B"/><path d="M13.122 22.442c-.318-.236-.478-.556-.716-.878-.08-.156 0-.635-.08-.796s-.48-.398-.558-.558c0 .08-.718-1.116-.558-1.036-.718-.558-.878.16-1.038.08-.318 0-.478-.398-.798-.56 0 0-.318-.317-.478-.397-.078-.08-.398.479-.558.397-1.196-.477-1.116-1.753-1.992-2.471-.16-.158-.72-.638-1.037-.558-.879.238-.241.478-.241.956.082.48.798 1.038.16 1.516-.718.557-.718-.478-1.116-.558-1.275-.16-.718.558-1.116 1.594-.238.478-.958.318-.798 1.036.16.558.718.558 1.116.4-.16-.16-.318-.638-.556-.878 1.196-.796 1.514 1.596 2.47 1.832 1.118.322 1.436-.396 2.154 1.119-1.436.796-3.748-1.754-4.625-.4 1.992.558-.48 1.276-.08 2.074.397.955 1.833.238 2.312.08.32 1.197 1.754.238 2.472.238.478-.08.478.48 1.036.238.718-.238.24-.954 1.036-.954.4 0 .798.796 1.196.954.958.399.56.082 1.356-.318.957-.478 1.914-1.276.957-2.39" fill="url(#Q)" class="C"/><path d="M19.024 14.549c-.718-.08-1.674 0-2.313-.318-.558-.32-.637-.878-1.116-1.116-.636-.242-1.355.398-1.914-.161-.478-.478 0-1.116.398-1.435-.238-.4-.716-.64-1.194-.798.478-.718 1.594-1.036 2.074-.32.637.878-.4 1.118.957 1.356.637.16 1.596.16 1.514-.717-.079-.478-.798-.478-.877-.798-.159-.478.159-1.036.079-1.356-.396-.876-1.593-.558-1.913-1.116-.718-.878.478-1.436 1.356-1.676.318-.077.717.16 1.036.08.4-.08.716-.716 1.276-.557 1.276.318-.08 1.274-.32 1.753.796.24.24 2.952.478 3.988.638-.16 1.676-.876 2.235-.876.32 0 .956.238.956.796 0 .639-.478.16-.876.558-.32.32-.558 0-.719.638-.24.478.32.878.239 1.276-.157.877-.316 1.118-1.353.799" fill="url(#R)" opacity=".7"/><path d="M8.178 29.86c-.558 0-1.276.159-1.753 0-.799-.24-1.198-.878-1.916-1.198-.556.718-.08 1.996-1.356 2.392-.158-.396.08-.796.08-1.195-.08-.16 0-1.036 0-1.118.08-.876.08-1.593 1.196-1.116.4-.956-1.356-1.436.24-2.153 1.116-.478 1.436.558 1.994.876.238.162.878 0 1.196.082-.16 0 .718 1.594.718.318 0-1.196-1.356-.958-1.756-1.836.64-.556 2.074.399 2.952.64 1.276.319 1.356.878 2.072 2.073-.716.4-1.276.16-1.992.88-.56.476-.718 1.034-1.596 1.273" fill="url(#S)" class="B"/><path d="M13.522 44.694c-2.872.956-.798-2.234-2.154-2.554-.798-.158-.798.718-1.674.4-.798-.24-.32-1.038-1.356-.558-.08 0-.08.638-.398.796-.158.08-.638 0-.798 0-.956.08-1.436-.08-1.833.798 0 0-.4 1.516-.32 1.516-.08.318-.24.558-.24.878s.56.318.318.955c1.278.56.958-3.507 3.031-3.027.48 1.033-.398.796-.796 1.354-.48.718-.24.637-.4 1.593-.08.48-1.116 1.276-.238 1.356.798.082.798-.876 1.514-.876.32 1.118-.478 1.516 1.116 1.594 1.198.08 1.118-.158 1.756-.956.638-.638 0-.478.956-.796.718-.16.798.078 1.516-.4.796-.477 1.592-1.992 0-2.072" fill="url(#T)" opacity=".7"/><path d="M25.483 37.754c-.16.478 0 1.278-.238 1.676 0-.08-1.276 1.356-1.038 1.276-.719.318-2.392.08-3.109-.158-.24-.162-1.199-.64-1.276-.8-.48-.875.317-.716.398-1.436.239-1.114-.878-1.912-1.276-3.028-.082-.24-.48-1.197-.48-1.516.08-.48.718-.559.878-.956.24-.557-.08-1.274.24-1.756.399-.638.877-.477 1.436-.718 1.674-.637 3.428-1.035 5.262-.558 1.993.48 1.514 2.394 1.037 4.069-.479 1.513-1.835 2.391-1.755 3.905" fill="url(#U)" class="B"/><path d="M19.263 29.541c-.544.339-.557 1.5-1.292 1.513-.544.01-.582-.753-.972-.86-.381-.104-1.062.412-1.483.465-.531.066-.983.354-1.425.385-.15-.558.299-.486.464-.862.214-.481-.016-.844.083-1.279.128-.56.595-.42.78-.814.179-.381-.234-.814-.131-1.245.704-.066 1.126.349 1.666.088.471-.231.402-.856 1.197-.744.568.078.652.68 1.11.886.346.155.898-.098 1.273-.01.461.108.835.489 1.27.66.016.757.611 1.438-.226 1.831-.722.34-1.633-.439-2.311-.016z" fill="url(#V)" class="C"/><path d="M22.693 42.539c-1.674.238-3.59-.24-4.706 1.117-.476.558-.08.877-.876 1.196-.48.16-.796 0-1.196-.08-.56-.079-.877-.318-1.436-.398-.4-.078-1.356.238-1.514-.398s.638-.72.876-1.118c.238-.636.08-1.196.4-1.754.875-1.674 1.994-.718 3.271-.556.396 0 .876-.242 1.194-.082.638.24.558.878 1.036 1.197.958.478 1.674-.478 2.554-.398.796.08 1.515 1.196.398 1.196" fill="url(#W)" class="C"/><path d="M27.717 27.946c-1.195.638-1.993 0-3.03-.24-1.037-.16-1.914.24-2.71-.557-.559-.479-.08-.879-.718-1.196-.32-.162-1.435.078-1.835.158-1.036.238-2.392.956-3.508.638-1.037-.238-1.836-1.594-1.516-2.712.16-.718.64-.798 1.196-1.274s.719-.638 1.116-1.356c.559-.798.16-.878 1.355-.559.796.161 1.036.638 1.596 1.037 1.676 1.276.877-.16 2.313-.24.558 0 1.116.638 1.436.958.078-.638.477-1.835 1.274-2.074.32-.16 2.154.238 2.474.718.556.878-.638 1.116.636 1.834.876.398 1.754-.08 2.473.557.798.72.08 1.118.32 1.916s1.514 1.116.876 1.993c-.477.798-2.869.4-3.668.4" fill="url(#X)" class="C"/><path d="M32.979 22.603c.239-1.276-1.913-1.755-1.756-2.792.082-.478.798-.478 1.196-.558.878-.16.64.16 1.357.238 1.276.08 1.994-.318 2.232-1.594.081-.796.081-2.074-.716-2.312-.957-.32-1.913 1.356-3.191.876-1.035-.396-1.115-1.834-1.993-2.392-.398-.239-.877-.239-1.196-.479-.556-.398-.796-1.276-1.516-1.434-1.673-.4-.237 1.036-.556 1.834-.639 1.355-1.197-1.196-1.594-1.436-.24-.16-.718.24-1.037.08s-.398-.478-.637-.718c-.4-.239-.878-1.038-1.196-1.276-.24-.24-.24-1.116-.959-.478-.479.4.081 1.036-.077 1.436-.32 1.116-1.118 1.516-1.199 2.871.719.158 1.835-.159 2.312.4.399.396.56.716.16 1.116-.636.636-.876.158-1.354-.161-.957-.478-1.516-1.993-2.471-1.035-.321.318 0 .954-.399 1.276s-.958.158-1.356.556c-.16.08.158.64 0 .718-.16.239-.4.16-.558.32-.238.158-.718-.08-.956.158-.798.718-.24 1.596.399 1.834.238.08.558-.08.796 0 .478.16.8.798 1.116.798 1.118.318 1.756-.958 2.474.48.399-.72 1.355-.64 1.994-.48-.32.24-1.676.718-.56.958.717.157 1.436-.878 2.074-.878 1.196.08.478.798.956 1.116.48.398 1.196.24 1.914.48.558.158.879.558 1.595.638.717 0 .957-.24 1.674-.321.959-.158 2.792 1.518 2.951.161" fill="url(#Y)" class="B"/><path d="M38.96 25.075c1.116.158.558 1.274 1.036 1.754 1.036.877 1.676-.64 2.552.398.478.479.399 1.116.399 1.755.079.718.477.878 0 1.434-.24.32-.877-.238-1.197.4-.398.958.798 1.195-.079 2.074-.48.478-1.276.317-1.836.396-.239 0-.636-.08-.796 0-.48.162-.56.64-.798.72-.798.398-1.914.558-2.63-.08-.24.877-.24 1.357-1.356 1.514-1.357.16-1.436-.398-1.436-1.434 0-.478.08-1.596.32-2.074.398-.638 1.037-.48 1.355-1.274.161-.48-.158-.958.161-1.436.477-.716 1.513-.56 2.073-1.118.956-.955-.24-2.949 1.913-2.949" fill="url(#Z)" opacity=".75"/><path d="M44.225 30.978c-1.357.716-1.676-.8-2.713-.641-.956.161-1.276 2.316-1.516 3.032-.478 1.276-.399.878-1.516 1.515-.957.4-1.434 1.594-1.673 2.474-.24 1.116.239 1.194.396 2.233.32 1.274-.876 2.392 1.038 2.471 1.674 0 .878-.876 1.355-2.152.479-1.196 1.994-1.435 1.355-2.95.96-.318 1.516.958 2.473.078.32-.396.56-1.911.399-2.31-.399-.876-1.676-.478-1.276-1.674.32-.878 1.436-.718 1.516-2.072" fill="url(#a)" class="D"/><path d="M46.697 28.184c-.4.242-.877.4-1.357.321-.318 0-.558-.402-.796-.402-.478-.078-.638.16-1.038.16-1.117.08-3.349-.08-2.869-1.753.078-.162.956-.958 1.115-1.119.32-.478.558-1.114.798-1.674.32-.717.08-.557.718-1.115.479-.398 1.116-.638 1.514-.958-.556-1.116-2.312-.716-.636-1.914.796-.478 1.992-.876 2.951-.558.718.318.798.798 1.276 1.356.318.4.716.638 1.195 1.116.879.796.24 1.914 1.596 2.472 1.036.398 1.833 0 2.472 1.195.56 1.276.16 2.074-.956 2.394-.559.24-1.994.478-2.552.16-1.116-.558-.24-1.912-2.074-2.154-2.392-.32-.718 2.552-2.074 2.552" fill="url(#b)" class="D"/><path d="M59.933 29.541c-.479-.16-.797-.078-1.117.16-.079.079.082.637-.079.798-.24.318-.559.398-.798.636-.558.478-.877.478-1.197 1.276-.317.718.32 1.198-.717 1.516-.56.16-.636-.639-1.356-.16-.318.16-.638.958-.638 1.358 0 1.274.878 1.114 1.834 1.274 1.277.159 1.676.4 2.552 1.275.796.799 1.036 1.277 2.392.72.32-.161.16-.56.401-.64s.477 0 .638-.08c.318-.158.876-.317 1.195-.476.48-.24.48-.558 1.196-.399.48.159.72 1.116 1.517 1.035.638 0 1.196-.798.796-1.514-.239-.638-1.276-.398-1.514-.718-.719-.718 1.994-1.436 2.551-1.036.399-.717 1.598-.16 1.835-1.036.08-.478-1.355-1.518-1.676-1.834-.636-.56-3.429-2.632-3.906-.798a2.51 2.51 0 0 1-.958-.878c-.636.798 1.356 1.434.48 2.552-.4.558-1.754.878-1.994-.08s1.514-1.276.32-1.912c-.558-.241-2.074.556-1.355-.878-.159-.08-.24-.08-.399-.08" opacity=".89" class="E"/><path d="M61.608 24.676c0 .08-.24.32-.081.637-.955.161-.637.479-.397.878.08 0 .718 0 .796.08.32.242.24.56.4.879.876 1.593.318 1.912-1.357 2.072-1.755.24-5.264-.16-6.46-1.755-.558-.717-1.672-1.993-1.672-2.871 0-1.674 1.114-.796 2.072-1.194.796-.32.398-.878.796-1.118.4-.318.96 0 1.357-.158 1.916-.718.16-1.836.717-3.032.321-.797 1.676-.797 2.075-1.754.08-.239-.16-.718 0-.957.239-.56.636-.56.956-1.038.717-1.276.24-1.115 1.517-1.674.956-.398 1.752-1.356 2.79-1.356.718 1.038.718 1.116.239 2.234-.08.24-.397.878-.557 1.036-.32.4-.957-.078-.957.718.798-.238 1.514-.318 2.074.24.16.238-.08.718.16.956.318.398 1.116.24 1.354.638.639 1.116-1.036.478-1.514 1.036-.717.958.718.478.718.478.558.08.878-.398 1.435.24-.796.798.479.877.956 1.118.162 0 .4-.241.56-.161.24.161.16.48.318.638.558.32.558.558 1.196.798.479.158 2.154.08 1.118.956-.32.32-1.595.08-2.075 0-.717-.079-1.434-.398-2.232-.239-.877.239-1.434.717-2.233.878-1.274.238-2.872.716-4.067.636" fill="url(#D)" opacity=".89"/><path d="M34.257 32.41c-.16.56-.958 1.596-1.676 1.516-1.036-.24-.558-1.673-1.673-1.116-.399.24-.399.638-.56.876l-.717.878c-.081.08-.48-.082-.559.08-.238.08-.16.558-.238.558-.162.158-1.038.32-1.118.398-.717.718-1.195 2.95-2.95 2.314-1.117-.4-.877-1.196-.318-1.834.237-.24.715-.24 1.035-.558.24-.24.08-.798.479-1.118-.398-.158-.956.24-1.276.16-.557-.16-1.274-.717-.398-1.278-.399-.716-.877-1.195-.08-1.674.715-.478 1.038.161 1.675.082 2.152-.158.717-2.074 1.833-2.632-1.116-.636-2.313-.798-.636-1.596.158-.08 1.116-.398 1.355-.398.477.082 1.115.958 1.595.878 1.754-.16-1.278-1.596-1.038-2.393s1.038-.241 1.437-.558c.638-.558.319-1.196.796-1.756.32-.319.877-.319 1.196-.557.4-.4.16-.878.559-1.119 1.037-.716 2.233.162 2.713 1.039.158.238-.16.637 0 .876.236.32.476.158.716.32.08.16 1.196.876 1.356.876.797 0 1.834-1.196 2.473-1.594-.639-1.196 1.116-1.196 1.834-1.116.398 0 .718-.08 1.117.078.957.398.637.559.637 1.276-.08 2.552-2.392 1.993-4.227 2.072-.957 0-1.914-.08-1.994 1.119-.08 1.435 1.837.875 1.757 2.391-.08 1.198-1.277.958-2.076 1.596-.237.16.082.556-.237.796-.239.158-.639-.08-.879.08-.24.078-.556-.08-.716 0-.24.078-.16.718-.32.798-.4.238-.716.318-1.356.238" fill="url(#c)" class="B"/><path d="M47.813 18.615c-.08.558-.399.718-.878 1.036-.638.48-.638.08-1.116.798 0 0-.398 1.276-.398 1.036.078 1.038.158.4.557.878.32.32.639.4.958.798.16.318-.16.798.08 1.116.639.718 1.914.478 2.791.956.399-.32.639-.876.639-1.274 1.273-.08 1.116.796 1.513 1.514.24.48.24.558.64 1.038.159.238.636.158.796.318.16.238 0 .637.16.956.397.558 1.436 2.233 2.312 1.196.639-.638-.16-1.116-.399-1.596-.317-.398-.636-1.036-.876-1.433-.16-.162-.16-.48-.238-.641-.24-.237-.638.08-.878-.157-.399-.56 0-1.118-.24-1.676-.636-1.514-1.913-.078-2.869-1.038-1.119-.956.477-2.072 0-3.108-.4-.718-1.916-1.196-2.632-.798" fill="url(#d)" class="D"/><path d="M30.908 37.993c-.399.318-1.438 1.197-1.596 1.676-.16.636.56 1.036.32 1.594-.32.718-1.755.478-2.073 1.036-.399.718.876.957-.162 1.597-.398.237-1.036-.081-1.355.078-.796.478-.398 1.036-1.594 1.276-.56.078-1.755.32-1.915-.321-.158-.556 1.196-1.354 1.516-1.434-.958-1.275-.638-1.834.558-2.871.24-.24.316-.478.556-.718.32-.318.56 0 .798-.478.32-.479-.078-1.198.161-1.676 1.115-2.55 4.385-2.55 4.944.162" fill="url(#e)" class="B"/><path d="M28.91 12.635c-1.832-.24-1.036 1.834-1.593 2.552-.239.24-1.037.078-1.277.398-.478.558 0 1.276-.239 1.834-.32.798-1.833 1.356-1.275 2.552.636 1.514 1.754-.16 2.632-.4 1.115-.318 1.436.798 2.39.638s.558-.558.879-1.196c.239-.32.796-.876.956-1.196.399-1.036-.16-.478-.477-1.196-.161-.556-.081-1.194-.32-1.674-.24-.558-.798-.478-1.118-.878-.239-.399-.079-1.196-.558-1.514" fill="url(#f)" class="D"/><path d="M15.115 25.392c.401.64 1.756.958.401 1.596-.638.24-1.358-.238-1.914-.238-2.119-.002.118 1.607-.323 2.405-.192.344-.872.446-1.204.492-.846.118-1.369.026-2.119.544-.898.621-1.441 2.032-2.458 2.354-.779.248-1.937-.16-2.656-.467-.086-1.65.985-.857 1.681-1.881.289-.424.176-1.05.542-1.433.333-.347.992-.416 1.366-.659.63-.408 1.138-.943 1.263-1.676.104-.616-.107-1.164.633-1.355.473-.122 1.455.579 1.823.142.336-.398-.134-.999-.528-1.034-.064-.616.812-.264 1.182-.643.394-.406.224-1.089.251-1.645.627-.173 1.334-.056 1.977-.16-.026.249.04.53.016.774.614.148.617-.392.534-.849-.881-.558-2.307-1.626-3.403-1.543-.144-.289-.339-.956-.077-1.247.455-.505.915.128 1.276.284.684.296.691.042 1.34-.219.588-.237 1.311-.233 1.284-1.186.747-.056 2.161.767 2.292 1.666.089.627-.453.53-.688.892-.459.708.128 1.415-.109 2.109-.153.456-.634.662-1.023.873-.897.488-1.974.871-1.361 2.102z" fill="url(#g)" class="D"/><path d="M57.86 11.837c-.478 0-.798-.159-1.276-.159-.24 0-.558-.24-.718-.24-.318.08-.399.478-.636.478-1.516.32-1.356-.318-2.632-.957-1.437-.638-1.517.638-2.473 1.515-.48.32-.879.24-1.196.798-.16.24.158.558.08.876-.08.161-.479.4-.559.64-.24.876-.476.398 0 1.276.16.238.956 1.196 1.196 1.435.4.24.958.24 1.356.478.56.32.64.958.957 1.276 2.154 1.914 3.67-2.71 4.227-3.908.32-.476.32-1.435.557-1.914.4-.636 1.596-.558.799-1.674" fill="url(#B)" class="C"/><path d="M54.352 17.818c-.24-.956.716-1.356.798-2.311 0-.48 0-.958-.48-1.276-.796-.639-.477.08-.796.477-.08.082 0 .48-.08.638-.24.32-.56.082-.719.32-.398.32-.957.32-.797 1.116.24.957 1.516.238 1.915 1.036" fill="url(#h)" class="B"/><path d="M11.29 33.608c-.4 0-1.117-.16-1.516 0-.878.318-.479.638-1.116 1.036-.56.318-1.197 0-1.676.318-.796.56-.238.478-.318 1.196 0 .798-.238 2.152-.798 2.95s-2.472 1.356-1.276 2.714c.56-.719.878-.878 1.836-.959.477 0 .557.16 1.116 0 .478-.079.796-.558 1.196-.636.557-.16 1.912.478 2.233-.4.32-.556-.478-.876-.558-1.354-.16-.558-.08-.558.158-1.276.32-.798-.158-.398.559-.878.398-.318.876 0 1.356-.478.318-.24.318-.798.479-1.196.158-.24 0-.48.158-.718.08-.16.558-.16.64-.24.238-.4.796-.078.238-.716-.16-.16-.638-.24-.878-.318-.556 0-1.434.476-1.674.876" fill="url(#i)" class="D"/></g></symbol></svg>