<svg xmlns="http://www.w3.org/2000/svg" xmlns:xlink="http://www.w3.org/1999/xlink" viewBox="0 0 64 76" fill="#fff" fill-rule="evenodd" stroke="#000" stroke-linecap="round" stroke-linejoin="round"><use xlink:href="#L" x=".5" y=".5"/><defs><linearGradient id="A" x1="0.00%" y1="50.00%" x2="100.00%" y2="50.00%"><stop offset="0%" stop-color="#008136"/><stop offset="100%" stop-color="#3f822e"/></linearGradient><linearGradient id="B" x1="0.00%" y1="50.00%" x2="100.00%" y2="50.00%"><stop offset="0%" stop-color="#0aa245"/><stop offset="100%" stop-color="#007c33"/></linearGradient><linearGradient id="C" x1="50.00%" y1="0.00%" x2="50.00%" y2="100.00%"><stop offset="0%" stop-color="#0aa245"/><stop offset="100%" stop-color="#007c33"/></linearGradient><linearGradient id="D" x1="50.00%" y1="0.00%" x2="50.00%" y2="100.00%"><stop offset="0%" stop-color="#0aa245"/><stop offset="100%" stop-color="#006b2a"/></linearGradient><linearGradient id="E" x1="50.00%" y1="100.00%" x2="50.00%" y2="0.00%"><stop offset="0%" stop-color="#726a24"/><stop offset="100%" stop-color="#8d7c72"/></linearGradient><linearGradient id="F" x1="0.00%" y1="50.00%" x2="100.00%" y2="50.00%"><stop offset="0%" stop-color="#52aa41"/><stop offset="21.1%" stop-color="#4da640"/><stop offset="48%" stop-color="#3e9c3d"/><stop offset="78%" stop-color="#218b38"/><stop offset="100%" stop-color="#007c33"/></linearGradient><linearGradient id="G" x1="72.74%" y1="11.79%" x2="32.83%" y2="89.44%"><stop offset="0%" stop-color="#5bac3f"/><stop offset="100%" stop-color="#00913d"/></linearGradient><linearGradient id="H" x1="44.54%" y1="3.20%" x2="54.76%" y2="94.31%"><stop offset="0%" stop-color="#5bac3f"/><stop offset="100%" stop-color="#00913d"/></linearGradient><linearGradient id="I" x1="77.55%" y1="14.93%" x2="26.78%" y2="83.51%"><stop offset="0%" stop-color="#7fb539"/><stop offset="100%" stop-color="#00913d"/></linearGradient><linearGradient id="J" x1="50.00%" y1="-0.00%" x2="50.00%" y2="100.00%"><stop offset="0%" stop-color="#5bac3f"/><stop offset="100%" stop-color="#00913d"/></linearGradient><linearGradient id="K" x1="-0.01%" y1="-9667445.77%" x2="99.99%" y2="9667545.83%"><stop offset="0%" stop-color="#0aa245"/><stop offset="16%" stop-color="#099f44"/><stop offset="38%" stop-color="#039640"/><stop offset="63.6%" stop-color="#008638"/><stop offset="91.6%" stop-color="#006f2c"/><stop offset="100%" stop-color="#006828"/></linearGradient></defs><symbol id="L" overflow="visible"><g stroke="none" fill-rule="nonzero"><path d="M42.687 8.663c6.795 1.775 14.436 4.757 17.034 9.048 1.083 1.79-.547 3.807-.547 6.059 0 2.75 2.293 4.718.712 7.042-1.625 2.392-4.496 4.59-7.995 6.369-2.325 1.179-4.927-.052-7.629.691-3.415.939-6.991 3.7-10.36 3.7-2.838 0-5.565-2.236-8.111-2.845-1.675-.4-6.2 1.85-10.507 1.478-3.968-.341-7.749-3.294-8.944-3.909-5.226-2.696 2.29-7.221 2.29-12.525 0-2.76-2.605-4.914-1.013-6.777 1.645-1.925 7.536-3.542 10.466-5.201 4.331-2.451 9.831-5.825 15.819-5.825 3.088 0 6.05 1.981 8.786 2.696z" fill="url(#A)"/><path d="M53.022 7.109c2.838.742 6.032 1.987 7.118 3.782.452.748-.23 1.591-.23 2.531 0 1.15.96 1.971.299 2.943-.679 1.001-1.878 1.919-3.341 2.662-.972.493-2.059-.021-3.189.289-1.427.392-2.922 1.547-4.331 1.547-1.184 0-2.325-.934-3.389-1.187-.7-.168-2.592.771-4.391.615-1.659-.142-3.238-1.375-3.738-1.633-2.183-1.128.957-3.018.957-5.235 0-1.153-1.089-2.053-.423-2.832.686-.805 3.15-1.479 4.375-2.173 1.808-1.024 4.109-2.435 6.609-2.435 1.293 0 2.529.828 3.674 1.127z" fill="url(#B)"/><path d="M18.432 18.174c3.279.857 6.966 2.296 8.221 4.367.523.864-.264 1.837-.264 2.923 0 1.328 1.107 2.276.345 3.398-.786 1.155-2.17 2.216-3.859 3.073-1.122.568-2.378-.024-3.683.333-1.648.454-3.372 1.786-4.999 1.786-1.37 0-2.686-1.079-3.914-1.372-.809-.194-2.993.892-5.07.712-1.916-.165-3.74-1.589-4.316-1.886-2.521-1.302 1.106-3.485 1.106-6.045 0-1.332-1.257-2.369-.49-3.269.795-.929 3.637-1.71 5.051-2.51 2.09-1.182 4.744-2.81 7.634-2.81 1.491 0 2.92.955 4.239 1.3z" fill="url(#C)"/><path d="M24.262 6.977c3.279.856 6.967 2.295 8.221 4.367.522.863-.266 1.836-.266 2.923 0 1.328 1.107 2.276.345 3.398-.784 1.154-2.169 2.214-3.859 3.073-1.122.568-2.376-.026-3.681.333-1.648.452-3.374 1.785-5 1.785-1.369 0-2.685-1.079-3.914-1.372-.808-.193-2.992.892-5.069.714-1.916-.166-3.739-1.591-4.316-1.888-2.521-1.301 1.104-3.485 1.104-6.044 0-1.333-1.257-2.371-.488-3.271.794-.929 3.637-1.708 5.051-2.508 2.089-1.184 4.743-2.812 7.633-2.812 1.491 0 2.92.955 4.241 1.302z" fill="url(#D)"/><path d="M39.369 1.125c2.84.743 6.032 1.989 7.118 3.782.452.748-.229 1.591-.229 2.531 0 1.15.959 1.973.299 2.944-.681 1-1.88 1.919-3.343 2.66-.97.493-2.059-.021-3.188.291-1.427.392-2.922 1.547-4.331 1.547-1.186 0-2.325-.936-3.39-1.189-.701-.168-2.592.773-4.391.617-1.658-.144-3.238-1.377-3.738-1.635-2.183-1.127.957-3.018.957-5.235 0-1.153-1.087-2.053-.423-2.83.688-.807 3.15-1.481 4.375-2.175C30.895 1.409 33.195 0 35.696 0c1.29 0 2.528.826 3.673 1.125z" fill="url(#C)"/><path d="M52.869 27.051c2.838.742 6.033 1.989 7.118 3.782.452.748-.23 1.59-.23 2.531 0 1.15.958 1.973.299 2.943-.68 1.001-1.878 1.919-3.341 2.662-.972.493-2.059-.021-3.189.289-1.427.392-2.922 1.546-4.329 1.546-1.185 0-2.327-.934-3.39-1.189-.701-.166-2.592.773-4.391.617-1.657-.142-3.24-1.375-3.738-1.633-2.183-1.128.957-3.018.957-5.236 0-1.153-1.089-2.053-.423-2.832.688-.805 3.149-1.479 4.375-2.174 1.809-1.026 4.107-2.435 6.61-2.435 1.292 0 2.528.828 3.673 1.127z" fill="url(#B)"/><path d="M24.118 71.882c.532-.754.901-4.832 1.014-5.572s-.031-6.382-.031-6.382l.589-14.357c.07-1.591-3.225-6.452-4.11-7.582l-3.952-5.397c-.611-1.132-2.278-4.022-2.73-3.54s-3.594.237-3.367-.196 2.061.074 2.993-.438-3.756-1.871-3.779-2.12 1.803.281 2.556.503 1.712.482 2.183 1.156 1.739 2.649 2.34 2.668.282-5.796.589-5.704.428 5.211.59 6.096 1.424 3.158 2.165 3.54 1.145-5.126 1.573-5.113-.472 4.873-.393 5.703c.034.361.617 1.413 1.303 2.533.15.243 3.385-5.671 3.54-5.428.095.152-2.89 6.465-2.796 6.612l1.492 2.183c.465.562 1.179.591 1.179.591l.198-13.964c-.096-1.181-2.858-6.369-3.736-6.294s-2.822-.144-3.147-.59 2.422.149 2.427-.327-1.971-1.772-3.214-2.427-5.815-.25-5.9-.787 3.552-.176 4.327-.393-.48-2.182 0-2.164.866 1.372 1.377 1.77 1.571-1.328 1.966-.983-1.132 1.367-.591 1.968 2.886 2.337 3.345 2.531 1.332-3.464 1.375-4.105-1.001-3.134-.588-3.147.763 2.164 1.179 2.557 1.788-.565 1.77-.198-1.008.66-1.179 1.181-1.35 4.564-.985 5.506 1.955 2.902 2.755 3.738 1.179 2.949 1.179 2.949 4.025-11.746 3.934-12.783-5.462-4.819-5.704-5.115-.572-1.181.327-.59 1.492 1.218 2.427 2.01 1.712.759 2.36 1.07.625-.456 1.377-.916-1.6-3.233-1.573-3.738 0 0 0 0 .604.211.983.572 1.086 1.958 1.77 2.183 2.161-2.516 2.455-2.923.733-.826.889-.617-.4.669-.196 1.179 1.215.054 1.377.394-.668.248-1.181.591-1.182.928-1.179 1.377.928.139.983.59-1.997.256-2.69.983-.057 1.981-.064 3.54-1.876 7.958-2.164 10.577-1.801 5.139-1.947 7.394.176 8.776.176 8.776.335-2.004.983-2.557 1.321-1.54 3.54-3.343 5.714-6.219 5.714-6.219.699-1.197.973-1.058-.498 2.136 0 2.36 1.826-.508 1.826-.508 1.497-.867 1.715-.475-1.23.613-1.706 1.31-2.93 1.055-2.73 1.706 2.822-.5 2.929-.09-3.273.877-4.091 1.511-3.594 3.186-4.039 4.61-4.157 5.773-4.524 7.079-.787 11.802-.787 11.802-.197 5.056 0 6.446 2.013 5.621 1.818 6.802-1.378 1.04-2.361 2.221c-.547.655-2.118-.212-3.847-.467-.776-.114-.986.423-1.7.56-.56.108-1.664-.207-2.01-.093-1.77.59-.101-1.974.431-2.728z" fill="url(#E)"/><path d="M51.074 15.981c3.645.694 7.744 1.86 9.137 3.537.583.699-.294 1.486-.294 2.366 0 1.073 1.231 1.844.382 2.752-.872.934-2.41 1.793-4.288 2.487-1.246.46-2.642-.02-4.091.271-1.834.366-3.749 1.445-5.557 1.445-1.522 0-2.985-.874-4.35-1.112-.9-.155-3.327.724-5.637.578-2.128-.134-4.156-1.287-4.796-1.527-2.802-1.055 1.226-2.822 1.226-4.894 0-1.078 1.73-.358 2.584-1.084.883-.753 4.043-1.385 5.614-2.033 2.324-.957 2.147-3.838 5.36-3.838 1.657 0 3.245.772 4.711 1.052z" fill="url(#F)"/><g fill="url(#G)"><path d="M24.755 27.006c-1.596-.01-3.449.196-4.272.985-.343.328-.105.867-.237 1.362-.16.603-.781.9-.57 1.504.216.621.715 1.272 1.38 1.867.441.399 1.084.281 1.633.603.696.407 1.318 1.223 2.058 1.421.622.168 1.352-.162 1.948-.147.39.013 1.251.771 2.218.944.892.158 1.896-.268 2.195-.333 1.305-.282-.078-1.719.233-2.884.163-.604.861-.924.62-1.427-.246-.519-1.445-1.22-1.99-1.757-.805-.794-1.816-1.857-3.129-2.209-.679-.183-1.445.077-2.087.073z"/><path d="M36.692 1.717c-1.393-.01-3.01.17-3.728.859-.299.288-.09.758-.206 1.187-.142.529-.681.787-.498 1.313.188.542.625 1.112 1.205 1.63.384.348.944.245 1.426.526.606.356 1.15 1.068 1.795 1.241.544.147 1.181-.142 1.698-.127.345.01 1.094.671 1.938.821.779.139 1.654-.234 1.914-.289 1.14-.248-.067-1.501.206-2.516.142-.531.75-.808.54-1.246-.215-.454-1.261-1.066-1.737-1.535-.702-.692-1.584-1.62-2.73-1.929-.593-.159-1.261.069-1.822.065z"/></g><path d="M27.502 6.756c-.991.982-2.005 2.254-2.025 3.248-.007.415.474.599.697.985.273.472.075 1.039.578 1.28.516.248 1.228.34 2.005.295.516-.026.841-.496 1.378-.638.679-.178 1.568-.061 2.146-.395.487-.281.732-.937 1.109-1.293.248-.237 1.248-.3 1.95-.794.647-.454 1.003-1.334 1.146-1.559.629-.982-1.11-1.013-1.638-1.922-.274-.475-.043-1.102-.5-1.263-.475-.168-1.646.141-2.314.147-.986.01-2.267-.021-3.294.573-.531.308-.843.942-1.24 1.336z" fill="url(#H)"/><path d="M26.531 32.379c-.875-.175-1.914-.258-2.45.088-.224.144-.148.465-.274.722-.152.314-.524.412-.473.766.053.362.259.774.558 1.171.203.263.568.268.833.503.34.297.596.81.982.998.323.158.759.054 1.083.127.216.047.608.554 1.12.751.472.181 1.068.054 1.239.051.746-.018.139-.952.433-1.558.155-.315.572-.416.493-.718-.082-.312-.665-.823-.908-1.176-.358-.521-.799-1.212-1.483-1.545-.352-.171-.8-.109-1.153-.179z" fill="url(#I)"/><path d="M15.066 20.808c-1.44 1.037-2.971 2.438-3.193 3.686-.091.521.477.848.681 1.38.252.648-.111 1.321.474 1.726.601.415 1.48.673 2.467.772.655.067 1.156-.46 1.862-.532.891-.09 1.986.235 2.781-.072.669-.258 1.108-1.034 1.654-1.409.358-.247 1.631-.129 2.613-.609.905-.443 1.527-1.483 1.752-1.738.988-1.112-1.197-1.494-1.68-2.745-.252-.651.167-1.396-.379-1.69-.563-.305-2.1-.15-2.943-.273-1.244-.183-2.85-.479-4.262.067-.729.283-1.246 1.017-1.828 1.437z" fill="url(#J)"/><path d="M50.964 28.785c-1.44 1.037-2.971 2.436-3.193 3.686-.093.521.475.848.681 1.38.252.647-.111 1.321.474 1.726.601.416 1.48.673 2.466.772.657.067 1.158-.46 1.863-.532.89-.09 1.986.235 2.779-.072.671-.258 1.111-1.034 1.656-1.409.359-.247 1.63-.129 2.611-.609.905-.443 1.528-1.483 1.754-1.737.986-1.112-1.199-1.494-1.682-2.745-.25-.652.165-1.396-.379-1.692-.563-.304-2.102-.149-2.943-.273-1.243-.183-2.849-.477-4.26.069-.73.282-1.248 1.017-1.828 1.437z" fill="url(#K)"/></g></symbol></svg>