<svg xmlns="http://www.w3.org/2000/svg" xmlns:xlink="http://www.w3.org/1999/xlink" viewBox="0 0 46 76" fill="#fff" fill-rule="evenodd" stroke="#000" stroke-linecap="round" stroke-linejoin="round"><style><![CDATA[.B{stroke-linejoin:miter}.C{fill-rule:nonzero}.D{stroke-width:.124}.E{fill:url(#H)}]]></style><use xlink:href="#Z" x=".5" y=".5"/><defs><linearGradient id="A" y2="50.05%" x2="100.00%" y1="50.05%" x1="-0.00%"><stop stop-color="#767b7c" offset="0%"/><stop stop-color="#868d89" offset="100%"/></linearGradient><linearGradient id="B" y2="64.55%" x2="99.50%" y1="35.42%" x1="0.51%"><stop stop-color="#767b7c" offset="0%"/><stop stop-color="#868d89" offset="100%"/></linearGradient><linearGradient id="C" y2="50.01%" x2="100.00%" y1="50.01%" x1="0.00%"><stop stop-color="#767b7c" offset="0%"/><stop stop-color="#868d89" offset="100%"/></linearGradient><linearGradient id="D" y2="49.98%" x2="100.02%" y1="49.98%" x1="0.00%"><stop stop-color="#767b7c" offset="0%"/><stop stop-color="#868d89" offset="100%"/></linearGradient><linearGradient id="E" y2="49.90%" x2="75.76%" y1="50.07%" x1="6.31%"><stop stop-color="#767b7c" offset="0%"/><stop stop-color="#868d89" offset="100%"/></linearGradient><linearGradient id="F" y2="50.01%" x2="100.00%" y1="50.01%" x1="-0.00%"><stop stop-color="#618160" offset="0%"/><stop stop-color="#68816a" offset="100%"/></linearGradient><linearGradient id="G" y2="734.41%" x2="-1.31%" y1="-635.24%" x1="101.51%"><stop stop-color="#618160" offset="0%"/><stop stop-color="#68816a" offset="100%"/></linearGradient><linearGradient id="H" y2="50.00%" x2="100.01%" y1="50.00%" x1="0.01%"><stop stop-color="#618160" offset="0%"/><stop stop-color="#718772" offset="100%"/></linearGradient><linearGradient id="I" y2="37.90%" x2="94.41%" y1="57.14%" x1="11.14%"><stop stop-color="#618160" offset="0%"/><stop stop-color="#718772" offset="100%"/></linearGradient><linearGradient id="J" y2="50.01%" x2="100.00%" y1="50.01%" x1="-0.00%"><stop stop-color="#618160" offset="0%"/><stop stop-color="#718772" offset="100%"/></linearGradient><linearGradient id="K" y2="73.06%" x2="98.96%" y1="-3.99%" x1="1.65%"><stop stop-color="#537153" offset="0%"/><stop stop-color="#718772" offset="100%"/></linearGradient><linearGradient id="L" y2="44.67%" x2="99.24%" y1="52.52%" x1="0.99%"><stop stop-color="#618160" offset="0%"/><stop stop-color="#718772" offset="100%"/></linearGradient><linearGradient id="M" y2="49.99%" x2="0.00%" y1="50.00%" x1="100.00%"><stop stop-color="#618160" offset="0%"/><stop stop-color="#4f6b57" offset="100%"/></linearGradient><linearGradient id="N" y2="50.00%" x2="100.00%" y1="50.00%" x1="-0.00%"><stop stop-color="#77855f" offset="0%"/><stop stop-color="#718772" offset="100%"/></linearGradient><linearGradient id="O" y2="50.00%" x2="100.00%" y1="50.00%" x1="-0.00%"><stop stop-color="#4d695f" offset="0%"/><stop stop-color="#718772" offset="100%"/></linearGradient><linearGradient id="P" y2="50.00%" x2="99.98%" y1="50.00%" x1="-0.02%"><stop stop-color="#618160" offset="0%"/><stop stop-color="#718772" offset="100%"/></linearGradient><linearGradient id="Q" y2="50.00%" x2="99.99%" y1="50.00%" x1="-0.01%"><stop stop-color="#618160" offset="0%"/><stop stop-color="#68816a" offset="100%"/></linearGradient><linearGradient id="R" y2="49.73%" x2="100.06%" y1="50.36%" x1="0.01%"><stop stop-color="#618160" offset="0%"/><stop stop-color="#4f6b57" offset="100%"/></linearGradient><linearGradient id="S" y2="50.03%" x2="99.99%" y1="50.03%" x1="0.01%"><stop stop-color="#618160" offset="0%"/><stop stop-color="#718772" offset="100%"/></linearGradient><linearGradient id="T" y2="21.44%" x2="98.90%" y1="79.97%" x1="1.29%"><stop stop-color="#618160" offset="0%"/><stop stop-color="#718772" offset="100%"/></linearGradient><linearGradient id="U" y2="50.00%" x2="100.01%" y1="50.00%" x1="-0.00%"><stop stop-color="#79865f" offset="0%"/><stop stop-color="#718772" offset="100%"/></linearGradient><linearGradient id="V" y2="49.99%" x2="100.00%" y1="49.99%" x1="0.00%"><stop stop-color="#618160" offset="0%"/><stop stop-color="#718772" offset="100%"/></linearGradient><linearGradient id="W" y2="49.96%" x2="100.01%" y1="49.96%" x1="-0.02%"><stop stop-color="#618160" offset="0%"/><stop stop-color="#718772" offset="100%"/></linearGradient><linearGradient id="X" y2="53.91%" x2="99.88%" y1="41.83%" x1="0.21%"><stop stop-color="#618160" offset="0%"/><stop stop-color="#718772" offset="100%"/></linearGradient><linearGradient id="Y" y2="376.28%" x2="94.13%" y1="-233.28%" x1="8.92%"><stop stop-color="#618160" offset="0%"/><stop stop-color="#718772" offset="100%"/></linearGradient></defs><symbol id="Z" overflow="visible"><g stroke="#5c6161" class="B C D"><path d="M14.381 37.996l1.07-.68c.755.099.982-.035 1.548-.156.648-.136 1.5-.427 2.165-.427 1.568 0 2.71-.369 4.305-.395-1.465.954-2.994.638-4.694.875-1.415.198-3.174 1.102-4.393 1.074v-.29z" fill="url(#A)"/><path d="M23.103 16.445l1.1-.63c.753.136.983.014 1.556-.078.654-.105 1.517-.354 2.183-.321 1.564.076 2.723-.237 4.319-.185-1.512.881-3.025.488-4.735.646-1.419.128-3.222.942-4.437.858l.015-.29z" fill="url(#B)"/><path d="M23.708 30.611s3.886.292 4.857.68 7.583 4.373 7.583 4.373l-1.265-.39s-2.137-.777-3.206-1.553-2.04-1.068-3.012-1.556-4.471-.776-4.471-.776l-.484-.778z" fill="url(#C)"/><path d="M23.417 20.216s.711-.317 1.65 0 2.721 1.068 2.721 1.068l-.972.098-1.65-.583c-.779-.29-1.459 0-1.459 0l-.29-.582z" fill="url(#D)"/><path d="M24.582 74.435s.486.29 1.165.29 1.555-.388 1.555-.388-1.068-6.025-.873-7.775-.098-7.286-.292-9.134-.39-8.743-.39-8.743l-.776-7.387-.486-10.395-.293-4.079-.581-7.677v-4.857l-.584-.974-.097 6.123.195 8.648v13.701l.972 13.212.388 9.719.097 9.717z" fill="url(#E)"/></g><g stroke="#264a46"><path d="M0 27.308c.492.083 1.18-.025 1.555-.099.573-.112 1.22-.477 1.829-.66.208.761 2.178.878 2.447.162.659.488 1.412.252 2.096.519.518.204.818.753 1.483.722-.013-.164.054-.373.029-.532.12-.007.255-.044.361-.05-.185-.992.735-.686 1.373-.743.367-.031.607-.211.951-.174.214.023.454.334.701.37.694.11 1.201-.143 1.874-.123l1.999.136c-.018.135.05.323.028.457 1.324.07 2.043-.402 3.275-.36.036.626-.159 1.292.38 1.662.397.274.996-.044 1.577.075.84.166.977.234 1.262.974.2.525.422 1.201-.568 1.029l-.047-.341c-1.467-.599-1.018.743-2.416.667-1.256-.063-1.693-1.47-2.976-1.248.018.138-.059.341-.049.456-.922.2-1.344-.585-2.103-.761-.983-.232-1.335.139-1.749.68-.341.448.168.519-.584.68-.539.115-.634-.115-1.019-.339-.393-.231-.555-.594-1.029-.64-.133-.011-.633.326-.945.312-.341.599-1.503.449-2.145.488-.109.45-2.811.756-3.375.628-.136-.667.474-.62.081-1.176-.432-.613-.832-.11-1.384-.331-.404-.164-.876-.78-1.261-.982-.402-.211-.928-.368-1.359-.585l-.29-.87z" fill="url(#F)" class="B C D"/><path d="M26.574 45.066c-.423.172-1.06.19-1.41.185-.532-.008-1.185-.25-1.766-.32-.036.783-1.774 1.253-2.157.599-.493.597-1.214.5-1.772.884-.423.294-.584.884-1.184.976-.021-.163-.122-.354-.131-.516-.109.016-.235.003-.331.015-.032-1.004-.793-.542-1.373-.48-.334.034-.587-.099-.886 0-.188.062-.341.409-.555.489-.598.232-1.1.077-1.7.218l-1.759.492c.042.128.018.326.062.454-1.168.305-1.905-.028-2.999.235.095.62.398 1.236-.011 1.697-.302.337-.901.136-1.395.356-.719.315-.827.406-.936 1.183-.075.553-.141 1.251.711.905l-.026-.342c1.195-.85 1.057.545 2.292.221 1.11-.289 1.223-1.748 2.416-1.757.011.138.122.321.135.438.863.029 1.086-.815 1.73-1.125.836-.406 1.224-.106 1.699.351.394.378-.05.539.657.563.507.015.544-.229.844-.516.305-.297.378-.683.795-.813.114-.034.63.208.904.138.423.521 1.433.17 2.014.091.188.422 2.665.237 3.145.01-.01-.68-.547-.521-.305-1.139.263-.678.724-.257 1.173-.575.33-.232.63-.922.935-1.188.318-.279.758-.529 1.099-.816l.088-.909z" fill="url(#G)" class="B C D"/><path d="M19.432 19.949c-.036-.411.329-.694.295-1.047-.039-.419-.38-.508-.376-.978.59-.045.817-.008 1.152.278.091.075-.01.506.117.662.119.144.448-.101.586.091.573.797.378 1.672-.8 1.577l-.973-.582z" class="B C D E"/><path d="M23.525 21.409c-.127-.393.169-.75.061-1.082-.13-.404-.482-.417-.582-.876.566-.172.8-.183 1.186.02.103.054.101.498.255.621.149.115.419-.195.596-.039.732.654.73 1.551-.44 1.715l-1.075-.359z" fill="url(#I)" class="B C D"/><path d="M26.01 20.531c.514-.139.611-.587.995-.921.704-.615.406-.222 1.214-.122.406.054.928-.269 1.269-.104.399.196.266.754.576.982.511.365.807-.036 1.291-.028.658.012.739.261 1.264.485 1.024.442 1.812.054 2.974.11.128 1.395 1.8-.094 2.259-.192-.038.284.12.483.123.746 1.089.06 1.915.688 2.781.453.104-.029.3-.276.51-.341s.568-.016.788-.002l1.85.096c-.957.605-2.155.769-3.21 1.087.023.055-.002.282.006.355.315.203.179.149.237.489-.871.047-2.268.216-2.963-.167-.003.12-.041.255-.049.362-.735.184-1.204-.419-1.991-.261-.144.487-.781.412-1.264.388.206.277.704.498.778.962-.652.39-1.175-.521-1.766-.69-.715-.203-1.506.174-1.491-.953-.601-.031-1.215.032-1.816-.014-.778-.063-.947-.352-1.622-.583-.607-.208-3.199.57-2.938-.779l.196-1.358z" fill="url(#J)" class="B C D"/><path d="M23.889 30.489l1.769-.941c.636-.279.928-.078 1.557.122.776.244 1.041.015 1.775.047.572.027 1.432.316 2.009.498.605.19 1.035.526 1.73.639.886.148 1.202-.17 1.95-.454.717-.269 1.142.061 1.973.047.617-.006.964-.498 1.129.502.38.05.794.113.98.412-.383.196-1.179.1-1.503.367-.334.274-.305.975-.459 1.407-.708.05-.682-.711-1.407-.646-.048.081-.055.165-.101.247-.339-.032-.672-.106-.993-.219.022-.086.019-.167-.007-.251-.067-.051-.155-.066-.236-.042-.01.146-.102.313-.138.44-1.015.025-1.158-.848-1.913-1.161-.619-.258-1.42.075-2.074.11-1.721.091-2.747-.742-4.47-.993-.026.122-.091.24-.12.341-.206.021-.454.053-.652-.013l-.804-.458z" fill="url(#K)" class="B C D"/><path d="M11.039 15.975c1.142.011.686 1.042 1.115 1.634.325.449 1.626.735 2.194.855.915.196 1.717-.331 2.252.19.273.265.089.84.647 1.024.54.175 1.005-.102.937-.686.552-.044.532.532 1.081.646.832.174.705-.452 1.558-.087.386.165.811.504 1.188.706.49.258.769.212 1.123.751-.584.25-1.461.136-2.132.2.208.865-2.986 1.793-3.135.618-.784.003-1.46.464-2.155.474-.805.008-1.155-.764-1.908-1.037.233-1.568-2.963-2.303-2.713-4.122l-.051-1.165z" fill="url(#L)" class="B C D"/><path d="M24.809 34.819c.749-.464 1.533-.712 2.292-.184.263.187.327.528.693.739s.886.268 1.271.431c.694.301 1.389.393 2.058.641.331.126.555.489.831.581.523.172.895-.152 1.24-.014s.224.506.523.657c.545.273.748-.091 1.108-.037.703.1 1.557.615 2.285.847l2.506.914c.923.248 1.533-.505 2.273-.274-.026.768-1.294.643-1.902.727-.873.123-1.325.266-1.937.777-.402.338-.245.549-.892.708-.357.091-.81.018-1.162-.045-.831-.143-1.46-.393-2.289-.409-1.045-.019-1.332-.233-2.121-.803-.626-.451-1.293-.571-2.085-.78-1.196-.317-1.141-.785-1.894-1.581-.366-.386-.678-.298-1.092-.597-.402-.294-.355-.725-.91-.902-.041.115-.117.229-.159.326-.649-.171-1.712-.351-1.396-1.251l.762-.467z" fill="url(#M)" class="B C D"/><path d="M1.847 19.632c.621.052 1.063.552 1.652.777.699.268 1.4.281 2.134.386 1.561.227 3.151.587 4.862.354-.935-1.113-.954-1.759-.977-3.233.435.787 1.467 1.186 2.264 1.498.842.329 2.5.367 3.103.993-1.027.427-.245 1.021.274 1.363.711.466 1.115.451 2.038.485 1.555.057 2.702.297 4.078.896-.628.391-1.512.059-2.227.192-.897.169-1.324.612-1.926 1.147-.43.383-1.347 1.144-1.918.638-.237-.209-.172-.793-.31-1.031-.211-.355-.732-.669-1.094-.772-1.501-.428-2.893.942-4.081 1.459-.721.315-1.566.365-2.097-.338-.84-1.123.529-.848.406-1.693-.935.15-2.35-.485-3.172-.779-1.167-.42-2.046-1.097-3.205-1.759l-.678-.972.875.388z" fill="url(#N)" class="B C D"/><path d="M20.501 44.991c1.281.044 1.745-.386 2.812.313.77.505 1.2.341 2.074.635.609.201 1.032.663 1.724.8.289.059.908-.014 1.171.117.544.274.335.438.574.852.364.62-.204.466.582.685.454.128.934-.057 1.266-.195.735-.305 1.259-.883 2.257-.776 1.403.148-.042.553.736 1.186.536.44 1.57.328 2.239.464.334.068.566.036.873.213.073.787 1.808.336 2.35.953.25.279 1.274 1.877 1.262 2.14-.058 1.399-5.572.997-6.69.834a.46.46 0 0 0-.051-.242c-1.617-.059-2.525.727-3.994-.151-.732-.44-1.176-.646-2.095-.638-.61.008-1.892-.198-.948-.95-.84-.485-3.115-.995-3.018-2.436.585.075 1.17-.081.922-.772-1.073-.487-2.765-.748-3.463-1.769l-.584-1.263z" class="B C D E"/><path d="M21.183 4.863c.351.122.321.369.584.583.367.303.32.287.775.487.364.159.62.144.997.365.308.179.34.489.653.609 1.013.385 1.427-.782 2.238-.974.454-.111.993.055 1.439-.039.151-.034.112-.318.407-.349.244-.027.524-.013.762.015.614.923-.346 1.259-.568 2.023-.117.406.045.945 0 1.367-.044.393-.274.751-.232 1.245-1.743.526-3.078 1.525-4.991 1.14-.432-.088-.698-.337-1.292-.352-.415-.006-1.035.128-1.429 0-.459-.148-.662-.508-1.19-.584-.37-.052-.97.225-1.334.32-.292.074-.945.503-1.251.229-.287-.255.24-.428.164-.617-.092-.224-.336-.467-.396-.682-.185-.688.185-1.448.967-1.782.341-.148.841.104 1.146.13.148.011.318.097.51.074.409-.055.373-.274.603-.352.601-.2 2.113-.112 1.493-1.157-.279-.471-1.094-.318-1.123-1.116l1.07-.583z" fill="url(#O)" class="B C D"/><path d="M29.896 32.385a1.76 1.76 0 0 1-.178-.933c.839-.125 1.383-.164 1.733.448.175.309-.068.586.194.873.164.179.581.135.799.271.67.415.935.791.073 1.09-.964.336-1.45-.127-2.134-.583-.29-.196-.485-1.168-.485-1.168z" fill="url(#P)" class="B C D"/><path d="M21.007 6.51c-.516-1.436-2.554-1.881-3.002-3.39.709-.099 1.224.143 1.84.417-.026-.872-.044-1.1-.587-1.767-.412-.505-1.097-1.041-.959-1.756.625-.106.64.391 1.055.666.644.423.511.284 1.246.113.392.633.959.146 1.006-.49.458.049.826.351 1.332.294.013.326.159 1.065.02 1.35-.228.474-.899.328-.87.953.136-.019.319.032.457.031.127.51-.996 2.817.891 1.926 1.232-.581.029-2.103.011-2.995a1.25 1.25 0 0 1 .555 0c-.055.522.096.998.503 1.34.287-.608-.231-1.159-.085-1.832.107.044.328-.023.454.008.052.107.073.167.139.266.098-.304.279-.651.537-.863-.031.162.051.398.035.565.727.039 1.224.102 1.817.224.06.272.042.685-.022.944-.44.02-.906.14-1.146.5.301.096.322.286.516.49-.207.026-.417.216-.682.203-.039.151-.042.406.003.555.484-.008 1.081.354.773.964-.292.571-1.316.039-1.062.977 1.049.453-.3.849-.616 1.188.55.221.655.8.457 1.285-.078.193-.535.222-.641.457-.115.258.07.696.01.974-.105.489-.531.884-.793 1.353-.322.575-.31 1.162-.412 1.837-.312.091-.645.154-.925.175-.133-.899-.548-1.577-1.032-2.37-.558-.912-.162-1.598-.182-2.538-.123-.019-1.129-.346-1.276-.776-.3-.883 1.175-.847.633-.889V6.51z" fill="url(#Q)" class="B C D"/><path d="M3.447 38.042c1.021-.211 1.758-1.123 2.794-.981.453.063.573.304.993.386.213.041.547.029.755-.003.156-.024.803-.281.799-.282.795.052 1.261.474 2.239.471.82-.007 1.848.282 2.624.087.709-.18 1.79-.531 2.137-1.245.235-.487-.071-.72.479-.998.355-.178 1.094.054 1.462.072.821.036 2.376-.219 1.35.678-.683.599-1.626.708-2.033 1.579-.378.805-.084.847-1.034 1.269-.662.292-.982.452-1.53.902-1.003.818-2.127 1.144-3.299 1.711-1.142.552-1.655 1.358-3.061 1.679-1.1.25-.789-.133-1.72-.485-.535-.203-1.483.052-2.051-.021-.15-1.1 1.48-.883 1.538-1.694s-2.285-.751-1.62-1.667c-.388-.289-.828-.188-1.305-.195l-.973-.482 1.454-.783z" fill="url(#R)" class="B C D"/><g class="E"><path d="M8.259 10.012c.315.513.51 1.117.899 1.634.349.461 1.143.805 1.305 1.262-.451.028-.938.093-1.319-.113.545.432.68 1.063 1.157 1.514.589.553 1.322.44 2.1.479-.195 1.189 1.981.432 2.645.878-.039.25.075.566.031.821.411.106.507-.026.586-.438.584-.026 1.249.083 1.831-.011.736-.122.808-.42 1.379-.73 1.115-.603 2.651.25 3.763-.243.542-.24.173-.196.492-.584a32.2 32.2 0 0 0 .493-.719c.341-.894.179-1.016-.402-1.507-.061-.052-.672-.55-.72-.55-.539-.01-.381.246-.63.354-.522.227-1.149.74-1.207-.376-.175-.055-.545-.054-.727-.002-.385 1.254-2.371-.278-3.184-.096.068 1.407-1.22-.271-1.438-.683-.92-.198-1.251.447-1.955-.544-.319-.451-1.131-1.811-1.245-2.371a2.7 2.7 0 0 1-.824-.391c.115.552.468 1.019.338 1.628-.214-.05-.513.073-.727.027-.14.975.194 1 .941 1.365.136.959.328.592.87 1.073.35.311.428.836.977.965.003.132-.01.24-.019.36-1.253.289-1.492-.247-2.243-1.105-.759-.867-1.853-.636-2.385-1.603l-.781-.293z" class="B C D"/><path d="M26.106 26.457c.661.088.925-.375 1.433-.266.639.136.653.508 1.412.407.534-.071 1.191-.411 1.895-.237.552.135.797.431 1.383.582.656.171 1.509-.224 2.145-.005s.747.536 1.525.588c1.41.096 1.898-1.3 3.502-.662.037.164.021.304-.018.453-.719-.018-1.538.638-.464.711.032.654-.805.31-.653 1.039.579.031 1.379-.143 1.934.01.496.139.772.515 1.354.589.608.076 1.558-.152 2.071.167.369.229.534.759.866.997-1.407.542-2.723-.294-3.88-.677-1.174-.39-2.809-.245-4.097-.18.184 1.427-1.678-.029-2.003-.355-.876-.879-1.275-1.173-2.486-1.204-1.509-.039-3.131-.502-4.934.104.105.266.026.438.297.667-.763.284-2.279.18-3.113.057-.071-.662-1.152-1.095-1.091-1.621.045-.375 1.107-.576 1.366-.868l1.558-.299z" class="B C D"/></g><path d="M33.588 34.425c-.005-.131-.01-.25.014-.376.783-.187.964.298 1.47.756-.027-.049-.052-.515-.107-.657.608-.037 1.168.81 1.733 1.055.891.386 1.456.145 2.207.802.319.276 1.381 1.084 1.461 1.556.075.44-.467.687-1.025.469-.487-.189-.907-1.034-1.13-1.456-.732-.031-1.444.017-2.084-.189.016.141-.052.333-.048.456-.178.053-.468.038-.63-.023.003-1.07-.276-1.298-1.374-1.227l-.583-.972" stroke-linecap="butt" fill="url(#S)" class="B C D"/><path d="M12.257 31.871c.08.208 1.138.767 2.295.889.844.087 1.712-.26 2.439-.149.661.1 1.067.758 1.771.803.347.023.785-.117 1.132-.171.899-.133 1.441-.326 2.188.287.325.268.156.555.627.669.308.073.791-.235 1.058-.331.698-.252 1.321-.355 2.061-.529.727-.169 1.162-.626 1.831-.868s1.514-.083 2.121-.402c-1.053-1.519-3.66.368-4.273-1.415-1.245.104-1.829-.445-2.895-.57-1.253-.146-1.978.686-3.009-.248-.328 1.229-2.364 1.358-3.513 1.325-.545-.015-1.151-.472-1.65-.35l-1.061.758c0-.002-1.26-.06-1.12.301z" fill="url(#T)" class="B C D"/><path d="M24.067 40.233c1.877 0 3.583-.317 5.533-.174-.576.232-1.639.375-1.44 1.227.526.034 1.219-.133 1.716.011.941.281.165.325.698.808.513.464 1.22.146 1.753.555.682.521.539 1.21 1.457 1.632.885.402 2.11 1.076 3.103 1.108.14.419.35.842.49 1.245.185.522-.055.923.665 1.086.003.131-.01.24-.019.357-.675.162-1.337-.081-1.867.032-.555.125-.817.873-1.551.13-.449-.454-.36-1.248-.866-1.751-.594-.586-1.305-.636-1.973-1.165-.537-.427-1.295-1.021-1.721-1.555-.59-.745-.351-.94-1.309-1.215-1.294-.373-2.442-1.493-3.796-1.749l-.871-.582z" fill="url(#U)" class="B C D"/><path d="M8.843 41.69c.451-.005.886.116 1.324.209-.049 2.015 2.167.725 3.325.776-.089.248-.031.542-.164.748.35-.006 1.561-1.47 1.649-.274.011.187-.821.524-.795.871.041.526.442.451.875.563.816.209 1.572.193 2.358.485.745.277 1.469.399 2.296.276-.355-2.173 3.004-.612 2.896-2.281-.604-.088-1.535-.349-1.46-1.165-.331-.078-.633-.226-.924-.443l.003-.338c.832-.044 1.371.028 1.553-.873.388.078.704-.06.674-.505-.029-.416-.722-.48-1.005-.568-.799-.237-1.535-.195-2.403-.107-1.342.14-3.065 1.316-4.48.79-.281-.104-.417-.633-.867-.696-.431-.06-.633.201-1.016.323-.86.273-1.475.3-2.287.071-.238-.068-.741-.344-.917-.347-.678-.002-.443.157-.928.545-.714.571-.935.652-.195 1.16l.488.777z" fill="url(#V)" class="B C D"/><path d="M17.585 26.046c.328.406 1.137.635 1.639.547-.14-.748.287-.482.594-.741.291-.247.56-.375.974-.486.547-.146 1.965-.188 2.056.471a1.65 1.65 0 0 1 .358.033c.779 2.048-1.158 1.405-2.418 1.65-.936.18-.86.477-1.793-.063-.449-.261-.53-.39-1.017-.536-.435-.132-.69.081-1.071-.193l-.195-.584.873-.097z" class="B C D E"/><path d="M19.662 36.849c.214.296.745.463 1.073.403-.091-.548.19-.355.391-.545.19-.182.365-.276.638-.357.359-.105 1.287-.139 1.347.346.073.002.162.003.233.025.513 1.501-.756 1.028-1.583 1.207-.613.133-.563.35-1.175-.046-.294-.191-.347-.282-.667-.392-.284-.094-.451.06-.703-.143l-.127-.425.572-.075z" fill="url(#W)" class="B C D"/><path d="M22.917 14.129c.477-.067.914-.409 1.362-.582.619-.237 1.017-.185 1.647-.19.727-.008 1.12-.149 1.49.456.529.866-.123.972-.712 1.381-.495.342-.959.711-1.162 1.172-.381.865.086.896-1.07 1.069-.947.143-3.498.495-2.997-1.347.485-.078.698-.625.763-1.081l.68-.878z" class="B C D E"/><path d="M26.808 16.563l1.582-1.228c.578-.385.901-.237 1.554-.148.805.109 1.028-.162 1.758-.255.566-.073 1.464.067 2.064.148.63.081 1.11.339 1.816.333.896-.005 1.153-.372 1.844-.779.657-.391 1.133-.136 1.952-.29.605-.113.864-.657 1.198.299.381-.013.799-.023 1.036.24-.344.258-1.145.3-1.418.618-.282.328-.136 1.014-.215 1.464-.688.171-.791-.582-1.495-.397-.034.091-.028.173-.057.263-.336.028-.701.01-1.019-.05.01-.085-.007-.167-.049-.244-.077-.039-.159-.039-.239-.002.017.144-.047.328-.058.456-.998.198-1.287-.636-2.085-.816-.656-.149-1.386.316-2.025.461-1.678.384-2.834-.261-4.573-.213-.007.12-.048.252-.062.355-.198.056-.438.13-.644.099l-.867-.314z" fill="url(#X)" class="B C D"/><path d="M24.747 14.603c.911-.157.424-1.287.99-1.706.243-.178.764.03 1.051-.042.632-.159.349-.224.776-.589.29-.248.102-.649.677-.579.632.078.204.427.486.68.383.342 1.529.829 1.474-.375.091-.006.198.015.286.002.179-.371 1.12-1.621 1.548-1.673 1.203-.146.412 1.026.5 1.645.752.076 1.129-.184 1.732-.375.772-.241 1.086-.168 1.283-1.152.143.083.308.035.47.196.031-.194.243-.535.29-.711.119.285.103.701.111 1.071.724.255 1.232.112 1.732-.284.38-.298.682-1.261 1.251-1.145.086 1.17-1.678 2.001-2.598 2.488.328.222.695.317.877.61-.922.339-1.852-.225-2.718-.086.04.185-.081.488-.051.652-.685.036-1.768-.209-2.313.211.501.203 1.817.232 2.424.094.428-.097.5-.303.875-.432.203-.07.09-.308.415-.352.124-.018.224.289.381.3.336.024.666.144 1.05.094.531-.063.537-.346.92-.534.855-.42 1.272-.281 1.548-1.495.029.01.226.01.259.003l.029 1.233c.717.196 1.506-.801 1.912-1.141-.211 1.28-2.55 1.684-3.092 2.614-.235.404.34.44-.17.8-.27.19-.873.065-1.194.075l-2.428.098c-1.62-.002-3.238 0-4.855 0-.367 0-.834.079-1.191.005-.479-.101-.611-.468-1.195-.375-.512.083-1.462.995-1.441 1.423-1.203.063-2.492.307-3.642.172-.045-.333.102-.487.373-.643l1.166-.78z" class="B C D E"/><path d="M24.266 55.488c.056-1.259 1.323-1.042 2.257-.901.383.059.731.285 1.146.224.188-.029.336-.4.48-.402.279-.003.419.256.606.276l2.701.315c1.045.106 2.178-.19 3.193.115.033.553-1.649.832-2.207.972-.005-.01 0 .25 0 .261 1.002.104.303 1.009-.403 1.08-.999.103-1.258-.749-2.234-.873-.845-.107-1.561.325-2.379.052-.542-.18-.549-.48-1.225-.443-.417.023-.549.391-1.062.295l-.877-.971z" fill="url(#V)" class="B C D"/><path d="M30.561 52.413c.84.241.756-.669 1.214-1.039.347-.279 1.373-.219 1.821-.188.717.05 1.179.642 1.699.352.265-.148.269-.641.722-.662.442-.018.716.302.523.747.396.156.52-.302.949-.269.654.05.411.511 1.123.414.325-.045.719-.216 1.044-.289.425-.097.616.002 1.007-.344-.37-.327-1.04-.432-1.517-.631.361-.631-1.759-2.07-2.155-1.178-.575-.175-.959-.688-1.469-.849-.589-.185-1.034.346-1.65.393-.208 1.282-2.736 1.152-2.992 2.638l-.319.907z" fill="url(#Y)" class="B C D"/></g></symbol></svg>