<svg xmlns="http://www.w3.org/2000/svg" xmlns:xlink="http://www.w3.org/1999/xlink" viewBox="0 0 40 76" fill="#fff" fill-rule="evenodd" stroke="#000" stroke-linecap="round" stroke-linejoin="round"><style><![CDATA[.B{stroke-linejoin:miter}.C{fill-rule:nonzero}.D{stroke-width:.124}.E{fill:url(#K)}.F{fill:url(#O)}.G{fill:url(#N)}.H{stroke:#254b30}.I{fill:url(#M)}]]></style><use xlink:href="#Z" x=".5" y=".5"/><defs><linearGradient id="A" y2="-281.52%" x2="96.74%" y1="357.43%" x1="0.89%"><stop stop-color="#254b30" offset="0%"/><stop stop-color="#345c3b" offset="100%"/></linearGradient><linearGradient id="B" y2="50.00%" x2="99.99%" y1="50.00%" x1="-0.01%"><stop stop-color="#254b30" offset="0%"/><stop stop-color="#345c3b" offset="100%"/></linearGradient><linearGradient id="C" y2="50.00%" x2="100.00%" y1="50.00%" x1="-0.01%"><stop stop-color="#60542e" offset="0%"/><stop stop-color="#504538" offset="96.6%"/></linearGradient><linearGradient id="D" y2="644.13%" x2="-2.91%" y1="-550.58%" x1="101.41%"><stop stop-color="#254b30" offset="0%"/><stop stop-color="#345c3b" offset="100%"/></linearGradient><linearGradient id="E" y2="182.91%" x2="-11.93%" y1="-88.38%" x1="109.59%"><stop stop-color="#254b30" offset="0%"/><stop stop-color="#345c3b" offset="100%"/></linearGradient><linearGradient id="F" y2="1157.94%" x2="-1.42%" y1="-1064.94%" x1="100.61%"><stop stop-color="#254b30" offset="0%"/><stop stop-color="#345c3b" offset="100%"/></linearGradient><linearGradient id="G" y2="-1055.66%" x2="1.49%" y1="1141.12%" x1="99.35%"><stop stop-color="#254b30" offset="0%"/><stop stop-color="#345c3b" offset="100%"/></linearGradient><linearGradient id="H" y2="-373.16%" x2="96.48%" y1="442.52%" x1="1.97%"><stop stop-color="#254b30" offset="0%"/><stop stop-color="#345c3b" offset="100%"/></linearGradient><linearGradient id="I" y2="-686.54%" x2="98.10%" y1="775.89%" x1="0.67%"><stop stop-color="#254b30" offset="0%"/><stop stop-color="#345c3b" offset="100%"/></linearGradient><linearGradient id="J" y2="50.01%" x2="100.00%" y1="50.01%" x1="0.00%"><stop stop-color="#60542e" offset="0%"/><stop stop-color="#504538" offset="96.6%"/></linearGradient><linearGradient id="K" y2="50.00%" x2="100.00%" y1="50.00%" x1="0.03%"><stop stop-color="#629070" offset="0%"/><stop stop-color="#35673f" offset="47.8%"/><stop stop-color="#345c3b" offset="100%"/></linearGradient><linearGradient id="L" y2="50.02%" x2="100.00%" y1="50.02%" x1="-0.00%"><stop stop-color="#254b30" offset="0%"/><stop stop-color="#345c3b" offset="100%"/></linearGradient><linearGradient id="M" y2="49.99%" x2="100.00%" y1="49.99%" x1="0.01%"><stop stop-color="#629070" offset="0%"/><stop stop-color="#35673f" offset="47.8%"/><stop stop-color="#345c3b" offset="100%"/></linearGradient><linearGradient id="N" y2="49.99%" x2="100.00%" y1="49.99%" x1="-0.00%"><stop stop-color="#629070" offset="0%"/><stop stop-color="#35673f" offset="47.8%"/><stop stop-color="#345c3b" offset="100%"/></linearGradient><linearGradient id="O" y2="50.00%" x2="100.00%" y1="50.00%" x1="-0.00%"><stop stop-color="#629070" offset="0%"/><stop stop-color="#35673f" offset="47.8%"/><stop stop-color="#345c3b" offset="100%"/></linearGradient><linearGradient id="P" y2="425.48%" x2="4.19%" y1="-363.17%" x1="94.48%"><stop stop-color="#254b30" offset="0%"/><stop stop-color="#345c3b" offset="100%"/></linearGradient><linearGradient id="Q" y2="39.84%" x2="104.22%" y1="74.13%" x1="-1.13%"><stop stop-color="#629070" offset="0%"/><stop stop-color="#35673f" offset="47.8%"/><stop stop-color="#345c3b" offset="100%"/></linearGradient><linearGradient id="R" y2="47.94%" x2="100.12%" y1="52.87%" x1="1.14%"><stop stop-color="#629070" offset="0%"/><stop stop-color="#35673f" offset="47.8%"/><stop stop-color="#345c3b" offset="100%"/></linearGradient><linearGradient id="S" y2="7.99%" x2="95.64%" y1="64.24%" x1="7.70%"><stop stop-color="#629070" offset="0%"/><stop stop-color="#35673f" offset="47.8%"/><stop stop-color="#345c3b" offset="100%"/></linearGradient><linearGradient id="T" y2="48.47%" x2="102.04%" y1="52.10%" x1="-1.93%"><stop stop-color="#629070" offset="0%"/><stop stop-color="#35673f" offset="47.8%"/><stop stop-color="#345c3b" offset="100%"/></linearGradient><linearGradient id="U" y2="50.42%" x2="99.99%" y1="48.90%" x1="0.00%"><stop stop-color="#629070" offset="0%"/><stop stop-color="#35673f" offset="47.8%"/><stop stop-color="#345c3b" offset="100%"/></linearGradient><linearGradient id="V" y2="50.77%" x2="100.46%" y1="48.07%" x1="0.22%"><stop stop-color="#629070" offset="0%"/><stop stop-color="#35673f" offset="47.8%"/><stop stop-color="#345c3b" offset="100%"/></linearGradient><linearGradient id="W" y2="50.00%" x2="100.01%" y1="50.00%" x1="0.02%"><stop stop-color="#629070" offset="0%"/><stop stop-color="#35673f" offset="100%"/></linearGradient><linearGradient id="X" y2="110.52%" x2="35.38%" y1="-7.68%" x1="64.78%"><stop stop-color="#629070" offset="0%"/><stop stop-color="#35673f" offset="100%"/></linearGradient><linearGradient id="Y" y2="104.47%" x2="58.70%" y1="-3.72%" x1="41.22%"><stop stop-color="#629070" offset="0%"/><stop stop-color="#35673f" offset="47.8%"/><stop stop-color="#345c3b" offset="100%"/></linearGradient></defs><symbol id="Z" overflow="visible"><g class="B C D H"><path d="M8.906 43.661c.29-.018.986-2.017 1.345-2.059s.768-1.386 1.127-1.429 1.068-.764 1.35-.505-.432.533-.669.891-1.203 1.733-.758 1.749.989-1.1 1.285-1.395-.285 1.421.087.976.838-1.413 1.175-1.54-.724 2.168-.137 1.884.535-.841.939-.994-.16-1.586.265-1.656.836-.496 1.026-.017-.642 1.612-.268 1.657c.38.04 1.219-1.371 1.602-1.609s-.912 1.716-.278 1.296 1.153-1.623 1.634-1.161 1.349-.504 1.288-.758-.984-.729-1.2-1.017-.155-.032-.695.169-.937.077-1.242-.267-1.225.095-1.225.095.059.251-.191.437-.97-.369-1.356-.134-.931-.2-1.141-.763-1.518-.806-1.415-.386.628.773.552 1.074-1.233-.544-1.397-.3.864.227.634.497-.472.176-.472.176-.87.051-1.268-.077-1.382.061-1.646.801-.994 1.377-1.262 1.48-.191.437.1.419.567-.396.885-.605-.326.486.078.336 1.027-.933 1.56-.859-.453 1.177-.811 1.219-.116 1.052.162.672 1.018-.657 1.018-.657.056-.387.478-.454c.427-.068-1.159 1.899-1.159 1.899s-.289.931.001.913z" fill="url(#A)"/><path d="M14.251 13.232c.171.088.854-1.612 1.068-1.524s.641-1.074.856-.984.726-.36.856 0-.326.361-.514.626-.941 1.255-.684 1.434.726-.718.942-.896-.365 1.285-.086.984.684-1.073.896-1.073-.722 1.855-.341 1.789.427-.626.683-.626.13-1.612.387-1.522.557-.179.598.36-.598 1.343-.383 1.521.896-.896 1.152-.985-.77 1.344-.341 1.164.899-1.164 1.111-.538.857 0 .857-.266c0-.272-.471-1.076-.557-1.436s-.085-.09-.427-.09-.555-.27-.683-.716-.729-.36-.729-.36 0 .269-.169.36-.514-.717-.771-.626-.514-.538-.555-1.166-.772-1.344-.772-.895.256.986.171 1.254-.64-.984-.767-.806.469.538.298.717-.298 0-.298 0-.515-.27-.729-.538-.812-.448-1.068.18-.771.984-.942.984-.17.36 0 .45.387-.18.6-.27-.26.357 0 .357.726-.536 1.026-.266-.429.984-.642.896-.213.984 0 .716.683-.269.683-.269.086-.358.342-.27-.941 1.436-.941 1.436-.299.806-.128.896z" fill="url(#B)"/></g><path d="M17.842 4.548l-.412 45.38c-.218 9.303-.86 16.718-.933 17.157-.209 1.217 0 4.318-.517 4.87s-.518.334-.933.556-1.169.742-.548.853 1.758-.443 2.585.222.651 1.14 1.27 1.14.106-.443.828-.443h1.759c.722 0 .412-.662.929-.885s-.724-1.772-.517-1.329c.194.419-.827-4.018-.827-3.099 0 1.104-.549-2.47-.445-3.469.064-.627-.549-22.129-.683-37.949-.078-9.284-1.297-16.611-1.297-16.611l-.262-6.392z" stroke="#503934" fill="url(#C)" class="B C D"/><g class="H"><path d="M29.821 46.519c-.29.162-1.731-1.543-2.098-1.369s-1.28-1.001-1.642-.827-1.335-.157-1.509.295.623.303.99.538 1.832 1.107 1.405 1.399-1.382-.565-1.784-.696.819 1.34.287 1.095-1.353-.989-1.732-.916 1.533 1.866.851 1.925-.84-.569-1.294-.48-.448-1.794-.888-1.602-1.005-.011-1.007.615 1.243 1.326.888 1.604-1.707-.71-2.171-.724 1.542 1.267.763 1.209-1.745-1.018-2.036-.228-1.508.298-1.546-.01.682-1.388.783-1.827.138-.132.742-.249.945-.499 1.108-1.055 1.233-.66 1.233-.66.036.308.351.35.808-.994 1.27-.983.834-.79.823-1.519 1.174-1.798 1.234-1.289-.318 1.214-.13 1.49.996-1.345 1.246-1.185-.755.776-.429.922.528-.106.528-.106.869-.484 1.209-.864 1.371-.792 1.909-.164 1.495.858 1.796.798.352.349.061.51-.701-.071-1.091-.099.502.321.049.409-1.358-.363-1.848.048.89.976 1.255.799.514 1.05.101.818-1.245-.071-1.245-.071-.202-.378-.642-.188 1.858 1.309 1.858 1.309.636.817.347.979z" fill="url(#D)" class="B C D"/><path d="M25.367 26.849c-.184.218-1.342-.545-1.578-.292s-.983-.303-1.217-.048-.938.34-1.021.735.463.008.739.057 1.376.188 1.105.551-1.008.055-1.299.096.69.71.299.71-1.029-.269-1.285-.084 1.237.853.769 1.131-.637-.132-.942.088-.477-1.171-.768-.878-.695.336-.637.8.983.552.764.878-1.25.06-1.574.209 1.19.407.641.632c-.542.224-1.3-.153-1.43.53s-1.018.735-1.073.518.346-1.255.374-1.615.084-.145.49-.439.608-.692.671-1.156.793-.911.793-.911.055.214.277.138.463-1.01.789-1.159.501-.867.426-1.403.645-1.728.735-1.373-.106 1.005.05 1.143.565-1.332.755-1.302-.451.833-.212.829.358-.259.358-.259.556-.654.755-1.051.878-1.053 1.311-.776 1.116.122 1.319-.026.276.138.091.357-.496.188-.769.3.378.064.072.285-.972.198-1.276.668.71.416.945.161.455.598.147.569-.869.374-.869.374-.176-.212-.462.08 1.407.331 1.407.331.522.386.337.605z" fill="url(#E)" class="B C D"/><path d="M30.734 57.409c-.337.124-1.893-1.154-2.317-1.02s-1.407-.75-1.831-.615-1.509-.112-1.733.23.694.223 1.1.399 2.033.823 1.531 1.045-1.545-.419-1.996-.517.864 1.007.27.824-1.492-.739-1.925-.681 1.653 1.397.871 1.445-.929-.424-1.448-.354-.422-1.349-.933-1.203-1.142-.005-1.177.468 1.347.992.931 1.202-1.907-.527-2.436-.533 1.691.945.807.904-1.935-.756-2.305-.163-1.733.23-1.759 0 .845-1.048.983-1.377.164-.101.858-.193 1.1-.379 1.315-.796 1.436-.505 1.436-.505.026.23.383.262.97-.753 1.498-.744.984-.599 1.008-1.148 1.428-1.361 1.473-.975-.424.913-.221 1.12 1.2-1.018 1.477-.897-.898.586-.533.695.605-.082.605-.082 1.014-.368 1.421-.655 1.599-.603 2.183-.133 1.657.639 2.003.593.383.261.045.385-.796-.051-1.239-.072.557.24.036.308-1.527-.265-2.107.046.967.73 1.391.595.532.788.07.615-1.412-.046-1.412-.046-.21-.285-.721-.14 2.048.978 2.048.978.687.617.347.74z" fill="url(#F)" class="B C D"/><path d="M30.002 63.41c-.311.016-1.339-1.297-1.728-1.289s-1.022-.882-1.41-.877-1.252-.422-1.516-.212.538.323.844.547 1.531 1.078 1.06 1.135-1.213-.663-1.571-.836.508.954.045.684-1.095-.893-1.475-.946 1.087 1.427.418 1.288-.694-.528-1.145-.592-.058-1.116-.523-1.12-.965-.258-1.096.092.917 1.053.519 1.12-1.496-.827-1.938-.951 1.219 1.095.483.867-1.467-1.006-1.912-.636-1.513-.214-1.485-.393.947-.608 1.136-.827.162-.038.765.047 1.014-.042 1.288-.312 1.327-.06 1.327-.06-.029.18.265.285.983-.355 1.426-.231.967-.234 1.108-.644 1.506-.714 1.458-.411-.557.599-.434.799 1.24-.501 1.447-.349-.888.244-.606.409.531.072.531.072.935-.053 1.341-.18 1.487-.099 1.875.387 1.256.852 1.56.898c.305.04.265.282-.048.298s-.662-.215-1.029-.329.414.305-.039.241-1.231-.541-1.787-.435.654.768 1.037.761c.391-.008.277.714-.074.48s-1.182-.349-1.182-.349-.114-.263-.578-.268 1.513 1.2 1.513 1.2.446.621.13.641z" fill="url(#G)" class="B C D"/><path d="M5.8 64.248c.362-.05 1.26-1.564 1.705-1.641s.981-1.087 1.428-1.162 1.335-.684 1.681-.535-.548.437-.843.722-1.524 1.389-.972 1.344 1.245-.912 1.615-1.161c.376-.247-.377 1.048.09.682s1.064-1.112 1.488-1.248-.939 1.64-.202 1.36.674-.668 1.18-.828-.17-1.11.358-1.213 1.047-.462 1.271-.144-.825 1.231-.36 1.212c.471-.018 1.537-1.132 2.018-1.35s-1.164 1.34-.371.959 1.463-1.304 2.05-1.037 1.683-.533 1.614-.705-1.208-.393-1.475-.568c-.258-.177-.189-.005-.862.209s-1.166.175-1.536-.032-1.524.225-1.524.225.069.172-.244.336-1.195-.137-1.678.078-1.153-.023-1.4-.398-1.869-.378-1.751-.092.763.47.665.695-1.522-.228-1.726-.035 1.066.052.776.272-.589.188-.589.188-1.078.148-1.572.109-1.716.22-2.056.782-1.258 1.109-1.594 1.217-.244.334.117.286.713-.355 1.11-.546-.411.39.095.23 1.289-.798 1.949-.813-.583.896-1.029.973-.161.763.189.459 1.276-.601 1.276-.601.074-.282.602-.385-1.477 1.503-1.477 1.503-.378.705-.019.656z" fill="url(#H)" class="B C D"/><path d="M7.58 53.6c.289.036 1.21-1.817 1.57-1.793s.921-1.231 1.281-1.211c.358.026 1.145-.563 1.395-.253s-.489.447-.764.76-1.392 1.497-.954 1.593 1.103-.911 1.433-1.148-.447 1.353-.029.979.994-1.244 1.342-1.308-.971 2.013-.353 1.837.626-.735 1.043-.811.028-1.601.455-1.589.886-.34 1.018.168-.825 1.481-.458 1.59 1.364-1.136 1.773-1.299-1.105 1.531-.427 1.229 1.332-1.395 1.753-.852 1.394-.253 1.364-.514-.89-.901-1.068-1.224-.151-.061-.71.042-.936-.095-1.197-.491-1.226-.129-1.226-.129.032.258-.238.398-.917-.541-1.324-.379-.899-.368-1.039-.963-1.408-1.071-1.357-.637.53.877.421 1.164-1.157-.763-1.346-.552.828.38.569.607-.488.088-.488.088-.865-.108-1.247-.305-1.374-.193-1.721.492-1.145 1.185-1.423 1.236-.238.398.051.433.608-.287.945-.438-.378.424.041.347 1.124-.737 1.644-.567-.586 1.082-.947 1.06-.235 1.018.083.694 1.086-.465 1.086-.465.096-.372.525-.362-1.371 1.669-1.371 1.669-.398.873-.108.909z" fill="url(#I)" class="B C D"/></g><g stroke="#503934"><g fill="url(#C)"><path d="M4.563 51.803c-.315.384 4.871 4.181 5.861 5.182s6.212 3.588 6.212 3.588l.032-1.071-6.122-3.182c-1.095-.87-5.664-4.901-5.983-4.518z" class="B C D"/><path d="M.358 63.634c-.204.414 6.648-.679 8.053-.734s7.866-1.855 7.866-1.855l-.34-.626-7.63 2.03-7.949 1.184z" class="B C D"/></g><path d="M29.812 64.073c.091.377-5.127-.878-6.224-.984s-5.898-1.974-5.898-1.974l.375-.544 5.679 2.119c1.124.234 5.976 1.006 6.067 1.383z" fill="url(#J)" class="B C D"/></g><g class="H"><path d="M17.43 23.959s.482-1.344.895-1.344H19.7c.413 0 1.306-1.343 1.718-1.55s1.72-1.344 2.134-1.653.962-1.346 1.032-.828-1.653 1.86-1.102 2.066 1.374.209 1.787 0 .826-.205.964.518 0 1.655 0 1.655-.62-.414-.894-.827-1.307-.413-1.511 0 .274.724.136 1.136-.481.206-.894 0-.344.827-.621 1.035-.479-.104-.479-1.035-.62-.517-.823-.412-.344.412-.344.412-.14.931.409 1.138.62-.311.552.206-.276.724-.618.62-.207 1.138-.552 1.138-.137-1.241-.207-1.655-.342-.62-.686-.62-1.123.008-1.466-.404-.453 2.266-.453 2.266l-.355-1.865z" class="B C D E"/><path d="M10.393 30.617c.257.103 1.283-1.86 1.602-1.758s.96-1.24 1.28-1.137 1.089-.412 1.28 0-.486.419-.767.723-1.41 1.448-1.025 1.655 1.089-.827 1.41-1.034-.544 1.484-.13 1.137 1.025-1.239 1.346-1.239-1.085 2.142-.514 2.066.641-.722 1.028-.722c.382 0 .189-1.861.576-1.757s.831-.209.896.413-.896 1.549-.578 1.756 1.348-1.034 1.729-1.136-1.151 1.55-.51 1.343 1.345-1.343 1.664-.62 1.281 0 1.281-.31-.704-1.241-.834-1.656-.127-.103-.641-.103-.832-.31-1.024-.827-1.087-.414-1.087-.414 0 .312-.257.414-.768-.825-1.153-.722-.768-.621-.833-1.344-1.153-1.552-1.153-1.035.385 1.137.258 1.447-.962-1.136-1.154-.93.707.62.448.828-.448 0-.448 0-.768-.309-1.087-.62-1.217-.517-1.602.207-1.153 1.137-1.408 1.137-.256.414 0 .517.575-.206.898-.31c.316-.104-.387.413 0 .413s1.087-.62 1.537-.308-.641 1.135-.963 1.032-.318 1.137 0 .828 1.026-.312 1.026-.312.129-.414.514-.308c.383.101-1.408 1.652-1.408 1.652s-.451.931-.196 1.034z" fill="url(#L)" class="B C D"/><path d="M19.649 15.641s-.192-1.103-.489-1.238l-.976-.448c-.289-.137-.778-1.373-1.048-1.652s-1.074-1.511-1.331-1.862-.536-1.262-.644-.921.968 1.85.555 1.816-.997-.302-1.267-.581-.565-.414-.742.049-.179 1.166-.179 1.166.484-.09.724-.29.971.135 1.073.492-.273.422-.222.757.321.304.634.291.155.695.328.933.353.082.455-.572.494-.163.631-.023.197.403.197.403-.003.7-.416.668-.406-.421-.412-.035.117.602.371.641.022.869.268.981.233-.832.324-1.098.311-.326.556-.214.794.371 1.084.191.074 1.746.074 1.746l.451-1.199z" class="B C D I"/><path d="M10.886 31.819c-.129.827-.257.103-.32-.517s.191-1.344.64-1.344.962-.828.832-1.448-.321.103-.832 0-.321.103-.705.414-.062.517-.45 1.034c-.382.516-.446-.414-.255-.931s1.089-.929.576-1.032-.576.618-.895.515-.32-.724-.063-.929.383.205.447-.206c.065-.416-.512-.209-.383-.519s.704-.31.962.103.574.518.51-.103-.577-.931-.898-1.342c-.318-.416 0-.621.195-.621s.767 1.756 1.153 1.756.448.414.703.104-.703-.62-.642-.931c.066-.308.387-.103.515 0s1.409.827 1.603 1.034c.188.207.702.207.959.413s1.92 1.139 2.627 1.45 2.24.515 2.24.515l.127 1.344s-.832.517-1.151.517-.832.103-.896.931-1.153 1.136-1.026 1.757-.384-.207-.515-.725c-.125-.517.195-1.239.578-1.239s.898-1.345.642-1.552-.323.311-.771.415-.83.69-.897 1.207-.127 1.273-.641 1.374c-.51.107-.318-.618-.446-1.032s.129-.929.514-1.446.448-1.139 0-1.242-.448-.103-.514.414-.193.516-.575.725 0-.518.191-.932 1.087-1.138.831-1.344-.51-.31-.766-.207-.192 1.138-.511 1.138-.708-.726-1.09.31c-.385 1.03-1.473 1.337-1.601 2.166z" class="B C D G"/><path d="M23.044 12.325c.222.401.183-.054.124-.427s-.347-.657-.642-.459-.766-.031-.785-.43.228-.085.546-.369.227-.083.53-.083.13.258.466.375.227-.427.013-.628-.867-.034-.548-.316.48.088.673-.112.091-.54-.112-.541-.217.284-.328.085.302-.341.167-.455-.514.137-.613.481-.292.539-.354.17.223-.77.368-1.14c.137-.369-.104-.344-.231-.256s-.212 1.308-.468 1.479c-.247.17-.223.425-.443.367s.362-.654.269-.796-.269.112-.337.225-.785 1.079-.878 1.278-.427.425-.561.652-1.073 1.477-1.482 1.958-1.384 1.275-1.384 1.275l.14.798s.629-.082.84-.223.562-.311.739.119.947.12.963.517c.023.401.218-.282.218-.623s-.331-.601-.582-.433-.811-.345-.676-.573.26.031.572-.109.659.015.786.272.295.646.647.478.108-.485.124-.77-.238-.456-.575-.572-.481-.432-.205-.687.277-.253.404.003.213.201.498.147-.086-.286-.28-.432-.902-.146-.77-.373.286-.398.468-.452c.189-.058.316.543.527.399s.341-.709.764-.307 1.189.093 1.409.492z" class="B C D F"/><path d="M13.908 57.324c-.811.654-1.695 1.899-2.808 2.331s.178-1.537-1.219-.544-2.648 1.138-3.807 1.472-2.851-1.153-3.913-.631-2.328-.112-1.996-.582 1.394.137 2.965-.131S.025 57.956.769 57.554 4.033 58.776 5 59.192s2.569-.541 2.569-.541-.048-.096.727-.056 2.598-.103 3.202-.789 3.216-1.132 2.41-.479z" fill="url(#P)" class="B C D"/><path d="M5.396 64.847l1.531.517s1.175 1.964 1.645 1.344 2.117-.31 1.765-.724 1.06-.413.825-.826-.473-.517-1.296-.621-1.294-1.446-.353-1.137 1.413-1.139 1.649-.207 1.056 1.137 1.294 1.758 1.058-1.241 1.88-1.034.119-.827.707-.931.589.931.944 1.241 1.646-1.551 2.233-1.446.003-.932.59-1.346-.471-.62-.471-.62l-.586.62s-.708.31-1.181 0 .593.827 0 .724c-.586-.103-1.53-.724-1.999-.929s-.353.929-.823.722-1.177-.722-1.648-.62 2.236 1.344 1.413 1.449-2.235-.725-2.59-1.036-.941.414-1.53 0-1.646-.205-2.356 0c-.704.207 1.885.622 1.416.932s-.825.93-1.65.31-2.116-.725-2.94-.827-.119 1.242-.941.518-2.118-.62-2.707-1.035.471 1.242-.119.829 1.649.31 1.532.722-1.883.31-1.413.62 2 .724 2 .724l1.294.621 1.885-.311z" class="B C D G"/><path d="M25.32 29.056l-.489 1.095s.285 2.349-.197 1.934c-.477-.413-1.106.529-1.117-.006s-.666.017-.731-.472-.002-.683.337-1.105-.009-1.895-.318-1.229c-.303.668-1.13-.544-.846.445s-.011 1.506.142 2.196-1.012-.78-1.306-.26-.404-.749-.717-.619.122 1.124.087 1.561-1.415-.849-1.643-.519-.391-.895-.84-1.063-.041-.78-.041-.78l.533.366s.455.024.542-.46.079 1.026.308.696.401-1.293.53-1.674.556.756.685.372.242-1.154.503-1.239-.468 2.166-.044 1.945.729-1.571.76-2.006.61.031.708-.597.673-.843 1.089-.921-.608 1.332-.261 1.446.771.573.894-.344.673-1.523 1.01-1.945.576 1.148.65.131.718-1.425.819-2.051.302 1.376.401.747-.629.942-.399 1.294.999-.437.91.047-.618 1.475-.618 1.475l-.337 1.103-1.001.434z" fill="url(#Q)" class="B C D"/><g class="E"><path d="M33.303 49.282c-.464-.103-1.624.724-2.322 1.138s-1.289.515-1.137-.106.75-1.65 1.372-1.032c.616.621 1.315-.721 1.933-1.035.62-.308 1.161-3.617.541-2.79s-1.16.929-1.392 1.551-.466.724-.929.618 1.469-2.066.929-2.169-1.392 1.448-1.856 1.963-1.704 1.243-1.704 1.243 1.161-1.964 1.547-1.964 1.392-2.173 1.162-2.38-1.86 1.758-2.089 2.482-1.702 1.239-2.09 1.861-1.314.308-2.011 1.032-1.935.207-2.246.207.932-.724.466-.828-1.314.931-1.935.828c-.616-.103-2.089.827-2.553 1.032s-1.703-.515-1.703 0 1.394.21 1.317.725 1.624.621 1.779 1.345 1.394 1.239 1.782 1.034-1.551-1.448-1.084-1.345 1.16.621 1.856.621-1.471-1.034-1.161-1.034.695-.519 1.084-.414-.079-.829-.079-.829 1.238.725 1.935 1.45.929 1.342 1.315 1.239-.618-1.137-.541-1.446-.155-1.033-.155-1.033.696.515.853.93.287.69.75.899.721.238 1.109.031-1.086-1.035-1.086-1.035l1.78.209s.464-.414.772.103.543.31.931.724.849-.62 1.469 0 1.78-.517 1.392-.929-1.005-.209-1.471-.106-1.005-.515-1.005-.515.774 0 1.548-.206 1.394-1.959.927-2.063z" class="B C D"/><path d="M4.465 53.179c.476.095 1.533.952 2.175 1.42s1.226.724 1.149.315-.548-1.2-1.24-1.045-1.223-.851-1.803-1.233-.714-2.467-.199-1.785 1.043.917 1.2 1.352.374.569.849.663-1.214-1.674-.66-1.556 1.211 1.291 1.612 1.742 1.547 1.275 1.547 1.275-.918-1.514-1.305-1.643-1.124-1.707-.867-1.751 1.637 1.624 1.782 2.118 1.545 1.273 1.855 1.758 1.275.611 1.88 1.259 1.904.755 2.213.856-.838-.722-.363-.628 1.2.968 1.829 1.113 1.983 1.164 2.421 1.435 1.762.264 1.697.561-1.414-.339-1.4-.016-1.697-.176-1.938.189-1.541.258-1.902.009 1.723-.322 1.245-.417-1.233-.023-1.927-.253 1.591-.111 1.283-.214-.629-.527-1.028-.595.177-.452.177-.452-1.323.011-2.107.199-1.089.468-1.463.281.756-.451.717-.655.282-.546.282-.546-.76.069-.963.259-.37.302-.857.269-.747-.099-1.11-.346 1.208-.239 1.208-.239l-1.801-.466s-.412-.391-.784-.196-.577 0-1.013.111-.773-.636-1.464-.484-1.715-.883-1.278-.993 1.031.212 1.479.424 1.068.031 1.068.031-.773-.253-1.519-.626c-.749-.379-1.149-1.594-.674-1.501z" class="B C D"/></g><path d="M28.05 31.891c-.362.063-1.167.908-1.657 1.364s-.933.683-.872.25.413-1.254.939-1.034.933-.823 1.374-1.192.541-2.608.15-1.914-.795.912-.914 1.368-.284.586-.645.649.922-1.713.5-1.628-.922 1.301-1.227 1.757-1.177 1.255-1.177 1.255.699-1.562.992-1.671.854-1.757.657-1.822-1.247 1.627-1.354 2.147-1.175 1.259-1.411 1.755c-.236.502-.97.562-1.433 1.213s-1.448.668-1.684.756.639-.716.272-.652-.912.954-1.392 1.061-1.509 1.103-1.842 1.361-1.344.148-1.295.474 1.079-.259 1.068.09c-.006.349 1.295-.061 1.48.355s1.175.396 1.451.157-1.315-.481-.952-.546.944.068 1.469-.126c.531-.193-1.212-.243-.976-.329s.48-.52.785-.562-.138-.501-.138-.501 1.009.114 1.607.377.834.59 1.118.416-.58-.543-.552-.763-.214-.61-.214-.61.577.134.735.352.283.357.653.359.572-.049.845-.287-.918-.353-.918-.353l1.368-.362s.316-.391.602-.153c.285.244.438.047.772.201s.59-.628 1.118-.409 1.306-.82.97-.975-.782.151-1.128.344-.812-.047-.812-.047.587-.215 1.159-.56c.567-.35.868-1.63.508-1.566z" fill="url(#R)" class="B C D"/><g class="E"><path d="M17.481 43.396s.567-.722 1.137-.414.241-.103.649-.308 0 0 .407.205.974.103 1.461.205 0-1.136.484-1.136.813-.931 1.382-.828.893.209 1.137.103-.244-.515 0-.722.405-.207.726-.207c.329 0-.24.519.085.62s.73-.206.73.104-.815-.104-.73.414.569.517.569.517.162 0 .243.31-.243.518-.649.415.082.411-.163.515-.45-.171-.45-.171l-.266-.103s-.585-.864-.828-.657 1.382 1.24.975 1.344-.649.414-1.297.206-1.543-.413-1.948-.31.81 1.138.323.929-.976-.722-1.299-.62 1.219.828.652 1.034-1.462.207-1.787 0l-.813-.517h-.891l.162-.927z" class="B C D"/><path d="M17.591 24.528s.363-.801.722-.459.156-.116.416-.341 0 0 .257.226.62.116.931.23 0-1.258.308-1.258.518-1.032.878-.917.57.23.724.114-.154-.572 0-.802.259-.228.466-.228-.156.572.052.686.464-.228.464.114-.515-.114-.464.459.362.574.362.574.101 0 .155.344-.155.574-.414.459.053.455-.103.571-.286-.189-.286-.189l-.17-.112s-.37-.957-.525-.729.877 1.374.62 1.489-.414.459-.827.23-.981-.458-1.24-.344.515 1.26.207 1.031-.621-.802-.826-.687.772.917.411 1.146-.928.23-1.135 0l-.515-.573h-.57l.102-1.03z" class="B C D"/></g><path d="M21.441 27.737s-.36-.803-.719-.459-.154-.114-.411-.343 0 0-.259.229-.618.114-.925.23 0-1.26-.31-1.26-.516-1.03-.877-.915-.565.23-.72.114.154-.574 0-.803-.256-.228-.462-.228.154.572-.052.688-.463-.23-.463.114.515-.114.463.459-.361.572-.361.572-.103 0-.155.344.155.572.413.458-.053.457.103.573.285-.189.285-.189l.168-.112s.37-.957.523-.729-.874 1.374-.616 1.489.411.459.825.23.976-.458 1.235-.344-.518 1.26-.207 1.031.616-.801.823-.687-.776.917-.412 1.145.926.23 1.133 0l.515-.572h.565l-.103-1.028z" class="B C D I"/><g class="G"><path d="M25.131 40.395c.488.31 1.137 1.136 1.705 1.136s-.407-1.345.406-.929 1.379.103 1.948 0 .976-2.068 1.542-1.964.973-.933.731-1.241-.571.62-1.297.928c-.732.313 1.055-2.271.647-2.376s-1.136 2.274-1.459 2.998-1.219.417-1.219.417 0-.107-.323.205-1.137.827-1.544.412-1.621.106-1.135.418z" class="B C D"/><path d="M24.721 61.671c.378.595.642 1.737 1.288 2.127s.305-1.41.992-.504 1.506 1.034 2.214 1.337 2.285-1.073 2.872-.594 1.639-.114 1.539-.544-.999.133-2.005-.108 2.496-1.193 2.093-1.557-2.589 1.135-3.37 1.521-1.62-.486-1.62-.486.059-.088-.488-.05-1.762-.083-1.988-.711c-.218-.624-1.898-1.024-1.525-.43z" class="B C D"/></g><g class="F"><path d="M11.406 45.732c-.624.339-1.457 1.242-2.186 1.242s.52-1.469-.518-1.016-1.769.113-2.499 0-1.251-2.259-1.978-2.147-1.247-1.017-.936-1.355.727.677 1.665 1.016-1.352-2.484-.832-2.597 1.456 2.483 1.872 3.274 1.561.451 1.561.451 0-.112.419.226 1.455.904 1.975.453 2.081.111 1.457.451z" class="B C D"/><path d="M12.094 46.068c-.405.682-.765 1.984-1.397 2.437s-.136-1.596-.857-.557-1.488 1.2-2.164 1.556-1.985-1.18-2.571-.629-1.488-.104-1.354-.591.901.132 1.85-.157-2.166-1.31-1.761-1.733 2.254 1.246 2.933 1.671 1.535-.579 1.535-.579-.047-.099.45-.065 1.624-.122 1.894-.838 1.85-1.199 1.441-.517z" class="B C D"/><path d="M33.123 39.674c.072.722-1.026 3.929-1.684 4.032s-1.095.931-1.463.517-.514 1.344-1.098 1.551-.222 1.653-.88 2.17-1.315-1.034-1.315-1.034l-.66-.929s-1.026-.723-1.169 0-.367 2.893-.882 2.17-.802-.207-1.314-.311-.296.932-.588 1.242-1.244-.518-1.535-.518-.588-.207-.882.415-1.462.413-1.462.413l-.438-1.344s1.463-.929 1.828-.722 1.243 1.344 1.611.929-.146-.827-.367-1.032-.657-1.345-.29-1.448 1.096-.725 1.096-.207.808.929 1.099.414 1.242-1.139 1.242-1.139.44-.517.805-.517 1.1-.103 1.394.103 2.269-1.135 2.269-1.653-.222-1.551.29-1.551 1.098.828 1.538.106.586.103 1.026 0 .437-1.861.73-1.45c.287.412 1.02-.933 1.096-.208z" class="B C D"/></g><path d="M10.067 20.877c.195.53 1.691 2.398 2.015 2.245s.784.275.818-.137.647.764.976.706.616 1.084 1.073 1.221.264-1.174.264-1.174l.002-.874s.235-.858.527-.401 1.069 1.9 1.073 1.217.296-.417.492-.668c.197-.245.422.553.652.668s.393-.786.525-.885.197-.345.523-.011.783-.21.783-.21l-.222-1.088s-.95-.153-1.048.116-.136 1.367-.427 1.201-.196-.628-.162-.848-.127-1.164-.321-1.111-.717-.133-.557.229-.067.924-.36.665-.917-.371-.917-.371-.357-.213-.517-.089-.527.304-.593.548-1.371-.019-1.53-.382c-.164-.361-.389-1.159-.617-.983s-.232.952-.656.596-.23.273-.459.349-.779-1.153-.781-.763c-.008.389-.753-.299-.56.232z" fill="url(#S)" class="B C D"/><path d="M29.69 33.876c.064.556-.874 3.013-1.437 3.091s-.936.714-1.251.396c-.31-.316-.437 1.031-.938 1.19s-.186 1.268-.75 1.664-1.124-.792-1.124-.792l-.563-.714s-.874-.554-.999 0-.313 2.22-.75 1.666-.688-.16-1.126-.24-.25.714-.499.952-1.064-.396-1.312-.396-.501-.159-.751.316-1.249.318-1.249.318l-.377-1.031s1.252-.713 1.564-.556 1.061 1.032 1.374.714-.124-.634-.313-.793-.562-1.031-.248-1.11.935-.556.935-.159.69.713.941.316 1.061-.87 1.061-.87.374-.397.687-.397.938-.08 1.188.079 1.938-.873 1.938-1.268-.189-1.19.249-1.19.938.634 1.313.08.499.08.874 0 .374-1.428.628-1.11c.245.313.871-.718.933-.162z" class="B C D E"/><path d="M5.259 38.933c-.133.353.704 2.278 1.361 2.503s1.026.76 1.43.642.403.822.978 1.079.078.904.701 1.338 1.415-.189 1.415-.189l.743-.307s1.094-.106 1.182.303.122 1.577.702 1.34.828.103 1.353.18.215.554.485.787 1.298.057 1.594.133.605.044.853.438c.24.396 1.438.593 1.438.593l.556-.577s-1.397-.856-1.784-.843-1.367.366-1.702.06.217-.386.455-.434.779-.521.419-.666-1.048-.657-1.088-.39c-.045.265-.891.27-1.142-.073s-1.161-.904-1.161-.904-.398-.379-.768-.474-1.098-.337-1.41-.305-2.193-1.17-2.151-1.436.354-.737-.164-.87c-.514-.131-1.175.14-1.557-.343s-.598-.098-1.033-.265-.284-1.068-.615-.931-.954-.743-1.091-.392z" class="B C D F"/><path d="M24.161 11.202c.027.555-.41 3.012-.671 3.092s-.437.713-.583.395-.205 1.031-.437 1.19-.087 1.267-.351 1.665-.523-.793-.523-.793l-.264-.713s-.406-.555-.464 0-.147 2.22-.351 1.665-.32-.159-.525-.238-.117.713-.235.952-.493-.396-.612-.396-.232-.159-.346.316-.585.318-.585.318l-.175-1.031s.582-.713.727-.556.497 1.029.644.713-.059-.634-.147-.793-.263-1.031-.119-1.11.437-.554.437-.159.323.715.44.318.495-.871.495-.871.175-.397.323-.397.433-.08.552.081.903-.874.903-1.271-.085-1.189.117-1.189.437.634.611.08.233.08.408 0 .177-1.426.293-1.111.409-.711.439-.155z" class="B C D I"/><path d="M12.048 16.117c.003.574.665 2.993.963 3.015s.543.634.687.279.299 1.008.573 1.119.184 1.279.506 1.627.541-.926.541-.926l.247-.787s.424-.657.525-.103.315 2.238.507 1.625.352-.231.578-.358.178.705.326.924.533-.515.665-.541.252-.213.416.248.679.197.679.197l.129-1.094s-.705-.602-.859-.408-.489 1.164-.677.872.025-.662.113-.844.226-1.111.056-1.161-.53-.472-.504-.066-.313.798-.471.419-.62-.784-.62-.784-.223-.364-.387-.334-.499.015-.621.203-1.079-.694-1.104-1.1.017-1.235-.214-1.192-.448.747-.684.218-.257.13-.46.088-.295-1.421-.405-1.071-.506-.639-.503-.064z" class="B C D G"/><g class="E"><path d="M8.179 45.374c.003.603.991 3.122 1.446 3.143s.821.657 1.041.282.45 1.053.864 1.166.271 1.334.761 1.695.822-.973.822-.973l.38-.827s.647-.69.8-.114.465 2.338.76 1.695.536-.244.878-.379.269.735.493.96.809-.543 1.01-.571.384-.226.632.253 1.029.197 1.029.197l.201-1.143s-1.068-.62-1.304-.416-.75 1.22-1.03.917.04-.692.175-.883.35-1.163.091-1.212-.802-.487-.765-.065-.481.839-.718.443-.934-.811-.934-.811-.337-.382-.588-.345-.756.019-.942.218-1.634-.714-1.67-1.138.032-1.293-.318-1.243-.686.784-1.04.233-.394.143-.702.098-.435-1.482-.605-1.114-.768-.663-.765-.064z" class="B C D"/><path d="M8.304 36.863c.01.639.962 3.338 1.387 3.367s.774.715.976.321.432 1.126.82 1.255.268 1.424.73 1.816.756-1.02.756-1.02l.347-.874s.594-.722.743-.103.464 2.492.732 1.816.496-.253.815-.39.261.787.47 1.031.753-.561.938-.589.357-.233.593.282.965.23.965.23l.172-1.213s-1.003-.68-1.221-.467-.686 1.284-.951.957.029-.735.151-.937.313-1.232.072-1.288-.756-.533-.714-.082-.44.883-.667.459-.881-.882-.881-.882-.323-.411-.556-.379-.707.01-.877.215-1.535-.79-1.575-1.24.017-1.373-.308-1.327-.635.822-.971.23-.365.142-.651.092c-.291-.052-.429-1.583-.582-1.196s-.725-.723-.716-.085z" class="B C D"/><path d="M8.86 37.966c.277.101 1.389-1.861 1.738-1.76s1.04-1.239 1.386-1.136 1.183-.413 1.392 0-.53.419-.833.724-1.53 1.448-1.112 1.653 1.182-.825 1.53-1.034-.592 1.485-.139 1.138 1.111-1.241 1.458-1.241-1.177 2.144-.554 2.067.694-.723 1.111-.723.205-1.86.624-1.758.904-.206.973.414-.973 1.552-.626 1.757 1.459-1.033 1.877-1.137-1.251 1.552-.557 1.344 1.46-1.344 1.806-.62 1.39 0 1.39-.308-.764-1.241-.905-1.655-.137-.104-.692-.104-.904-.308-1.111-.826-1.182-.416-1.182-.416 0 .311-.277.416-.836-.827-1.252-.724-.833-.62-.904-1.344-1.253-1.553-1.253-1.035.419 1.137.281 1.447-1.046-1.136-1.251-.929c-.212.206.764.62.487.825s-.487 0-.487 0-.833-.308-1.18-.62-1.322-.517-1.738.207-1.253 1.136-1.529 1.136-.279.414 0 .517.626-.206.973-.308-.416.411 0 .411 1.182-.62 1.666-.308-.695 1.136-1.04 1.033-.349 1.138 0 .827 1.111-.31 1.111-.31.137-.414.556-.308-1.53 1.652-1.53 1.652-.488.939-.21 1.043z" class="B C D"/></g><path d="M12.665 16.143c.141.177 1.092-.836 1.275-.633s.795-.512.978-.308.74.141.794.52-.371.106-.594.215-1.105.482-.9.787.807-.16 1.039-.183-.577.861-.264.776.836-.486 1.033-.358-1.017 1.119-.649 1.296.51-.267.75-.111.421-1.275.641-1.044.549.184.488.662-.805.764-.64 1.044 1.002-.207 1.254-.125c.257.077-.964.662-.533.768s1.049-.43 1.131.224.793.519.843.294-.235-1.188-.247-1.543-.062-.125-.38-.332-.466-.561-.499-1.016-.611-.742-.611-.742-.049.228-.225.198-.342-.913-.595-.994-.376-.761-.299-1.314-.464-1.596-.547-1.218.052.983-.076 1.157-.409-1.217-.563-1.145.339.737.142.783c-.191.047-.276-.181-.276-.181s-.427-.536-.575-.893-.669-.869-1.024-.497-.898.36-1.055.257-.226.199-.085.375.391.083.607.138-.307.144-.067.302.773-.013 1.001.395-.577.569-.761.363-.382.696-.133.6.682.191.682.191.148-.248.368-.019-1.139.634-1.139.634-.427.494-.285.674z" fill="url(#T)" class="B C D"/><g class="E"><path d="M22.649 9.858c-.125.125-.911-1.165-1.07-1.027s-.662-.758-.821-.616-.634-.108-.688.242.31.223.499.402.926.828.748 1.058c-.184.229-.685-.421-.883-.517s.469 1.019.205.836-.696-.743-.87-.683.836 1.413.522 1.466-.43-.426-.636-.354-.324-1.37-.52-1.221-.471.002-.432.482.664 1.004.518 1.221-.845-.528-1.063-.531.801.954.435.919-.88-.761-.968-.154-.687.241-.725.01.23-1.074.251-1.41.057-.103.331-.199.411-.391.454-.82.533-.519.533-.519.035.233.186.264.315-.771.533-.766.337-.615.287-1.174.435-1.392.497-1.001-.073.934.035 1.145.379-1.044.508-.924-.304.603-.143.712.239-.085.239-.085.377-.381.514-.676.59-.621.883-.145.755.641.891.593.187.263.062.392-.334-.05-.519-.066.256.239.049.311-.658-.262-.861.057.479.739.637.601.307.799.098.626-.589-.042-.589-.042-.116-.289-.308-.138.954.984.954.984.352.62.226.747z" class="B C D"/><path d="M27.651 67.371c-.292-.095-.334-1.992-.688-2.129s-.326-1.394-.679-1.531-.838-.952-1.217-.81.267.574.389.946.653 1.809.186 1.699c-.459-.112-.639-1.216-.848-1.55s-.184 1.288-.417.806-.386-1.436-.687-1.64.016 2.047-.494 1.638-.264-.865-.633-1.107c-.361-.244.703-1.306.287-1.482s-.694-.657-1.05-.303.117 1.552-.285 1.48-.786-1.506-1.104-1.814.362 1.713-.15 1.179-.641-1.705-1.289-1.447-1.214-.809-1.066-1.006 1.257-.344 1.573-.525.169.015.658.34.936.327 1.363.118 1.23.427 1.23.427-.145.197.049.424 1.121-.038 1.437.269 1.026.091 1.428-.328 1.832-.257 1.585.072-.903.477-.929.756 1.453-.116 1.536.138-.963-.052-.815.243.425.284.425.284.875.287 1.327.292 1.402.442 1.424 1.144.552 1.45.8 1.612.046.426-.247.328-.448-.497-.701-.761c-.259-.27.167.504-.198.261s-.742-1.081-1.311-1.169c-.575-.085.069 1.127.419 1.265.356.135-.233.924-.392.525s-.825-.846-.825-.846.075-.342-.339-.518.554 1.94.554 1.94-.018.874-.31.778z" class="B C D"/></g><path d="M35.386 61.521c-.43.019-1.739-2.246-2.27-2.249s-1.336-1.531-1.868-1.535-1.679-.76-2.062-.417.716.568 1.112.962 2.016 1.882 1.364 1.96-1.609-1.169-2.093-1.476c-.476-.308.621 1.633.011 1.157s-1.436-1.552-1.949-1.657c-.519-.104 1.374 2.46.464 2.199s-.906-.92-1.524-1.045.016-1.89-.624-1.917-1.304-.474-1.516.116 1.177 1.818.626 1.914-1.991-1.451-2.59-1.679 1.589 1.898.593 1.487-1.933-1.758-2.577-1.153c-.638.607-2.062-.418-2.005-.722s1.35-.99 1.628-1.355.224-.059 1.048.108 1.395-.034 1.795-.479 1.826-.051 1.826-.051-.053.305.339.491c.398.184 1.382-.563 1.984-.337s1.344-.359 1.573-1.05 2.127-1.148 2.036-.637-.815.991-.664 1.338 1.743-.805 2.017-.538-1.24.378-.862.666.721.146.721.146 1.293-.054 1.861-.253 2.051-.111 2.543.726 1.658 1.492 2.073 1.577.338.488-.09.506-.892-.392-1.392-.597.549.535-.07.408-1.648-.963-2.423-.807.833 1.327 1.368 1.331.318 1.221-.143.811-1.598-.637-1.598-.637-.133-.45-.769-.472 1.98 2.085 1.98 2.085.567 1.064.135 1.081z" fill="url(#U)" class="B C D"/><path d="M26.07 17.266c-.191.162-1.234-.341-1.472-.15s-.909-.181-1.149.008-.908.275-1.013.557.435-.01.691.016 1.286.083 1.006.35-.959.075-1.237.116.607.478.234.491-.955-.153-1.21-.013 1.112.562.65.774-.59-.07-.897.098-.37-.815-.662-.597-.683.263-.66.591.89.355.663.595c-.231.238-1.187.089-1.501.205s1.092.245.564.424-1.224-.063-1.392.424-1.014.558-1.05.409.413-.906.465-1.161.088-.103.495-.328.623-.513.713-.843.814-.671.814-.671.034.145.249.083.512-.73.828-.848.536-.634.503-1.01.729-1.251.789-1-.17.714-.033.809.625-.967.802-.951-.483.607-.257.595.354-.197.354-.197.573-.484.79-.771.902-.777 1.291-.596 1.043.045 1.247-.064.251.088.061.248-.482.15-.747.239.355.032.048.199-.933.175-1.251.521.641.269.879.08.389.408.097.398-.845.297-.845.297-.151-.142-.443.073 1.31.186 1.31.186.46.256.272.416z" class="B C D F"/><path d="M13.956 55.122l.807.44s.723 1.899.92 1.257 1.058-.413.853-.807.514-.466.367-.865-.269-.493-.695-.556-.748-1.377-.252-1.115.649-1.204.826-.288.608 1.082.765 1.688.461-1.288.893-1.123.008-.832.3-.963.358.9.557 1.19.737-1.626 1.042-1.553-.056-.928.217-1.37-.278-.594-.278-.594l-.259.647s-.341.343-.6.057.352.795.048.721-.823-.645-1.075-.828-.122.946-.375.763-.642-.663-.875-.536 1.219 1.229.81 1.373-1.182-.612-1.382-.902-.451.457-.776.074-.851-.122-1.198.117.999.527.779.859-.36.968-.818.39-1.122-.616-1.546-.679.016 1.242-.446.561-1.113-.514-1.439-.895.316 1.212-.009.828.857.228.823.647-.936.403-.678.687 1.06.624 1.06.624l.697.553.935-.403z" fill="url(#V)" class="B C D"/><path d="M20.039.215c.321.405.321 1.294-.054.89s-.644.161-.644.161.804.322.644.565-.484-.162-.859.162-.753 1.614-.43 1.291 1.13 0 1.344 0 .053.403.27.403.589-.403.804-.403.269.646-.053.646-.916.08-1.076.483-.484 0-.644-.16-.32.404-.646.404-.538.483-.323.646.807.08 1.291-.162 2.579.565 2.041.808-1.179.646-1.344.241c-.158-.402-.859-.402-1.019-.241s-.376.887-.806.807-.321.163-.535.243-.378 1.211-.163 1.211 1.128-1.211 1.128-.808-.967 2.018-1.128 1.776-.859-.647-.699-.888.699-.566.484-.726-.429.483-.751.403-.321-.243-.538-.484-.699.161-.699.161l-.698-.323s-.485.323-.697.162-.054-1.05.429-.889-.217-.321.053-.404.594-.081.913-.081.538.485.808.485-.055-.404.108-.645-.647 0-.538-.404-.484.081-.806 0-.485-.727-.324-.727.539-.485.164-.646-.378-1.615-.109-1.291.484-.243.698 0 .268 1.291.484 1.291.646-.565.269-.565-.536-.888-.269-1.051-.376 0-.429-.24.108-.565.375-.647.914.403 1.129.727.375-.403.538-.727.054.242.427.242.271-1.371.646-1.611c.38-.244.916-.487 1.239-.084z" class="B C D F"/><path d="M16.567 6.541c-.103-.517.62-2.791 1.448-2.893s1.552-1.345 2.171-1.137.827.62.827.931-.518.206-1.239.206.825 1.137.205 1.447-.62-.414-1.344.207-.414 1.756-.828 2.171c-.409.414-1.135-.415-1.238-.932z" fill="url(#W)" class="B C D"/><path d="M20.484 45.652c-.453-.283-2.898-.104-3.319.866s-1.883 1.467-1.927 2.28.266 1.193.562 1.286.398-.561.68-1.438.76 1.35 1.297.695-.152-.878.72-1.563 1.835.036 2.387-.337.052-1.505-.4-1.787z" fill="url(#X)" class="B C D"/><path d="M19.901 51.484c.448-.206 2.661.371 2.924 1.395s1.534 1.749 1.471 2.56-.396 1.129-.677 1.174-.293-.618-.44-1.528-.866 1.205-1.273.473.252-.84-.459-1.658-1.681-.262-2.141-.722.15-1.486.597-1.693z" fill="url(#Y)" class="B C D"/></g></symbol></svg>